<svg width="7" height="8" viewBox="0 0 7 8" fill="none" xmlns="http://www.w3.org/2000/svg">
<path d="M5.5 2.5V2C5.5 0.897187 4.6028 0 3.5 0C2.39719 0 1.5 0.897187 1.5 2V2.5H0V6.75C0 7.44036 0.559641 8 1.25 8H5.75C6.44036 8 7 7.44036 7 6.75V2.5H5.5ZM2.5 2C2.5 1.44859 2.94859 1 3.5 1C4.05141 1 4.5 1.44859 4.5 2V2.5H2.5V2ZM5 3.875C4.79289 3.875 4.625 3.70711 4.625 3.5C4.625 3.29289 4.79289 3.125 5 3.125C5.20711 3.125 5.375 3.29289 5.375 3.5C5.375 3.70711 5.20711 3.875 5 3.875ZM2 3.875C1.79289 3.875 1.625 3.70711 1.625 3.5C1.625 3.29289 1.79289 3.125 2 3.125C2.20711 3.125 2.375 3.29289 2.375 3.5C2.375 3.70711 2.20711 3.875 2 3.875Z" fill="white"/>
</svg>
