<svg width="7" height="7" viewBox="0 0 7 7" fill="none" xmlns="http://www.w3.org/2000/svg">
<path d="M6.25 7H0.75C0.335938 7 0 6.66406 0 6.25V0.75C0 0.335938 0.335938 0 0.75 0H6.25C6.66406 0 7 0.335938 7 0.75V6.25C7 6.66406 6.66406 7 6.25 7ZM3.72031 2.27969L1.6 4.4L1.50156 5.29219C1.48906 5.41094 1.58906 5.5125 1.70938 5.5L2.60156 5.40156L4.72188 3.28125C4.75781 3.24531 4.75781 3.18594 4.72188 3.14844L3.85469 2.28125C3.81562 2.24375 3.75625 2.24375 3.72031 2.27969ZM5.39062 2.07969L4.92031 1.60938C4.77344 1.4625 4.53594 1.4625 4.39062 1.60938L4.02969 1.97031C3.99375 2.00625 3.99375 2.06563 4.02969 2.10313L4.89687 2.97031C4.93281 3.00625 4.99219 3.00625 5.02969 2.97031L5.39062 2.60938C5.53594 2.46406 5.53594 2.22656 5.39062 2.07969Z" fill="white"/>
</svg>
