<svg width="7" height="10" viewBox="0 0 7 10" fill="none" xmlns="http://www.w3.org/2000/svg">
<path d="M3.49998 4.89369C4.52323 4.89369 5.35281 4.01207 5.35281 2.92452C5.35281 1.83695 5.08045 0.955322 3.49998 0.955322C1.91951 0.955322 1.64709 1.83695 1.64709 2.92452C1.64709 4.01207 2.47668 4.89369 3.49998 4.89369Z" fill="white"/>
<path d="M0.000365202 7.90038C4.89277e-05 7.83407 -0.000267346 7.8817 0.000365202 7.90038V7.90038Z" fill="white"/>
<path d="M6.99951 7.9522C7.0005 7.93405 6.99985 7.82625 6.99951 7.9522V7.9522Z" fill="white"/>
<path d="M6.99543 7.82086C6.96111 5.92633 6.67833 5.38649 4.51444 5.04477C4.51444 5.04477 4.20984 5.38439 3.49987 5.38439C2.78991 5.38439 2.48525 5.04477 2.48525 5.04477C0.344971 5.38276 0.0449982 5.91459 0.00555572 7.75931C0.00232144 7.90995 0.000822631 7.91786 0.000244141 7.90038C0.000375616 7.93314 0.000533327 7.99374 0.000533327 8.09942C0.000533327 8.09942 0.515705 9.00815 3.49987 9.00815C6.48399 9.00815 6.99921 8.09942 6.99921 8.09942C6.99921 8.03152 6.99926 7.98431 6.99934 7.95219C6.99876 7.96301 6.99761 7.94204 6.99543 7.82086Z" fill="white"/>
</svg>
