<svg width="31" height="31" viewBox="0 0 31 31" fill="none" xmlns="http://www.w3.org/2000/svg">
<g clip-path="url(#clip0)">
<path d="M19.7758 11.2313C19.3748 11.2313 19.0498 11.5563 19.0498 11.9573V25.6786C19.0498 26.0793 19.3748 26.4046 19.7758 26.4046C20.1768 26.4046 20.5018 26.0793 20.5018 25.6786V11.9573C20.5018 11.5563 20.1768 11.2313 19.7758 11.2313Z" fill="#8EA4F3"/>
<path d="M11.2094 11.2313C10.8084 11.2313 10.4834 11.5563 10.4834 11.9573V25.6786C10.4834 26.0793 10.8084 26.4046 11.2094 26.4046C11.6104 26.4046 11.9354 26.0793 11.9354 25.6786V11.9573C11.9354 11.5563 11.6104 11.2313 11.2094 11.2313Z" fill="#8EA4F3"/>
<path d="M4.96599 9.229V27.1159C4.96599 28.1732 5.35366 29.166 6.03088 29.8784C6.70497 30.5928 7.64309 30.9983 8.62488 31H22.3609C23.343 30.9983 24.2811 30.5928 24.9549 29.8784C25.6321 29.166 26.0198 28.1732 26.0198 27.1159V9.229C27.366 8.87167 28.2383 7.57113 28.0582 6.18975C27.8779 4.80866 26.7013 3.77554 25.3083 3.77526H21.5912V2.86777C21.5955 2.10462 21.2937 1.37183 20.7535 0.832719C20.2133 0.293896 19.4793 -0.00614361 18.7162 9.53895e-05H12.2696C11.5065 -0.00614361 10.7725 0.293896 10.2323 0.832719C9.69204 1.37183 9.3903 2.10462 9.39455 2.86777V3.77526H5.67752C4.28452 3.77554 3.1079 4.80866 2.92754 6.18975C2.74746 7.57113 3.61978 8.87167 4.96599 9.229ZM22.3609 29.548H8.62488C7.38361 29.548 6.41798 28.4817 6.41798 27.1159V9.29281H24.5678V27.1159C24.5678 28.4817 23.6022 29.548 22.3609 29.548ZM10.8465 2.86777C10.8417 2.48974 10.9903 2.12589 11.2586 1.85903C11.5266 1.59218 11.8913 1.44556 12.2696 1.45208H18.7162C19.0945 1.44556 19.4592 1.59218 19.7272 1.85903C19.9955 2.12561 20.1441 2.48974 20.1392 2.86777V3.77526H10.8465V2.86777ZM5.67752 5.22725H25.3083C26.03 5.22725 26.615 5.81229 26.615 6.53403C26.615 7.25577 26.03 7.84082 25.3083 7.84082H5.67752C4.95578 7.84082 4.37073 7.25577 4.37073 6.53403C4.37073 5.81229 4.95578 5.22725 5.67752 5.22725Z" fill="#8EA4F3"/>
<path d="M15.4926 11.2313C15.0916 11.2313 14.7666 11.5563 14.7666 11.9573V25.6786C14.7666 26.0793 15.0916 26.4046 15.4926 26.4046C15.8936 26.4046 16.2186 26.0793 16.2186 25.6786V11.9573C16.2186 11.5563 15.8936 11.2313 15.4926 11.2313Z" fill="#8EA4F3"/>
</g>
<defs>
<clipPath id="clip0">
<rect width="31" height="31" fill="white"/>
</clipPath>
</defs>
</svg>
