<svg width="27" height="31" viewBox="0 0 27 31" fill="none" xmlns="http://www.w3.org/2000/svg">
<path d="M8.5 1.5L8 3.5V4.5H3.5C2.5 4.5 1.5 5.5 1.5 6.5C1.5 7.3 2.83333 8.5 3.5 9V27C3.5 29 5.16667 29.8333 6 30C10.1667 30.1667 18.9 30.4 20.5 30C22.1 29.6 22.8333 28.1667 23 27.5V8.5C23.5 8.33333 24.6 7.7 25 6.5C25.4 5.3 24.5 4.66667 24 4.5L18.5 4V1.5C18.5 0.7 17.1667 0.5 16.5 0.5H10C9.2 0.5 8.66667 1.16667 8.5 1.5Z" fill="#B5BACD"/>
<path fill-rule="evenodd" clip-rule="evenodd" d="M2.96624 9.229V27.1159C2.96624 28.1732 3.3539 29.166 4.03112 29.8784C4.70522 30.5928 5.64333 30.9983 6.62513 31H20.3611C21.3432 30.9983 22.2813 30.5928 22.9551 29.8784C23.6324 29.166 24.02 28.1732 24.02 27.1159V9.229C25.3662 8.87167 26.2386 7.57113 26.0585 6.18975C25.8781 4.80866 24.7015 3.77554 23.3085 3.77526H19.5915V2.86777C19.5957 2.10462 19.294 1.37183 18.7537 0.832719C18.2135 0.293896 17.4796 -0.00614361 16.7164 9.53895e-05H10.2698C9.50669 -0.00614361 8.77276 0.293896 8.23252 0.832719C7.69228 1.37183 7.39054 2.10462 7.39479 2.86777V3.77526H3.67777C2.28477 3.77554 1.10815 4.80866 0.927783 6.18975C0.747703 7.57113 1.62003 8.87167 2.96624 9.229ZM20.3611 29.548H6.62513C5.38385 29.548 4.41822 28.4817 4.41822 27.1159V9.29281H22.568V27.1159C22.568 28.4817 21.6024 29.548 20.3611 29.548ZM8.84678 2.86777C8.84196 2.48974 8.99056 2.12589 9.25884 1.85903C9.52683 1.59218 9.89153 1.44556 10.2698 1.45208H16.7164C17.0947 1.44556 17.4594 1.59218 17.7274 1.85903C17.9957 2.12561 18.1443 2.48974 18.1395 2.86777V3.77526H8.84678V2.86777ZM3.67777 5.22725H23.3085C24.0302 5.22725 24.6153 5.81229 24.6153 6.53403C24.6153 7.25577 24.0302 7.84082 23.3085 7.84082H3.67777C2.95603 7.84082 2.37098 7.25577 2.37098 6.53403C2.37098 5.81229 2.95603 5.22725 3.67777 5.22725ZM8.48373 11.9573C8.48373 11.5563 8.80873 11.2313 9.20973 11.2313C9.61073 11.2313 9.93572 11.5563 9.93572 11.9573V25.6786C9.93572 26.0793 9.61073 26.4046 9.20973 26.4046C8.80873 26.4046 8.48373 26.0793 8.48373 25.6786V11.9573ZM17.0502 11.9573C17.0502 11.5563 17.3752 11.2313 17.7762 11.2313C18.1772 11.2313 18.5022 11.5563 18.5022 11.9573V25.6786C18.5022 26.0793 18.1772 26.4046 17.7762 26.4046C17.3752 26.4046 17.0502 26.0793 17.0502 25.6786V11.9573ZM12.7669 11.9573C12.7669 11.5563 13.0919 11.2313 13.4929 11.2313C13.8939 11.2313 14.2189 11.5563 14.2189 11.9573V25.6786C14.2189 26.0793 13.8939 26.4046 13.4929 26.4046C13.0919 26.4046 12.7669 26.0793 12.7669 25.6786V11.9573Z" fill="#747B94"/>
</svg>
