<svg width="39" height="48" viewBox="0 0 39 48" fill="none" xmlns="http://www.w3.org/2000/svg">
<g filter="url(#filter0_d)">
<path d="M27.2904 18.1905C27.2904 20.2931 26.4064 22.3082 24.9036 23.71C23.9312 24.6737 23.3124 25.9879 23.4008 27.3896V30.3684H15.6216V27.3896C15.6216 25.9879 15.0912 24.7613 14.1188 23.7976C12.4392 22.2206 11.5552 19.9427 11.732 17.5772C12.0856 13.4594 15.6216 10.3054 19.8648 10.4807C24.108 10.6559 27.2904 14.0727 27.2904 18.1905Z" fill="white"/>
<path d="M24.3512 28.8947C25.1274 28.8947 25.8065 29.5749 25.8065 30.3684C25.8065 31.162 25.1274 31.8421 24.3512 31.8421H14.6489C13.8728 31.8421 13.1936 31.162 13.1936 30.3684C13.1936 29.5749 13.8728 28.8947 14.6489 28.8947H24.3512Z" fill="#EB599B"/>
<path d="M23.547 31.8421C24.3564 31.8421 25.0646 32.5223 25.0646 33.3158C25.0646 34.1093 24.3564 34.7895 23.547 34.7895H15.4531C14.6438 34.7895 13.9355 34.1093 13.9355 33.3158C13.9355 32.5223 14.6438 31.8421 15.4531 31.8421H23.547Z" fill="#EB599B"/>
<path d="M16.6807 34.7158H22.3194C22.3194 35.7474 21.5032 36.5579 20.4645 36.5579H18.6097C17.571 36.5579 16.6807 35.7474 16.6807 34.7158Z" fill="#EB599B"/>
<path d="M24.1742 28.6737V27.9368C24.1742 26.6105 24.6936 25.2842 25.7323 24.3263C27.4387 22.7053 28.4033 20.4211 28.4033 17.9895C28.4033 14.0105 25.6581 10.4737 21.8 9.44211C17.942 8.41053 13.7129 10.1789 11.7839 13.6421C9.78068 17.179 10.4484 21.5263 13.4162 24.3263C14.3807 25.2842 14.9 26.5368 14.9 27.8632V28.6C14.0097 28.6 13.1936 29.2632 13.0452 30.1474C12.8968 31.0316 13.4162 31.9158 14.3065 32.2105C13.9355 32.8 13.8613 33.5368 14.2323 34.1263C14.5291 34.7158 15.1968 35.0842 15.8645 35.0842H16.3839C16.6065 36.1895 17.571 36.9263 18.6839 36.9263H20.5387C21.6516 36.9263 22.6162 36.1158 22.8387 35.0842H23.3581C24.0258 35.0842 24.6936 34.7158 24.9904 34.1263C25.2871 33.5368 25.2871 32.8 24.9162 32.2105C25.8065 31.9158 26.3258 31.0316 26.1775 30.1474C25.8807 29.3368 25.0645 28.6737 24.1742 28.6737ZM14.0097 23.6632C12.3033 22.0421 11.4129 19.6842 11.5613 17.3263C11.8581 13.5684 14.8258 10.5474 18.5355 10.1053C21.8742 9.73684 25.1387 11.5053 26.6226 14.5263C28.1065 17.5474 27.4387 21.2316 24.9904 23.5895C23.8033 24.6947 23.2097 26.2421 23.2097 27.8632V28.6H15.7904V27.8632C15.7904 26.3158 15.1226 24.7684 14.0097 23.6632ZM20.4645 36.1158H18.6097C18.0162 36.1158 17.4968 35.7474 17.2742 35.1579H21.8C21.5775 35.7474 21.0581 36.1158 20.4645 36.1158ZM23.2097 34.2H15.7904C15.271 34.2 14.8258 33.7579 14.8258 33.2421C14.8258 32.7263 15.271 32.2842 15.7904 32.2842H23.2839C23.8033 32.2842 24.2484 32.7263 24.2484 33.2421C24.1742 33.8316 23.7291 34.2 23.2097 34.2ZM24.1742 31.4737H14.8258C14.3065 31.4737 13.8613 31.0316 13.8613 30.5158C13.8613 30 14.3065 29.5579 14.8258 29.5579H24.1742C24.6936 29.5579 25.1387 30 25.1387 30.5158C25.1387 31.0316 24.6936 31.4737 24.1742 31.4737Z" fill="#2A2A29"/>
<path d="M18.6838 21.6C18.6838 21.4526 18.6838 21.379 18.758 21.3053C18.8322 21.2316 18.8322 21.0842 18.9064 21.0105C18.9806 20.9369 19.0548 20.8632 19.2032 20.8632C19.2774 20.7895 19.4258 20.7895 19.5 20.7895C19.6484 20.7895 19.7225 20.7895 19.7967 20.8632C19.8709 20.9369 20.0193 20.9369 20.0935 21.0105C20.1677 21.0842 20.2419 21.1579 20.2419 21.3053C20.3161 21.379 20.3161 21.5263 20.3161 21.6C20.3161 21.7474 20.3161 21.8211 20.2419 21.8947C20.1677 21.9684 20.1677 22.1158 20.0935 22.1895C20.0193 22.2632 19.9451 22.3369 19.7967 22.3369C19.6484 22.3369 19.5742 22.4105 19.5 22.4105C19.3516 22.4105 19.2774 22.4105 19.2032 22.3369C19.129 22.2632 18.9806 22.2632 18.9064 22.1895C18.8322 22.1158 18.758 22.0421 18.758 21.8947C18.6838 21.8211 18.6838 21.7474 18.6838 21.6ZM18.758 20.0526V15.0421H20.1677V20.0526H18.758Z" fill="#2A2A29"/>
</g>
<defs>
<filter id="filter0_d" x="-2" y="0" width="43" height="48" filterUnits="userSpaceOnUse" color-interpolation-filters="sRGB">
<feFlood flood-opacity="0" result="BackgroundImageFix"/>
<feColorMatrix in="SourceAlpha" type="matrix" values="0 0 0 0 0 0 0 0 0 0 0 0 0 0 0 0 0 0 127 0"/>
<feOffset dy="1"/>
<feGaussianBlur stdDeviation="5"/>
<feColorMatrix type="matrix" values="0 0 0 0 0.921569 0 0 0 0 0.34902 0 0 0 0 0.607843 0 0 0 0.4 0"/>
<feBlend mode="normal" in2="BackgroundImageFix" result="effect1_dropShadow"/>
<feBlend mode="normal" in="SourceGraphic" in2="effect1_dropShadow" result="shape"/>
</filter>
</defs>
</svg>
