<svg width="160" height="105" viewBox="0 0 160 105" fill="none" xmlns="http://www.w3.org/2000/svg">
<rect x="0.5" y="0.5" width="159" height="104" rx="9.5" stroke="#BCBCBC"/>
<rect x="7.75" y="7.75" width="144.5" height="89.5" rx="8.25" stroke="#BCBCBC" stroke-width="1.5" stroke-dasharray="2 3"/>
<path d="M59.2592 57C59.1792 57 59.1112 56.972 59.0552 56.916C58.9992 56.86 58.9712 56.792 58.9712 56.712V48.9C58.9712 48.812 58.9952 48.74 59.0432 48.684C59.0992 48.628 59.1712 48.6 59.2592 48.6H62.4752C63.4352 48.6 64.1912 48.828 64.7432 49.284C65.2952 49.732 65.5712 50.392 65.5712 51.264C65.5712 52.136 65.2952 52.796 64.7432 53.244C64.1992 53.684 63.4432 53.904 62.4752 53.904H60.6872V56.712C60.6872 56.792 60.6592 56.86 60.6032 56.916C60.5552 56.972 60.4872 57 60.3992 57H59.2592ZM62.4152 52.572C62.8792 52.572 63.2352 52.464 63.4832 52.248C63.7312 52.024 63.8552 51.696 63.8552 51.264C63.8552 50.848 63.7352 50.524 63.4952 50.292C63.2552 50.052 62.8952 49.932 62.4152 49.932H60.6632V52.572H62.4152ZM67.0373 57C66.9573 57 66.8893 56.972 66.8333 56.916C66.7773 56.86 66.7493 56.792 66.7493 56.712V48.768C66.7493 48.68 66.7773 48.612 66.8333 48.564C66.8893 48.508 66.9573 48.48 67.0373 48.48H68.1053C68.1933 48.48 68.2613 48.508 68.3093 48.564C68.3653 48.612 68.3933 48.68 68.3933 48.768V51.504C68.8733 50.928 69.5213 50.64 70.3373 50.64C71.0733 50.64 71.6613 50.884 72.1013 51.372C72.5413 51.852 72.7613 52.508 72.7613 53.34V56.712C72.7613 56.792 72.7333 56.86 72.6773 56.916C72.6293 56.972 72.5613 57 72.4733 57H71.3933C71.3133 57 71.2453 56.972 71.1893 56.916C71.1333 56.86 71.1053 56.792 71.1053 56.712V53.412C71.1053 52.94 70.9893 52.576 70.7573 52.32C70.5333 52.056 70.2053 51.924 69.7733 51.924C69.3493 51.924 69.0133 52.056 68.7653 52.32C68.5173 52.584 68.3933 52.948 68.3933 53.412V56.712C68.3933 56.792 68.3653 56.86 68.3093 56.916C68.2613 56.972 68.1933 57 68.1053 57H67.0373ZM77.0442 57.12C76.1082 57.12 75.3842 56.88 74.8722 56.4C74.3602 55.912 74.0842 55.248 74.0442 54.408L74.0322 53.88L74.0442 53.352C74.0842 52.52 74.3642 51.86 74.8842 51.372C75.4042 50.884 76.1242 50.64 77.0442 50.64C77.9642 50.64 78.6842 50.884 79.2042 51.372C79.7242 51.86 80.0042 52.52 80.0442 53.352C80.0522 53.448 80.0562 53.624 80.0562 53.88C80.0562 54.136 80.0522 54.312 80.0442 54.408C80.0042 55.248 79.7282 55.912 79.2162 56.4C78.7042 56.88 77.9802 57.12 77.0442 57.12ZM77.0442 55.932C77.4682 55.932 77.7962 55.8 78.0282 55.536C78.2602 55.264 78.3882 54.868 78.4122 54.348C78.4202 54.268 78.4242 54.112 78.4242 53.88C78.4242 53.648 78.4202 53.492 78.4122 53.412C78.3882 52.892 78.2602 52.5 78.0282 52.236C77.7962 51.964 77.4682 51.828 77.0442 51.828C76.6202 51.828 76.2922 51.964 76.0602 52.236C75.8282 52.5 75.7002 52.892 75.6762 53.412L75.6642 53.88L75.6762 54.348C75.7002 54.868 75.8282 55.264 76.0602 55.536C76.2922 55.8 76.6202 55.932 77.0442 55.932ZM84.1589 57C83.4309 57 82.8829 56.812 82.5149 56.436C82.1549 56.052 81.9749 55.492 81.9749 54.756V52.032H81.0269C80.9469 52.032 80.8789 52.004 80.8229 51.948C80.7669 51.884 80.7389 51.812 80.7389 51.732V51.048C80.7389 50.968 80.7669 50.9 80.8229 50.844C80.8789 50.788 80.9469 50.76 81.0269 50.76H81.9749V48.768C81.9749 48.68 82.0029 48.612 82.0589 48.564C82.1149 48.508 82.1829 48.48 82.2629 48.48H83.2349C83.3229 48.48 83.3909 48.508 83.4389 48.564C83.4949 48.612 83.5229 48.68 83.5229 48.768V50.76H85.0229C85.1109 50.76 85.1789 50.788 85.2269 50.844C85.2829 50.892 85.3109 50.96 85.3109 51.048V51.732C85.3109 51.82 85.2829 51.892 85.2269 51.948C85.1709 52.004 85.1029 52.032 85.0229 52.032H83.5229V54.636C83.5229 54.98 83.5829 55.24 83.7029 55.416C83.8229 55.592 84.0229 55.68 84.3029 55.68H85.1309C85.2109 55.68 85.2789 55.708 85.3349 55.764C85.3909 55.82 85.4189 55.888 85.4189 55.968V56.712C85.4189 56.792 85.3909 56.86 85.3349 56.916C85.2869 56.972 85.2189 57 85.1309 57H84.1589ZM89.2434 57.12C88.3074 57.12 87.5834 56.88 87.0714 56.4C86.5594 55.912 86.2834 55.248 86.2434 54.408L86.2314 53.88L86.2434 53.352C86.2834 52.52 86.5634 51.86 87.0834 51.372C87.6034 50.884 88.3234 50.64 89.2434 50.64C90.1634 50.64 90.8834 50.884 91.4034 51.372C91.9234 51.86 92.2034 52.52 92.2434 53.352C92.2514 53.448 92.2554 53.624 92.2554 53.88C92.2554 54.136 92.2514 54.312 92.2434 54.408C92.2034 55.248 91.9274 55.912 91.4154 56.4C90.9034 56.88 90.1794 57.12 89.2434 57.12ZM89.2434 55.932C89.6674 55.932 89.9954 55.8 90.2274 55.536C90.4594 55.264 90.5874 54.868 90.6114 54.348C90.6194 54.268 90.6234 54.112 90.6234 53.88C90.6234 53.648 90.6194 53.492 90.6114 53.412C90.5874 52.892 90.4594 52.5 90.2274 52.236C89.9954 51.964 89.6674 51.828 89.2434 51.828C88.8194 51.828 88.4914 51.964 88.2594 52.236C88.0274 52.5 87.8994 52.892 87.8754 53.412L87.8634 53.88L87.8754 54.348C87.8994 54.868 88.0274 55.264 88.2594 55.536C88.4914 55.8 88.8194 55.932 89.2434 55.932ZM96.3632 57C96.2832 57 96.2152 56.972 96.1592 56.916C96.1032 56.86 96.0752 56.792 96.0752 56.712V56.1C96.0752 55.884 96.1752 55.696 96.3752 55.536L98.2712 53.652C99.0952 53.004 99.6672 52.5 99.9872 52.14C100.315 51.772 100.479 51.412 100.479 51.06C100.479 50.684 100.375 50.388 100.167 50.172C99.9672 49.956 99.6632 49.848 99.2552 49.848C98.8552 49.848 98.5392 49.968 98.3072 50.208C98.0752 50.44 97.9312 50.744 97.8752 51.12C97.8512 51.216 97.8072 51.288 97.7432 51.336C97.6792 51.376 97.6072 51.396 97.5272 51.396H96.4592C96.3872 51.396 96.3272 51.372 96.2792 51.324C96.2312 51.276 96.2072 51.22 96.2072 51.156C96.2232 50.684 96.3512 50.244 96.5912 49.836C96.8312 49.42 97.1792 49.088 97.6352 48.84C98.0912 48.584 98.6272 48.456 99.2432 48.456C99.8832 48.456 100.423 48.568 100.863 48.792C101.311 49.008 101.647 49.308 101.871 49.692C102.095 50.076 102.207 50.512 102.207 51C102.207 51.536 102.055 52.02 101.751 52.452C101.455 52.884 100.999 53.348 100.383 53.844L98.6792 55.572H102.099C102.187 55.572 102.255 55.6 102.303 55.656C102.359 55.704 102.387 55.772 102.387 55.86V56.712C102.387 56.792 102.359 56.86 102.303 56.916C102.255 56.972 102.187 57 102.099 57H96.3632Z" fill="#BFBFBF"/>
</svg>
