<svg width="267" height="166" viewBox="0 0 267 166" fill="none" xmlns="http://www.w3.org/2000/svg">
<rect width="267" height="166" rx="10" fill="#F3F2F3"/>
<rect x="12.5504" y="11.777" width="241.899" height="142.446" rx="8.54676" stroke="#BCBCBC" stroke-width="1.55396" stroke-dasharray="2.07 3.11"/>
<g clip-path="url(#clip0)">
<path d="M157.517 83.1351C165.068 82.0059 172.126 87.2284 173.255 94.7799C174.384 102.331 169.162 109.389 161.61 110.518C153.988 111.647 146.931 106.425 145.802 98.8732C145.731 98.238 145.66 97.5323 145.66 96.8265C145.66 89.9808 150.742 84.1232 157.517 83.1351Z" fill="white"/>
<path d="M167.962 60.6927V85.8171C164.997 83.5588 161.257 82.5707 157.517 83.1353L146.225 75.1604L130.981 90.1927L113.125 81.5121L95.2701 91.8865V60.6927C95.2701 57.0934 98.1637 54.1999 101.763 54.1999H161.469C165.068 54.2705 167.962 57.164 167.962 60.6927ZM133.38 71.2789C133.38 68.103 130.84 65.5623 127.664 65.5623C124.488 65.5623 121.947 68.103 121.947 71.2789C121.947 74.4547 124.488 76.9954 127.664 76.9954C130.84 76.9954 133.38 74.4547 133.38 71.2789Z" fill="white"/>
<path d="M146.225 75.1602L157.517 83.1351C149.965 84.2643 144.743 91.3217 145.802 98.8731C146.225 101.626 147.425 104.237 149.33 106.283H114.608L130.91 90.2631L146.225 75.1602Z" fill="#8EA4F3"/>
<path d="M127.735 65.5621C130.91 65.5621 133.451 68.1027 133.451 71.2786C133.451 74.4544 130.91 76.9951 127.735 76.9951C124.559 76.9951 122.018 74.4544 122.018 71.2786C122.018 68.1027 124.559 65.5621 127.735 65.5621Z" fill="white"/>
<path d="M130.981 90.1925L114.607 106.213H101.763C98.1637 106.213 95.2701 103.319 95.2701 99.72V91.8863L113.196 81.5119L130.981 90.1925Z" fill="#FF7DBB"/>
<path d="M127.735 78.2656C131.616 78.2656 134.722 75.1603 134.722 71.2787C134.722 67.3971 131.616 64.2919 127.735 64.2919C123.853 64.2919 120.748 67.3971 120.748 71.2787C120.748 75.1603 123.853 78.2656 127.735 78.2656ZM127.735 66.9031C130.134 66.9031 132.11 68.8792 132.11 71.2787C132.11 73.6782 130.134 75.6543 127.735 75.6543C125.335 75.6543 123.359 73.6782 123.359 71.2787C123.289 68.8792 125.265 66.9031 127.735 66.9031Z" fill="#F3F2F3"/>
<path d="M166.339 95.7678H160.693V90.1219C160.693 89.4161 160.128 88.8515 159.422 88.8515C158.717 88.8515 158.152 89.4161 158.152 90.1219V95.7678H152.577C151.871 95.7678 151.306 96.3324 151.306 97.0381C151.306 97.7439 151.871 98.3085 152.577 98.3085H158.082V103.813C158.082 104.519 158.646 105.084 159.352 105.084C160.058 105.084 160.622 104.519 160.622 103.813V98.3085H166.268C166.974 98.3085 167.538 97.7439 167.538 97.0381C167.68 96.3324 167.115 95.7678 166.339 95.7678Z" fill="#3C3C3B"/>
<path d="M169.303 85.2524V60.6926C169.303 56.3876 165.774 53 161.469 53H101.763C97.4581 53 94 56.4581 94 60.6926C94 60.6926 94 60.6926 94 60.7632V99.7907C94 104.096 97.4581 107.624 101.763 107.624H148.836C151.659 110.377 155.541 112.071 159.563 112.071C167.962 112.071 174.737 105.295 174.737 96.8971C174.666 92.3804 172.69 88.0754 169.303 85.2524ZM101.763 55.6112H161.469C164.292 55.6112 166.691 57.8696 166.691 60.7632V83.488C164.01 82.0766 160.904 81.4414 157.87 81.7943L147.001 74.1017C146.507 73.7488 145.801 73.8194 145.307 74.2428L130.699 88.64L113.761 80.3122C113.408 80.1005 112.914 80.1711 112.561 80.3828L96.6112 89.628V60.6926C96.6112 57.8696 98.8696 55.6112 101.763 55.6112C101.693 55.6112 101.693 55.6112 101.763 55.6112ZM131.898 91.1101L146.366 76.8541L154.411 82.5706C146.507 85.3935 142.414 94.0742 145.237 101.908C145.59 102.967 146.084 103.955 146.719 104.943H117.783L131.898 91.1101ZM96.6112 99.7907V92.6627L113.267 82.994L128.793 90.616L114.114 104.943H101.763C98.8696 104.943 96.5407 102.614 96.6112 99.7907ZM159.563 109.389C152.647 109.389 147.001 103.743 147.001 96.8266C147.001 89.9103 152.647 84.2644 159.563 84.2644C162.316 84.2644 164.998 85.1818 167.185 86.8756C172.69 91.1101 173.749 98.9438 169.514 104.449C167.115 107.554 163.445 109.389 159.563 109.389Z" fill="#F3F2F3"/>
</g>
<defs>
<clipPath id="clip0">
<rect width="80.6663" height="59" fill="white" transform="translate(94 53)"/>
</clipPath>
</defs>
</svg>
