<svg width="500" height="280" viewBox="0 0 500 280" fill="none" xmlns="http://www.w3.org/2000/svg">
<rect width="500" height="280" rx="10" fill="#F3F2F3"/>
<rect x="15.75" y="15.75" width="468.5" height="248.5" rx="8.25" stroke="#BCBCBC" stroke-width="1.5" stroke-dasharray="2 3"/>
<g clip-path="url(#clip0)">
<path d="M286 112.7C296.7 111.1 306.7 118.5 308.3 129.2C309.9 139.9 302.5 149.9 291.8 151.5C281 153.1 271 145.7 269.4 135C269.3 134.1 269.2 133.1 269.2 132.1C269.2 122.4 276.4 114.1 286 112.7Z" fill="white"/>
<path d="M300.8 80.9V116.5C296.6 113.3 291.3 111.9 286 112.7L270 101.4L248.4 122.7L223.1 110.4L197.8 125.1V80.9C197.8 75.8 201.9 71.7 207 71.7H291.6C296.7 71.8 300.8 75.9 300.8 80.9ZM251.8 95.9C251.8 91.4 248.2 87.8 243.7 87.8C239.2 87.8 235.6 91.4 235.6 95.9C235.6 100.4 239.2 104 243.7 104C248.2 104 251.8 100.4 251.8 95.9Z" fill="white"/>
<path d="M270 101.4L286 112.7C275.3 114.3 267.9 124.3 269.4 135C270 138.9 271.7 142.6 274.4 145.5H225.2L248.3 122.8L270 101.4Z" fill="#A8A1FF"/>
<path d="M243.8 87.8C248.3 87.8 251.9 91.4 251.9 95.9C251.9 100.4 248.3 104 243.8 104C239.3 104 235.7 100.4 235.7 95.9C235.7 91.4 239.3 87.8 243.8 87.8Z" fill="white"/>
<path d="M248.4 122.7L225.2 145.4H207C201.9 145.4 197.8 141.3 197.8 136.2V125.1L223.2 110.4L248.4 122.7Z" fill="#5EBBF2"/>
<path d="M243.8 105.8C249.3 105.8 253.7 101.4 253.7 95.9C253.7 90.4 249.3 86 243.8 86C238.3 86 233.9 90.4 233.9 95.9C233.9 101.4 238.3 105.8 243.8 105.8ZM243.8 89.7C247.2 89.7 250 92.5 250 95.9C250 99.3 247.2 102.1 243.8 102.1C240.4 102.1 237.6 99.3 237.6 95.9C237.5 92.5 240.3 89.7 243.8 89.7Z" fill="#F3F2F3"/>
<path d="M298.5 130.6H290.5V122.6C290.5 121.6 289.7 120.8 288.7 120.8C287.7 120.8 286.9 121.6 286.9 122.6V130.6H279C278 130.6 277.2 131.4 277.2 132.4C277.2 133.4 278 134.2 279 134.2H286.8V142C286.8 143 287.6 143.8 288.6 143.8C289.6 143.8 290.4 143 290.4 142V134.2H298.4C299.4 134.2 300.2 133.4 300.2 132.4C300.4 131.4 299.6 130.6 298.5 130.6Z" fill="#3C3C3B"/>
<path d="M302.7 115.7V80.9C302.7 74.8 297.7 70 291.6 70H207C200.9 70 196 74.9 196 80.9C196 80.9 196 80.9 196 81V136.3C196 142.4 200.9 147.4 207 147.4H273.7C277.7 151.3 283.2 153.7 288.9 153.7C300.8 153.7 310.4 144.1 310.4 132.2C310.3 125.8 307.5 119.7 302.7 115.7ZM207 73.7H291.6C295.6 73.7 299 76.9 299 81V113.2C295.2 111.2 290.8 110.3 286.5 110.8L271.1 99.9C270.4 99.4 269.4 99.5 268.7 100.1L248 120.5L224 108.7C223.5 108.4 222.8 108.5 222.3 108.8L199.7 121.9V80.9C199.7 76.9 202.9 73.7 207 73.7C206.9 73.7 206.9 73.7 207 73.7ZM249.7 124L270.2 103.8L281.6 111.9C270.4 115.9 264.6 128.2 268.6 139.3C269.1 140.8 269.8 142.2 270.7 143.6H229.7L249.7 124ZM199.7 136.3V126.2L223.3 112.5L245.3 123.3L224.5 143.6H207C202.9 143.6 199.6 140.3 199.7 136.3ZM288.9 149.9C279.1 149.9 271.1 141.9 271.1 132.1C271.1 122.3 279.1 114.3 288.9 114.3C292.8 114.3 296.6 115.6 299.7 118C307.5 124 309 135.1 303 142.9C299.6 147.3 294.4 149.9 288.9 149.9Z" fill="#F3F2F3"/>
</g>
<path d="M203.481 196C203.401 196 203.333 195.972 203.277 195.916C203.221 195.86 203.193 195.792 203.193 195.712V193L200.361 187.984C200.337 187.944 200.325 187.9 200.325 187.852C200.325 187.78 200.349 187.72 200.397 187.672C200.445 187.624 200.501 187.6 200.565 187.6H201.633C201.721 187.6 201.793 187.624 201.849 187.672C201.913 187.72 201.961 187.772 201.993 187.828L204.033 191.32L206.061 187.828C206.157 187.676 206.281 187.6 206.433 187.6H207.489C207.561 187.6 207.621 187.624 207.669 187.672C207.717 187.72 207.741 187.78 207.741 187.852C207.741 187.9 207.729 187.944 207.705 187.984L204.873 193V195.712C204.873 195.792 204.845 195.86 204.789 195.916C204.733 195.972 204.661 196 204.573 196H203.481ZM210.538 196.12C209.602 196.12 208.878 195.88 208.366 195.4C207.854 194.912 207.578 194.248 207.538 193.408L207.526 192.88L207.538 192.352C207.578 191.52 207.858 190.86 208.378 190.372C208.898 189.884 209.618 189.64 210.538 189.64C211.458 189.64 212.178 189.884 212.698 190.372C213.218 190.86 213.498 191.52 213.538 192.352C213.546 192.448 213.55 192.624 213.55 192.88C213.55 193.136 213.546 193.312 213.538 193.408C213.498 194.248 213.222 194.912 212.71 195.4C212.198 195.88 211.474 196.12 210.538 196.12ZM210.538 194.932C210.962 194.932 211.29 194.8 211.522 194.536C211.754 194.264 211.882 193.868 211.906 193.348C211.914 193.268 211.918 193.112 211.918 192.88C211.918 192.648 211.914 192.492 211.906 192.412C211.882 191.892 211.754 191.5 211.522 191.236C211.29 190.964 210.962 190.828 210.538 190.828C210.114 190.828 209.786 190.964 209.554 191.236C209.322 191.5 209.194 191.892 209.17 192.412L209.158 192.88L209.17 193.348C209.194 193.868 209.322 194.264 209.554 194.536C209.786 194.8 210.114 194.932 210.538 194.932ZM217.196 196.12C216.46 196.12 215.88 195.88 215.456 195.4C215.032 194.912 214.82 194.252 214.82 193.42V190.048C214.82 189.968 214.848 189.9 214.904 189.844C214.96 189.788 215.028 189.76 215.108 189.76H216.164C216.252 189.76 216.32 189.788 216.368 189.844C216.424 189.892 216.452 189.96 216.452 190.048V193.348C216.452 194.34 216.888 194.836 217.76 194.836C218.176 194.836 218.504 194.704 218.744 194.44C218.992 194.176 219.116 193.812 219.116 193.348V190.048C219.116 189.968 219.144 189.9 219.2 189.844C219.256 189.788 219.324 189.76 219.404 189.76H220.46C220.548 189.76 220.616 189.788 220.664 189.844C220.72 189.892 220.748 189.96 220.748 190.048V195.712C220.748 195.792 220.72 195.86 220.664 195.916C220.616 195.972 220.548 196 220.46 196H219.488C219.408 196 219.34 195.972 219.284 195.916C219.228 195.86 219.2 195.792 219.2 195.712V195.22C218.752 195.82 218.084 196.12 217.196 196.12ZM222.621 196C222.541 196 222.473 195.972 222.417 195.916C222.361 195.86 222.333 195.792 222.333 195.712V190.06C222.333 189.98 222.361 189.912 222.417 189.856C222.473 189.792 222.541 189.76 222.621 189.76H223.593C223.681 189.76 223.753 189.788 223.809 189.844C223.865 189.9 223.893 189.972 223.893 190.06V190.552C224.085 190.296 224.325 190.1 224.613 189.964C224.909 189.828 225.245 189.76 225.621 189.76H226.113C226.201 189.76 226.269 189.788 226.317 189.844C226.373 189.892 226.401 189.96 226.401 190.048V190.912C226.401 190.992 226.373 191.06 226.317 191.116C226.269 191.172 226.201 191.2 226.113 191.2H225.177C224.801 191.2 224.505 191.308 224.289 191.524C224.073 191.74 223.965 192.036 223.965 192.412V195.712C223.965 195.792 223.937 195.86 223.881 195.916C223.825 195.972 223.753 196 223.665 196H222.621ZM233.205 196.12C232.101 196.12 231.245 195.836 230.637 195.268C230.037 194.7 229.717 193.9 229.677 192.868C229.669 192.652 229.665 192.3 229.665 191.812C229.665 191.316 229.669 190.956 229.677 190.732C229.717 189.708 230.041 188.912 230.649 188.344C231.265 187.768 232.117 187.48 233.205 187.48C233.917 187.48 234.537 187.604 235.065 187.852C235.593 188.092 236.001 188.424 236.289 188.848C236.577 189.264 236.729 189.736 236.745 190.264V190.288C236.745 190.352 236.717 190.408 236.661 190.456C236.613 190.496 236.557 190.516 236.493 190.516H235.353C235.257 190.516 235.185 190.496 235.137 190.456C235.089 190.416 235.049 190.34 235.017 190.228C234.889 189.724 234.677 189.372 234.381 189.172C234.085 188.964 233.689 188.86 233.193 188.86C232.041 188.86 231.441 189.504 231.393 190.792C231.385 191.008 231.381 191.34 231.381 191.788C231.381 192.236 231.385 192.576 231.393 192.808C231.441 194.096 232.041 194.74 233.193 194.74C233.689 194.74 234.085 194.636 234.381 194.428C234.685 194.22 234.897 193.868 235.017 193.372C235.041 193.26 235.077 193.184 235.125 193.144C235.181 193.104 235.257 193.084 235.353 193.084H236.493C236.565 193.084 236.625 193.108 236.673 193.156C236.729 193.204 236.753 193.264 236.745 193.336C236.729 193.864 236.577 194.34 236.289 194.764C236.001 195.18 235.593 195.512 235.065 195.76C234.537 196 233.917 196.12 233.205 196.12ZM240.784 196.12C239.848 196.12 239.124 195.88 238.612 195.4C238.1 194.912 237.824 194.248 237.784 193.408L237.772 192.88L237.784 192.352C237.824 191.52 238.104 190.86 238.624 190.372C239.144 189.884 239.864 189.64 240.784 189.64C241.704 189.64 242.424 189.884 242.944 190.372C243.464 190.86 243.744 191.52 243.784 192.352C243.792 192.448 243.796 192.624 243.796 192.88C243.796 193.136 243.792 193.312 243.784 193.408C243.744 194.248 243.468 194.912 242.956 195.4C242.444 195.88 241.72 196.12 240.784 196.12ZM240.784 194.932C241.208 194.932 241.536 194.8 241.768 194.536C242 194.264 242.128 193.868 242.152 193.348C242.16 193.268 242.164 193.112 242.164 192.88C242.164 192.648 242.16 192.492 242.152 192.412C242.128 191.892 242 191.5 241.768 191.236C241.536 190.964 241.208 190.828 240.784 190.828C240.36 190.828 240.032 190.964 239.8 191.236C239.568 191.5 239.44 191.892 239.416 192.412L239.404 192.88L239.416 193.348C239.44 193.868 239.568 194.264 239.8 194.536C240.032 194.8 240.36 194.932 240.784 194.932ZM247.111 196C246.991 196 246.899 195.976 246.835 195.928C246.771 195.872 246.719 195.796 246.679 195.7L244.435 190.132L244.411 190.024C244.411 189.952 244.435 189.892 244.483 189.844C244.539 189.788 244.603 189.76 244.675 189.76H245.647C245.799 189.76 245.903 189.836 245.959 189.988L247.555 194.2L249.151 189.988C249.175 189.932 249.211 189.88 249.259 189.832C249.315 189.784 249.383 189.76 249.463 189.76H250.447C250.511 189.76 250.567 189.788 250.615 189.844C250.671 189.892 250.699 189.952 250.699 190.024C250.699 190.072 250.695 190.108 250.687 190.132L248.431 195.7C248.391 195.796 248.339 195.872 248.275 195.928C248.211 195.976 248.119 196 247.999 196H247.111ZM254.259 196.12C253.371 196.12 252.663 195.864 252.135 195.352C251.615 194.832 251.339 194.104 251.307 193.168L251.295 192.868L251.307 192.568C251.347 191.656 251.627 190.94 252.147 190.42C252.675 189.9 253.379 189.64 254.259 189.64C255.203 189.64 255.931 189.928 256.443 190.504C256.963 191.08 257.223 191.848 257.223 192.808V193.06C257.223 193.14 257.195 193.208 257.139 193.264C257.083 193.32 257.011 193.348 256.923 193.348H252.939V193.444C252.955 193.884 253.075 194.256 253.299 194.56C253.531 194.856 253.847 195.004 254.247 195.004C254.719 195.004 255.099 194.82 255.387 194.452C255.459 194.364 255.515 194.308 255.555 194.284C255.603 194.26 255.671 194.248 255.759 194.248H256.791C256.863 194.248 256.923 194.272 256.971 194.32C257.027 194.36 257.055 194.412 257.055 194.476C257.055 194.668 256.939 194.896 256.707 195.16C256.483 195.416 256.159 195.64 255.735 195.832C255.311 196.024 254.819 196.12 254.259 196.12ZM255.591 192.34V192.304C255.591 191.832 255.471 191.452 255.231 191.164C254.999 190.876 254.675 190.732 254.259 190.732C253.843 190.732 253.519 190.876 253.287 191.164C253.055 191.452 252.939 191.832 252.939 192.304V192.34H255.591ZM258.785 196C258.705 196 258.637 195.972 258.581 195.916C258.525 195.86 258.497 195.792 258.497 195.712V190.06C258.497 189.98 258.525 189.912 258.581 189.856C258.637 189.792 258.705 189.76 258.785 189.76H259.757C259.845 189.76 259.917 189.788 259.973 189.844C260.029 189.9 260.057 189.972 260.057 190.06V190.552C260.249 190.296 260.489 190.1 260.777 189.964C261.073 189.828 261.409 189.76 261.785 189.76H262.277C262.365 189.76 262.433 189.788 262.481 189.844C262.537 189.892 262.565 189.96 262.565 190.048V190.912C262.565 190.992 262.537 191.06 262.481 191.116C262.433 191.172 262.365 191.2 262.277 191.2H261.341C260.965 191.2 260.669 191.308 260.453 191.524C260.237 191.74 260.129 192.036 260.129 192.412V195.712C260.129 195.792 260.101 195.86 260.045 195.916C259.989 195.972 259.917 196 259.829 196H258.785ZM266.417 196C266.337 196 266.269 195.972 266.213 195.916C266.157 195.86 266.129 195.792 266.129 195.712V187.9C266.129 187.812 266.153 187.74 266.201 187.684C266.257 187.628 266.329 187.6 266.417 187.6H269.633C270.593 187.6 271.349 187.828 271.901 188.284C272.453 188.732 272.729 189.392 272.729 190.264C272.729 191.136 272.453 191.796 271.901 192.244C271.357 192.684 270.601 192.904 269.633 192.904H267.845V195.712C267.845 195.792 267.817 195.86 267.761 195.916C267.713 195.972 267.645 196 267.557 196H266.417ZM269.573 191.572C270.037 191.572 270.393 191.464 270.641 191.248C270.889 191.024 271.013 190.696 271.013 190.264C271.013 189.848 270.893 189.524 270.653 189.292C270.413 189.052 270.053 188.932 269.573 188.932H267.821V191.572H269.573ZM274.196 196C274.116 196 274.048 195.972 273.992 195.916C273.936 195.86 273.908 195.792 273.908 195.712V187.768C273.908 187.68 273.936 187.612 273.992 187.564C274.048 187.508 274.116 187.48 274.196 187.48H275.264C275.352 187.48 275.42 187.508 275.468 187.564C275.524 187.612 275.552 187.68 275.552 187.768V190.504C276.032 189.928 276.68 189.64 277.496 189.64C278.232 189.64 278.82 189.884 279.26 190.372C279.7 190.852 279.92 191.508 279.92 192.34V195.712C279.92 195.792 279.892 195.86 279.836 195.916C279.788 195.972 279.72 196 279.632 196H278.552C278.472 196 278.404 195.972 278.348 195.916C278.292 195.86 278.264 195.792 278.264 195.712V192.412C278.264 191.94 278.148 191.576 277.916 191.32C277.692 191.056 277.364 190.924 276.932 190.924C276.508 190.924 276.172 191.056 275.924 191.32C275.676 191.584 275.552 191.948 275.552 192.412V195.712C275.552 195.792 275.524 195.86 275.468 195.916C275.42 195.972 275.352 196 275.264 196H274.196ZM284.202 196.12C283.266 196.12 282.542 195.88 282.03 195.4C281.518 194.912 281.242 194.248 281.202 193.408L281.19 192.88L281.202 192.352C281.242 191.52 281.522 190.86 282.042 190.372C282.562 189.884 283.282 189.64 284.202 189.64C285.122 189.64 285.842 189.884 286.362 190.372C286.882 190.86 287.162 191.52 287.202 192.352C287.21 192.448 287.214 192.624 287.214 192.88C287.214 193.136 287.21 193.312 287.202 193.408C287.162 194.248 286.886 194.912 286.374 195.4C285.862 195.88 285.138 196.12 284.202 196.12ZM284.202 194.932C284.626 194.932 284.954 194.8 285.186 194.536C285.418 194.264 285.546 193.868 285.57 193.348C285.578 193.268 285.582 193.112 285.582 192.88C285.582 192.648 285.578 192.492 285.57 192.412C285.546 191.892 285.418 191.5 285.186 191.236C284.954 190.964 284.626 190.828 284.202 190.828C283.778 190.828 283.45 190.964 283.218 191.236C282.986 191.5 282.858 191.892 282.834 192.412L282.822 192.88L282.834 193.348C282.858 193.868 282.986 194.264 283.218 194.536C283.45 194.8 283.778 194.932 284.202 194.932ZM291.317 196C290.589 196 290.041 195.812 289.673 195.436C289.313 195.052 289.133 194.492 289.133 193.756V191.032H288.185C288.105 191.032 288.037 191.004 287.981 190.948C287.925 190.884 287.897 190.812 287.897 190.732V190.048C287.897 189.968 287.925 189.9 287.981 189.844C288.037 189.788 288.105 189.76 288.185 189.76H289.133V187.768C289.133 187.68 289.161 187.612 289.217 187.564C289.273 187.508 289.341 187.48 289.421 187.48H290.393C290.481 187.48 290.549 187.508 290.597 187.564C290.653 187.612 290.681 187.68 290.681 187.768V189.76H292.181C292.269 189.76 292.337 189.788 292.385 189.844C292.441 189.892 292.469 189.96 292.469 190.048V190.732C292.469 190.82 292.441 190.892 292.385 190.948C292.329 191.004 292.261 191.032 292.181 191.032H290.681V193.636C290.681 193.98 290.741 194.24 290.861 194.416C290.981 194.592 291.181 194.68 291.461 194.68H292.289C292.369 194.68 292.437 194.708 292.493 194.764C292.549 194.82 292.577 194.888 292.577 194.968V195.712C292.577 195.792 292.549 195.86 292.493 195.916C292.445 195.972 292.377 196 292.289 196H291.317ZM296.402 196.12C295.466 196.12 294.742 195.88 294.23 195.4C293.718 194.912 293.442 194.248 293.402 193.408L293.39 192.88L293.402 192.352C293.442 191.52 293.722 190.86 294.242 190.372C294.762 189.884 295.482 189.64 296.402 189.64C297.322 189.64 298.042 189.884 298.562 190.372C299.082 190.86 299.362 191.52 299.402 192.352C299.41 192.448 299.414 192.624 299.414 192.88C299.414 193.136 299.41 193.312 299.402 193.408C299.362 194.248 299.086 194.912 298.574 195.4C298.062 195.88 297.338 196.12 296.402 196.12ZM296.402 194.932C296.826 194.932 297.154 194.8 297.386 194.536C297.618 194.264 297.746 193.868 297.77 193.348C297.778 193.268 297.782 193.112 297.782 192.88C297.782 192.648 297.778 192.492 297.77 192.412C297.746 191.892 297.618 191.5 297.386 191.236C297.154 190.964 296.826 190.828 296.402 190.828C295.978 190.828 295.65 190.964 295.418 191.236C295.186 191.5 295.058 191.892 295.034 192.412L295.022 192.88L295.034 193.348C295.058 193.868 295.186 194.264 295.418 194.536C295.65 194.8 295.978 194.932 296.402 194.932Z" fill="#BFBFBF"/>
<path d="M183.599 174.14C182.283 174.14 181.252 173.818 180.505 173.174C179.768 172.53 179.399 171.559 179.399 170.262V164.55C179.399 164.447 179.432 164.363 179.497 164.298C179.572 164.233 179.656 164.2 179.749 164.2H181.555C181.658 164.2 181.742 164.233 181.807 164.298C181.882 164.363 181.919 164.447 181.919 164.55V170.248C181.919 170.855 182.059 171.312 182.339 171.62C182.628 171.919 183.044 172.068 183.585 172.068C184.117 172.068 184.528 171.914 184.817 171.606C185.106 171.298 185.251 170.845 185.251 170.248V164.55C185.251 164.447 185.284 164.363 185.349 164.298C185.424 164.233 185.508 164.2 185.601 164.2H187.421C187.524 164.2 187.608 164.233 187.673 164.298C187.738 164.363 187.771 164.447 187.771 164.55V170.262C187.771 171.559 187.398 172.53 186.651 173.174C185.914 173.818 184.896 174.14 183.599 174.14ZM189.823 176.66C189.73 176.66 189.646 176.627 189.571 176.562C189.506 176.497 189.473 176.413 189.473 176.31V167.07C189.473 166.967 189.506 166.883 189.571 166.818C189.646 166.753 189.73 166.72 189.823 166.72H191.405C191.508 166.72 191.592 166.753 191.657 166.818C191.723 166.883 191.755 166.967 191.755 167.07V167.574C192.259 166.911 192.983 166.58 193.925 166.58C194.84 166.58 195.554 166.865 196.067 167.434C196.581 168.003 196.861 168.806 196.907 169.842C196.917 169.963 196.921 170.136 196.921 170.36C196.921 170.584 196.917 170.757 196.907 170.878C196.87 171.886 196.59 172.684 196.067 173.272C195.545 173.851 194.831 174.14 193.925 174.14C193.011 174.14 192.329 173.827 191.881 173.202V176.31C191.881 176.413 191.849 176.497 191.783 176.562C191.718 176.627 191.634 176.66 191.531 176.66H189.823ZM193.169 172.264C193.608 172.264 193.921 172.133 194.107 171.872C194.303 171.611 194.415 171.251 194.443 170.794C194.462 170.607 194.471 170.463 194.471 170.36C194.471 170.257 194.462 170.113 194.443 169.926C194.415 169.469 194.303 169.109 194.107 168.848C193.921 168.587 193.608 168.456 193.169 168.456C192.74 168.456 192.423 168.591 192.217 168.862C192.021 169.123 191.909 169.464 191.881 169.884L191.867 170.402L191.881 170.934C191.9 171.317 192.017 171.634 192.231 171.886C192.446 172.138 192.759 172.264 193.169 172.264ZM198.655 174C198.562 174 198.478 173.967 198.403 173.902C198.338 173.827 198.305 173.743 198.305 173.65V164.41C198.305 164.307 198.338 164.223 198.403 164.158C198.478 164.093 198.562 164.06 198.655 164.06H200.307C200.41 164.06 200.494 164.093 200.559 164.158C200.625 164.223 200.657 164.307 200.657 164.41V173.65C200.657 173.753 200.625 173.837 200.559 173.902C200.494 173.967 200.41 174 200.307 174H198.655ZM205.755 174.14C204.598 174.14 203.707 173.865 203.081 173.314C202.456 172.763 202.115 171.989 202.059 170.99C202.05 170.869 202.045 170.659 202.045 170.36C202.045 170.061 202.05 169.851 202.059 169.73C202.115 168.741 202.465 167.971 203.109 167.42C203.753 166.86 204.635 166.58 205.755 166.58C206.885 166.58 207.771 166.86 208.415 167.42C209.059 167.971 209.409 168.741 209.465 169.73C209.475 169.851 209.479 170.061 209.479 170.36C209.479 170.659 209.475 170.869 209.465 170.99C209.409 171.989 209.069 172.763 208.443 173.314C207.818 173.865 206.922 174.14 205.755 174.14ZM205.755 172.432C206.166 172.432 206.469 172.311 206.665 172.068C206.861 171.816 206.973 171.433 207.001 170.92C207.011 170.827 207.015 170.64 207.015 170.36C207.015 170.08 207.011 169.893 207.001 169.8C206.973 169.296 206.857 168.918 206.651 168.666C206.455 168.414 206.157 168.288 205.755 168.288C204.981 168.288 204.57 168.792 204.523 169.8L204.509 170.36L204.523 170.92C204.542 171.433 204.649 171.816 204.845 172.068C205.051 172.311 205.354 172.432 205.755 172.432ZM213.054 174.14C212.559 174.14 212.107 174.047 211.696 173.86C211.295 173.664 210.977 173.403 210.744 173.076C210.52 172.74 210.408 172.371 210.408 171.97C210.408 171.326 210.669 170.808 211.192 170.416C211.724 170.024 212.452 169.753 213.376 169.604L215.126 169.338V169.142C215.126 168.787 215.051 168.526 214.902 168.358C214.753 168.19 214.501 168.106 214.146 168.106C213.931 168.106 213.754 168.143 213.614 168.218C213.474 168.293 213.329 168.395 213.18 168.526C213.049 168.638 212.951 168.713 212.886 168.75C212.858 168.825 212.807 168.862 212.732 168.862H211.206C211.113 168.862 211.033 168.834 210.968 168.778C210.912 168.713 210.889 168.638 210.898 168.554C210.907 168.302 211.029 168.022 211.262 167.714C211.505 167.406 211.869 167.14 212.354 166.916C212.849 166.692 213.455 166.58 214.174 166.58C215.322 166.58 216.171 166.837 216.722 167.35C217.273 167.854 217.548 168.535 217.548 169.394V173.65C217.548 173.743 217.515 173.827 217.45 173.902C217.385 173.967 217.301 174 217.198 174H215.574C215.481 174 215.397 173.967 215.322 173.902C215.257 173.827 215.224 173.743 215.224 173.65V173.16C215.019 173.449 214.729 173.687 214.356 173.874C213.992 174.051 213.558 174.14 213.054 174.14ZM213.712 172.544C214.141 172.544 214.487 172.404 214.748 172.124C215.019 171.844 215.154 171.433 215.154 170.892V170.696L213.964 170.906C213.124 171.055 212.704 171.349 212.704 171.788C212.704 172.021 212.802 172.208 212.998 172.348C213.194 172.479 213.432 172.544 213.712 172.544ZM221.844 174.14C220.929 174.14 220.215 173.855 219.702 173.286C219.198 172.707 218.922 171.895 218.876 170.85L218.862 170.36L218.876 169.856C218.913 168.848 219.188 168.05 219.702 167.462C220.224 166.874 220.938 166.58 221.844 166.58C222.693 166.58 223.379 166.855 223.902 167.406V164.41C223.902 164.307 223.934 164.223 224 164.158C224.065 164.093 224.149 164.06 224.252 164.06H225.96C226.062 164.06 226.146 164.093 226.212 164.158C226.277 164.223 226.31 164.307 226.31 164.41V173.65C226.31 173.743 226.277 173.827 226.212 173.902C226.146 173.967 226.062 174 225.96 174H224.378C224.284 174 224.2 173.967 224.126 173.902C224.06 173.827 224.028 173.743 224.028 173.65V173.202C223.514 173.827 222.786 174.14 221.844 174.14ZM222.614 172.264C223.034 172.264 223.346 172.133 223.552 171.872C223.757 171.601 223.874 171.256 223.902 170.836C223.911 170.715 223.916 170.537 223.916 170.304C223.916 170.08 223.911 169.907 223.902 169.786C223.883 169.403 223.766 169.086 223.552 168.834C223.337 168.582 223.024 168.456 222.614 168.456C222.175 168.456 221.858 168.587 221.662 168.848C221.475 169.109 221.368 169.469 221.34 169.926C221.33 170.019 221.326 170.164 221.326 170.36C221.326 170.556 221.33 170.701 221.34 170.794C221.368 171.251 221.475 171.611 221.662 171.872C221.858 172.133 222.175 172.264 222.614 172.264ZM231.444 174C231.351 174 231.267 173.967 231.192 173.902C231.127 173.827 231.094 173.743 231.094 173.65V164.55C231.094 164.447 231.127 164.363 231.192 164.298C231.267 164.233 231.351 164.2 231.444 164.2H235.364C236.559 164.2 237.497 164.475 238.178 165.026C238.869 165.577 239.214 166.379 239.214 167.434C239.214 168.479 238.874 169.268 238.192 169.8C237.511 170.323 236.568 170.584 235.364 170.584H233.698V173.65C233.698 173.753 233.661 173.837 233.586 173.902C233.521 173.967 233.437 174 233.334 174H231.444ZM235.294 168.652C235.705 168.652 236.027 168.549 236.26 168.344C236.494 168.129 236.61 167.817 236.61 167.406C236.61 167.023 236.498 166.72 236.274 166.496C236.06 166.263 235.733 166.146 235.294 166.146H233.656V168.652H235.294ZM240.751 174C240.658 174 240.574 173.967 240.499 173.902C240.434 173.827 240.401 173.743 240.401 173.65V164.41C240.401 164.307 240.434 164.223 240.499 164.158C240.574 164.093 240.658 164.06 240.751 164.06H242.543C242.646 164.06 242.73 164.093 242.795 164.158C242.861 164.223 242.893 164.307 242.893 164.41V167.532C243.453 166.897 244.191 166.58 245.105 166.58C245.647 166.58 246.127 166.701 246.547 166.944C246.977 167.187 247.313 167.546 247.555 168.022C247.798 168.498 247.919 169.072 247.919 169.744V173.65C247.919 173.743 247.887 173.827 247.821 173.902C247.756 173.967 247.672 174 247.569 174H245.763C245.67 174 245.586 173.967 245.511 173.902C245.446 173.827 245.413 173.743 245.413 173.65V169.828C245.413 169.389 245.306 169.053 245.091 168.82C244.886 168.577 244.583 168.456 244.181 168.456C243.78 168.456 243.463 168.577 243.229 168.82C243.005 169.053 242.893 169.389 242.893 169.828V173.65C242.893 173.753 242.861 173.837 242.795 173.902C242.73 173.967 242.646 174 242.543 174H240.751ZM252.951 174.14C251.793 174.14 250.902 173.865 250.277 173.314C249.651 172.763 249.311 171.989 249.255 170.99C249.245 170.869 249.241 170.659 249.241 170.36C249.241 170.061 249.245 169.851 249.255 169.73C249.311 168.741 249.661 167.971 250.305 167.42C250.949 166.86 251.831 166.58 252.951 166.58C254.08 166.58 254.967 166.86 255.611 167.42C256.255 167.971 256.605 168.741 256.661 169.73C256.67 169.851 256.675 170.061 256.675 170.36C256.675 170.659 256.67 170.869 256.661 170.99C256.605 171.989 256.264 172.763 255.639 173.314C255.013 173.865 254.117 174.14 252.951 174.14ZM252.951 172.432C253.361 172.432 253.665 172.311 253.861 172.068C254.057 171.816 254.169 171.433 254.197 170.92C254.206 170.827 254.211 170.64 254.211 170.36C254.211 170.08 254.206 169.893 254.197 169.8C254.169 169.296 254.052 168.918 253.847 168.666C253.651 168.414 253.352 168.288 252.951 168.288C252.176 168.288 251.765 168.792 251.719 169.8L251.705 170.36L251.719 170.92C251.737 171.433 251.845 171.816 252.041 172.068C252.246 172.311 252.549 172.432 252.951 172.432ZM261.762 174C259.83 174 258.864 173.081 258.864 171.242V168.554H257.772C257.669 168.554 257.581 168.521 257.506 168.456C257.441 168.391 257.408 168.307 257.408 168.204V167.07C257.408 166.967 257.441 166.883 257.506 166.818C257.581 166.753 257.669 166.72 257.772 166.72H258.864V164.41C258.864 164.307 258.897 164.223 258.962 164.158C259.037 164.093 259.121 164.06 259.214 164.06H260.838C260.941 164.06 261.025 164.093 261.09 164.158C261.155 164.223 261.188 164.307 261.188 164.41V166.72H262.938C263.041 166.72 263.125 166.753 263.19 166.818C263.265 166.883 263.302 166.967 263.302 167.07V168.204C263.302 168.307 263.265 168.391 263.19 168.456C263.125 168.521 263.041 168.554 262.938 168.554H261.188V171.046C261.188 171.737 261.454 172.082 261.986 172.082H263.064C263.167 172.082 263.251 172.115 263.316 172.18C263.381 172.245 263.414 172.329 263.414 172.432V173.65C263.414 173.743 263.381 173.827 263.316 173.902C263.251 173.967 263.167 174 263.064 174H261.762ZM268.017 174.14C266.86 174.14 265.968 173.865 265.343 173.314C264.718 172.763 264.377 171.989 264.321 170.99C264.312 170.869 264.307 170.659 264.307 170.36C264.307 170.061 264.312 169.851 264.321 169.73C264.377 168.741 264.727 167.971 265.371 167.42C266.015 166.86 266.897 166.58 268.017 166.58C269.146 166.58 270.033 166.86 270.677 167.42C271.321 167.971 271.671 168.741 271.727 169.73C271.736 169.851 271.741 170.061 271.741 170.36C271.741 170.659 271.736 170.869 271.727 170.99C271.671 171.989 271.33 172.763 270.705 173.314C270.08 173.865 269.184 174.14 268.017 174.14ZM268.017 172.432C268.428 172.432 268.731 172.311 268.927 172.068C269.123 171.816 269.235 171.433 269.263 170.92C269.272 170.827 269.277 170.64 269.277 170.36C269.277 170.08 269.272 169.893 269.263 169.8C269.235 169.296 269.118 168.918 268.913 168.666C268.717 168.414 268.418 168.288 268.017 168.288C267.242 168.288 266.832 168.792 266.785 169.8L266.771 170.36L266.785 170.92C266.804 171.433 266.911 171.816 267.107 172.068C267.312 172.311 267.616 172.432 268.017 172.432ZM272.621 175.176C272.537 175.176 272.463 175.143 272.397 175.078C272.341 175.022 272.313 174.957 272.313 174.882C272.313 174.863 272.327 174.817 272.355 174.742L277.087 163.332C277.199 163.108 277.367 162.996 277.591 162.996H278.851C278.935 162.996 279.005 163.029 279.061 163.094C279.117 163.15 279.145 163.215 279.145 163.29C279.145 163.337 279.136 163.383 279.117 163.43L274.357 174.84C274.264 175.064 274.096 175.176 273.853 175.176H272.621ZM285.861 174C285.562 174 285.371 173.86 285.287 173.58L282.431 164.62L282.403 164.494C282.403 164.419 282.431 164.354 282.487 164.298C282.552 164.233 282.627 164.2 282.711 164.2H284.447C284.578 164.2 284.685 164.237 284.769 164.312C284.862 164.387 284.923 164.471 284.951 164.564L286.939 171.032L288.913 164.564C288.941 164.471 288.997 164.387 289.081 164.312C289.174 164.237 289.286 164.2 289.417 164.2H291.167C291.242 164.2 291.307 164.233 291.363 164.298C291.428 164.354 291.461 164.419 291.461 164.494L291.433 164.62L288.577 173.58C288.493 173.86 288.302 174 288.003 174H285.861ZM292.95 165.67C292.847 165.67 292.763 165.637 292.698 165.572C292.633 165.507 292.6 165.423 292.6 165.32V164.06C292.6 163.957 292.633 163.873 292.698 163.808C292.763 163.743 292.847 163.71 292.95 163.71H294.63C294.733 163.71 294.817 163.743 294.882 163.808C294.947 163.873 294.98 163.957 294.98 164.06V165.32C294.98 165.423 294.947 165.507 294.882 165.572C294.817 165.637 294.733 165.67 294.63 165.67H292.95ZM292.964 174C292.861 174 292.777 173.967 292.712 173.902C292.647 173.837 292.614 173.753 292.614 173.65V167.07C292.614 166.967 292.647 166.883 292.712 166.818C292.777 166.753 292.861 166.72 292.964 166.72H294.616C294.719 166.72 294.803 166.753 294.868 166.818C294.933 166.883 294.966 166.967 294.966 167.07V173.65C294.966 173.743 294.933 173.827 294.868 173.902C294.803 173.967 294.719 174 294.616 174H292.964ZM299.336 174.14C298.421 174.14 297.707 173.855 297.194 173.286C296.69 172.707 296.415 171.895 296.368 170.85L296.354 170.36L296.368 169.856C296.405 168.848 296.681 168.05 297.194 167.462C297.717 166.874 298.431 166.58 299.336 166.58C300.185 166.58 300.871 166.855 301.394 167.406V164.41C301.394 164.307 301.427 164.223 301.492 164.158C301.557 164.093 301.641 164.06 301.744 164.06H303.452C303.555 164.06 303.639 164.093 303.704 164.158C303.769 164.223 303.802 164.307 303.802 164.41V173.65C303.802 173.743 303.769 173.827 303.704 173.902C303.639 173.967 303.555 174 303.452 174H301.87C301.777 174 301.693 173.967 301.618 173.902C301.553 173.827 301.52 173.743 301.52 173.65V173.202C301.007 173.827 300.279 174.14 299.336 174.14ZM300.106 172.264C300.526 172.264 300.839 172.133 301.044 171.872C301.249 171.601 301.366 171.256 301.394 170.836C301.403 170.715 301.408 170.537 301.408 170.304C301.408 170.08 301.403 169.907 301.394 169.786C301.375 169.403 301.259 169.086 301.044 168.834C300.829 168.582 300.517 168.456 300.106 168.456C299.667 168.456 299.35 168.587 299.154 168.848C298.967 169.109 298.86 169.469 298.832 169.926C298.823 170.019 298.818 170.164 298.818 170.36C298.818 170.556 298.823 170.701 298.832 170.794C298.86 171.251 298.967 171.611 299.154 171.872C299.35 172.133 299.667 172.264 300.106 172.264ZM308.812 174.14C307.692 174.14 306.81 173.837 306.166 173.23C305.522 172.623 305.186 171.741 305.158 170.584V170.094C305.195 168.993 305.536 168.134 306.18 167.518C306.833 166.893 307.706 166.58 308.798 166.58C309.591 166.58 310.259 166.743 310.8 167.07C311.351 167.387 311.761 167.826 312.032 168.386C312.312 168.946 312.452 169.59 312.452 170.318V170.654C312.452 170.747 312.419 170.831 312.354 170.906C312.289 170.971 312.205 171.004 312.102 171.004H307.622V171.102C307.641 171.541 307.748 171.895 307.944 172.166C308.14 172.437 308.425 172.572 308.798 172.572C309.031 172.572 309.223 172.525 309.372 172.432C309.521 172.329 309.657 172.208 309.778 172.068C309.862 171.965 309.927 171.905 309.974 171.886C310.03 171.858 310.114 171.844 310.226 171.844H311.962C312.046 171.844 312.116 171.872 312.172 171.928C312.237 171.975 312.27 172.04 312.27 172.124C312.27 172.367 312.13 172.647 311.85 172.964C311.579 173.281 311.183 173.557 310.66 173.79C310.137 174.023 309.521 174.14 308.812 174.14ZM309.988 169.618V169.59C309.988 169.133 309.881 168.773 309.666 168.512C309.461 168.241 309.171 168.106 308.798 168.106C308.434 168.106 308.145 168.241 307.93 168.512C307.725 168.773 307.622 169.133 307.622 169.59V169.618H309.988ZM317.208 174.14C316.051 174.14 315.16 173.865 314.534 173.314C313.909 172.763 313.568 171.989 313.512 170.99C313.503 170.869 313.498 170.659 313.498 170.36C313.498 170.061 313.503 169.851 313.512 169.73C313.568 168.741 313.918 167.971 314.562 167.42C315.206 166.86 316.088 166.58 317.208 166.58C318.338 166.58 319.224 166.86 319.868 167.42C320.512 167.971 320.862 168.741 320.918 169.73C320.928 169.851 320.932 170.061 320.932 170.36C320.932 170.659 320.928 170.869 320.918 170.99C320.862 171.989 320.522 172.763 319.896 173.314C319.271 173.865 318.375 174.14 317.208 174.14ZM317.208 172.432C317.619 172.432 317.922 172.311 318.118 172.068C318.314 171.816 318.426 171.433 318.454 170.92C318.464 170.827 318.468 170.64 318.468 170.36C318.468 170.08 318.464 169.893 318.454 169.8C318.426 169.296 318.31 168.918 318.104 168.666C317.908 168.414 317.61 168.288 317.208 168.288C316.434 168.288 316.023 168.792 315.976 169.8L315.962 170.36L315.976 170.92C315.995 171.433 316.102 171.816 316.298 172.068C316.504 172.311 316.807 172.432 317.208 172.432Z" fill="#2A2A29"/>
<defs>
<clipPath id="clip0">
<rect width="114.3" height="83.6" fill="white" transform="translate(196 70)"/>
</clipPath>
</defs>
</svg>
