<svg width="74" height="74" viewBox="0 0 74 74" fill="none" xmlns="http://www.w3.org/2000/svg">
<circle cx="37" cy="37" r="37" fill="white"/>
<path d="M18.6001 20.6H51.9001C52.6001 20.6 53.1001 21.1 53.1001 21.8V51.5C53.1001 52.2 52.6001 52.7 51.9001 52.7H19.8001C19.1001 52.7 18.6001 52.2 18.6001 51.5V20.6Z" fill="white"/>
<path d="M24.6001 29.1H47.2001V39.8H24.6001V29.1Z" fill="#8EA4F3"/>
<path d="M25.7 43.2H36.4C37.1 43.2 37.6 43.7 37.6 44.4V48C37.6 48.7 37.1 49.2 36.4 49.2H25.7C25 49.2 24.5 48.7 24.5 48V44.4C24.6 43.7 25.1 43.2 25.7 43.2Z" fill="#FF7DBB"/>
<path d="M25.7001 23.6H26.9001C27.6001 23.6 28.1001 24.1 28.1001 24.8V26C28.1001 26.7 27.6001 27.2 26.9001 27.2H25.7001C25.1001 27.2 24.6001 26.6 24.6001 26V24.8C24.6001 24.1 25.1001 23.6 25.7001 23.6Z" fill="#FF7DBB"/>
<path d="M48.3001 45.6H40.0001C39.7001 45.6 39.4001 45.9 39.4001 46.2C39.4001 46.5 39.7001 46.8 40.0001 46.8H48.3001C48.6001 46.8 48.9001 46.5 48.9001 46.2C48.9001 45.9 48.7001 45.6 48.3001 45.6Z" fill="#2A2A29"/>
<path d="M48.3001 43.2H40.0001C39.7001 43.2 39.4001 43.5 39.4001 43.8C39.4001 44.1 39.7001 44.4 40.0001 44.4H48.3001C48.6001 44.4 48.9001 44.1 48.9001 43.8C48.9001 43.5 48.7001 43.2 48.3001 43.2Z" fill="#2A2A29"/>
<path d="M46.2001 24.8H29.9C29.6 24.8 29.3 25.1 29.3 25.4C29.3 25.7 29.6 26 29.9 26H46.2001C46.5 26 46.8 25.7 46.8 25.4C46.8 25.1 46.6 24.8 46.2001 24.8Z" fill="#2A2A29"/>
<path d="M48.3001 48H40.0001C39.7001 48 39.4001 48.3 39.4001 48.6C39.4001 48.9 39.7001 49.2 40.0001 49.2H48.3001C48.6001 49.2 48.9001 48.9 48.9001 48.6C48.9001 48.3 48.7001 48 48.3001 48Z" fill="#2A2A29"/>
<rect x="19" y="20" width="34" height="33" rx="3" stroke="#2A2A29" stroke-width="2"/>
<path d="M62 21.5C62 25.6421 58.6421 29 54.5 29C50.3579 29 47 25.6421 47 21.5C47 17.3579 50.3579 14 54.5 14C58.6421 14 62 17.3579 62 21.5Z" fill="#2A2A29" stroke="white"/>
<path fill-rule="evenodd" clip-rule="evenodd" d="M53.8 24.3C53.8 24.6866 54.1134 25 54.5 25C54.8866 25 55.2 24.6866 55.2 24.3V22.2H57.3C57.6866 22.2 58 21.8866 58 21.5C58 21.1134 57.6866 20.8 57.3 20.8H55.2V18.7C55.2 18.3134 54.8866 18 54.5 18C54.1134 18 53.8 18.3134 53.8 18.7V20.8H51.7C51.3134 20.8 51 21.1134 51 21.5C51 21.8866 51.3134 22.2 51.7 22.2H53.8V24.3Z" fill="white"/>
</svg>
