<svg width="74" height="74" viewBox="0 0 74 74" fill="none" xmlns="http://www.w3.org/2000/svg">
<circle cx="37" cy="37" r="37" fill="white"/>
<path d="M50.9 48H24.7C22.7 48 21 46.3 21 44.3V27.7C21 25.7 22.7 24 24.7 24H50.9C52.9 24 54.6 25.7 54.6 27.7V44.3C54.6 46.3 52.9 48 50.9 48Z" stroke="#2A2A29" stroke-width="2" stroke-miterlimit="10"/>
<path d="M55.5 29.5H20.2V35H55.5V29.5Z" fill="#2A2A29"/>
<path d="M28.0999 44.3C29.5911 44.3 30.7999 43.0912 30.7999 41.6C30.7999 40.1088 29.5911 38.9 28.0999 38.9C26.6087 38.9 25.3999 40.1088 25.3999 41.6C25.3999 43.0912 26.6087 44.3 28.0999 44.3Z" fill="#FF7DBB"/>
<path d="M32.5 44.3C33.9912 44.3 35.2 43.0912 35.2 41.6C35.2 40.1088 33.9912 38.9 32.5 38.9C31.0089 38.9 29.8 40.1088 29.8 41.6C29.8 43.0912 31.0089 44.3 32.5 44.3Z" fill="#8EA4F3"/>
<path d="M53.5 32C58.7467 32 63 27.7467 63 22.5C63 17.2533 58.7467 13 53.5 13C48.2533 13 44 17.2533 44 22.5C44 27.7467 48.2533 32 53.5 32Z" fill="white"/>
<path d="M53.5 30.4C57.7526 30.4 61.2001 26.9526 61.2001 22.7C61.2001 18.4474 57.7526 15 53.5 15C49.2475 15 45.8 18.4474 45.8 22.7C45.8 26.9526 49.2475 30.4 53.5 30.4Z" fill="#2A2A29"/>
<path d="M54.3 18.1V19C54.7 19.1 55.0001 19.2 55.2001 19.4C55.4001 19.6 55.6001 19.9 55.9001 20.2L55 20.7C54.7 20.2 54.4 20 53.9 20C53.6 20 53.4001 20.1 53.2001 20.2C53.0001 20.4 52.9 20.6 52.9 20.8C52.9 21 53 21.2 53.1 21.3C53.2 21.4 53.5 21.6 54 21.8C54.4 22 54.7001 22.1 54.9001 22.3C55.1001 22.4 55.3001 22.6 55.4001 22.7C55.7001 23.1 55.9001 23.5 55.9001 24.1C55.9001 24.6 55.7001 25.1 55.4001 25.5C55.1001 25.9 54.7001 26.2 54.2001 26.3V27.3H53.4V26.4C52.8 26.3 52.3 26.1 52 25.8C51.7 25.5 51.5 25 51.3 24.3L52.3 24.1C52.4 24.6 52.6 24.9 52.8 25.1C53 25.3 53.3001 25.4 53.6 25.4C53.9 25.4 54.2001 25.3 54.4001 25.1C54.6001 24.9 54.7001 24.6 54.7001 24.3C54.7001 24 54.6001 23.8 54.4001 23.6C54.3001 23.5 54.2 23.4 54 23.3C53.8 23.2 53.6 23.1 53.3 22.9C52.7 22.6 52.3001 22.4 52.1 22.2C51.8 21.9 51.7001 21.5 51.7001 21C51.7001 20.8 51.7 20.6 51.8 20.4C51.9 20.2 52 20 52.1 19.9C52.2 19.7 52.4 19.6 52.6 19.5C52.8001 19.4 53 19.3 53.3 19.2V18.3H54.3V18.1Z" fill="white"/>
</svg>
