<svg width="12" height="14" viewBox="0 0 12 14" fill="none" xmlns="http://www.w3.org/2000/svg">
<path d="M3.75781 7.9375H2.74219C2.53906 7.9375 2.4375 7.83594 2.4375 7.63281V6.61719C2.4375 6.41406 2.53906 6.3125 2.74219 6.3125H3.75781C3.96094 6.3125 4.0625 6.41406 4.0625 6.61719V7.63281C4.0625 7.83594 3.96094 7.9375 3.75781 7.9375ZM6.5 7.63281C6.5 7.83594 6.39844 7.9375 6.19531 7.9375H5.17969C4.97656 7.9375 4.875 7.83594 4.875 7.63281V6.61719C4.875 6.41406 4.97656 6.3125 5.17969 6.3125H6.19531C6.39844 6.3125 6.5 6.41406 6.5 6.61719V7.63281ZM8.9375 7.63281C8.9375 7.83594 8.83594 7.9375 8.63281 7.9375H7.61719C7.41406 7.9375 7.3125 7.83594 7.3125 7.63281V6.61719C7.3125 6.41406 7.41406 6.3125 7.61719 6.3125H8.63281C8.83594 6.3125 8.9375 6.41406 8.9375 6.61719V7.63281ZM6.5 10.0703C6.5 10.2734 6.39844 10.375 6.19531 10.375H5.17969C4.97656 10.375 4.875 10.2734 4.875 10.0703V9.05469C4.875 8.85156 4.97656 8.75 5.17969 8.75H6.19531C6.39844 8.75 6.5 8.85156 6.5 9.05469V10.0703ZM4.0625 10.0703C4.0625 10.2734 3.96094 10.375 3.75781 10.375H2.74219C2.53906 10.375 2.4375 10.2734 2.4375 10.0703V9.05469C2.4375 8.85156 2.53906 8.75 2.74219 8.75H3.75781C3.96094 8.75 4.0625 8.85156 4.0625 9.05469V10.0703ZM8.9375 10.0703C8.9375 10.2734 8.83594 10.375 8.63281 10.375H7.61719C7.41406 10.375 7.3125 10.2734 7.3125 10.0703V9.05469C7.3125 8.85156 7.41406 8.75 7.61719 8.75H8.63281C8.83594 8.75 8.9375 8.85156 8.9375 9.05469V10.0703ZM11.375 3.46875V12.4062C11.375 12.7448 11.2565 13.0326 11.0195 13.2695C10.7826 13.5065 10.4948 13.625 10.1562 13.625H1.21875C0.880208 13.625 0.592448 13.5065 0.355469 13.2695C0.11849 13.0326 0 12.7448 0 12.4062V3.46875C0 3.13021 0.11849 2.84245 0.355469 2.60547C0.592448 2.36849 0.880208 2.25 1.21875 2.25H2.4375V0.929688C2.4375 0.726562 2.53906 0.625 2.74219 0.625H3.75781C3.96094 0.625 4.0625 0.726562 4.0625 0.929688V2.25H7.3125V0.929688C7.3125 0.726562 7.41406 0.625 7.61719 0.625H8.63281C8.83594 0.625 8.9375 0.726562 8.9375 0.929688V2.25H10.1562C10.4948 2.25 10.7826 2.36849 11.0195 2.60547C11.2565 2.84245 11.375 3.13021 11.375 3.46875ZM10.1562 12.2539V4.6875H1.21875V12.2539C1.21875 12.3555 1.26953 12.4062 1.37109 12.4062H10.0039C10.1055 12.4062 10.1562 12.3555 10.1562 12.2539Z" fill="#CDCDCD"/>
</svg>
