<svg width="531" height="80" viewBox="0 0 531 80" fill="none" xmlns="http://www.w3.org/2000/svg">
<path d="M0.00122852 74.0811C0.00128255 77.3392 2.59666 80.0091 5.85471 79.9987C55.5083 79.8402 114.421 63.5749 193.283 61.7031C289.571 59.4178 390.25 76.0648 488.521 76.0648C501.383 76.0648 513.571 75.8752 525.197 75.5456C528.433 75.4538 531 72.7988 531 69.5617L531 6.0001C531 2.6864 528.314 9.81267e-05 525 9.75113e-05L6.00012 1.11444e-06C2.68638 4.98956e-07 4.45491e-05 2.68635 9.95027e-05 6.0001L0.00122852 74.0811Z" fill="url(#paint0_linear)"/>
<defs>
<linearGradient id="paint0_linear" x1="266.207" y1="-14.7367" x2="266.207" y2="79.9993" gradientUnits="userSpaceOnUse">
<stop stop-color="#FFA7D1"/>
<stop offset="1" stop-color="#A2B6FF"/>
</linearGradient>
</defs>
</svg>
