<svg width="141" height="108" viewBox="0 0 141 108" fill="none" xmlns="http://www.w3.org/2000/svg">
<g clip-path="url(#clip0)" filter="url(#filter0_d)">
<path d="M27 17.8824C27 15.121 29.2386 12.8824 32 12.8824H90.5433C93.3047 12.8824 95.5433 15.121 95.5433 17.8824V75.4273C95.5433 78.1887 93.3047 80.4273 90.5433 80.4273H32C29.2386 80.4273 27 78.1887 27 75.4273V17.8824Z" fill="#EDB48A" stroke="#DFA176" stroke-width="2"/>
<path d="M67.9336 45.0862C67.9336 41.7725 70.6199 39.0862 73.9336 39.0862H96.5435V81.4273H67.9336V45.0862Z" fill="#DFA176"/>
<path d="M92.0002 11.9996C94.7563 11.9996 96.9855 14.2435 96.9674 16.9995L96.5749 76.7756C96.558 79.3496 94.4666 81.4273 91.8926 81.4273L92.0002 11.9996Z" fill="#DFA176"/>
<path d="M71.8566 35.5038L61.2725 29.3071L50.6865 35.5038V13.8828H71.8566V35.5038Z" fill="#61B5E6"/>
<path d="M79.0151 56.6525H89.2711V74.473H79.0151V56.6525Z" fill="#FC3E81"/>
<path d="M35.9439 72.908V67.5315C35.9439 66.6044 35.1911 65.8516 34.2639 65.8516C33.3358 65.8516 32.584 66.6044 32.584 67.5315V72.908C32.584 73.8351 33.3358 74.5879 34.2639 74.5879C35.1911 74.5879 35.9439 73.8351 35.9439 72.908ZM41.8303 72.908V67.5315C41.8303 66.6044 41.0775 65.8516 40.1504 65.8516C39.2223 65.8516 38.4704 66.6044 38.4704 67.5315V72.908C38.4704 73.8351 39.2223 74.5879 40.1504 74.5879C41.0775 74.5879 41.8303 73.8351 41.8303 72.908ZM47.7158 72.908V67.5315C47.7158 66.6044 46.9639 65.8516 46.0358 65.8516C45.1077 65.8516 44.3559 66.6044 44.3559 67.5315V72.908C44.3559 73.8351 45.1077 74.5879 46.0358 74.5879C46.9639 74.5879 47.7158 73.8351 47.7158 72.908Z" fill="#8F877C"/>
<path d="M72.8569 45.0862C72.8569 42.3248 75.0955 40.0862 77.8569 40.0862H124C126.762 40.0862 129 42.3248 129 45.0862V88.0626C129 90.8241 126.762 93.0626 124 93.0626H77.8569C75.0955 93.0626 72.8569 90.8241 72.8569 88.0626V45.0862Z" fill="#EDB48A" stroke="#DFA176" stroke-width="2"/>
<path d="M107.549 58.8614L100.928 54.985L94.3076 58.8614V41.0859H107.549V58.8614Z" fill="#958FEA"/>
<path d="M112.471 78.1671C112.471 77.0625 113.367 76.1671 114.471 76.1671H120.726C121.831 76.1671 122.726 77.0625 122.726 78.1671V85.1083C122.726 86.2129 121.831 87.1083 120.726 87.1083H114.471C113.367 87.1083 112.471 86.2129 112.471 85.1083V78.1671Z" fill="#F2D57E"/>
<path d="M81.8003 85.5427V80.1663C81.8003 79.2382 81.0485 78.4863 80.1204 78.4863C79.1923 78.4863 78.4404 79.2382 78.4404 80.1663V85.5427C78.4404 86.4699 79.1923 87.2227 80.1204 87.2227C81.0485 87.2227 81.8003 86.4699 81.8003 85.5427ZM87.6868 85.5427V80.1663C87.6868 79.2382 86.9349 78.4863 86.0068 78.4863C85.0796 78.4863 84.3268 79.2382 84.3268 80.1663V85.5427C84.3268 86.4699 85.0796 87.2227 86.0068 87.2227C86.9349 87.2227 87.6868 86.4699 87.6868 85.5427ZM93.5722 85.5427V80.1663C93.5722 79.2382 92.8204 78.4863 91.8923 78.4863C90.9651 78.4863 90.2123 79.2382 90.2123 80.1663V85.5427C90.2123 86.4699 90.9651 87.2227 91.8923 87.2227C92.8204 87.2227 93.5722 86.4699 93.5722 85.5427Z" fill="#8F877C"/>
</g>
<g filter="url(#filter1_d)">
<path d="M59.8991 51.4788V61.9896H49.9829V51.4788C49.9823 48.8504 52.0335 46.6786 54.6573 46.528C54.7519 46.5233 54.8466 46.5204 54.9413 46.5204C57.6788 46.5216 59.8985 48.7407 59.8991 51.4788Z" fill="#D1D1D1"/>
<path d="M54.657 46.5204V46.528C52.0332 46.6786 49.9821 48.8504 49.9826 51.4788V70.2952L49.9751 90.0797L49.9601 94.0272C49.6501 98.2288 46.2187 101.539 42.0287 101.539H42.0241C41.8601 101.539 41.6973 101.534 41.5362 101.524V101.523C37.3705 101.265 34.0689 97.7306 34.0689 93.4078V88.1423H11.9805L12.2743 52.1294C12.3055 49.0224 14.8335 46.5199 17.9405 46.5204H54.657Z" fill="#EDEDED"/>
<path d="M41.5363 101.523V101.524L41.5351 101.539H11.9551C7.56191 101.539 4 97.8974 4 93.4078V88.1423H34.069V93.4078C34.069 97.7306 37.3705 101.265 41.5363 101.523Z" fill="#D1D1D1"/>
<path d="M41.5805 59.2944H40.7988C40.3093 59.2944 39.9121 58.8978 39.9121 58.4077C39.9121 57.9182 40.3093 57.521 40.7988 57.521H41.5805C42.0706 57.521 42.4672 57.9182 42.4672 58.4077C42.4672 58.8978 42.0706 59.2944 41.5805 59.2944Z" fill="#595959"/>
<path d="M37.4947 59.2944H34.375C33.8849 59.2944 33.4883 58.8978 33.4883 58.4077C33.4883 57.9182 33.8849 57.521 34.375 57.521H37.4947C37.9843 57.521 38.3814 57.9182 38.3814 58.4077C38.3814 58.8978 37.9843 59.2944 37.4947 59.2944Z" fill="#595959"/>
<path d="M31.3423 59.2944H20.648C20.1584 59.2944 19.7612 58.8978 19.7612 58.4077C19.7612 57.9182 20.1584 57.521 20.648 57.521H31.3423C31.8319 57.521 32.2291 57.9182 32.2291 58.4077C32.2291 58.8978 31.8319 59.2944 31.3423 59.2944Z" fill="#595959"/>
<path d="M41.5807 65.205H24.0298C23.5397 65.205 23.1431 64.8084 23.1431 64.3183C23.1431 63.8288 23.5397 63.4316 24.0298 63.4316H41.5807C42.0708 63.4316 42.4674 63.8288 42.4674 64.3183C42.4674 64.8084 42.0708 65.205 41.5807 65.205Z" fill="#595959"/>
<path d="M20.9972 65.205H20.648C20.1584 65.205 19.7612 64.8084 19.7612 64.3183C19.7612 63.8288 20.1584 63.4316 20.648 63.4316H20.9972C21.4868 63.4316 21.8839 63.8288 21.8839 64.3183C21.8839 64.8084 21.4868 65.205 20.9972 65.205Z" fill="#595959"/>
<path d="M41.5805 77.029H40.7988C40.3093 77.029 39.9121 76.6324 39.9121 76.1423C39.9121 75.6527 40.3093 75.2556 40.7988 75.2556H41.5805C42.0706 75.2556 42.4672 75.6527 42.4672 76.1423C42.4672 76.6324 42.0706 77.029 41.5805 77.029Z" fill="#595959"/>
<path d="M37.4947 77.029H34.375C33.8849 77.029 33.4883 76.6324 33.4883 76.1423C33.4883 75.6527 33.8849 75.2556 34.375 75.2556H37.4947C37.9843 75.2556 38.3814 75.6527 38.3814 76.1423C38.3814 76.6324 37.9843 77.029 37.4947 77.029Z" fill="#595959"/>
<path d="M31.3423 77.029H20.648C20.1584 77.029 19.7612 76.6324 19.7612 76.1423C19.7612 75.6527 20.1584 75.2556 20.648 75.2556H31.3423C31.8319 75.2556 32.2291 75.6527 32.2291 76.1423C32.2291 76.6324 31.8319 77.029 31.3423 77.029Z" fill="#595959"/>
<path d="M41.5807 71.1166H37.8433C37.3537 71.1166 36.9565 70.72 36.9565 70.2299C36.9565 69.7403 37.3537 69.3431 37.8433 69.3431H41.5807C42.0708 69.3431 42.4674 69.7403 42.4674 70.2299C42.4674 70.72 42.0708 71.1166 41.5807 71.1166Z" fill="#595959"/>
<path d="M34.539 71.1166H25.5078C25.0177 71.1166 24.6211 70.72 24.6211 70.2299C24.6211 69.7403 25.0177 69.3431 25.5078 69.3431H34.539C35.0286 69.3431 35.4257 69.7403 35.4257 70.2299C35.4257 70.72 35.0286 71.1166 34.539 71.1166Z" fill="#595959"/>
<path d="M22.4751 71.1166H20.648C20.1584 71.1166 19.7612 70.72 19.7612 70.2299C19.7612 69.7403 20.1584 69.3431 20.648 69.3431H22.4751C22.9646 69.3431 23.3618 69.7403 23.3618 70.2299C23.3618 70.72 22.9646 71.1166 22.4751 71.1166Z" fill="#595959"/>
<path d="M41.5808 82.9396H38.8086C38.3185 82.9396 37.9219 82.543 37.9219 82.0529C37.9219 81.5633 38.3185 81.1661 38.8086 81.1661H41.5808C42.0709 81.1661 42.4675 81.5633 42.4675 82.0529C42.4675 82.543 42.0709 82.9396 41.5808 82.9396Z" fill="#595959"/>
<path d="M35.776 82.9396H20.648C20.1584 82.9396 19.7612 82.543 19.7612 82.0529C19.7612 81.5633 20.1584 81.1661 20.648 81.1661H35.776C36.2655 81.1661 36.6627 81.5633 36.6627 82.0529C36.6627 82.543 36.2655 82.9396 35.776 82.9396Z" fill="#595959"/>
</g>
<defs>
<filter id="filter0_d" x="15" y="-10" width="126" height="126" filterUnits="userSpaceOnUse" color-interpolation-filters="sRGB">
<feFlood flood-opacity="0" result="BackgroundImageFix"/>
<feColorMatrix in="SourceAlpha" type="matrix" values="0 0 0 0 0 0 0 0 0 0 0 0 0 0 0 0 0 0 127 0"/>
<feOffset/>
<feGaussianBlur stdDeviation="5.5"/>
<feColorMatrix type="matrix" values="0 0 0 0 0.971094 0 0 0 0 0.763523 0 0 0 0 0.452166 0 0 0 0.8 0"/>
<feBlend mode="normal" in2="BackgroundImageFix" result="effect1_dropShadow"/>
<feBlend mode="normal" in="SourceGraphic" in2="effect1_dropShadow" result="shape"/>
</filter>
<filter id="filter1_d" x="0" y="36" width="76" height="76" filterUnits="userSpaceOnUse" color-interpolation-filters="sRGB">
<feFlood flood-opacity="0" result="BackgroundImageFix"/>
<feColorMatrix in="SourceAlpha" type="matrix" values="0 0 0 0 0 0 0 0 0 0 0 0 0 0 0 0 0 0 127 0"/>
<feOffset/>
<feGaussianBlur stdDeviation="2"/>
<feColorMatrix type="matrix" values="0 0 0 0 0.375 0 0 0 0 0.375 0 0 0 0 0.375 0 0 0 0.12 0"/>
<feBlend mode="normal" in2="BackgroundImageFix" result="effect1_dropShadow"/>
<feBlend mode="normal" in="SourceGraphic" in2="effect1_dropShadow" result="shape"/>
</filter>
<clipPath id="clip0">
<rect width="104" height="104" fill="white" transform="translate(26 1)"/>
</clipPath>
</defs>
</svg>
