<svg width="72" height="71" viewBox="0 0 72 71" fill="none" xmlns="http://www.w3.org/2000/svg">
<path d="M55.8989 11.4788V21.9897H45.9827V11.4788C45.9821 8.85042 48.0332 6.67864 50.657 6.52797C50.7517 6.52335 50.8464 6.52046 50.9411 6.52046C53.6786 6.52162 55.8983 8.74074 55.8989 11.4788Z" fill="#D1D1D1"/>
<path d="M30.0689 47.6423H8.48457L8.77429 12.1345C8.77429 12.1343 8.77429 12.1342 8.77429 12.134C8.80296 9.30139 11.1078 7.01994 13.9404 7.02046H13.9405H47.7903C46.3898 8.01187 45.4823 9.64429 45.4826 11.4788C45.4826 11.4789 45.4826 11.4789 45.4826 11.479V30.295V30.2952L45.4751 50.0778L45.4751 50.0795L45.4602 54.0076C45.1606 57.9511 41.9399 61.039 38.0287 61.039H38.0241C37.9172 61.039 37.8116 61.0369 37.7074 61.0324L37.5671 61.0238C33.6726 60.7831 30.5689 57.4741 30.5689 53.4078V48.1423V47.6423H30.0689Z" fill="white" stroke="#F3F3F3"/>
<path d="M37.5363 61.5228V61.524L37.5351 61.539H7.95512C3.56191 61.539 0 57.8974 0 53.4078V48.1423H30.069V53.4078C30.069 57.7306 33.3705 61.2653 37.5363 61.5228Z" fill="#D1D1D1"/>
<path d="M37.581 20.2944H34.7993C34.3098 20.2944 33.9126 19.8978 33.9126 19.4077C33.9126 18.9182 34.3098 18.521 34.7993 18.521H37.581C38.0711 18.521 38.4677 18.9182 38.4677 19.4077C38.4677 19.8978 38.0711 20.2944 37.581 20.2944Z" fill="#FF5252"/>
<path d="M31.3426 20.2944H24.6482C24.1587 20.2944 23.7615 19.8978 23.7615 19.4077C23.7615 18.9182 24.1587 18.521 24.6482 18.521H31.3426C31.8321 18.521 32.2293 18.9182 32.2293 19.4077C32.2293 19.8978 31.8321 20.2944 31.3426 20.2944Z" fill="#595959"/>
<path d="M37.581 24.2046H25.03C24.5399 24.2046 24.1433 23.808 24.1433 23.3179C24.1433 22.8283 24.5399 22.4311 25.03 22.4311H37.581C38.0711 22.4311 38.4677 22.8283 38.4677 23.3179C38.4677 23.808 38.0711 24.2046 37.581 24.2046Z" fill="#8EA4F3"/>
<path d="M37.581 37.029H36.7993C36.3098 37.029 35.9126 36.6324 35.9126 36.1422C35.9126 35.6527 36.3098 35.2555 36.7993 35.2555H37.581C38.0711 35.2555 38.4677 35.6527 38.4677 36.1422C38.4677 36.6324 38.0711 37.029 37.581 37.029Z" fill="#595959"/>
<path d="M33.3426 37.029H24.6482C24.1587 37.029 23.7615 36.6324 23.7615 36.1422C23.7615 35.6527 24.1587 35.2555 24.6482 35.2555H33.3426C33.8321 35.2555 34.2293 35.6527 34.2293 36.1422C34.2293 36.6324 33.8321 37.029 33.3426 37.029Z" fill="#8EA4F3"/>
<path d="M37.5809 33.1167H33.8435C33.354 33.1167 32.9568 32.7201 32.9568 32.23C32.9568 31.7404 33.354 31.3432 33.8435 31.3432H37.5809C38.071 31.3432 38.4676 31.7404 38.4676 32.23C38.4676 32.7201 38.071 33.1167 37.5809 33.1167Z" fill="#595959"/>
<path d="M30.539 33.1167H24.5078C24.0177 33.1167 23.6211 32.7201 23.6211 32.23C23.6211 31.7404 24.0177 31.3432 24.5078 31.3432H30.539C31.0286 31.3432 31.4257 31.7404 31.4257 32.23C31.4257 32.7201 31.0286 33.1167 30.539 33.1167Z" fill="#595959"/>
<rect x="15" y="18" width="7" height="7" rx="2" fill="#C1EAFF"/>
<rect x="15" y="31" width="7" height="7" rx="2" fill="#C1EAFF"/>
<g filter="url(#filter0_d)">
<path d="M54.4966 52.3857L50.9754 54.2533L58.1441 65.0154C60.1343 66.7997 62.1924 65.7082 61.6654 63.148L54.4966 52.3857Z" fill="#8EA4F3"/>
<path d="M56.1938 51.1126L54.5836 48.2475C53.6531 49.153 52.5691 49.94 51.3421 50.5689C50.1289 51.1908 48.8458 51.6258 47.5286 51.8713L49.1357 54.7309C49.3194 55.058 49.743 55.1856 50.0769 55.0144L55.921 52.0184C56.2547 51.8473 56.3775 51.4397 56.1938 51.1126Z" fill="#8574E3"/>
<path d="M51.089 53.7001L49.7353 51.2722C49.014 51.5386 48.2748 51.7432 47.5246 51.8852L49.1076 54.7242C49.2885 55.049 49.7069 55.1749 50.0372 55.0042L52.0186 53.98C51.6882 54.1508 51.2701 54.0249 51.089 53.7001Z" fill="#6656BF"/>
<path d="M56.8444 32.0792L57.2486 31.8593L56.8445 32.0792C60.4259 38.6613 57.9626 46.8403 51.3415 50.3498C44.7175 53.8606 36.4405 51.3679 32.8567 44.7823C29.2752 38.2001 31.7388 30.0212 38.3594 26.5119C44.9842 23.0007 53.2613 25.4935 56.8444 32.0792Z" fill="#8EA4F3" stroke="#8398E5" stroke-width="0.920103"/>
<path d="M49.45 47.2228C44.6749 49.7874 38.7247 47.9953 36.16 43.2197C33.5954 38.4449 35.3875 32.4944 40.1627 29.9298C44.9377 27.3653 50.8882 29.1576 53.4527 33.9326C56.0173 38.708 54.2252 44.6581 49.45 47.2228Z" fill="#C1EAFF"/>
<path d="M49.5298 47.2327C49.9667 46.998 50.378 46.7345 50.7641 46.4468C46.2424 48.0746 41.0906 46.1909 38.7484 41.8298C36.4064 37.4692 37.6813 32.1339 41.5354 29.2632C41.0822 29.4263 40.6355 29.6237 40.1986 29.8583C35.4009 32.435 33.6004 38.4133 36.177 43.2108C38.7539 48.0089 44.7322 49.8094 49.5298 47.2327Z" fill="#A7D4EB"/>
<path d="M47.6869 34.3879C48.4479 34.5732 49.3653 33.9562 49.7361 33.0098C50.1069 32.0633 49.7906 31.1459 49.0297 30.9606C48.2687 30.7753 47.3513 31.3923 46.9805 32.3388C46.6097 33.2852 46.926 34.2026 47.6869 34.3879Z" fill="white"/>
<path d="M50.6984 36.5209C51.2374 36.6522 51.8873 36.2151 52.1499 35.5447C52.4126 34.8743 52.1885 34.2245 51.6495 34.0932C51.1105 33.962 50.4607 34.399 50.198 35.0694C49.9354 35.7398 50.1594 36.3897 50.6984 36.5209Z" fill="white"/>
</g>
<defs>
<filter id="filter0_d" x="23.9437" y="18.2397" width="43.8768" height="52.0551" filterUnits="userSpaceOnUse" color-interpolation-filters="sRGB">
<feFlood flood-opacity="0" result="BackgroundImageFix"/>
<feColorMatrix in="SourceAlpha" type="matrix" values="0 0 0 0 0 0 0 0 0 0 0 0 0 0 0 0 0 0 127 0"/>
<feOffset dy="0.613402"/>
<feGaussianBlur stdDeviation="1.68686"/>
<feColorMatrix type="matrix" values="0 0 0 0 0.556863 0 0 0 0 0.643137 0 0 0 0 0.952941 0 0 0 0.592 0"/>
<feBlend mode="normal" in2="BackgroundImageFix" result="effect1_dropShadow"/>
<feBlend mode="normal" in="SourceGraphic" in2="effect1_dropShadow" result="shape"/>
</filter>
</defs>
</svg>
