<svg width="78" height="77" viewBox="0 0 78 77" fill="none" xmlns="http://www.w3.org/2000/svg">
<path d="M55.8991 11.4788V21.9897H45.9829V11.4788C45.9823 8.85042 48.0335 6.67864 50.6573 6.52797C50.7519 6.52335 50.8466 6.52046 50.9413 6.52046C53.6788 6.52162 55.8985 8.74074 55.8991 11.4788Z" fill="#D1D1D1"/>
<path d="M30.0689 47.6423H8.48457L8.77429 12.1345C8.77429 12.1343 8.77429 12.1342 8.77429 12.134C8.80296 9.30139 11.1078 7.01994 13.9404 7.02046H13.9405H47.7903C46.3898 8.01187 45.4823 9.64429 45.4826 11.4788C45.4826 11.4789 45.4826 11.4789 45.4826 11.479V30.295V30.2952L45.4751 50.0778L45.4751 50.0795L45.4602 54.0076C45.1606 57.9511 41.9399 61.039 38.0287 61.039H38.0241C37.9172 61.039 37.8116 61.0369 37.7074 61.0324L37.5671 61.0238C33.6726 60.7831 30.5689 57.4741 30.5689 53.4078V48.1423V47.6423H30.0689Z" fill="white" stroke="#F3F3F3"/>
<path d="M37.5363 61.5228V61.524L37.5351 61.539H7.95512C3.56191 61.539 0 57.8974 0 53.4078V48.1423H30.069V53.4078C30.069 57.7306 33.3705 61.2653 37.5363 61.5228Z" fill="#D1D1D1"/>
<path d="M37.581 20.2944H34.7993C34.3098 20.2944 33.9126 19.8978 33.9126 19.4077C33.9126 18.9182 34.3098 18.521 34.7993 18.521H37.581C38.0711 18.521 38.4677 18.9182 38.4677 19.4077C38.4677 19.8978 38.0711 20.2944 37.581 20.2944Z" fill="#FF5252"/>
<path d="M31.3428 20.2944H24.6484C24.1589 20.2944 23.7617 19.8978 23.7617 19.4077C23.7617 18.9182 24.1589 18.521 24.6484 18.521H31.3428C31.8324 18.521 32.2296 18.9182 32.2296 19.4077C32.2296 19.8978 31.8324 20.2944 31.3428 20.2944Z" fill="#595959"/>
<path d="M37.5807 24.2046H25.0298C24.5397 24.2046 24.1431 23.808 24.1431 23.3179C24.1431 22.8283 24.5397 22.4311 25.0298 22.4311H37.5807C38.0708 22.4311 38.4674 22.8283 38.4674 23.3179C38.4674 23.808 38.0708 24.2046 37.5807 24.2046Z" fill="#8EA4F3"/>
<path d="M37.3428 37.029H24.6484C24.1589 37.029 23.7617 36.6324 23.7617 36.1422C23.7617 35.6527 24.1589 35.2555 24.6484 35.2555H37.3428C37.8324 35.2555 38.2296 35.6527 38.2296 36.1422C38.2296 36.6324 37.8324 37.029 37.3428 37.029Z" fill="#8EA4F3"/>
<path d="M37.5807 33.1167H34.8433C34.3537 33.1167 33.9565 32.7201 33.9565 32.23C33.9565 31.7404 34.3537 31.3432 34.8433 31.3432H37.5807C38.0708 31.3432 38.4674 31.7404 38.4674 32.23C38.4674 32.7201 38.0708 33.1167 37.5807 33.1167Z" fill="#FF5252"/>
<path d="M30.539 33.1167H24.5078C24.0177 33.1167 23.6211 32.7201 23.6211 32.23C23.6211 31.7404 24.0177 31.3432 24.5078 31.3432H30.539C31.0286 31.3432 31.4257 31.7404 31.4257 32.23C31.4257 32.7201 31.0286 33.1167 30.539 33.1167Z" fill="#595959"/>
<rect x="15" y="18" width="7" height="7" rx="2" fill="#C1EAFF"/>
<rect x="15" y="31" width="7" height="7" rx="2" fill="#C1EAFF"/>
<g filter="url(#filter0_d)">
<circle cx="54.3176" cy="52.3176" r="15.3176" fill="white"/>
</g>
<path fill-rule="evenodd" clip-rule="evenodd" d="M57.7427 57.5871C57.8643 57.5783 57.9658 57.5332 58.0473 57.4517L59.4531 56.0458C59.5428 55.9562 59.5879 55.8546 59.5886 55.7412C59.5812 55.6197 59.5372 55.5187 59.4566 55.4381L56.6656 52.647L59.9944 49.3182C60.075 49.2376 60.119 49.1366 60.1264 49.0151C60.1257 48.9017 60.0806 48.8001 59.9909 48.7105L58.5851 47.3046C58.5036 47.2231 58.402 47.178 58.2804 47.1692C58.1589 47.1766 58.0579 47.2206 57.9773 47.3011L54.6485 50.63L51.2813 47.2628C51.1927 47.1742 51.0917 47.1302 50.9782 47.1309C50.8648 47.1315 50.7633 47.1767 50.6736 47.2663L49.2678 48.6721C49.1863 48.7536 49.1411 48.8552 49.1323 48.9768C49.1317 49.0902 49.1757 49.1913 49.2643 49.2799L52.6314 52.647L49.8021 55.4764C49.7134 55.565 49.6695 55.6661 49.6701 55.7795C49.6789 55.9011 49.7241 56.0027 49.8056 56.0842L51.2114 57.49C51.301 57.5796 51.4026 57.6248 51.516 57.6254C51.6295 57.6261 51.7305 57.5821 51.8191 57.4935L54.6485 54.6641L57.4396 57.4552C57.5201 57.5357 57.6212 57.5797 57.7427 57.5871Z" fill="#DF4D4D"/>
<path d="M58.0473 57.4517L58.3117 57.716L58.3117 57.716L58.0473 57.4517ZM57.7427 57.5871L57.7199 57.9603L57.7448 57.9618L57.7697 57.96L57.7427 57.5871ZM59.4531 56.0458L59.1888 55.7815L59.1888 55.7815L59.4531 56.0458ZM59.5886 55.7412L59.9624 55.7434L59.9625 55.7309L59.9618 55.7185L59.5886 55.7412ZM56.6656 52.647L56.4012 52.3827L56.1369 52.647L56.4012 52.9114L56.6656 52.647ZM59.9944 49.3182L60.2588 49.5826L60.2588 49.5826L59.9944 49.3182ZM60.1264 49.0151L60.4995 49.0378L60.5003 49.0254L60.5002 49.0129L60.1264 49.0151ZM59.9909 48.7105L59.7266 48.9748L59.9909 48.7105ZM58.5851 47.3046L58.8494 47.0403L58.8494 47.0403L58.5851 47.3046ZM58.2804 47.1692L58.3074 46.7963L58.2826 46.7945L58.2577 46.796L58.2804 47.1692ZM57.9773 47.3011L58.2417 47.5655L58.2417 47.5655L57.9773 47.3011ZM54.6485 50.63L54.3841 50.8943L54.6485 51.1587L54.9129 50.8943L54.6485 50.63ZM51.2813 47.2628L51.017 47.5272L51.017 47.5272L51.2813 47.2628ZM50.9782 47.1309L50.9804 47.5047H50.9804L50.9782 47.1309ZM50.6736 47.2663L50.4093 47.002L50.4093 47.002L50.6736 47.2663ZM49.2678 48.6721L49.5321 48.9365L49.2678 48.6721ZM49.1323 48.9768L48.7594 48.9498L48.7586 48.9622L48.7585 48.9746L49.1323 48.9768ZM49.2643 49.2799L48.9999 49.5442L48.9999 49.5442L49.2643 49.2799ZM52.6314 52.647L52.8958 52.9114L53.1602 52.647L52.8958 52.3827L52.6314 52.647ZM49.8021 55.4764L49.5377 55.2121H49.5377L49.8021 55.4764ZM49.6701 55.7795L49.2963 55.7817L49.2963 55.7941L49.2972 55.8065L49.6701 55.7795ZM49.8056 56.0842L50.0699 55.8198L50.0699 55.8198L49.8056 56.0842ZM51.2114 57.49L51.4757 57.2256H51.4757L51.2114 57.49ZM51.516 57.6254L51.5182 57.2516H51.5182L51.516 57.6254ZM51.8191 57.4935L51.5548 57.2291H51.5548L51.8191 57.4935ZM54.6485 54.6641L54.9129 54.3997L54.6485 54.1354L54.3841 54.3997L54.6485 54.6641ZM57.7829 57.1873C57.7688 57.2014 57.7533 57.2115 57.7157 57.2142L57.7697 57.96C57.9752 57.9451 58.1628 57.8649 58.3117 57.716L57.7829 57.1873ZM59.1888 55.7815L57.7829 57.1873L58.3117 57.716L59.7175 56.3102L59.1888 55.7815ZM59.2147 55.7391C59.2147 55.7453 59.2138 55.7479 59.2126 55.7506C59.2111 55.7539 59.2057 55.7646 59.1888 55.7815L59.7175 56.3102C59.8678 56.1599 59.9611 55.9672 59.9624 55.7434L59.2147 55.7391ZM59.1923 55.7025C59.2036 55.7138 59.2132 55.7268 59.2154 55.7639L59.9618 55.7185C59.9492 55.5126 59.8707 55.3235 59.721 55.1737L59.1923 55.7025ZM56.4012 52.9114L59.1923 55.7025L59.721 55.1737L56.9299 52.3827L56.4012 52.9114ZM56.9299 52.9114L60.2588 49.5826L59.7301 49.0538L56.4012 52.3827L56.9299 52.9114ZM60.2588 49.5826C60.4085 49.4328 60.487 49.2437 60.4995 49.0378L59.7532 48.9924C59.7509 49.0295 59.7414 49.0425 59.7301 49.0538L60.2588 49.5826ZM60.5002 49.0129C60.4989 48.7891 60.4056 48.5964 60.2553 48.4461L59.7266 48.9748C59.7435 48.9917 59.7489 49.0024 59.7504 49.0057C59.7516 49.0084 59.7525 49.011 59.7525 49.0172L60.5002 49.0129ZM60.2553 48.4461L58.8494 47.0403L58.3207 47.569L59.7266 48.9748L60.2553 48.4461ZM58.8494 47.0403C58.7006 46.8914 58.513 46.8112 58.3074 46.7963L58.2535 47.5421C58.2911 47.5448 58.3066 47.5549 58.3207 47.569L58.8494 47.0403ZM58.2577 46.796C58.0519 46.8086 57.8628 46.887 57.713 47.0368L58.2417 47.5655C58.2531 47.5541 58.266 47.5446 58.3032 47.5423L58.2577 46.796ZM57.713 47.0368L54.3841 50.3656L54.9129 50.8943L58.2417 47.5655L57.713 47.0368ZM51.017 47.5272L54.3841 50.8943L54.9129 50.3656L51.5457 46.9985L51.017 47.5272ZM50.9804 47.5047C50.9866 47.5047 50.9885 47.5056 50.9899 47.5061C50.992 47.5071 51.0013 47.5115 51.017 47.5272L51.5457 46.9985C51.3946 46.8473 51.2004 46.7557 50.9761 46.757L50.9804 47.5047ZM50.938 47.5307C50.9549 47.5138 50.9655 47.5083 50.9689 47.5068C50.9715 47.5057 50.9742 47.5048 50.9804 47.5047L50.9761 46.757C50.7523 46.7583 50.5596 46.8517 50.4093 47.002L50.938 47.5307ZM49.5321 48.9365L50.938 47.5307L50.4093 47.002L49.0034 48.4078L49.5321 48.9365ZM49.5052 49.0038C49.5079 48.9661 49.518 48.9506 49.5321 48.9365L49.0034 48.4078C48.8545 48.5567 48.7743 48.7442 48.7594 48.9498L49.5052 49.0038ZM49.5286 49.0155C49.5129 48.9998 49.5085 48.9905 49.5076 48.9884C49.507 48.9871 49.5061 48.9852 49.5062 48.9789L48.7585 48.9746C48.7572 49.1989 48.8488 49.3931 48.9999 49.5442L49.5286 49.0155ZM52.8958 52.3827L49.5286 49.0155L48.9999 49.5442L52.3671 52.9114L52.8958 52.3827ZM52.3671 52.3827L49.5377 55.2121L50.0664 55.7408L52.8958 52.9114L52.3671 52.3827ZM49.5377 55.2121C49.3866 55.3632 49.295 55.5574 49.2963 55.7817L50.044 55.7774C50.0439 55.7711 50.0448 55.7692 50.0454 55.7679C50.0463 55.7658 50.0507 55.7565 50.0664 55.7408L49.5377 55.2121ZM49.2972 55.8065C49.3121 56.0121 49.3923 56.1996 49.5412 56.3485L50.0699 55.8198C50.0558 55.8057 50.0457 55.7902 50.043 55.7525L49.2972 55.8065ZM49.5412 56.3485L50.947 57.7543L51.4757 57.2256L50.0699 55.8198L49.5412 56.3485ZM50.947 57.7543C51.0973 57.9046 51.2901 57.998 51.5139 57.9993L51.5182 57.2516C51.512 57.2515 51.5093 57.2506 51.5067 57.2495C51.5033 57.248 51.4927 57.2425 51.4757 57.2256L50.947 57.7543ZM51.5139 57.9993C51.7382 58.0006 51.9324 57.909 52.0835 57.7578L51.5548 57.2291C51.5391 57.2448 51.5297 57.2492 51.5277 57.2502C51.5263 57.2507 51.5244 57.2516 51.5182 57.2516L51.5139 57.9993ZM52.0835 57.7578L54.9129 54.9285L54.3841 54.3997L51.5548 57.2291L52.0835 57.7578ZM57.7039 57.1908L54.9129 54.3997L54.3841 54.9285L57.1752 57.7195L57.7039 57.1908ZM57.7654 57.214C57.7283 57.2117 57.7153 57.2022 57.7039 57.1908L57.1752 57.7195C57.325 57.8693 57.5141 57.9477 57.7199 57.9603L57.7654 57.214Z" fill="#AB3939"/>
<defs>
<filter id="filter0_d" x="30.6847" y="29.56" width="47.2658" height="47.2658" filterUnits="userSpaceOnUse" color-interpolation-filters="sRGB">
<feFlood flood-opacity="0" result="BackgroundImageFix"/>
<feColorMatrix in="SourceAlpha" type="matrix" values="0 0 0 0 0 0 0 0 0 0 0 0 0 0 0 0 0 0 127 0"/>
<feOffset dy="0.875292"/>
<feGaussianBlur stdDeviation="4.15764"/>
<feColorMatrix type="matrix" values="0 0 0 0 0.87451 0 0 0 0 0.301961 0 0 0 0 0.301961 0 0 0 0.33 0"/>
<feBlend mode="normal" in2="BackgroundImageFix" result="effect1_dropShadow"/>
<feBlend mode="normal" in="SourceGraphic" in2="effect1_dropShadow" result="shape"/>
</filter>
</defs>
</svg>
