<svg width="31" height="25" viewBox="0 0 31 25" fill="none" xmlns="http://www.w3.org/2000/svg">
<path d="M13.5 1.85748C13.5 1.10777 14.1078 0.5 14.8575 0.5H29.1425C29.8922 0.5 30.5 1.10777 30.5 1.85748V15.1621C30.5 15.9119 29.8922 16.5196 29.1425 16.5196H14.8575C14.1078 16.5196 13.5 15.9119 13.5 15.1621V1.85748Z" fill="#C8C8C8" stroke="#A8A8A8"/>
<path d="M28.0497 6.12208L25.9999 4.92201L23.9503 6.12208L24 1H28.0994L28.0497 6.12208Z" fill="#E4E4E4"/>
<path d="M25.5734 12.0988C25.5734 11.7569 25.8506 11.4797 26.1925 11.4797H28.129C28.4709 11.4797 28.7481 11.7569 28.7481 12.0988V14.2477C28.7481 14.5897 28.4709 14.8669 28.129 14.8669H26.1925C25.8506 14.8669 25.5734 14.5897 25.5734 14.2477V12.0988Z" fill="#E4E4E4"/>
<path d="M16.0785 14.3819V12.7175C16.0785 12.4301 15.8457 12.1974 15.5584 12.1974C15.2711 12.1974 15.0383 12.4301 15.0383 12.7175V14.3819C15.0383 14.6689 15.2711 14.902 15.5584 14.902C15.8457 14.902 16.0785 14.6689 16.0785 14.3819ZM17.9008 14.3819V12.7175C17.9008 12.4301 17.6681 12.1974 17.3807 12.1974C17.0937 12.1974 16.8606 12.4301 16.8606 12.7175V14.3819C16.8606 14.6689 17.0937 14.902 17.3807 14.902C17.6681 14.902 17.9008 14.6689 17.9008 14.3819ZM19.7228 14.3819V12.7175C19.7228 12.4301 19.4901 12.1974 19.2028 12.1974C18.9157 12.1974 18.6827 12.4301 18.6827 12.7175V14.3819C18.6827 14.6689 18.9157 14.902 19.2028 14.902C19.4901 14.902 19.7228 14.6689 19.7228 14.3819Z" fill="#8C8C8C"/>
<path d="M19.7291 5.05129V8.76099H16.2292V5.05129C16.229 4.12361 16.953 3.3571 17.879 3.30392C17.9124 3.30229 17.9459 3.30127 17.9793 3.30127C18.9455 3.30168 19.7289 4.0849 19.7291 5.05129Z" fill="#DCDCDC"/>
<path d="M17.879 3.30127V3.30392C16.9529 3.3571 16.229 4.12361 16.2292 5.05129V11.6924L16.2265 18.6751L16.2212 20.0684C16.1118 21.5513 14.9007 22.7196 13.4219 22.7196H13.4203C13.3624 22.7196 13.3049 22.7179 13.2481 22.7143V22.7139C11.7778 22.623 10.6126 21.3754 10.6126 19.8497V17.9913H2.81665L2.92036 5.28092C2.93136 4.18433 3.82359 3.30107 4.92018 3.30127H17.879Z" fill="white"/>
<path d="M13.2481 22.7147V22.7151L13.2477 22.7204H2.80769C1.25714 22.7204 0 21.4352 0 19.8506V17.9922H10.6126V19.8506C10.6126 21.3763 11.7778 22.6239 13.2481 22.7147Z" fill="#D1D1D1"/>
<circle cx="9.5" cy="11.5" r="3.5" fill="#C8C8C8"/>
<path d="M8.5 11.5L9.5 12.5L10.5 10.5" stroke="white" stroke-linecap="round" stroke-linejoin="round"/>
</svg>
