<svg width="18" height="18" viewBox="0 0 18 18" fill="none" xmlns="http://www.w3.org/2000/svg">
<g clip-path="url(#clip0)">
<path d="M17.8 12.6C17.7 14 17.4 15.3 16.4 16.4C15.4 17.5 14.1 17.8 12.6 17.8C11.4 17.9 10.1 17.9 8.9 17.9C7.7 17.9 6.4 17.9 5.2 17.8C3.8 17.7 2.5 17.4 1.4 16.4C0.3 15.4 0 14.1 0 12.6C0 11.4 0 10.2 0 9C0 7.8 0 6.5 0.1 5.3C0.2 3.9 0.5 2.6 1.5 1.5C2.5 0.4 3.8 0.1 5.3 0.1C6.5 0 7.7 0 9 0C10.3 0 11.5 0 12.7 0.1C14.1 0.2 15.4 0.5 16.5 1.5C17.6 2.5 17.9 3.8 17.9 5.3C18 6.5 18 7.8 18 9C18 10.2 17.9 11.4 17.8 12.6ZM3.7 2C3.3 2.1 3 2.3 2.6 2.6C2.2 2.9 2.1 3.3 2 3.7C1.5 4.9 1.6 7.6 1.6 9C1.6 10.4 1.5 13.1 2 14.2C2.2 14.6 2.4 14.9 2.7 15.2C3 15.5 3.3 15.7 3.7 15.9C4.9 16.4 7.7 16.3 9 16.3C10.3 16.3 13.1 16.4 14.3 15.9C14.7 15.7 15 15.5 15.3 15.2C15.6 14.9 15.8 14.6 16 14.2C16.5 13 16.4 10.2 16.4 8.9C16.4 7.6 16.5 4.8 16 3.6C15.8 3.2 15.6 2.9 15.3 2.6C15 2.3 14.7 2.1 14.3 1.9C13.1 1.4 10.3 1.5 9 1.5C7.7 1.5 4.8 1.5 3.7 2ZM9 13.5C6.5 13.5 4.4 11.4 4.4 8.9C4.4 6.4 6.4 4.4 9 4.4C11.6 4.4 13.6 6.5 13.6 9C13.6 11.5 11.5 13.5 9 13.5ZM9 6C7.3 6 6 7.3 6 9C6 10.7 7.3 12 9 12C10.7 12 12 10.7 12 9C12 7.3 10.6 6 9 6ZM13.7 5.2C13.1 5.2 12.6 4.7 12.6 4.1C12.6 3.5 13.1 3 13.7 3C14.3 3 14.8 3.5 14.8 4.1C14.8 4.8 14.3 5.2 13.7 5.2Z" fill="white"/>
</g>
<defs>
<clipPath id="clip0">
<rect width="17.9" height="17.9" fill="white"/>
</clipPath>
</defs>
</svg>
