<svg width="15" height="12" viewBox="0 0 15 12" fill="none" xmlns="http://www.w3.org/2000/svg">
<g clip-path="url(#clip0)">
<path d="M7.5 6.9C7.7 6 8 5.2 8.2 4.4C8.6 3 8.9 1.6 9.3 0.2C9.3 0.1 9.4 0 9.6 0C11.3 0 13 0 14.7 0C15 0 15 0.1 15 0.3C15 0.7 15 1 15 1.4C15 1.8 15 1.8 14.6 1.8C14.4 1.8 14.2 1.8 14.1 2C14 2.1 13.9 2.2 13.9 2.4C13.9 4.8 13.9 7.2 13.9 9.6C13.9 9.9 14.1 10.1 14.5 10.2C14.7 10.2 14.9 10.1 15 10.2C15.1 10.3 15 10.5 15 10.7C15 11 15 11.4 15 11.7C15 11.8 15 11.9 14.8 11.9C13.1 11.9 11.4 11.9 9.8 11.9C9.7 11.9 9.6 11.9 9.6 11.7C9.6 11.2 9.6 10.8 9.6 10.3C9.6 10.1 9.7 10.1 9.8 10.1C10 10.1 10.3 10.1 10.5 10.1C10.7 10.1 10.7 10.1 10.7 9.9C10.7 8.7 10.7 7.5 10.7 6.3C10.7 5.1 10.7 3.9 10.7 2.6C10.7 2.5 10.7 2.4 10.7 2.4C10.5 3 10.4 3.6 10.2 4.2C9.5 6.7 8.8 9.2 8.1 11.7C8.1 11.8 8 11.9 7.8 11.9C7.3 11.9 6.7 11.9 6.2 11.9C6 11.9 6 11.8 5.9 11.7C5.2 8.7 4.4 5.8 3.6 2.9C3.6 2.8 3.5 2.6 3.5 2.5C3.4 2.5 3.5 2.6 3.5 2.7C3.5 5.1 3.5 7.6 3.5 10C3.5 10.2 3.5 10.3 3.7 10.2C3.9 10.2 4.2 10.2 4.4 10.2C4.5 10.2 4.6 10.2 4.6 10.4C4.6 10.9 4.6 11.3 4.6 11.8C4.6 11.9 4.6 12 4.4 12C3 12 1.7 12 0.3 12C0.2 12 0.1 12 0.1 11.8C0.1 11.3 0.1 10.9 0.1 10.4C0.1 10.3 0.1 10.2 0.3 10.2C0.5 10.2 0.6 10.2 0.8 10.2C0.9 10 1.1 9.8 1.1 9.5C1.1 7.1 1.1 4.7 1.1 2.4C1.1 2 0.8 1.8 0.4 1.8C0 1.8 0 1.8 0 1.3C0 0.9 0 0.6 0 0.2C0 0.1 0 0 0.2 0C2 0 3.7 0 5.5 0C5.7 0 5.7 0.1 5.7 0.2C6.3 2.4 6.9 4.6 7.5 6.9C7.5 6.8 7.5 6.8 7.5 6.9Z" fill="white"/>
</g>
<defs>
<clipPath id="clip0">
<rect width="15" height="11.9" fill="white"/>
</clipPath>
</defs>
</svg>
