<svg width="19" height="18" viewBox="0 0 19 18" fill="none" xmlns="http://www.w3.org/2000/svg">
<path d="M17.86 10.9014C17.9867 11.2817 17.9867 11.5352 17.9867 11.9155C17.9867 15.2113 14.1867 18 9.5 18C4.81333 18 1.01333 15.338 1.01333 11.9155C1.01333 11.5352 1.01333 11.2817 1.14 10.9014C0.506667 10.5211 0 9.76056 0 9C0 7.85916 0.886667 6.84507 2.15333 6.84507C2.78667 6.84507 3.29333 7.09859 3.67333 7.47887C5.06667 6.59155 6.96667 5.83099 9.12 5.83099L10.3867 0.253521C10.3867 0.126761 10.64 0 10.7667 0L14.6933 0.887324C14.9467 0.380282 15.4533 0 16.0867 0C16.9733 0 17.7333 0.760563 17.7333 1.52113C17.7333 2.40845 16.9733 3.16901 16.0867 3.16901C15.2 3.16901 14.5667 2.40845 14.5667 1.64789L11.02 0.760563L9.88 5.83099C12.0333 5.95775 13.9333 6.59155 15.3267 7.47887C15.7067 7.09859 16.2133 6.84507 16.8467 6.84507C17.9867 6.84507 19 7.73239 19 9C19 9.76056 18.4933 10.5211 17.86 10.9014ZM5.95333 12.6761C6.84 12.6761 7.6 11.9155 7.6 11.0282C7.6 10.1408 6.84 9.50704 5.95333 9.50704C5.06667 9.50704 4.43333 10.2676 4.43333 11.0282C4.43333 11.9155 5.19333 12.6761 5.95333 12.6761ZM13.0467 14.3239C12.92 14.1972 12.6667 14.1972 12.54 14.3239C11.78 14.9577 10.5133 15.2113 9.5 15.2113C8.48667 15.2113 7.22 14.9577 6.46 14.3239C6.33333 14.1972 6.08 14.1972 5.95333 14.3239C5.82667 14.4507 5.82667 14.7042 5.95333 14.831C6.96667 15.8451 8.86667 15.9718 9.5 15.9718C10.1333 15.9718 12.0333 15.8451 13.0467 14.831C13.1733 14.7042 13.1733 14.4507 13.0467 14.3239ZM14.5667 11.0282C14.5667 10.1408 13.8067 9.50704 13.0467 9.50704C12.16 9.50704 11.4 10.2676 11.4 11.0282C11.4 11.9155 12.16 12.6761 13.0467 12.6761C13.8067 12.6761 14.5667 11.9155 14.5667 11.0282Z" fill="white"/>
</svg>
