<svg width="1102" height="306" viewBox="0 0 1102 306" fill="none" xmlns="http://www.w3.org/2000/svg">
<mask id="mask0" mask-type="alpha" maskUnits="userSpaceOnUse" x="0" y="0" width="1102" height="306">
<rect width="1102" height="306" fill="#F9F9F9"/>
</mask>
<g mask="url(#mask0)">
<g opacity="0.448">
<path opacity="0.4" d="M-90.9997 243.986C-77.5 242.155 -64 240.782 -46.0003 239.408C40.2009 232.832 62.2452 271.023 133.5 266.367C183.908 262.991 247.315 244.25 284 233L284 321.171L-91 321.171L-90.9997 243.986Z" fill="url(#paint0_linear)"/>
<path d="M-91 266.281C-91 266.281 -53.7906 269.53 -29.5 269.637C52.8172 269.999 103.525 234.547 174.903 234.547C232.747 234.547 257.955 243.126 284 250.242L284 297.133L-90.9998 297.133L-91 266.281Z" fill="url(#paint1_linear)"/>
<path d="M-90.9988 259.06C-55.0705 257.471 -13.3981 287.446 44.5003 290C112.5 293 184.601 264.147 254.001 264.147C264.609 264.147 274.567 264.486 284.001 265.062L284.001 313L-90.9998 313L-90.9988 259.06Z" fill="url(#paint2_linear)"/>
</g>
<g opacity="0.448">
<path opacity="0.4" d="M659 243.986C672.5 242.155 686 240.782 704 239.408C790.201 232.832 812.245 271.023 883.5 266.367C933.908 262.991 997.315 244.25 1034 233L1034 321.171L659 321.171L659 243.986Z" fill="url(#paint3_linear)"/>
<path d="M659 266.281C659 266.281 696.209 269.53 720.5 269.637C802.817 269.999 853.525 234.547 924.903 234.547C982.747 234.547 1007.96 243.126 1034 250.242L1034 297.133L659 297.133L659 266.281Z" fill="url(#paint4_linear)"/>
<path d="M659.001 259.06C694.93 257.471 736.602 287.446 794.5 290C862.5 293 934.601 264.147 1004 264.147C1014.61 264.147 1024.57 264.486 1034 265.062L1034 313L659 313L659.001 259.06Z" fill="url(#paint5_linear)"/>
</g>
<g opacity="0.448">
<path opacity="0.4" d="M659.001 243.986C645.501 242.155 632.001 240.782 614.001 239.408C527.8 232.832 505.756 271.023 434.501 266.367C384.093 262.991 320.686 244.25 284.001 233L284.001 321.171L659.001 321.171L659.001 243.986Z" fill="url(#paint6_linear)"/>
<path d="M659.001 266.281C659.001 266.281 621.791 269.53 597.501 269.637C515.184 269.999 464.476 234.547 393.098 234.547C335.254 234.547 310.046 243.126 284.001 250.242L284.001 297.133L659.001 297.133L659.001 266.281Z" fill="url(#paint7_linear)"/>
<path d="M659 259.06C623.071 257.471 581.399 287.446 523.501 290C455.501 293 383.4 264.147 314 264.147C303.392 264.147 293.434 264.486 284 265.062L284 313L659.001 313L659 259.06Z" fill="url(#paint8_linear)"/>
</g>
<g filter="url(#filter0_d)">
<path d="M230.566 201.517L234.823 190.414C235.29 189.189 234.926 187.801 233.901 186.97L224.672 179.487L222.805 167.742C222.598 166.444 221.58 165.431 220.282 165.225L208.536 163.358L201.06 154.122C200.235 153.098 198.816 152.734 197.622 153.201L186.513 157.464L175.41 153.207C174.179 152.734 172.802 153.11 171.972 154.129L164.489 163.364L152.743 165.231C151.452 165.438 150.433 166.456 150.227 167.748L148.359 179.493L139.124 186.976C138.105 187.801 137.735 189.189 138.202 190.414L142.459 201.517L138.202 212.62C137.729 213.845 138.105 215.233 139.124 216.058L148.359 223.535L150.227 235.28C150.433 236.578 151.446 237.597 152.743 237.803L164.489 239.671L171.972 248.9C172.802 249.931 174.191 250.294 175.416 249.821L186.513 245.571L197.615 249.827C197.967 249.961 198.331 250.028 198.701 250.028C199.592 250.028 200.472 249.633 201.06 248.9L208.536 239.671L220.282 237.803C221.58 237.597 222.598 236.578 222.805 235.28L224.672 223.535L233.901 216.058C234.926 215.227 235.29 213.845 234.823 212.62L230.566 201.517Z" fill="#FF5252"/>
<path d="M177.417 195.453C172.402 195.453 168.321 191.372 168.321 186.357C168.321 181.343 172.402 177.262 177.417 177.262C182.432 177.262 186.513 181.343 186.513 186.357C186.513 191.372 182.432 195.453 177.417 195.453ZM177.417 183.325C175.743 183.325 174.385 184.684 174.385 186.357C174.385 188.031 175.743 189.389 177.417 189.389C179.091 189.389 180.449 188.031 180.449 186.357C180.449 184.684 179.091 183.325 177.417 183.325Z" fill="#FAFAFA"/>
<path d="M195.608 225.772C190.594 225.772 186.513 221.692 186.513 216.677C186.513 211.662 190.594 207.581 195.608 207.581C200.623 207.581 204.704 211.662 204.704 216.677C204.704 221.692 200.623 225.772 195.608 225.772ZM195.608 213.645C193.941 213.645 192.576 215.009 192.576 216.677C192.576 218.344 193.941 219.709 195.608 219.709C197.276 219.709 198.64 218.344 198.64 216.677C198.64 215.009 197.276 213.645 195.608 213.645Z" fill="#FAFAFA"/>
<path d="M171.353 225.772C170.741 225.772 170.128 225.59 169.595 225.208C168.23 224.232 167.915 222.34 168.891 220.976L199.21 178.529C200.187 177.165 202.078 176.849 203.443 177.826C204.807 178.796 205.116 180.694 204.146 182.052L173.827 224.499C173.227 225.33 172.299 225.772 171.353 225.772Z" fill="#FAFAFA"/>
</g>
<g filter="url(#filter1_d)">
<path d="M-13.0697 165.59L64.6719 165.985C66.7085 165.996 68.3673 164.354 68.3777 162.317L68.6801 72.8699L-16.4363 72.4369L-16.7388 161.884C-16.7491 163.921 -15.1063 165.58 -13.0697 165.59Z" fill="#5EBD58"/>
<path d="M68.6802 72.8699L-16.4363 72.4369L-16.4992 84.8072L68.6172 85.2402L68.6802 72.8699Z" fill="#579F52"/>
<path d="M-23.6132 59.5044L-23.6911 74.83C-23.6995 76.4668 -22.3779 77.7995 -20.7411 77.8079L72.9317 78.2844C74.5686 78.2928 75.9013 76.9735 75.9096 75.3367L75.9876 60.0111C75.9959 58.3743 74.6767 57.0416 73.0399 57.0332L-20.633 56.5567C-22.2698 56.5483 -23.6048 57.8676 -23.6132 59.5044Z" fill="#80CE7B"/>
<path d="M29.5524 63.8568C30.1952 64.6132 30.8258 65.3801 31.4412 66.1553C33.7344 69.0387 35.8316 72.0586 37.7253 75.1915C38.3078 76.155 38.8698 77.1282 39.415 78.1128L59.6152 78.2156C58.4487 75.5317 57.168 72.8967 55.7791 70.3203C53.2602 65.6462 50.3817 61.1587 47.1615 56.9005C46.3923 55.8836 45.6049 54.8788 44.7976 53.8891C44.3142 53.2924 43.8225 52.704 43.324 52.1178C41.4724 53.6966 39.6223 55.2739 37.77 56.8527C37.483 57.0959 37.1961 57.3422 36.9098 57.5862C34.724 59.449 32.5381 61.3111 30.353 63.1762C30.0851 63.4013 29.8195 63.6302 29.5524 63.8568Z" fill="#63B25D"/>
<path d="M-0.659586 77.9089L19.5422 78.0117C20.0951 77.0327 20.6692 76.0652 21.2614 75.1077C23.187 71.9942 25.317 68.9958 27.6372 66.1359C28.2627 65.367 28.9011 64.6066 29.5523 63.8568C29.2868 63.6275 29.0235 63.3974 28.7579 63.1681C26.5896 61.2808 24.4228 59.3943 22.2568 57.5116C21.9723 57.2647 21.6879 57.0156 21.4034 56.7694C19.568 55.1719 17.7318 53.5758 15.8979 51.9783C15.3934 52.5578 14.8957 53.1427 14.4063 53.7329C13.5875 54.7159 12.7891 55.7126 12.0119 56.7216C8.74857 60.9469 5.82454 65.4049 3.2567 70.0531C1.84162 72.6152 0.534153 75.2371 -0.659586 77.9089Z" fill="#EFB025"/>
<path d="M26.1679 63.8417C26.8115 64.5973 27.4421 65.3642 28.0575 66.1394C30.35 69.0228 32.4479 72.0427 34.3416 75.1764C40.3537 85.117 44.324 96.2076 45.9634 107.803C48.5331 104.431 50.9074 100.78 53.0467 96.8743C56.7624 99.325 60.3919 102.125 63.8844 105.272C62.1452 92.9721 58.2357 81.1386 52.3946 70.3045C49.275 64.5148 45.6022 59.0103 41.4139 53.8732C40.9306 53.2765 40.4388 52.6889 39.9403 52.102C37.8017 53.9248 35.6647 55.7476 33.5254 57.5703C31.3403 59.4332 29.1544 61.2952 26.9685 63.1603C26.7014 63.3854 26.4358 63.6143 26.1679 63.8417Z" fill="#FBD474"/>
<path d="M-11.9698 104.886C-8.44544 101.775 -4.7876 99.0119 -1.04719 96.5992C1.05223 100.526 3.38927 104.201 5.92453 107.599C7.68184 96.0212 11.7641 84.9716 17.8777 75.0926C19.8032 71.9784 21.9333 68.98 24.2534 66.1201C24.8789 65.3512 25.5173 64.5907 26.1678 63.8417C25.903 63.6117 25.6397 63.3816 25.3742 63.1523C23.2059 61.265 21.0391 59.3785 18.8723 57.4958C16.7524 55.6491 14.6317 53.8069 12.5141 51.9625C12.0096 52.542 11.5119 53.1269 11.0226 53.7171C6.78143 58.8113 3.05284 64.2781 -0.127063 70.0373C-6.07653 80.8115 -10.1056 92.6046 -11.9698 104.886Z" fill="#FBD474"/>
<path d="M34.0967 63.8823L18.2369 63.8016L18.1647 78.0055L34.0244 78.0862L34.0967 63.8823Z" fill="#FBD474"/>
<path d="M-0.126887 70.0382L17.8779 75.0936C19.8034 71.9794 21.9335 68.9809 24.2536 66.121L25.3744 63.1532L26.1824 61.0128L18.8724 57.4968L11.0228 53.718C6.7816 58.8122 3.05301 64.2791 -0.126887 70.0382Z" fill="#E3B952"/>
<path d="M26.1823 61.0121L26.9685 63.1606L28.0575 66.1396C30.3499 69.023 32.4479 72.0429 34.3416 75.1766L52.3946 70.3047C49.275 64.515 45.6022 59.0105 41.4139 53.8734L33.5254 57.5706L26.1823 61.0121Z" fill="#E3B952"/>
<path d="M-2.4709 36.7959L26.2345 50.6075L20.6314 65.4451L-10.039 56.8351C-14.0502 55.709 -16.235 51.3869 -14.763 47.4892L-12.1933 40.6858C-10.722 36.7881 -6.22557 34.9895 -2.4709 36.7959Z" fill="#FBD474"/>
<path d="M55.0787 37.088L26.2343 50.6067L31.6862 65.5007L62.4418 57.2031C66.4642 56.1179 68.6929 51.8182 67.2606 47.9058L64.761 41.0766C63.3287 37.1641 58.8516 35.3198 55.0787 37.088Z" fill="#FBD474"/>
<path d="M19.3331 56.5468C19.8559 56.5495 20.3702 56.2937 20.6742 55.8219C21.1499 55.0864 20.9398 54.105 20.2044 53.6294C19.987 53.4892 14.8213 50.1649 8.88357 47.7281C0.323541 44.2148 -5.40549 44.3718 -8.14239 48.1947C-8.65287 48.9071 -8.48845 49.8982 -7.77597 50.4079C-7.06348 50.9176 -6.07324 50.7539 -5.56351 50.0415C-1.85309 44.8595 13.4229 53.0242 18.4818 56.2932C18.7454 56.4633 19.0405 56.5453 19.3331 56.5468Z" fill="#E3B952"/>
<path d="M33.2316 56.6176C33.5242 56.6191 33.8202 56.54 34.0855 56.3727C39.1773 53.1553 54.5356 45.1464 58.1931 50.3659C58.6964 51.0835 59.6849 51.2573 60.4025 50.7548C61.1194 50.2516 61.2939 49.2631 60.7907 48.5454C58.0928 44.6949 52.3664 44.4796 43.7703 47.9056C37.8081 50.2812 32.6089 53.5535 32.3901 53.6915C31.6498 54.1596 31.4298 55.1388 31.8972 55.879C32.198 56.354 32.7088 56.6149 33.2316 56.6176Z" fill="#E3B952"/>
<path d="M21.7482 45.4745L30.7727 45.5204C33.2423 45.533 35.2344 47.5455 35.2219 50.0159L35.1552 63.1263C35.1426 65.5968 33.1301 67.5889 30.6604 67.5763L21.6359 67.5304C19.1663 67.5178 17.1742 65.5053 17.1867 63.0349L17.2534 49.9245C17.266 47.4541 19.2785 45.4619 21.7482 45.4745Z" fill="#FBD474"/>
<path d="M34.0243 78.0857L18.1645 78.0051L17.8708 165.747L33.7305 165.828L34.0243 78.0857Z" fill="#FBD474"/>
<path d="M34.0243 78.0857L18.1645 78.0051L18.129 84.9832L33.9888 85.0639L34.0243 78.0857Z" fill="#E3B952"/>
</g>
<path d="M250.763 333.42L182.296 307.921C179.371 306.832 177.883 303.577 178.973 300.652L209.644 218.296C210.734 215.371 213.988 213.883 216.913 214.973L285.38 240.472C288.305 241.561 289.793 244.815 288.704 247.74L258.032 330.096C256.943 333.021 253.688 334.509 250.763 333.42Z" fill="#97C5E0"/>
<path d="M250.763 333.42L190.63 311.025C187.705 309.935 186.217 306.681 187.306 303.756L217.978 221.4C219.067 218.475 222.321 216.987 225.246 218.076L285.38 240.472C288.305 241.561 289.793 244.816 288.704 247.741L258.032 330.096C256.943 333.021 253.688 334.51 250.763 333.42Z" fill="#AAD5EC"/>
<path d="M209.969 282.102L208.621 285.724C207.894 287.674 205.725 288.666 203.775 287.94L198.016 285.795C196.066 285.069 195.074 282.9 195.8 280.949L197.149 277.327C197.875 275.377 200.045 274.385 201.995 275.112L207.754 277.256C209.703 277.982 210.696 280.152 209.969 282.102ZM202.183 292.213L196.425 290.069C194.474 289.343 192.305 290.335 191.579 292.285L190.23 295.907C189.503 297.857 190.495 300.026 192.446 300.753L198.204 302.897C200.154 303.624 202.324 302.631 203.05 300.681L204.399 297.059C205.125 295.109 204.133 292.94 202.183 292.213ZM220.467 277.125L226.225 279.269C228.175 279.996 230.345 279.004 231.071 277.054L232.42 273.432C233.146 271.481 232.154 269.312 230.204 268.586L224.446 266.441C222.496 265.715 220.326 266.707 219.6 268.657L218.251 272.279C217.525 274.229 218.517 276.399 220.467 277.125ZM214.896 292.082L220.655 294.227C222.605 294.953 224.774 293.961 225.501 292.011L226.85 288.389C227.576 286.439 226.584 284.269 224.634 283.543L218.875 281.398C216.925 280.672 214.756 281.664 214.029 283.614L212.68 287.236C211.954 289.186 212.946 291.356 214.896 292.082ZM213.324 262.299L207.566 260.154C205.615 259.428 203.446 260.42 202.72 262.37L201.371 265.992C200.644 267.942 201.636 270.112 203.587 270.838L209.345 272.983C211.295 273.709 213.465 272.717 214.191 270.767L215.54 267.145C216.266 265.195 215.274 263.025 213.324 262.299ZM235.943 304.787L213.304 296.355C211.354 295.629 209.185 296.621 208.458 298.571L207.109 302.193C206.383 304.143 207.375 306.313 209.325 307.039L231.964 315.471C233.915 316.197 236.084 315.205 236.81 313.255L238.159 309.633C238.886 307.683 237.893 305.513 235.943 304.787ZM247.084 274.872L241.326 272.728C239.376 272.001 237.206 272.993 236.48 274.944L235.131 278.566C234.405 280.516 235.397 282.685 237.347 283.412L243.105 285.556C245.056 286.282 247.225 285.29 247.951 283.34L249.3 279.718C250.027 277.768 249.035 275.599 247.084 274.872ZM241.514 289.83L235.755 287.685C233.805 286.959 231.636 287.951 230.909 289.901L229.561 293.523C228.834 295.473 229.826 297.642 231.776 298.369L237.535 300.513C239.485 301.24 241.655 300.248 242.381 298.297L243.73 294.676C244.456 292.725 243.464 290.556 241.514 289.83Z" fill="#4CA449"/>
<path d="M220.655 294.227L218.839 293.55C216.889 292.824 215.897 290.654 216.623 288.704L217.972 285.082C218.698 283.132 220.868 282.14 222.818 282.867L224.634 283.543C226.584 284.269 227.576 286.439 226.85 288.389L225.501 292.011C224.774 293.961 222.605 294.953 220.655 294.227ZM240.423 276.412L239.074 280.034C238.348 281.984 239.34 284.154 241.29 284.88L243.106 285.556C245.056 286.282 247.225 285.29 247.952 283.34L249.301 279.718C250.027 277.768 249.035 275.599 247.085 274.872L245.269 274.196C243.319 273.47 241.149 274.462 240.423 276.412ZM242.381 298.297L243.73 294.675C244.456 292.725 243.464 290.556 241.514 289.829L239.698 289.153C237.748 288.427 235.578 289.419 234.852 291.369L233.503 294.991C232.777 296.941 233.769 299.111 235.719 299.837L237.535 300.513C239.485 301.24 241.654 300.248 242.381 298.297ZM223.542 270.125L222.193 273.747C221.467 275.697 222.459 277.867 224.409 278.593L226.225 279.269C228.175 279.996 230.345 279.004 231.071 277.053L232.42 273.431C233.146 271.481 232.154 269.312 230.204 268.586L228.388 267.909C226.438 267.183 224.269 268.175 223.542 270.125ZM203.05 300.681L204.399 297.059C205.125 295.109 204.133 292.94 202.183 292.213L200.367 291.537C198.417 290.811 196.247 291.803 195.521 293.753L194.172 297.375C193.446 299.325 194.438 301.495 196.388 302.221L198.204 302.897C200.154 303.623 202.324 302.631 203.05 300.681ZM236.81 313.255L238.159 309.633C238.885 307.683 237.893 305.513 235.943 304.787L217.247 297.824C215.297 297.097 213.128 298.09 212.401 300.04L211.052 303.662C210.326 305.612 211.318 307.781 213.268 308.508L231.964 315.47C233.914 316.197 236.084 315.205 236.81 313.255ZM208.62 285.724L209.969 282.102C210.696 280.152 209.704 277.982 207.753 277.256L205.938 276.58C203.987 275.854 201.818 276.846 201.092 278.796L199.743 282.418C199.016 284.368 200.008 286.537 201.959 287.264L203.775 287.94C205.724 288.666 207.894 287.674 208.62 285.724ZM206.662 263.838L205.313 267.46C204.587 269.411 205.579 271.58 207.529 272.306L209.345 272.983C211.295 273.709 213.465 272.717 214.191 270.767L215.54 267.145C216.266 265.195 215.274 263.025 213.324 262.299L211.508 261.623C209.558 260.896 207.388 261.888 206.662 263.838Z" fill="#5FBD5C"/>
<path d="M247.509 300.207L254.429 281.627C255.155 279.677 257.324 278.685 259.274 279.412L262.896 280.761C264.847 281.487 265.839 283.656 265.112 285.606L258.193 304.186C257.467 306.136 255.297 307.128 253.347 306.402L249.725 305.053C247.775 304.326 246.783 302.157 247.509 300.207Z" fill="#DB5257"/>
<path d="M265.112 285.607L258.193 304.186C257.476 306.111 255.352 307.1 253.421 306.425C251.519 305.672 250.559 303.535 251.276 301.61L258.196 283.031C258.913 281.105 261.037 280.117 262.968 280.791C264.869 281.544 265.829 283.681 265.112 285.607Z" fill="#FF5252"/>
<path d="M266.875 270.077L211.544 249.47C209.594 248.744 208.602 246.574 209.328 244.624L215.452 228.182C216.178 226.231 218.348 225.239 220.298 225.966L275.629 246.573C277.579 247.299 278.571 249.468 277.845 251.419L271.721 267.861C270.995 269.811 268.825 270.803 266.875 270.077Z" fill="#D5D5D5"/>
<path d="M266.875 270.077L217.955 251.857C216.004 251.131 215.012 248.961 215.739 247.011L221.862 230.569C222.589 228.619 224.758 227.627 226.708 228.353L275.629 246.572C277.579 247.299 278.571 249.468 277.845 251.418L271.721 267.861C270.995 269.811 268.826 270.803 266.875 270.077Z" fill="#EDEDED"/>
<g filter="url(#filter2_d)">
<path d="M81.1282 175.906C80.2527 176.003 79.5717 175.322 79.4744 174.447L77.1396 135.438C76.4586 122.402 65.1736 112.382 52.1375 113.161C39.1987 113.939 29.1784 125.223 29.9567 138.259L32.2915 177.268C32.3888 178.143 31.7078 178.824 30.8322 178.921C29.9567 179.019 29.2757 178.338 29.1784 177.462L26.8436 138.453C25.968 123.667 37.253 111.02 51.9429 110.048C66.6329 109.172 79.3771 120.457 80.2527 135.243L82.5875 174.252C82.6848 175.128 82.0038 175.906 81.1282 175.906Z" fill="#B5B5D2"/>
<path d="M115.664 278.261L109.048 270.965L111.091 146.156L124.03 150.242L115.664 278.261Z" fill="#A8CBF6"/>
<path d="M-8.47061 153.355L111.092 146.156L111.87 271.063L-11 276.705L-8.47061 153.355Z" fill="#99B7DB"/>
<path d="M141.347 306.123L15.0724 317.31L8.65161 157.248L124.031 150.243L141.347 306.123Z" fill="#B1D5FF"/>
<path d="M15.0722 317.31L-11 306.707L-8.47061 153.357L8.65142 157.248L15.0722 317.31Z" fill="#A8CCF6"/>
<path d="M89.3003 179.99C88.4248 180.087 87.7438 179.406 87.6465 178.531L85.3117 139.424C84.5334 126.389 73.3457 116.466 60.3096 117.245C47.2735 118.023 37.3505 129.21 38.1288 142.245L40.4636 181.254C40.5609 182.13 39.8799 182.811 39.0044 182.908C38.1288 183.005 37.4478 182.324 37.3505 181.449L35.0157 142.44C34.1402 127.751 45.4251 115.007 60.1151 114.132C74.805 113.256 87.5492 124.541 88.4248 139.327L90.7596 178.336C90.8569 179.212 90.1759 179.893 89.3003 179.99Z" fill="#B5B5D2"/>
</g>
<g filter="url(#filter3_d)">
<path d="M1085.17 118.915L1092.57 112.07L1112.27 138.182C1114.87 144.425 1110.54 148.427 1104.87 145.028L1085.17 118.915Z" fill="#8EA4F3"/>
<path d="M1080.71 121.902L1075.22 115.663C1078.16 114.198 1080.94 112.268 1083.47 109.865C1085.97 107.489 1088.08 104.789 1089.77 101.849L1095.25 108.077C1095.88 108.789 1095.83 109.907 1095.14 110.561L1083.1 122.008C1082.42 122.662 1081.34 122.615 1080.71 121.902Z" fill="#8574E3"/>
<path d="M1091.16 111.877L1086.49 106.616C1087.73 105.116 1088.84 103.523 1089.8 101.85L1095.26 108.003C1095.88 108.707 1095.83 109.811 1095.15 110.457L1091.05 114.331C1091.73 113.685 1091.78 112.581 1091.16 111.877Z" fill="#6656BF"/>
<path d="M1037.12 59.0011C1023.33 71.7567 1022.37 93.3909 1034.97 107.315L1034.97 107.315C1047.57 121.23 1068.94 122.177 1082.72 109.431C1096.5 96.6774 1097.46 75.0431 1084.86 61.1177C1072.26 47.2029 1050.89 46.256 1037.12 59.0011ZM1037.12 59.0011L1036.1 57.9001L1037.12 59.0011Z" fill="#8EA4F3" stroke="#8398E5" stroke-width="3"/>
<path d="M1077.06 102.55C1087.18 93.2939 1087.87 77.5899 1078.62 67.4741C1069.36 57.3594 1053.66 56.6628 1043.54 65.9191C1033.43 75.1751 1032.73 90.8798 1041.99 100.995C1051.24 111.11 1066.95 111.806 1077.06 102.55Z" fill="#C1EAFF"/>
<path d="M1077.02 102.748C1076.09 103.595 1075.12 104.356 1074.11 105.038C1081.78 95.6033 1081.59 81.7288 1073.13 72.4909C1064.68 63.2537 1050.88 61.8369 1040.8 68.6382C1041.57 67.6926 1042.42 66.7911 1043.34 65.9441C1053.5 56.6441 1069.28 57.344 1078.58 67.5064C1087.88 77.67 1087.18 93.448 1077.02 102.748Z" fill="#A7D4EB"/>
<path d="M1047.89 87.6083C1047.7 89.5799 1045.46 91.2544 1042.89 91.3483C1040.32 91.4423 1038.4 89.9202 1038.59 87.9486C1038.78 85.977 1041.02 84.3025 1043.59 84.2085C1046.16 84.1146 1048.09 85.6367 1047.89 87.6083Z" fill="white"/>
<path d="M1050.47 96.5805C1050.33 97.977 1048.75 99.1631 1046.93 99.2297C1045.1 99.2962 1043.74 98.218 1043.88 96.8215C1044.02 95.4249 1045.6 94.2389 1047.42 94.1723C1049.24 94.1058 1050.61 95.1839 1050.47 96.5805Z" fill="white"/>
</g>
<g filter="url(#filter4_d)">
<path d="M301.277 264.721C315.328 264.721 326.719 253.33 326.719 239.278C326.719 225.227 315.328 213.836 301.277 213.836C287.225 213.836 275.834 225.227 275.834 239.278C275.834 253.33 287.225 264.721 301.277 264.721Z" fill="#FDE180"/>
<path d="M301.277 258.849C312.086 258.849 320.848 250.087 320.848 239.278C320.848 228.469 312.086 219.707 301.277 219.707C290.468 219.707 281.706 228.469 281.706 239.278C281.706 250.087 290.468 258.849 301.277 258.849Z" fill="#FCDA60"/>
<path d="M326.719 280.377H275.835V292.12H326.719V280.377Z" fill="#FDE180"/>
<path d="M283.663 280.377H275.835V292.12H283.663V280.377Z" fill="#FCDA60"/>
<path d="M326.719 303.861H275.835V315.604H326.719V303.861Z" fill="#FDE180"/>
<path d="M283.663 303.861H275.835V315.604H283.663V303.861Z" fill="#FCDA60"/>
<path d="M330.634 292.119H279.749V303.862H330.634V292.119Z" fill="#FDE9A0"/>
<path d="M287.577 292.119H279.749V303.862H287.577V292.119Z" fill="#FDE180"/>
<path d="M330.634 268.635H279.749V280.377H330.634V268.635Z" fill="#FDE9A0"/>
<path d="M287.577 268.635H279.749V280.377H287.577V268.635Z" fill="#FDE180"/>
<path d="M301.277 266.554C316.318 266.554 328.554 254.318 328.554 239.277C328.554 224.237 316.318 212 301.277 212C286.236 212 274 224.237 274 239.277C274 254.318 286.236 266.554 301.277 266.554ZM301.277 215.67C314.294 215.67 324.885 226.26 324.885 239.277C324.885 252.295 314.294 262.885 301.277 262.885C288.26 262.885 277.669 252.295 277.669 239.277C277.669 226.26 288.26 215.67 301.277 215.67Z" fill="#F6D355"/>
<path d="M302.473 247.007H300.486C298.979 247.007 297.753 245.778 297.753 244.266C297.753 243.579 297.197 243.021 296.512 243.021C295.826 243.021 295.27 243.579 295.27 244.266C295.27 247.152 297.61 249.499 300.486 249.499H300.569V252.24C300.569 252.928 301.125 253.486 301.81 253.486C302.496 253.486 303.052 252.928 303.052 252.24V249.47C306.023 249.177 308.351 246.657 308.351 243.602C308.351 240.35 305.714 237.705 302.473 237.705H301.148C299.276 237.705 297.753 236.177 297.753 234.3C297.753 232.422 299.276 230.894 301.148 230.894H303.135C304.642 230.894 305.867 232.124 305.867 233.635V234.964C305.867 235.652 306.423 236.21 307.109 236.21C307.795 236.21 308.351 235.652 308.351 234.964V233.635C308.351 230.75 306.011 228.403 303.135 228.403H303.052V225.662C303.052 224.974 302.496 224.416 301.81 224.416C301.125 224.416 300.569 224.974 300.569 225.662V228.432C297.598 228.725 295.27 231.244 295.27 234.3C295.27 237.551 297.907 240.197 301.148 240.197H302.473C304.345 240.197 305.867 241.724 305.867 243.602C305.867 245.48 304.345 247.007 302.473 247.007Z" fill="#DBB034"/>
<path d="M330.634 266.799H279.749C278.736 266.799 277.914 267.62 277.914 268.634V278.542H275.835C274.822 278.542 274 279.363 274 280.376V292.119C274 293.132 274.822 293.954 275.835 293.954H277.914V302.027H275.835C274.822 302.027 274 302.848 274 303.861V315.604C274 316.617 274.822 317.439 275.835 317.439H326.72C327.733 317.439 328.554 316.617 328.554 315.604V305.696H330.634C331.647 305.696 332.469 304.875 332.469 303.861V292.119C332.469 291.105 331.647 290.284 330.634 290.284H328.554V282.211H330.634C331.647 282.211 332.469 281.389 332.469 280.376V268.634C332.469 267.62 331.647 266.799 330.634 266.799ZM324.885 313.77H277.669V305.697H324.885V313.77ZM328.799 302.027H281.584V293.954H328.799V302.027ZM324.885 290.284H277.669V282.211H324.885V290.284ZM328.799 278.542H281.584V270.469H328.799V278.542Z" fill="#F6D355"/>
</g>
<g filter="url(#filter5_d)">
<path d="M1107.16 308.97L971.359 331.049C967.801 331.628 964.45 329.214 963.871 325.656L946.988 221.815L1095.67 197.641L1112.55 301.483C1113.13 305.04 1110.71 308.392 1107.16 308.97Z" fill="#FED570"/>
<path d="M946.988 221.815L1095.67 197.641L1099.18 219.249L950.501 243.423L946.988 221.815Z" fill="#E4B747"/>
<path d="M1104.66 173.057L1109.01 199.828C1109.47 202.687 1107.53 205.38 1104.67 205.845L941.045 232.449C938.186 232.914 935.493 230.974 935.028 228.115L930.675 201.345C930.211 198.485 932.15 195.793 935.009 195.328L1098.64 168.724C1101.49 168.259 1104.19 170.198 1104.66 173.057Z" fill="#FED570"/>
<path d="M1012.91 195.294C1012 196.793 1011.1 198.307 1010.24 199.832C1007.03 205.503 1004.19 211.359 1001.74 217.357C1000.99 219.202 1000.27 221.058 999.591 222.929L964.306 228.666C965.607 223.653 967.121 218.694 968.84 213.808C971.957 204.944 975.755 196.307 980.213 187.977C981.278 185.988 982.378 184.015 983.517 182.063C984.198 180.886 984.896 179.722 985.606 178.561C989.277 180.811 992.945 183.06 996.618 185.31C997.187 185.656 997.756 186.008 998.323 186.356C1002.66 189.011 1006.99 191.665 1011.32 194.324C1011.85 194.644 1012.38 194.971 1012.91 195.294Z" fill="#E4B747"/>
<path d="M1069.59 211.548L1034.3 217.286C1033.07 215.726 1031.8 214.193 1030.5 212.682C1026.28 207.769 1021.73 203.113 1016.89 198.751C1015.58 197.579 1014.26 196.426 1012.91 195.294C1013.31 194.82 1013.71 194.345 1014.11 193.872C1017.38 189.976 1020.65 186.082 1023.92 182.194C1024.35 181.685 1024.78 181.171 1025.21 180.662C1027.98 177.364 1030.75 174.069 1033.51 170.772C1034.55 171.646 1035.59 172.532 1036.6 173.429C1038.31 174.922 1039.98 176.445 1041.61 177.995C1048.48 184.484 1054.82 191.473 1060.59 198.892C1063.76 202.982 1066.77 207.206 1069.59 211.548Z" fill="#EFB025"/>
<path d="M1018.82 194.335C1017.91 195.833 1017.01 197.347 1016.15 198.872C1012.94 204.543 1010.1 210.4 1007.65 216.399C999.877 235.431 995.987 255.912 996.311 276.634C990.891 271.445 985.736 265.716 980.922 259.477C975.1 264.783 969.526 270.676 964.286 277.139C963.942 255.158 967.522 233.396 974.752 212.849C978.613 201.869 983.519 191.236 989.428 181.103C990.109 179.927 990.807 178.764 991.517 177.601C995.757 180.199 999.994 182.798 1004.24 185.396C1008.57 188.051 1012.9 190.705 1017.24 193.364C1017.77 193.684 1018.29 194.011 1018.82 194.335Z" fill="#FF5252"/>
<path d="M1096.79 255.596C1089.77 251.126 1082.61 247.303 1075.41 244.114C1072.82 251.557 1069.75 258.624 1066.25 265.262C1059.99 245.505 1049.82 227.311 1036.41 211.723C1032.19 206.808 1027.64 202.153 1022.8 197.791C1021.49 196.619 1020.17 195.465 1018.82 194.335C1019.22 193.86 1019.62 193.385 1020.02 192.911C1023.29 189.015 1026.56 185.121 1029.83 181.234C1033.03 177.422 1036.23 173.619 1039.42 169.811C1040.47 170.686 1041.5 171.571 1042.51 172.469C1051.33 180.207 1059.35 188.739 1066.5 197.932C1079.86 215.13 1090.15 234.638 1096.79 255.596Z" fill="#FF5252"/>
<path d="M1004.97 196.587L1032.68 192.083L1036.71 216.894L1009.01 221.398L1004.97 196.587Z" fill="#FF5252"/>
<path d="M1066.5 197.934L1036.41 211.725C1032.19 206.81 1027.64 202.155 1022.8 197.793L1020.02 192.913L1018.02 189.394L1029.83 181.236L1042.51 172.471C1051.33 180.209 1059.35 188.741 1066.5 197.934Z" fill="#E74545"/>
<path d="M1018.02 189.392L1017.24 193.365L1016.15 198.872C1012.94 204.543 1010.1 210.4 1007.65 216.399L974.752 212.849C978.613 201.869 983.519 191.236 989.428 181.103L1004.24 185.396L1018.02 189.392Z" fill="#E74545"/>
<path d="M1061.45 139.176L1015.07 171.218L1028.94 195.616L1080.19 172.126C1086.89 169.054 1089.52 160.897 1085.88 154.488L1079.52 143.301C1075.87 136.892 1067.52 134.985 1061.45 139.176Z" fill="#FF5252"/>
<path d="M960.921 155.52L1015.07 171.217L1009.63 198.755L953.583 192.71C946.253 191.92 941.174 185.016 942.601 177.782L945.092 165.156C946.52 157.922 953.839 153.467 960.921 155.52Z" fill="#FF5252"/>
<path d="M1028.76 179.702C1027.85 179.851 1026.88 179.545 1026.22 178.804C1025.19 177.649 1025.28 175.876 1026.44 174.842C1026.78 174.537 1034.9 167.304 1044.61 161.411C1058.6 152.914 1068.66 151.612 1074.5 157.542C1075.59 158.647 1075.57 160.425 1074.47 161.512C1073.36 162.599 1071.59 162.586 1070.5 161.48C1062.59 153.442 1038.13 171.918 1030.18 179.025C1029.77 179.395 1029.28 179.619 1028.76 179.702Z" fill="#E74545"/>
<path d="M1004.49 183.651C1003.98 183.734 1003.44 183.677 1002.93 183.457C993.14 179.234 964.088 169.458 959.13 179.589C958.448 180.982 956.767 181.557 955.375 180.876C953.983 180.194 953.406 178.514 954.088 177.121C957.745 169.647 967.697 167.695 983.667 171.32C994.743 173.832 1004.73 178.123 1005.15 178.304C1006.58 178.918 1007.23 180.57 1006.62 181.992C1006.22 182.905 1005.4 183.502 1004.49 183.651Z" fill="#E74545"/>
<path d="M1021.5 161.011L1005.73 163.574C1001.42 164.275 998.49 168.341 999.192 172.657L1002.92 195.558C1003.62 199.873 1007.68 202.802 1012 202.101L1027.76 199.538C1032.07 198.836 1035 194.77 1034.3 190.455L1030.58 167.554C1029.88 163.238 1025.81 160.309 1021.5 161.011Z" fill="#FF5252"/>
<path d="M1009.01 221.398L1036.71 216.894L1053.11 317.757L1025.41 322.261L1009.01 221.398Z" fill="#FF5252"/>
<path d="M1009.01 221.398L1036.71 216.894L1038.69 229.083L1010.99 233.588L1009.01 221.398Z" fill="#E74545"/>
</g>
<g filter="url(#filter6_d)">
<path d="M117.415 223.772C118.096 223.772 118.68 223.286 118.777 222.508L119.847 190.114C120.237 179.316 129.284 170.755 140.083 171.144C150.881 171.533 159.442 180.58 159.053 191.476L157.983 223.87C157.983 224.551 158.469 225.134 159.248 225.231C159.929 225.231 160.512 224.745 160.61 223.967L161.68 191.573C162.069 179.316 152.438 169.004 140.18 168.615C127.922 168.226 117.61 177.856 117.221 190.114L116.151 222.508C116.151 223.091 116.734 223.675 117.415 223.772Z" fill="#B5B5D2"/>
<path d="M91.3428 317.742L96.6934 311.517L92.2184 208.011L81.6144 211.611L91.3428 317.742Z" fill="#859BEA"/>
<path d="M88.1324 210.441L89.3971 292.35L81.6144 211.608L88.1324 210.441Z" fill="#859BEA"/>
<path d="M191.546 211.319L92.1212 208.011L94.3588 311.614L196.41 313.657L191.546 211.319Z" fill="#7B8ED1"/>
<path d="M69.9403 316.481L174.91 322.998L177.439 214.921L81.5171 211.711L69.9403 316.481Z" fill="#8EA4F3"/>
<path d="M174.91 322.997L196.41 313.659L191.546 211.321L177.44 214.92L174.91 322.997Z" fill="#899CE1"/>
<path d="M110.8 227.275C111.481 227.275 112.064 226.789 112.162 226.011L113.232 193.617C113.621 182.819 122.668 174.258 133.467 174.647C144.266 175.036 152.827 184.083 152.437 194.979L151.367 227.373C151.367 228.054 151.854 228.637 152.632 228.735C153.313 228.735 153.897 228.248 153.994 227.47L155.064 195.076C155.453 182.819 145.822 172.507 133.564 172.118C121.306 171.632 110.994 181.262 110.605 193.519L109.535 225.914C109.535 226.692 110.119 227.275 110.8 227.275Z" fill="#B5B5D2"/>
<path d="M864.363 227.488L964.386 243.205C968.947 243.921 972.076 248.217 971.36 252.778L960.882 319.46C960.165 324.021 955.869 327.15 951.308 326.433L851.286 310.717C846.725 310 843.595 305.704 844.312 301.143L854.79 234.462C855.506 229.901 859.802 226.771 864.363 227.488Z" fill="#C1EAFF" stroke="#B9E1F4" stroke-width="2"/>
<path d="M890.186 268.493L867.959 265.001C865.913 264.679 864.515 262.76 864.837 260.714L867.165 245.896C867.486 243.85 869.405 242.452 871.452 242.774L893.679 246.266C895.725 246.588 897.123 248.507 896.801 250.553L894.473 265.371C894.151 267.417 892.232 268.815 890.186 268.493Z" fill="#FFEC87"/>
<path d="M873.437 290.536L864.175 289.08C862.129 288.759 860.731 286.84 861.053 284.794L861.344 282.942C861.665 280.895 863.585 279.498 865.631 279.819L874.892 281.274C876.938 281.596 878.336 283.515 878.014 285.561L877.723 287.413C877.402 289.459 875.483 290.857 873.437 290.536Z" fill="#85CAED"/>
<path d="M897.516 294.319L888.255 292.864C886.209 292.543 884.811 290.623 885.132 288.577L885.423 286.725C885.745 284.679 887.664 283.281 889.71 283.603L898.971 285.058C901.018 285.379 902.415 287.299 902.094 289.345L901.803 291.197C901.481 293.243 899.562 294.641 897.516 294.319Z" fill="#85CAED"/>
<path d="M921.596 298.103L912.334 296.648C910.288 296.326 908.89 294.407 909.212 292.361L909.503 290.509C909.825 288.463 911.744 287.065 913.79 287.386L923.051 288.842C925.097 289.163 926.495 291.082 926.173 293.128L925.882 294.98C925.561 297.027 923.642 298.424 921.596 298.103Z" fill="#85CAED"/>
<path d="M945.675 301.887L936.414 300.431C934.368 300.11 932.97 298.191 933.292 296.145L933.583 294.292C933.904 292.246 935.823 290.848 937.869 291.17L947.131 292.625C949.177 292.947 950.575 294.866 950.253 296.912L949.962 298.764C949.64 300.81 947.721 302.208 945.675 301.887Z" fill="#85CAED"/>
<path d="M897.622 305.724L860.577 299.903C859.553 299.742 858.855 298.783 859.016 297.76C859.176 296.737 860.135 296.038 861.159 296.198L898.204 302.019C899.228 302.18 899.926 303.14 899.766 304.163C899.605 305.186 898.646 305.885 897.622 305.724Z" fill="#85CAED"/>
<path d="M921.702 309.508L905.031 306.888C904.008 306.727 903.309 305.768 903.47 304.745C903.631 303.722 904.59 303.023 905.613 303.184L922.284 305.803C923.308 305.964 924.006 306.923 923.845 307.946C923.684 308.969 922.726 309.668 921.702 309.508Z" fill="#85CAED"/>
<path d="M935.223 271.775C932.831 273.728 929.649 274.694 926.357 274.177C920.219 273.213 916.026 267.455 916.99 261.317C917.955 255.179 923.712 250.985 929.85 251.95C933.141 252.467 935.873 254.362 937.551 256.954" fill="#6ACDFF"/>
<path d="M895.346 259.814L876.823 256.904L877.405 253.199L895.928 256.11L896.51 252.405L877.987 249.495L878.861 243.938L875.156 243.356L871.664 265.583L875.368 266.165L876.241 260.608L894.764 263.519L895.346 259.814Z" fill="#E6D0A6"/>
<path d="M942.05 276.643C948.188 277.607 953.945 273.413 954.91 267.275C955.874 261.138 951.68 255.38 945.542 254.416C939.405 253.451 933.647 257.645 932.683 263.783C931.718 269.921 935.912 275.678 942.05 276.643Z" fill="#8EA4F3"/>
<g filter="url(#filter7_d)">
<path d="M850.364 267.636L716.102 301.967C713.305 302.682 711.618 305.529 712.333 308.325L730.841 380.706C731.556 383.502 734.403 385.19 737.199 384.475L871.461 350.143C874.257 349.428 875.945 346.582 875.23 343.785L856.721 271.404C856.006 268.608 853.16 266.921 850.364 267.636Z" fill="#80CE7B"/>
<path d="M716.831 304.821L851.093 270.489C852.313 270.177 853.556 270.914 853.868 272.134L872.376 344.515C872.688 345.735 871.952 346.977 870.731 347.289L736.469 381.621C735.249 381.933 734.007 381.197 733.695 379.976L715.187 307.595C714.875 306.375 715.611 305.133 716.831 304.821Z" stroke="#5FBD58" stroke-width="5.89114"/>
</g>
<path d="M827.298 317.479C832.032 335.992 820.863 354.835 802.35 359.568C783.837 364.302 764.994 353.133 760.26 334.621C755.527 316.108 766.696 297.265 785.208 292.531C803.721 287.797 822.564 298.966 827.298 317.479Z" fill="#59A854"/>
<path d="M783.227 358.97C772.283 355.448 763.32 346.587 760.262 334.626C757.203 322.665 760.813 310.59 768.722 302.247L742.632 308.918C742.779 309.333 742.914 309.755 743.026 310.191C745.029 318.024 740.301 325.995 732.471 327.998C732.035 328.109 731.601 328.193 731.165 328.263L737.791 354.175C738.207 354.028 738.628 353.893 739.064 353.781C746.894 351.779 754.868 356.503 756.871 364.336C756.982 364.772 757.066 365.207 757.136 365.642L783.227 358.97Z" fill="#EAEAD7"/>
<path d="M848.496 298.329C840.663 300.332 832.692 295.607 830.689 287.774C830.578 287.339 830.494 286.904 830.424 286.469L804.333 293.14C815.277 296.662 824.24 305.523 827.298 317.484C830.357 329.445 826.747 341.521 818.838 349.864L844.928 343.193C844.781 342.777 844.646 342.356 844.534 341.92C842.531 334.087 847.256 326.116 855.089 324.113C855.525 324.001 855.959 323.918 856.395 323.848L849.769 297.935C849.353 298.082 848.932 298.218 848.496 298.329Z" fill="#EAEAD7"/>
<path d="M730.491 320.256C726.935 321.165 723.306 319.014 722.397 315.458C721.488 311.903 723.639 308.273 727.194 307.364C730.75 306.455 734.379 308.606 735.289 312.162C736.198 315.717 734.046 319.347 730.491 320.256Z" fill="#EAEAD7"/>
<path d="M846.518 290.59C842.963 291.499 839.333 289.348 838.424 285.792C837.515 282.237 839.666 278.608 843.222 277.698C846.777 276.789 850.407 278.94 851.316 282.496C852.225 286.052 850.074 289.681 846.518 290.59Z" fill="#EAEAD7"/>
<path d="M810.131 330.184C811.817 329.148 812.73 327.113 812.216 325.102L811.642 322.858C811.203 321.139 809.833 319.907 808.212 319.519C805.063 311.331 798.61 309.341 789.64 311.635C789.217 311.743 788.803 311.865 788.404 312.003C781.078 314.532 780.6 312.664 780.024 310.413L777.799 315.779C777.537 319.444 777.577 316.81 777.035 320.695C776.736 322.843 776.774 325.132 777.119 327.478C775.894 328.599 775.287 330.328 775.726 332.042L776.299 334.286C776.814 336.297 778.595 337.643 780.568 337.743C782.944 341.976 786.366 344.971 791.183 345.731L791.841 348.301C792.009 348.959 791.788 349.653 791.275 350.094L783.7 356.58C783.054 357.179 782.579 357.897 782.184 358.654C788.447 360.888 795.423 361.345 802.351 359.574C809.022 357.868 814.718 354.31 819.08 349.615C818.239 349.001 817.266 348.557 816.207 348.328L806.648 346.169C805.995 346.022 805.48 345.522 805.315 344.875L804.653 342.287C808.514 339.308 810.078 335.037 810.131 330.184Z" fill="#EAEAD7"/>
</g>
</g>
<defs>
<filter id="filter0_d" x="128" y="143" width="117.024" height="117.028" filterUnits="userSpaceOnUse" color-interpolation-filters="sRGB">
<feFlood flood-opacity="0" result="BackgroundImageFix"/>
<feColorMatrix in="SourceAlpha" type="matrix" values="0 0 0 0 0 0 0 0 0 0 0 0 0 0 0 0 0 0 127 0"/>
<feOffset/>
<feGaussianBlur stdDeviation="5"/>
<feColorMatrix type="matrix" values="0 0 0 0 1 0 0 0 0 0.321569 0 0 0 0 0.321569 0 0 0 0.4 0"/>
<feBlend mode="normal" in2="BackgroundImageFix" result="effect1_dropShadow"/>
<feBlend mode="normal" in="SourceGraphic" in2="effect1_dropShadow" result="shape"/>
</filter>
<filter id="filter1_d" x="-35.8483" y="26.1079" width="123.993" height="154.246" filterUnits="userSpaceOnUse" color-interpolation-filters="sRGB">
<feFlood flood-opacity="0" result="BackgroundImageFix"/>
<feColorMatrix in="SourceAlpha" type="matrix" values="0 0 0 0 0 0 0 0 0 0 0 0 0 0 0 0 0 0 127 0"/>
<feOffset dy="2.20765"/>
<feGaussianBlur stdDeviation="6.07104"/>
<feColorMatrix type="matrix" values="0 0 0 0 0.380392 0 0 0 0 0.682353 0 0 0 0 0.305882 0 0 0 0.56 0"/>
<feBlend mode="normal" in2="BackgroundImageFix" result="effect1_dropShadow"/>
<feBlend mode="normal" in="SourceGraphic" in2="effect1_dropShadow" result="shape"/>
</filter>
<filter id="filter2_d" x="-23.1421" y="100.066" width="176.632" height="231.594" filterUnits="userSpaceOnUse" color-interpolation-filters="sRGB">
<feFlood flood-opacity="0" result="BackgroundImageFix"/>
<feColorMatrix in="SourceAlpha" type="matrix" values="0 0 0 0 0 0 0 0 0 0 0 0 0 0 0 0 0 0 127 0"/>
<feOffset dy="2.20765"/>
<feGaussianBlur stdDeviation="6.07104"/>
<feColorMatrix type="matrix" values="0 0 0 0 0.546875 0 0 0 0 0.7825 0 0 0 0 1 0 0 0 0.592 0"/>
<feBlend mode="normal" in2="BackgroundImageFix" result="effect1_dropShadow"/>
<feBlend mode="normal" in="SourceGraphic" in2="effect1_dropShadow" result="shape"/>
</filter>
<filter id="filter3_d" x="1012.07" y="38" width="113.252" height="121.454" filterUnits="userSpaceOnUse" color-interpolation-filters="sRGB">
<feFlood flood-opacity="0" result="BackgroundImageFix"/>
<feColorMatrix in="SourceAlpha" type="matrix" values="0 0 0 0 0 0 0 0 0 0 0 0 0 0 0 0 0 0 127 0"/>
<feOffset dy="2"/>
<feGaussianBlur stdDeviation="5.5"/>
<feColorMatrix type="matrix" values="0 0 0 0 0.556863 0 0 0 0 0.643137 0 0 0 0 0.952941 0 0 0 0.592 0"/>
<feBlend mode="normal" in2="BackgroundImageFix" result="effect1_dropShadow"/>
<feBlend mode="normal" in="SourceGraphic" in2="effect1_dropShadow" result="shape"/>
</filter>
<filter id="filter4_d" x="265" y="203" width="76.4685" height="123.439" filterUnits="userSpaceOnUse" color-interpolation-filters="sRGB">
<feFlood flood-opacity="0" result="BackgroundImageFix"/>
<feColorMatrix in="SourceAlpha" type="matrix" values="0 0 0 0 0 0 0 0 0 0 0 0 0 0 0 0 0 0 127 0"/>
<feOffset/>
<feGaussianBlur stdDeviation="4.5"/>
<feColorMatrix type="matrix" values="0 0 0 0 1 0 0 0 0 0.898688 0 0 0 0 0.535156 0 0 0 1 0"/>
<feBlend mode="normal" in2="BackgroundImageFix" result="effect1_dropShadow"/>
<feBlend mode="normal" in="SourceGraphic" in2="effect1_dropShadow" result="shape"/>
</filter>
<filter id="filter5_d" x="917.692" y="124.435" width="208.049" height="222.011" filterUnits="userSpaceOnUse" color-interpolation-filters="sRGB">
<feFlood flood-opacity="0" result="BackgroundImageFix"/>
<feColorMatrix in="SourceAlpha" type="matrix" values="0 0 0 0 0 0 0 0 0 0 0 0 0 0 0 0 0 0 127 0"/>
<feOffset dy="2.20765"/>
<feGaussianBlur stdDeviation="6.07104"/>
<feColorMatrix type="matrix" values="0 0 0 0 1 0 0 0 0 0.780392 0 0 0 0 0.231373 0 0 0 1 0"/>
<feBlend mode="normal" in2="BackgroundImageFix" result="effect1_dropShadow"/>
<feBlend mode="normal" in="SourceGraphic" in2="effect1_dropShadow" result="shape"/>
</filter>
<filter id="filter6_d" x="57.7982" y="158.669" width="928.147" height="241.45" filterUnits="userSpaceOnUse" color-interpolation-filters="sRGB">
<feFlood flood-opacity="0" result="BackgroundImageFix"/>
<feColorMatrix in="SourceAlpha" type="matrix" values="0 0 0 0 0 0 0 0 0 0 0 0 0 0 0 0 0 0 127 0"/>
<feOffset dy="2.20765"/>
<feGaussianBlur stdDeviation="6.07104"/>
<feColorMatrix type="matrix" values="0 0 0 0 0.556863 0 0 0 0 0.643137 0 0 0 0 0.952941 0 0 0 0.592 0"/>
<feBlend mode="normal" in2="BackgroundImageFix" result="effect1_dropShadow"/>
<feBlend mode="normal" in="SourceGraphic" in2="effect1_dropShadow" result="shape"/>
</filter>
<filter id="filter7_d" x="700.934" y="256.237" width="185.694" height="139.636" filterUnits="userSpaceOnUse" color-interpolation-filters="sRGB">
<feFlood flood-opacity="0" result="BackgroundImageFix"/>
<feColorMatrix in="SourceAlpha" type="matrix" values="0 0 0 0 0 0 0 0 0 0 0 0 0 0 0 0 0 0 127 0"/>
<feOffset/>
<feGaussianBlur stdDeviation="5.052"/>
<feColorMatrix type="matrix" values="0 0 0 0 0.252067 0 0 0 0 0.687044 0 0 0 0 0.224184 0 0 0 1 0"/>
<feBlend mode="normal" in2="BackgroundImageFix" result="effect1_dropShadow"/>
<feBlend mode="normal" in="SourceGraphic" in2="effect1_dropShadow" result="shape"/>
</filter>
<linearGradient id="paint0_linear" x1="42.3009" y1="321.171" x2="42.3009" y2="216.686" gradientUnits="userSpaceOnUse">
<stop offset="0.520833" stop-color="#FFDEEE"/>
<stop offset="1" stop-color="#E4E9FE"/>
</linearGradient>
<linearGradient id="paint1_linear" x1="240.404" y1="290.883" x2="240.404" y2="227.801" gradientUnits="userSpaceOnUse">
<stop offset="0.520833" stop-color="#FFDEEE"/>
<stop offset="1" stop-color="#E4E9FE"/>
</linearGradient>
<linearGradient id="paint2_linear" x1="93.356" y1="590.326" x2="93.3556" y2="295.491" gradientUnits="userSpaceOnUse">
<stop stop-color="#FCE7FF"/>
<stop offset="0.432292" stop-color="#FFA2CE"/>
<stop offset="1" stop-color="#A2B6FF"/>
</linearGradient>
<linearGradient id="paint3_linear" x1="792.301" y1="321.171" x2="792.301" y2="216.686" gradientUnits="userSpaceOnUse">
<stop offset="0.520833" stop-color="#FFDEEE"/>
<stop offset="1" stop-color="#E4E9FE"/>
</linearGradient>
<linearGradient id="paint4_linear" x1="990.404" y1="290.883" x2="990.404" y2="227.801" gradientUnits="userSpaceOnUse">
<stop offset="0.520833" stop-color="#FFDEEE"/>
<stop offset="1" stop-color="#E4E9FE"/>
</linearGradient>
<linearGradient id="paint5_linear" x1="843.356" y1="590.326" x2="843.356" y2="295.491" gradientUnits="userSpaceOnUse">
<stop stop-color="#FCE7FF"/>
<stop offset="0.432292" stop-color="#FFA2CE"/>
<stop offset="1" stop-color="#A2B6FF"/>
</linearGradient>
<linearGradient id="paint6_linear" x1="525.7" y1="321.171" x2="525.7" y2="216.686" gradientUnits="userSpaceOnUse">
<stop offset="0.520833" stop-color="#FFDEEE"/>
<stop offset="1" stop-color="#E4E9FE"/>
</linearGradient>
<linearGradient id="paint7_linear" x1="327.597" y1="290.883" x2="327.597" y2="227.801" gradientUnits="userSpaceOnUse">
<stop offset="0.520833" stop-color="#FFDEEE"/>
<stop offset="1" stop-color="#E4E9FE"/>
</linearGradient>
<linearGradient id="paint8_linear" x1="474.645" y1="590.326" x2="474.645" y2="295.491" gradientUnits="userSpaceOnUse">
<stop stop-color="#FCE7FF"/>
<stop offset="0.432292" stop-color="#FFA2CE"/>
<stop offset="1" stop-color="#A2B6FF"/>
</linearGradient>
</defs>
</svg>
