<svg width="16" height="20" viewBox="0 0 16 20" fill="none" xmlns="http://www.w3.org/2000/svg">
<path fill-rule="evenodd" clip-rule="evenodd" d="M1.97935 6.3376V17.0698C1.97935 17.7041 2.21195 18.2998 2.61828 18.7272C3.02274 19.1559 3.58561 19.3992 4.17469 19.4002H12.4163C13.0055 19.3992 13.5684 19.1559 13.9727 18.7272C14.379 18.2998 14.6116 17.7041 14.6116 17.0698V6.3376C15.4194 6.12321 15.9428 5.34288 15.8347 4.51405C15.7265 3.6854 15.0205 3.06553 14.1847 3.06536H11.9545V2.52086C11.957 2.06298 11.776 1.6233 11.4519 1.29983C11.1277 0.976539 10.6874 0.796515 10.2295 0.800259H6.36151C5.90363 0.796515 5.46327 0.976539 5.13912 1.29983C4.81498 1.6233 4.63393 2.06298 4.63649 2.52086V3.06536H2.40627C1.57047 3.06553 0.864498 3.6854 0.756279 4.51405C0.648231 5.34288 1.17163 6.12321 1.97935 6.3376ZM12.4163 18.529H4.17469C3.42992 18.529 2.85054 17.8892 2.85054 17.0698V6.37589H13.7404V17.0698C13.7404 17.8892 13.1611 18.529 12.4163 18.529ZM5.50768 2.52086C5.50479 2.29405 5.59395 2.07574 5.75491 1.91562C5.91571 1.75551 6.13453 1.66754 6.36151 1.67145H10.2295C10.4565 1.66754 10.6753 1.75551 10.8361 1.91562C10.997 2.07557 11.0862 2.29405 11.0833 2.52086V3.06536H5.50768V2.52086ZM2.40627 3.93655H14.1847C14.6178 3.93655 14.9688 4.28758 14.9688 4.72062C14.9688 5.15366 14.6178 5.50469 14.1847 5.50469H2.40627C1.97323 5.50469 1.6222 5.15366 1.6222 4.72062C1.6222 4.28758 1.97323 3.93655 2.40627 3.93655ZM5.28989 7.97454C5.28989 7.73394 5.48488 7.53894 5.72548 7.53894C5.96608 7.53894 6.16108 7.73394 6.16108 7.97454V16.2073C6.16108 16.4478 5.96608 16.6429 5.72548 16.6429C5.48488 16.6429 5.28989 16.4478 5.28989 16.2073V7.97454ZM10.4298 7.97454C10.4298 7.73394 10.6248 7.53894 10.8653 7.53894C11.106 7.53894 11.3009 7.73394 11.3009 7.97454V16.2073C11.3009 16.4478 11.106 16.6429 10.8653 16.6429C10.6248 16.6429 10.4298 16.4478 10.4298 16.2073V7.97454ZM7.85982 7.97454C7.85982 7.73394 8.05482 7.53894 8.29541 7.53894C8.53601 7.53894 8.73101 7.73394 8.73101 7.97454V16.2073C8.73101 16.4478 8.53601 16.6429 8.29541 16.6429C8.05482 16.6429 7.85982 16.4478 7.85982 16.2073V7.97454Z" fill="#747B94"/>
</svg>
