<svg width="19" height="19" viewBox="0 0 19 19" fill="none" xmlns="http://www.w3.org/2000/svg">
<path d="M12.1207 6.88379C11.875 6.88379 11.6758 7.08298 11.6758 7.32875V15.7386C11.6758 15.9842 11.875 16.1836 12.1207 16.1836C12.3665 16.1836 12.5657 15.9842 12.5657 15.7386V7.32875C12.5657 7.08298 12.3665 6.88379 12.1207 6.88379Z" fill="#8EA4F3"/>
<path d="M6.87026 6.88379C6.62448 6.88379 6.42529 7.08298 6.42529 7.32875V15.7386C6.42529 15.9842 6.62448 16.1836 6.87026 16.1836C7.11603 16.1836 7.31522 15.9842 7.31522 15.7386V7.32875C7.31522 7.08298 7.11603 6.88379 6.87026 6.88379Z" fill="#8EA4F3"/>
<path d="M3.04355 5.65648V16.6194C3.04355 17.2674 3.28116 17.8759 3.69622 18.3126C4.10938 18.7504 4.68436 18.999 5.2861 19H13.7049C14.3069 18.999 14.8818 18.7504 15.2948 18.3126C15.7099 17.8759 15.9475 17.2674 15.9475 16.6194V5.65648C16.7726 5.43748 17.3072 4.64037 17.1969 3.79372C17.0863 2.94725 16.3652 2.31404 15.5114 2.31387H13.2332V1.75766C13.2358 1.28993 13.0509 0.840796 12.7198 0.510376C12.3887 0.18013 11.9388 -0.00376544 11.4711 5.84646e-05H7.51996C7.05222 -0.00376544 6.60239 0.18013 6.27128 0.510376C5.94016 0.840796 5.75522 1.28993 5.75783 1.75766V2.31387H3.47965C2.62588 2.31404 1.90473 2.94725 1.79418 3.79372C1.68381 4.64037 2.21846 5.43748 3.04355 5.65648ZM13.7049 18.1101H5.2861C4.52532 18.1101 3.93348 17.4565 3.93348 16.6194V5.69559H15.0576V16.6194C15.0576 17.4565 14.4657 18.1101 13.7049 18.1101ZM6.64776 1.75766C6.6448 1.52597 6.73588 1.30297 6.90031 1.13941C7.06456 0.97585 7.28809 0.885988 7.51996 0.889986H11.4711C11.703 0.885988 11.9265 0.97585 12.0907 1.13941C12.2552 1.30279 12.3462 1.52597 12.3433 1.75766V2.31387H6.64776V1.75766ZM3.47965 3.2038H15.5114C15.9538 3.2038 16.3123 3.56237 16.3123 4.00473C16.3123 4.44709 15.9538 4.80566 15.5114 4.80566H3.47965C3.0373 4.80566 2.67872 4.44709 2.67872 4.00473C2.67872 3.56237 3.0373 3.2038 3.47965 3.2038Z" fill="#8EA4F3"/>
<path d="M9.49525 6.88379C9.24948 6.88379 9.05029 7.08298 9.05029 7.32875V15.7386C9.05029 15.9842 9.24948 16.1836 9.49525 16.1836C9.74103 16.1836 9.94022 15.9842 9.94022 15.7386V7.32875C9.94022 7.08298 9.74103 6.88379 9.49525 6.88379Z" fill="#8EA4F3"/>
</svg>
