<svg width="15" height="13" viewBox="0 0 15 13" fill="none" xmlns="http://www.w3.org/2000/svg">
<path fill-rule="evenodd" clip-rule="evenodd" d="M9.7517 5.77585C9.7517 7.97165 7.97165 9.7517 5.77585 9.7517C3.58005 9.7517 1.8 7.97165 1.8 5.77585C1.8 3.58005 3.58005 1.8 5.77585 1.8C7.97165 1.8 9.7517 3.58005 9.7517 5.77585ZM9.90126 9.8183C8.85294 10.888 7.3919 11.5517 5.77585 11.5517C2.58594 11.5517 0 8.96576 0 5.77585C0 2.58594 2.58594 0 5.77585 0C8.96576 0 11.5517 2.58594 11.5517 5.77585C11.5517 6.70682 11.3314 7.58636 10.9402 8.36517C10.9977 8.39641 11.0527 8.43445 11.1041 8.47937L14.3701 11.3372C14.7442 11.6645 14.7821 12.2331 14.4548 12.6071C14.1275 12.9812 13.5589 13.0191 13.1848 12.6918L9.91876 9.83401C9.91284 9.82884 9.90701 9.8236 9.90126 9.8183Z" fill="#C4C4C4"/>
</svg>
