<svg width="27" height="28" viewBox="0 0 27 28" fill="none" xmlns="http://www.w3.org/2000/svg">
<mask id="path-1-inside-1" fill="white">
<path fill-rule="evenodd" clip-rule="evenodd" d="M19.6885 11.3655C21.6524 10.3796 23.0001 8.34719 23.0001 6C23.0001 2.68629 20.3138 0 17.0001 0C13.6864 0 11.0001 2.68629 11.0001 6C11.0001 8.34719 12.3479 10.3796 14.3118 11.3655C10.4042 12.4535 7.46046 15.8551 7.04938 20.0014C6.99489 20.551 7.44785 21 8.00014 21H26.0001C26.5524 21 27.0054 20.551 26.9509 20.0014C26.5398 15.8551 23.5961 12.4535 19.6885 11.3655Z"/>
</mask>
<path d="M19.6885 11.3655L18.9258 9.8462L14.9901 11.822L19.2325 13.0032L19.6885 11.3655ZM14.3118 11.3655L14.7678 13.0032L19.0101 11.822L15.0745 9.8462L14.3118 11.3655ZM7.04938 20.0014L5.35767 19.8337L7.04938 20.0014ZM26.9509 20.0014L25.2592 20.1691V20.1691L26.9509 20.0014ZM21.3001 6C21.3001 7.67968 20.3374 9.13755 18.9258 9.8462L20.4512 12.8848C22.9673 11.6216 24.7001 9.0147 24.7001 6H21.3001ZM17.0001 1.7C19.375 1.7 21.3001 3.62518 21.3001 6H24.7001C24.7001 1.74741 21.2527 -1.7 17.0001 -1.7V1.7ZM12.7001 6C12.7001 3.62518 14.6253 1.7 17.0001 1.7V-1.7C12.7475 -1.7 9.30014 1.74741 9.30014 6H12.7001ZM15.0745 9.8462C13.6629 9.13755 12.7001 7.67968 12.7001 6H9.30014C9.30014 9.0147 11.0329 11.6216 13.5491 12.8848L15.0745 9.8462ZM8.74108 20.1691C9.08182 16.7323 11.5247 13.9062 14.7678 13.0032L13.8558 9.7278C9.28366 11.0009 5.8391 14.9778 5.35767 19.8337L8.74108 20.1691ZM8.00014 19.3C8.33641 19.3 8.79692 19.6059 8.74108 20.1691L5.35767 19.8337C5.19285 21.4961 6.5593 22.7 8.00014 22.7V19.3ZM26.0001 19.3H8.00014V22.7H26.0001V19.3ZM25.2592 20.1691C25.2034 19.6059 25.6639 19.3 26.0001 19.3V22.7C27.441 22.7 28.8074 21.4961 28.6426 19.8337L25.2592 20.1691ZM19.2325 13.0032C22.4756 13.9062 24.9185 16.7323 25.2592 20.1691L28.6426 19.8337C28.1612 14.9778 24.7166 11.0009 20.1445 9.7278L19.2325 13.0032Z" fill="#54556F" mask="url(#path-1-inside-1)"/>
<path d="M14 20.5C14 24.0899 11.0899 27 7.5 27C3.91015 27 1 24.0899 1 20.5C1 16.9101 3.91015 14 7.5 14C11.0899 14 14 16.9101 14 20.5Z" fill="#5EBBF2" stroke="#468CB4" stroke-width="1.7"/>
<path fill-rule="evenodd" clip-rule="evenodd" d="M8.31237 18.1096C8.09674 17.9371 7.78209 17.972 7.60958 18.1877C7.43708 18.4033 7.47204 18.7179 7.68767 18.8905L9.0746 20H4.5C4.22386 20 4 20.2239 4 20.5C4 20.7761 4.22386 21 4.5 21H9.07465L7.68767 22.1096C7.47204 22.2821 7.43708 22.5967 7.60958 22.8124C7.78209 23.028 8.09674 23.063 8.31237 22.8905L11.3004 20.5L8.31237 18.1096Z" fill="white"/>
</svg>
