<svg width="34" height="25" viewBox="0 0 34 25" fill="none" xmlns="http://www.w3.org/2000/svg">
<rect x="6" y="6" width="12" height="6" fill="#958FEA"/>
<rect x="6" y="15" width="4" height="4" fill="#5EBBF2"/>
<rect x="14" y="15" width="4" height="4" fill="#5EBBF2"/>
<path fill-rule="evenodd" clip-rule="evenodd" d="M1.5 1.5V23.5H32.5V1.5H1.5ZM1 0C0.447715 0 0 0.447716 0 1V24C0 24.5523 0.447716 25 1 25H33C33.5523 25 34 24.5523 34 24V1C34 0.447715 33.5523 0 33 0H1ZM6.5 6.5V11.5H17.5V6.5H6.5ZM6 5C5.44772 5 5 5.44772 5 6V12C5 12.5523 5.44772 13 6 13H18C18.5523 13 19 12.5523 19 12V6C19 5.44772 18.5523 5 18 5H6ZM21.5 6C21.2239 6 21 6.22386 21 6.5C21 6.77614 21.2239 7 21.5 7H28.5C28.7761 7 29 6.77614 29 6.5C29 6.22386 28.7761 6 28.5 6H21.5ZM21 9.5C21 9.22386 21.2239 9 21.5 9H28.5C28.7761 9 29 9.22386 29 9.5C29 9.77614 28.7761 10 28.5 10H21.5C21.2239 10 21 9.77614 21 9.5ZM21.5 12C21.2239 12 21 12.2239 21 12.5C21 12.7761 21.2239 13 21.5 13H28.5C28.7761 13 29 12.7761 29 12.5C29 12.2239 28.7761 12 28.5 12H21.5ZM21 15.5C21 15.2239 21.2239 15 21.5 15H28.5C28.7761 15 29 15.2239 29 15.5C29 15.7761 28.7761 16 28.5 16H21.5C21.2239 16 21 15.7761 21 15.5ZM21.5 18C21.2239 18 21 18.2239 21 18.5C21 18.7761 21.2239 19 21.5 19H28.5C28.7761 19 29 18.7761 29 18.5C29 18.2239 28.7761 18 28.5 18H21.5ZM6.5 15.5V18.5H9.5V15.5H6.5ZM6 14C5.44772 14 5 14.4477 5 15V19C5 19.5523 5.44772 20 6 20H10C10.5523 20 11 19.5523 11 19V15C11 14.4477 10.5523 14 10 14H6ZM14.5 18.5V15.5H17.5V18.5H14.5ZM13 15C13 14.4477 13.4477 14 14 14H18C18.5523 14 19 14.4477 19 15V19C19 19.5523 18.5523 20 18 20H14C13.4477 20 13 19.5523 13 19V15Z" fill="#54556F"/>
</svg>
