<svg width="25" height="28" viewBox="0 0 25 28" fill="none" xmlns="http://www.w3.org/2000/svg">
<mask id="path-1-inside-1" fill="white">
<path fill-rule="evenodd" clip-rule="evenodd" d="M17.6436 11.3655C19.6074 10.3796 20.9552 8.34719 20.9552 6C20.9552 2.68629 18.2689 0 14.9552 0C11.6415 0 8.95522 2.68629 8.95522 6C8.95522 8.34719 10.303 10.3796 12.2669 11.3655C8.35924 12.4535 5.41554 15.8551 5.00445 20.0014C4.94996 20.551 5.40293 21 5.95522 21H23.9552C24.5075 21 24.9605 20.551 24.906 20.0014C24.4949 15.8551 21.5512 12.4535 17.6436 11.3655Z"/>
</mask>
<path d="M17.6436 11.3655L16.8808 9.8462L12.9452 11.822L17.1876 13.0032L17.6436 11.3655ZM12.2669 11.3655L12.7229 13.0032L16.9652 11.822L13.0296 9.8462L12.2669 11.3655ZM5.00445 20.0014L3.31275 19.8337L5.00445 20.0014ZM24.906 20.0014L23.2143 20.1691V20.1691L24.906 20.0014ZM19.2552 6C19.2552 7.67968 18.2924 9.13755 16.8808 9.8462L18.4063 12.8848C20.9224 11.6216 22.6552 9.0147 22.6552 6H19.2552ZM14.9552 1.7C17.33 1.7 19.2552 3.62518 19.2552 6H22.6552C22.6552 1.74741 19.2078 -1.7 14.9552 -1.7V1.7ZM10.6552 6C10.6552 3.62518 12.5804 1.7 14.9552 1.7V-1.7C10.7026 -1.7 7.25522 1.74741 7.25522 6H10.6552ZM13.0296 9.8462C11.618 9.13755 10.6552 7.67968 10.6552 6H7.25522C7.25522 9.0147 8.98801 11.6216 11.5042 12.8848L13.0296 9.8462ZM6.69616 20.1691C7.0369 16.7323 9.47974 13.9062 12.7229 13.0032L11.8109 9.7278C7.23874 11.0009 3.79418 14.9778 3.31275 19.8337L6.69616 20.1691ZM5.95522 19.3C6.29149 19.3 6.752 19.6059 6.69616 20.1691L3.31275 19.8337C3.14793 21.4961 4.51438 22.7 5.95522 22.7V19.3ZM23.9552 19.3H5.95522V22.7H23.9552V19.3ZM23.2143 20.1691C23.1584 19.6059 23.6189 19.3 23.9552 19.3V22.7C25.3961 22.7 26.7625 21.4961 26.5977 19.8337L23.2143 20.1691ZM17.1876 13.0032C20.4307 13.9062 22.8735 16.7323 23.2143 20.1691L26.5977 19.8337C26.1163 14.9778 22.6717 11.0009 18.0996 9.7278L17.1876 13.0032Z" fill="#54556F" mask="url(#path-1-inside-1)"/>
<path d="M13.9551 20.5C13.9551 24.0899 11.0449 27 7.45508 27C3.86523 27 0.955078 24.0899 0.955078 20.5C0.955078 16.9101 3.86523 14 7.45508 14C11.0449 14 13.9551 16.9101 13.9551 20.5Z" fill="#40DA99" stroke="#46B486" stroke-width="1.7"/>
<path d="M5 20.5L7.22222 23L10 18" stroke="white" stroke-linecap="round"/>
</svg>
