<svg width="23" height="20" viewBox="0 0 23 20" fill="none" xmlns="http://www.w3.org/2000/svg">
<path d="M7.69975 7.80637C8.63618 7.80637 9.39817 7.04452 9.39817 6.10808C9.39817 5.17152 8.63618 4.40967 7.69975 4.40967C6.76332 4.40967 6.00146 5.17152 6.00146 6.10808C6.00146 7.04452 6.76332 7.80637 7.69975 7.80637ZM7.69975 5.40576C8.08704 5.40576 8.40208 5.7208 8.40208 6.10808C8.40208 6.49524 8.08704 6.81028 7.69975 6.81028C7.3126 6.81028 6.99756 6.49524 6.99756 6.10808C6.99756 5.7208 7.3126 5.40576 7.69975 5.40576Z" fill="#8EA4F3"/>
<path d="M16.3793 2.22852H0.620743C0.278465 2.22852 0 2.50698 0 2.84926V15.1878C0 15.5301 0.278465 15.8086 0.620743 15.8086H16.3793C16.7215 15.8086 17 15.5301 17 15.1878V2.84926C17 2.50698 16.7215 2.22852 16.3793 2.22852ZM16.0039 3.22461V10.1072L12.8711 6.97434C12.6669 6.77045 12.3347 6.77058 12.1306 6.97473L7.69988 11.4054L4.86971 8.57536C4.77074 8.47626 4.6391 8.42166 4.49902 8.42166C4.35908 8.42166 4.22756 8.47614 4.1286 8.5751L0.996094 11.7076V3.22461H16.0039ZM0.996094 14.8125V13.1163L4.49902 9.61334L7.32907 12.4434C7.42816 12.5425 7.55981 12.5972 7.69988 12.5972C7.8397 12.5972 7.97134 12.5426 8.07018 12.4436L12.501 8.01285L16.004 11.5159V14.8125H0.996094Z" fill="#8EA4F3"/>
<circle cx="17.5" cy="14.5" r="5" fill="white" stroke="#8EA4F3"/>
<path fill-rule="evenodd" clip-rule="evenodd" d="M18 13C18 12.7239 17.7762 12.5 17.5 12.5C17.2239 12.5 17 12.7239 17 13V15L16.4 14.2C16.2343 13.9791 15.9209 13.9343 15.7 14.1C15.4791 14.2657 15.4343 14.5791 15.6 14.8L17.0965 16.7954C17.0987 16.7983 17.1009 16.8012 17.1031 16.804L17.5 17.3333L17.897 16.804C17.8992 16.8012 17.9014 16.7983 17.9035 16.7954L19.4 14.8C19.5657 14.5791 19.5209 14.2657 19.3 14.1C19.0791 13.9343 18.7657 13.9791 18.6 14.2L18 15V13Z" fill="#8EA4F3"/>
</svg>
