<svg width="38" height="31" viewBox="0 0 38 31" fill="none" xmlns="http://www.w3.org/2000/svg">
<rect x="6" y="6" width="12" height="6" fill="#958FEA"/>
<rect x="6" y="15" width="4" height="4" fill="#5EBBF2"/>
<rect x="14" y="15" width="4" height="4" fill="#5EBBF2"/>
<path fill-rule="evenodd" clip-rule="evenodd" d="M1.5 23.5V1.5H32.5V23.5H1.5ZM0 1C0 0.447716 0.447715 0 1 0H33C33.5523 0 34 0.447715 34 1V24C34 24.5523 33.5523 25 33 25H1C0.447716 25 0 24.5523 0 24V1ZM6.5 11.5V6.5H17.5V11.5H6.5ZM5 6C5 5.44772 5.44772 5 6 5H18C18.5523 5 19 5.44772 19 6V12C19 12.5523 18.5523 13 18 13H6C5.44772 13 5 12.5523 5 12V6ZM21 6.5C21 6.22386 21.2239 6 21.5 6H28.5C28.7761 6 29 6.22386 29 6.5C29 6.77614 28.7761 7 28.5 7H21.5C21.2239 7 21 6.77614 21 6.5ZM21.5 9C21.2239 9 21 9.22386 21 9.5C21 9.77614 21.2239 10 21.5 10H28.5C28.7761 10 29 9.77614 29 9.5C29 9.22386 28.7761 9 28.5 9H21.5ZM21 12.5C21 12.2239 21.2239 12 21.5 12H28.5C28.7761 12 29 12.2239 29 12.5C29 12.7761 28.7761 13 28.5 13H21.5C21.2239 13 21 12.7761 21 12.5ZM21.5 15C21.2239 15 21 15.2239 21 15.5C21 15.7761 21.2239 16 21.5 16H25.5C25.7761 16 26 15.7761 26 15.5C26 15.2239 25.7761 15 25.5 15H21.5ZM6.5 15.5V18.5H9.5V15.5H6.5ZM6 14C5.44772 14 5 14.4477 5 15V19C5 19.5523 5.44772 20 6 20H10C10.5523 20 11 19.5523 11 19V15C11 14.4477 10.5523 14 10 14H6ZM14.5 18.5V15.5H17.5V18.5H14.5ZM13 15C13 14.4477 13.4477 14 14 14H18C18.5523 14 19 14.4477 19 15V19C19 19.5523 18.5523 20 18 20H14C13.4477 20 13 19.5523 13 19V15Z" fill="#54556F"/>
<path d="M37 23.5C37 27.0899 34.0899 30 30.5 30C26.9101 30 24 27.0899 24 23.5C24 19.9101 26.9101 17 30.5 17C34.0899 17 37 19.9101 37 23.5Z" fill="#5EBBF2" stroke="#3387B8" stroke-width="1.7"/>
<path fill-rule="evenodd" clip-rule="evenodd" d="M29.8 26.3C29.8 26.6866 30.1134 27 30.5 27C30.8866 27 31.2 26.6866 31.2 26.3V24.2H33.3C33.6866 24.2 34 23.8866 34 23.5C34 23.1134 33.6866 22.8 33.3 22.8H31.2V20.7C31.2 20.3134 30.8866 20 30.5 20C30.1134 20 29.8 20.3134 29.8 20.7V22.8H27.7C27.3134 22.8 27 23.1134 27 23.5C27 23.8866 27.3134 24.2 27.7 24.2H29.8V26.3Z" fill="white"/>
</svg>
