<svg width="29" height="24" viewBox="0 0 29 24" fill="none" xmlns="http://www.w3.org/2000/svg">
<path d="M7 4.50024H27.5L24 15.5002H9.5L7 4.50024Z" fill="#D2D2D2"/>
<path d="M9.53013 16.2289H9.53144C9.53254 16.2289 9.53364 16.2287 9.53473 16.2287H24.7922C25.1679 16.2287 25.4981 15.9986 25.6013 15.665L28.9675 4.78485C29.04 4.55028 28.9892 4.29811 28.8303 4.10342C28.6712 3.90872 28.4225 3.79417 28.1584 3.79417H7.58933L6.98776 1.29412C6.90207 0.938528 6.56064 0.685547 6.16616 0.685547H1.11693C0.652111 0.685547 0.275391 1.03345 0.275391 1.4627C0.275391 1.89196 0.652111 2.23986 1.11693 2.23986H5.49118C5.59769 2.68288 8.36994 14.2038 8.52949 14.8666C7.63513 15.2257 7.0077 16.0492 7.0077 17.0058C7.0077 18.2914 8.14028 19.3373 9.53232 19.3373H24.7922C25.257 19.3373 25.6338 18.9894 25.6338 18.5602C25.6338 18.1309 25.257 17.783 24.7922 17.783H9.53232C9.06838 17.783 8.69078 17.4343 8.69078 17.0058C8.69078 16.578 9.06706 16.2299 9.53013 16.2289ZM27.0427 5.34849L24.1574 14.6744H10.2073L7.9632 5.34849H27.0427Z" fill="#595959"/>
<path d="M8.6908 21.6689C8.6908 22.9544 9.82336 24.0003 11.2154 24.0003C12.6074 24.0003 13.74 22.9544 13.74 21.6689C13.74 20.3833 12.6074 19.3374 11.2154 19.3374C9.82336 19.3374 8.6908 20.3833 8.6908 21.6689Z" fill="#595959"/>
<path d="M20.5845 21.6689C20.5845 22.9544 21.717 24.0003 23.1091 24.0003C24.5011 24.0003 25.6337 22.9544 25.6337 21.6689C25.6337 20.3833 24.5011 19.3374 23.1091 19.3374C21.717 19.3374 20.5845 20.3833 20.5845 21.6689Z" fill="#595959"/>
</svg>
