<svg width="21" height="27" viewBox="0 0 21 27" fill="none" xmlns="http://www.w3.org/2000/svg">
<path d="M8.5 3.5C8.5 2.3 9.83333 1.66667 10.5 1.5L12.5 2.5C11.8333 3.33333 11.1 5 13.5 5C15.9 5 16.8333 10.3333 17 13L17.5 18C18.3333 18 20 18.4 20 20C20 21.6 18.6667 22.6667 18 23H7.5L1.5 22C1.16667 21.6667 0.5 20.7 0.5 19.5C0.5 18.3 2.5 18 3.5 18V11C3.5 8.6 5.83333 6.33333 7 5.5C7.5 5.33333 8.5 4.7 8.5 3.5Z" fill="#F2D57E"/>
<path d="M18.3545 17.7439V11.2182C18.3545 8.1153 16.2122 5.46965 13.2314 4.49333V3.30878C13.2314 1.93466 12.0298 0.816895 10.5531 0.816895H10.4469C8.97001 0.816895 7.7686 1.93466 7.7686 3.30878V4.49352C4.78784 5.46984 2.64525 8.1153 2.64525 11.2184V17.7439C1.15693 17.9123 0 19.0944 0 20.5239V20.6402C0 22.185 1.35075 23.4415 3.01096 23.4415H6.9931C7.35924 24.9288 8.79191 26.0421 10.4999 26.0421C12.2079 26.0421 13.6408 24.9288 14.0069 23.4415H17.989C19.6492 23.4415 21 22.1848 21 20.6402V20.5239C21 19.0944 19.8431 17.9123 18.3545 17.7439ZM9.37503 4.0911V3.30878C9.37503 2.75875 9.85575 2.31149 10.4469 2.31149H10.5531C11.144 2.31149 11.625 2.75875 11.625 3.30878V4.0911H9.37503ZM4.25167 11.2182C4.25167 8.11241 6.96746 5.5857 10.3059 5.5857H10.6941C14.0323 5.5857 16.7483 8.11241 16.7483 11.2182V17.7226H4.25167V11.2182ZM19.3936 20.6402C19.3936 21.3607 18.7635 21.9469 17.989 21.9469H3.01096C2.2365 21.9469 1.60643 21.3607 1.60643 20.6402V20.5239C1.60643 19.8032 2.2365 19.217 3.01096 19.217H17.989C18.7635 19.217 19.3936 19.8032 19.3936 20.5239V20.6402Z" fill="#746958"/>
</svg>
