<svg width="7" height="8" viewBox="0 0 7 8" fill="none" xmlns="http://www.w3.org/2000/svg">
<path d="M3.49964 3.96527C4.40251 3.96527 5.13449 3.18736 5.13449 2.22776C5.13449 1.26814 4.89417 0.490234 3.49964 0.490234C2.10511 0.490234 1.86475 1.26814 1.86475 2.22776C1.86475 3.18736 2.59673 3.96527 3.49964 3.96527Z" fill="white"/>
<path d="M0.411943 6.6182C0.411664 6.55969 0.411385 6.60172 0.411943 6.6182V6.6182Z" fill="white"/>
<path d="M6.58765 6.66399C6.58852 6.64797 6.58794 6.55286 6.58765 6.66399V6.66399Z" fill="white"/>
<path d="M6.58384 6.54813C6.55356 4.87648 6.30405 4.40015 4.39473 4.09863C4.39473 4.09863 4.12597 4.3983 3.49953 4.3983C2.87309 4.3983 2.60428 4.09863 2.60428 4.09863C0.715792 4.39686 0.45111 4.86612 0.416308 6.49382C0.413454 6.62673 0.412132 6.63372 0.411621 6.61829C0.411737 6.6472 0.411876 6.70067 0.411876 6.79391C0.411876 6.79391 0.866439 7.59573 3.49953 7.59573C6.13257 7.59573 6.58718 6.79391 6.58718 6.79391C6.58718 6.734 6.58723 6.69235 6.5873 6.66401C6.58679 6.67355 6.58577 6.65505 6.58384 6.54813Z" fill="white"/>
</svg>
