<svg width="20" height="20" viewBox="0 0 20 20" fill="none" xmlns="http://www.w3.org/2000/svg">
<path fill-rule="evenodd" clip-rule="evenodd" d="M1.8 3.9C1.8 2.7402 2.7402 1.8 3.9 1.8H10.9C11.3971 1.8 11.8 1.39706 11.8 0.9C11.8 0.402944 11.3971 0 10.9 0H3.9C1.74609 0 0 1.74609 0 3.9V15.9C0 18.0539 1.74609 19.8 3.9 19.8H10.9C11.3971 19.8 11.8 19.3971 11.8 18.9C11.8 18.4029 11.3971 18 10.9 18H3.9C2.7402 18 1.8 17.0598 1.8 15.9V3.9ZM15.0364 6.2636C14.6849 5.91213 14.1151 5.91213 13.7636 6.2636C13.4121 6.61508 13.4121 7.18492 13.7636 7.5364L15.7272 9.5H6.9C6.40294 9.5 6 9.90294 6 10.4C6 10.8971 6.40294 11.3 6.9 11.3H15.7272L13.7636 13.2636C13.4121 13.6151 13.4121 14.1849 13.7636 14.5364C14.1151 14.8879 14.6849 14.8879 15.0364 14.5364L18.5364 11.0364L19.1728 10.4L18.5364 9.7636L15.0364 6.2636Z" fill="#2A2A29"/>
</svg>
