<svg width="167" height="40" viewBox="0 0 167 40" fill="none" xmlns="http://www.w3.org/2000/svg">
<path d="M9.35156 5.21875C8.23177 5.21875 7.28125 5.60938 6.5 6.39062C5.71875 7.17188 5.32812 8.1224 5.32812 9.24219C5.32812 10.5703 5.93359 11.5794 7.14453 12.2695C7.67839 12.569 9.2474 13.0964 11.8516 13.8516C14.0781 14.5156 15.7057 15.3164 16.7344 16.2539C18.2708 17.6471 19.0391 19.6068 19.0391 22.1328C19.0391 24.5807 18.1667 26.6706 16.4219 28.4023C14.6901 30.1341 12.6068 31 10.1719 31H2.73047C2.09245 31 1.53906 30.7656 1.07031 30.2969C0.601562 29.8281 0.367188 29.2747 0.367188 28.6367V28.5195C0.367188 27.8815 0.601562 27.3281 1.07031 26.8594C1.53906 26.3906 2.09245 26.1562 2.73047 26.1562H10.3672C11.474 26.1562 12.4245 25.7656 13.2188 24.9844C14 24.2031 14.3906 23.2526 14.3906 22.1328C14.3906 20.8307 13.7852 19.8151 12.5742 19.0859C12.0013 18.7474 10.4258 18.1745 7.84766 17.3672C5.62109 16.638 4 15.8112 2.98438 14.8867C1.44792 13.5065 0.679688 11.625 0.679688 9.24219C0.679688 6.79427 1.54557 4.70443 3.27734 2.97266C5.00911 1.24089 7.09896 0.375 9.54688 0.375H14.8008C15.4518 0.375 16.0117 0.609375 16.4805 1.07812C16.9362 1.53385 17.1641 2.08724 17.1641 2.73828V2.85547C17.1641 3.49349 16.9362 4.04688 16.4805 4.51562C16.0117 4.98438 15.4518 5.21875 14.8008 5.21875H9.35156ZM24.7812 0.492188C25.4193 0.492188 25.9727 0.720052 26.4414 1.17578C26.9102 1.64453 27.1445 2.20443 27.1445 2.85547V8.5H30.0742C30.7122 8.5 31.2656 8.73438 31.7344 9.20312C32.2031 9.67188 32.4375 10.2318 32.4375 10.8828V10.9219C32.4375 11.5859 32.2031 12.1393 31.7344 12.582C31.2656 13.0508 30.7122 13.2852 30.0742 13.2852H27.1445V24.8672C27.1445 25.2448 27.2747 25.5638 27.5352 25.8242C27.7956 26.0846 28.1211 26.2148 28.5117 26.2148H30.0742C30.7122 26.2148 31.2656 26.4492 31.7344 26.918C32.2031 27.3867 32.4375 27.9466 32.4375 28.5977V28.6367C32.4375 29.3008 32.2031 29.8542 31.7344 30.2969C31.2656 30.7656 30.7122 31 30.0742 31H28.5117C26.819 31 25.3672 30.401 24.1562 29.2031C22.9583 27.9922 22.3594 26.5469 22.3594 24.8672V2.85547C22.3594 2.20443 22.5938 1.64453 23.0625 1.17578C23.5312 0.720052 24.0846 0.492188 24.7227 0.492188H24.7812ZM46.4219 8.5C49.5208 8.5 52.1706 9.60026 54.3711 11.8008C56.5716 14.0013 57.6719 16.651 57.6719 19.75V28.6367C57.6719 29.3008 57.4375 29.8542 56.9688 30.2969C56.5 30.7656 55.9466 31 55.3086 31H55.25C54.612 31 54.0586 30.7656 53.5898 30.2969C53.1211 29.8542 52.8867 29.3008 52.8867 28.6367C51.4023 30.2122 49.2474 31 46.4219 31C43.3229 31 40.6732 29.8997 38.4727 27.6992C36.2721 25.4987 35.1719 22.849 35.1719 19.75C35.1719 16.651 36.2721 14.0013 38.4727 11.8008C40.6732 9.60026 43.3229 8.5 46.4219 8.5ZM46.4219 13.2852C44.625 13.2852 43.0951 13.9167 41.832 15.1797C40.582 16.4427 39.957 17.9661 39.957 19.75C39.957 21.5469 40.582 23.0768 41.832 24.3398C43.0951 25.5898 44.625 26.2148 46.4219 26.2148C48.2188 26.2148 49.7422 25.5898 50.9922 24.3398C52.2552 23.0768 52.8867 21.5469 52.8867 19.75C52.8867 17.9661 52.2552 16.4427 50.9922 15.1797C49.7292 13.9167 48.2057 13.2852 46.4219 13.2852ZM67.6328 13.2852C67.0599 13.2852 66.5781 13.4805 66.1875 13.8711C65.7969 14.2747 65.6016 14.7565 65.6016 15.3164C65.6016 16.0977 65.9792 16.6836 66.7344 17.0742C66.9948 17.2174 68.082 17.543 69.9961 18.0508C71.5456 18.4935 72.6979 19.0729 73.4531 19.7891C74.5339 20.8177 75.0742 22.2826 75.0742 24.1836C75.0742 26.0586 74.4102 27.6667 73.082 29.0078C71.7409 30.3359 70.1328 31 68.2578 31H63.1602C62.5221 31 61.9688 30.7656 61.5 30.2969C61.0312 29.8542 60.7969 29.3008 60.7969 28.6367V28.5977C60.7969 27.9466 61.0312 27.3867 61.5 26.918C61.9688 26.4492 62.5221 26.2148 63.1602 26.2148H68.4531C69.026 26.2148 69.5078 26.0195 69.8984 25.6289C70.2891 25.2383 70.4844 24.7565 70.4844 24.1836C70.4844 23.4674 70.1133 22.9271 69.3711 22.5625C69.1758 22.4714 68.082 22.1458 66.0898 21.5859C64.5404 21.1302 63.388 20.5312 62.6328 19.7891C61.5521 18.7344 61.0117 17.2435 61.0117 15.3164C61.0117 13.4414 61.6758 11.8398 63.0039 10.5117C64.3451 9.17057 65.9531 8.5 67.8281 8.5H71.4219C72.0729 8.5 72.6328 8.73438 73.1016 9.20312C73.5703 9.67188 73.8047 10.2318 73.8047 10.8828V10.9219C73.8047 11.5859 73.5703 12.1393 73.1016 12.582C72.6328 13.0508 72.0729 13.2852 71.4219 13.2852H67.6328ZM80.6406 0.492188C81.2786 0.492188 81.832 0.720052 82.3008 1.17578C82.7695 1.64453 83.0039 2.20443 83.0039 2.85547V9.65234C84.0326 8.88411 85.5885 8.5 87.6719 8.5C90.263 8.5 92.4831 9.42448 94.332 11.2734C96.181 13.1224 97.1055 15.349 97.1055 17.9531V28.6367C97.1055 29.3008 96.8711 29.8542 96.4023 30.2969C95.9596 30.7656 95.4062 31 94.7422 31H94.7031C94.0521 31 93.4922 30.7656 93.0234 30.2969C92.5547 29.8542 92.3203 29.3008 92.3203 28.6367V17.9531C92.3203 16.6641 91.8711 15.5638 90.9727 14.6523C90.0612 13.7409 88.9609 13.2852 87.6719 13.2852C86.3698 13.2852 85.263 13.7409 84.3516 14.6523C83.4531 15.5638 83.0039 16.6641 83.0039 17.9531V28.6367C83.0039 29.3008 82.7695 29.8542 82.3008 30.2969C81.832 30.7656 81.2786 31 80.6406 31H80.582C79.944 31 79.3906 30.7656 78.9219 30.2969C78.4531 29.8542 78.2188 29.3008 78.2188 28.6367V2.85547C78.2188 2.20443 78.4531 1.64453 78.9219 1.17578C79.3906 0.720052 79.944 0.492188 80.582 0.492188H80.6406ZM112.281 8.5C115.38 8.5 118.03 9.60026 120.23 11.8008C122.431 14.0013 123.531 16.651 123.531 19.75V28.6367C123.531 29.3008 123.297 29.8542 122.828 30.2969C122.359 30.7656 121.806 31 121.168 31H121.109C120.471 31 119.918 30.7656 119.449 30.2969C118.98 29.8542 118.746 29.3008 118.746 28.6367C117.262 30.2122 115.107 31 112.281 31C109.182 31 106.533 29.8997 104.332 27.6992C102.132 25.4987 101.031 22.849 101.031 19.75C101.031 16.651 102.132 14.0013 104.332 11.8008C106.533 9.60026 109.182 8.5 112.281 8.5ZM112.281 13.2852C110.484 13.2852 108.954 13.9167 107.691 15.1797C106.441 16.4427 105.816 17.9661 105.816 19.75C105.816 21.5469 106.441 23.0768 107.691 24.3398C108.954 25.5898 110.484 26.2148 112.281 26.2148C114.078 26.2148 115.602 25.5898 116.852 24.3398C118.115 23.0768 118.746 21.5469 118.746 19.75C118.746 17.9661 118.115 16.4427 116.852 15.1797C115.589 13.9167 114.065 13.2852 112.281 13.2852ZM130.641 0.492188C131.279 0.492188 131.832 0.720052 132.301 1.17578C132.77 1.64453 133.004 2.20443 133.004 2.85547V28.6367C133.004 29.3008 132.77 29.8542 132.301 30.2969C131.832 30.7656 131.279 31 130.641 31H130.582C129.944 31 129.391 30.7656 128.922 30.2969C128.453 29.8542 128.219 29.3008 128.219 28.6367V2.85547C128.219 2.20443 128.453 1.64453 128.922 1.17578C129.391 0.720052 129.944 0.492188 130.582 0.492188H130.641ZM140.914 0.492188C141.552 0.492188 142.105 0.720052 142.574 1.17578C143.043 1.64453 143.277 2.20443 143.277 2.85547V28.6367C143.277 29.3008 143.043 29.8542 142.574 30.2969C142.105 30.7656 141.552 31 140.914 31H140.855C140.217 31 139.664 30.7656 139.195 30.2969C138.727 29.8542 138.492 29.3008 138.492 28.6367V2.85547C138.492 2.20443 138.727 1.64453 139.195 1.17578C139.664 0.720052 140.217 0.492188 140.855 0.492188H140.914ZM152.77 21.1367C152.77 22.4258 153.219 23.526 154.117 24.4375C155.029 25.349 156.135 25.8047 157.438 25.8047C158.714 25.8047 159.807 25.349 160.719 24.4375C161.63 23.526 162.086 22.4258 162.086 21.1367V10.8828C162.086 10.2318 162.32 9.67188 162.789 9.20312C163.258 8.73438 163.818 8.5 164.469 8.5H164.508C165.172 8.5 165.725 8.73438 166.168 9.20312C166.637 9.67188 166.871 10.2318 166.871 10.8828V29.5742C166.871 32.1523 165.901 34.3789 163.961 36.2539C162.073 38.1029 159.898 39.0273 157.438 39.0273C155.484 39.0273 153.707 38.5456 152.105 37.582C150.543 36.6445 149.358 35.388 148.551 33.8125C148.368 33.4609 148.277 33.1094 148.277 32.7578C148.277 32.4583 148.342 32.1589 148.473 31.8594C148.733 31.1823 149.189 30.7331 149.84 30.5117L149.918 30.4727C150.204 30.3815 150.484 30.3359 150.758 30.3359C151.044 30.3359 151.324 30.388 151.598 30.4922C152.132 30.7135 152.535 31.0846 152.809 31.6055C153.225 32.3867 153.85 33.0182 154.684 33.5C155.53 33.9948 156.448 34.2422 157.438 34.2422C158.674 34.2422 159.755 33.7865 160.68 32.875C161.617 31.9375 162.086 30.8372 162.086 29.5742V29.418C161.057 30.1862 159.508 30.5703 157.438 30.5703C154.833 30.5703 152.607 29.6458 150.758 27.7969C148.909 25.9609 147.984 23.7409 147.984 21.1367V10.8828C147.984 10.2318 148.219 9.67188 148.688 9.20312C149.156 8.73438 149.71 8.5 150.348 8.5H150.406C151.044 8.5 151.598 8.73438 152.066 9.20312C152.535 9.67188 152.77 10.2318 152.77 10.8828V21.1367Z" fill="url(#paint0_linear)"/>
<defs>
<linearGradient id="paint0_linear" x1="84" y1="-10" x2="84" y2="41" gradientUnits="userSpaceOnUse">
<stop stop-color="#A3B6FF"/>
<stop offset="1" stop-color="#FFA3CF"/>
</linearGradient>
</defs>
</svg>
