<svg width="102" height="31" viewBox="0 0 102 31" fill="none" xmlns="http://www.w3.org/2000/svg">
<path d="M20.3633 28.6367C20.3633 29.3008 20.1289 29.8542 19.6602 30.2969C19.1914 30.7656 18.638 31 18 31H17.9414C17.3034 31 16.75 30.7656 16.2812 30.2969C15.8125 29.8542 15.5781 29.3008 15.5781 28.6367V19.9258H4.93359V28.6367C4.93359 29.3008 4.69922 29.8542 4.23047 30.2969C3.76172 30.7656 3.20833 31 2.57031 31H2.51172C1.8737 31 1.32031 30.7656 0.851562 30.2969C0.382812 29.8542 0.148438 29.3008 0.148438 28.6367V10.5898C0.148438 7.80339 1.13802 5.42057 3.11719 3.44141C5.09635 1.47526 7.47266 0.492188 10.2461 0.492188C13.0326 0.492188 15.4154 1.47526 17.3945 3.44141C19.3737 5.42057 20.3633 7.80339 20.3633 10.5898V28.6367ZM15.5781 15.1602V10.5898C15.5781 9.11849 15.0638 7.86198 14.0352 6.82031C12.9935 5.77865 11.7305 5.25781 10.2461 5.25781C8.77474 5.25781 7.51823 5.77865 6.47656 6.82031C5.44792 7.86198 4.93359 9.11849 4.93359 10.5898V15.1602H15.5781ZM39.3477 0.492188C43.5534 0.492188 47.1536 1.98307 50.1484 4.96484C53.1302 7.94661 54.6211 11.5404 54.6211 15.7461C54.6211 19.9518 53.1302 23.5456 50.1484 26.5273C47.1536 29.5091 43.5534 31 39.3477 31C35.1419 31 31.5482 29.5091 28.5664 26.5273C25.5846 23.5456 24.0938 19.9518 24.0938 15.7461C24.0938 11.5404 25.5846 7.94661 28.5664 4.96484C31.5482 1.98307 35.1419 0.492188 39.3477 0.492188ZM39.3477 5.25781C36.457 5.25781 33.9896 6.27995 31.9453 8.32422C29.901 10.3685 28.8789 12.8424 28.8789 15.7461C28.8789 18.6497 29.901 21.1237 31.9453 23.168C33.9896 25.1992 36.457 26.2148 39.3477 26.2148C42.2513 26.2148 44.7253 25.1992 46.7695 23.168C48.8138 21.1237 49.8359 18.6497 49.8359 15.7461C49.8359 12.8424 48.8138 10.3685 46.7695 8.32422C44.7253 6.27995 42.2513 5.25781 39.3477 5.25781ZM68.5078 15.2578C69.888 15.2578 71.0664 14.776 72.043 13.8125C73.0195 12.8359 73.5078 11.6576 73.5078 10.2773C73.5078 8.88411 73.0195 7.69922 72.043 6.72266C71.0664 5.75911 69.888 5.27734 68.5078 5.27734H66.2617C65.2852 5.27734 64.5234 5.54427 63.9766 6.07812C63.5469 6.50781 63.2734 7.01562 63.1562 7.60156C63.1302 7.74479 63.1172 7.97266 63.1172 8.28516V15.2578H68.5078ZM73.5078 25.0234C73.5078 23.6432 73.0195 22.4648 72.043 21.4883C71.1576 20.5898 70.1029 20.1081 68.8789 20.043H63.1172V28.6367C63.1172 29.2878 62.8893 29.8411 62.4336 30.2969C61.9648 30.7656 61.4049 31 60.7539 31H60.7148C60.0508 31 59.4974 30.7656 59.0547 30.2969C58.5859 29.8542 58.3516 29.3008 58.3516 28.6367V8.10938C58.3516 6.01302 59.0938 4.22266 60.5781 2.73828C62.0755 1.24089 63.8724 0.492188 65.9688 0.492188H68.5078C71.2031 0.492188 73.5013 1.44922 75.4023 3.36328C77.3164 5.27734 78.2734 7.58203 78.2734 10.2773C78.2734 12.9596 77.3164 15.2578 75.4023 17.1719L74.9531 17.6406L75.4219 18.1289C77.3229 20.0299 78.2734 22.3281 78.2734 25.0234V28.6367C78.2734 29.3008 78.0391 29.8542 77.5703 30.2969C77.1016 30.7656 76.5482 31 75.9102 31H75.8711C75.2331 31 74.6797 30.7656 74.2109 30.2969C73.7422 29.8542 73.5078 29.3008 73.5078 28.6367V25.0234ZM101.809 28.6367C101.809 29.3008 101.574 29.8542 101.105 30.2969C100.637 30.7656 100.083 31 99.4453 31H99.3867C98.7487 31 98.1953 30.7656 97.7266 30.2969C97.2578 29.8542 97.0234 29.3008 97.0234 28.6367V19.9258H86.3789V28.6367C86.3789 29.3008 86.1445 29.8542 85.6758 30.2969C85.207 30.7656 84.6536 31 84.0156 31H83.957C83.319 31 82.7656 30.7656 82.2969 30.2969C81.8281 29.8542 81.5938 29.3008 81.5938 28.6367V10.5898C81.5938 7.80339 82.5833 5.42057 84.5625 3.44141C86.5417 1.47526 88.918 0.492188 91.6914 0.492188C94.4779 0.492188 96.8607 1.47526 98.8398 3.44141C100.819 5.42057 101.809 7.80339 101.809 10.5898V28.6367ZM97.0234 15.1602V10.5898C97.0234 9.11849 96.5091 7.86198 95.4805 6.82031C94.4388 5.77865 93.1758 5.25781 91.6914 5.25781C90.2201 5.25781 88.9635 5.77865 87.9219 6.82031C86.8932 7.86198 86.3789 9.11849 86.3789 10.5898V15.1602H97.0234Z" fill="url(#paint0_linear)"/>
<defs>
<linearGradient id="paint0_linear" x1="51" y1="-17" x2="51" y2="48" gradientUnits="userSpaceOnUse">
<stop stop-color="#A3B6FF"/>
<stop offset="1" stop-color="#FFA3CF"/>
</linearGradient>
</defs>
</svg>
