<svg width="52" height="46" viewBox="0 0 52 46" fill="none" xmlns="http://www.w3.org/2000/svg">
<g filter="url(#filter0_d)">
<rect x="10.3636" y="4.36365" width="15.697" height="5.60606" fill="#FF7D94"/>
<rect x="33.2443" y="23.0494" width="6.7322" height="5.12118" rx="2" transform="rotate(21.3676 33.2443 23.0494)" fill="#FFCB7D"/>
<path d="M37.769 27.5317C38.1116 26.4561 39.2916 25.8936 40.3429 26.3049L42.9899 27.3405C43.9184 27.7038 44.3766 28.751 44.0133 29.6795C43.6766 30.54 42.7445 31.0074 41.8535 30.7624L40.2864 30.3315L39.1129 30.0089C38.0427 29.7146 37.4322 28.5892 37.769 27.5317Z" fill="#FF7D94"/>
<rect x="31.5454" y="30.0824" width="6.12348" height="5.12118" rx="2" transform="rotate(-0.443582 31.5454 30.0824)" fill="#FFCB7D"/>
<rect x="37.2126" y="30.0859" width="7.1836" height="5.12118" rx="2" transform="rotate(-0.443581 37.2126 30.0859)" fill="#FF7D94"/>
<rect x="15.9697" y="17.8182" width="4.48485" height="11.2121" fill="#FF7D94"/>
<rect x="23.8182" y="21.1818" width="4.48485" height="12.3333" transform="rotate(90 23.8182 21.1818)" fill="#FF7D94"/>
<path fill-rule="evenodd" clip-rule="evenodd" d="M10.5 10.5V13C9.33331 13.3333 7.99998 14.6 7.99998 17V30.5C7.99998 30.6554 7.99455 30.8288 7.98875 31.014C7.94478 32.4185 7.87961 34.5 9.99998 34.5H12.5V34H12C10.8954 34 9.99997 33.1046 9.99997 32V17C9.99997 15.8954 10.8954 15 12 15H12.5V10.5H10.5Z" fill="#DED0D2"/>
<path d="M11.5 11H25C24.8333 11.6667 24.7 13 25.5 13C26.3 13 27.8333 16 28.5 17.5C28.6667 22 29 31.2 29 32C29 32.8 27.3333 34 26.5 34.5C21.6667 34.6667 11.6 34 10 34C8.4 34 7.66667 33.3333 7.5 32.5C7.66667 27.1667 8 16.3 8 15.5C8 14.7 10.3333 13.5 11.5 13V11Z" fill="white"/>
<path d="M25.7232 12.6018V11.0241H25.8055C26.1406 11.0241 26.4052 10.7163 26.4052 10.3815V4.72857C26.4064 4.56903 26.3436 4.4157 26.2312 4.30293C26.1184 4.19015 25.9651 4.1274 25.8055 4.12859H10.3885C10.2313 4.12829 10.0807 4.19193 9.97145 4.3053C9.86252 4.41837 9.80421 4.5714 9.81043 4.72828V10.3812C9.81043 10.716 10.0537 11.0238 10.3885 11.0238H10.4924V12.6042C10.4924 12.608 10.4711 12.6116 10.4634 12.6157C10.4338 12.6305 10.4015 12.6456 10.3722 12.6607C10.3349 12.6799 10.2959 12.6992 10.2586 12.719C10.229 12.735 10.1988 12.7519 10.1692 12.7684C10.1334 12.7886 10.0972 12.8084 10.062 12.8294C10.0321 12.8469 10.0028 12.8649 9.97352 12.8827C9.93889 12.904 9.90455 12.925 9.87051 12.9466C9.84151 12.9656 9.8122 12.9845 9.78349 13.0038C9.75034 13.026 9.71748 13.0482 9.68492 13.0707C9.65621 13.0911 9.6275 13.1112 9.59908 13.1313C9.56712 13.1544 9.53515 13.1778 9.50377 13.2015C9.47565 13.2225 9.44753 13.2438 9.41971 13.2654C9.38893 13.2894 9.35814 13.314 9.32765 13.3385C9.30013 13.3607 9.2729 13.3829 9.24596 13.4054C9.21577 13.4306 9.18617 13.4563 9.15657 13.4821C9.13022 13.5052 9.10358 13.5283 9.07754 13.5517C9.04823 13.578 9.01982 13.6049 8.99081 13.6316C8.96535 13.6555 8.9396 13.6792 8.91444 13.7038C8.88632 13.7313 8.8585 13.7591 8.83068 13.787C8.80611 13.8118 8.78154 13.8361 8.75727 13.8613C8.72974 13.89 8.7028 13.9193 8.67557 13.9486C8.65249 13.9737 8.62881 13.9989 8.60601 14.0244C8.57849 14.0546 8.55214 14.0859 8.5255 14.117C8.5036 14.1422 8.48169 14.167 8.46038 14.1928C8.43256 14.2262 8.40562 14.2603 8.37869 14.294C8.35945 14.3183 8.33962 14.342 8.32097 14.3662C8.28752 14.4092 8.25526 14.453 8.22299 14.4968C8.20464 14.5219 8.18629 14.5468 8.16823 14.572C8.13242 14.6226 8.0966 14.6735 8.06227 14.725C8.04569 14.7496 8.0303 14.7747 8.01402 14.7996C7.98975 14.8372 7.96518 14.8745 7.9415 14.9126C7.92433 14.9405 7.90805 14.9686 7.89118 14.9967C7.86987 15.0325 7.84826 15.068 7.82754 15.1042C7.81067 15.1338 7.79469 15.1637 7.77811 15.1936C7.75857 15.2291 7.73904 15.2643 7.72009 15.2995C7.70411 15.3303 7.68872 15.3614 7.67303 15.3925C7.65497 15.428 7.63692 15.4635 7.61975 15.4993C7.60466 15.531 7.59015 15.5627 7.57535 15.5943C7.55878 15.6304 7.5422 15.6666 7.52622 15.703C7.51201 15.7349 7.49839 15.7672 7.48478 15.7998C7.46968 15.8362 7.45458 15.8729 7.43949 15.9099C7.42646 15.9427 7.41374 15.9756 7.4016 16.0084C7.38739 16.0457 7.37348 16.0827 7.36016 16.1203C7.34832 16.1535 7.33678 16.1866 7.32553 16.2201C7.31251 16.258 7.30007 16.2958 7.28794 16.3337C7.27728 16.3672 7.26692 16.4009 7.25686 16.4347C7.24531 16.4731 7.23407 16.5116 7.22341 16.5504C7.21394 16.5841 7.20476 16.6179 7.19588 16.6519C7.18552 16.691 7.17605 16.7307 7.16628 16.77C7.15829 16.8038 7.15 16.8375 7.1426 16.8716C7.13372 16.9118 7.12544 16.9521 7.11715 16.9929C7.11034 17.0264 7.10353 17.0601 7.09702 17.0939C7.08962 17.1353 7.08252 17.1767 7.07571 17.2185C7.07008 17.2516 7.06446 17.2848 7.05943 17.3182C7.05321 17.3608 7.04788 17.4041 7.04226 17.447C7.03812 17.4795 7.03368 17.5118 7.03012 17.5444C7.02509 17.5896 7.02124 17.6352 7.0171 17.6805C7.01444 17.711 7.01118 17.7412 7.00881 17.772C7.00496 17.8229 7.0026 17.8741 7.00023 17.925C6.99875 17.9505 7.00496 17.9762 7.00408 18.0017C7.00112 18.0783 7.00763 18.1556 7.00763 18.2326V31.4843C7.00674 33.3639 8.52817 34.8892 10.4077 34.8933H25.7884C27.6724 34.8904 29.2006 33.3666 29.2089 31.4826V18.2334C29.2122 16.9882 28.8475 15.7699 28.1605 14.7315C27.5566 13.8133 26.7139 13.0772 25.7232 12.6018ZM11.0228 5.34099H25.1928V9.81173H11.0228V5.34099ZM27.9965 31.4808C27.9894 32.6967 27.0025 33.6795 25.7866 33.6809H10.4095C9.19742 33.6789 8.21678 32.6944 8.21915 31.4826V18.2331C8.21796 17.1658 8.55155 16.1251 9.17314 15.2572C9.24478 15.1574 9.31611 15.0604 9.39485 14.9662C9.43421 14.9192 9.4724 14.8546 9.51324 14.8091C10.0141 14.2564 10.628 13.8183 11.3135 13.5247H11.3188C11.5491 13.4531 11.7057 13.2397 11.7048 12.9984V11.0241H24.5108V12.9987C24.5099 13.2474 24.6612 13.4708 24.8924 13.5626C26.75 14.2961 27.9965 16.1733 27.9965 18.2334V31.4808Z" fill="#846368"/>
<path d="M24.2837 21.1022H20.5707V17.3893C20.5707 17.0545 20.2992 16.7831 19.9645 16.7831H16.2515C15.9167 16.7831 15.6453 17.0545 15.6453 17.3893V21.1022H12.0081C11.6733 21.1022 11.4019 21.3737 11.4019 21.7084V25.1941C11.4019 25.5289 11.6733 25.8003 12.0081 25.8003H15.6453V29.5133C15.6453 29.8481 15.9167 30.1195 16.2515 30.1195H19.9645C20.2992 30.1195 20.5707 29.8481 20.5707 29.5133V25.8003H24.2837C24.6184 25.8003 24.8899 25.5289 24.8899 25.1941V21.7084C24.8899 21.3737 24.6184 21.1022 24.2837 21.1022ZM23.6774 24.5879H19.9645C19.6297 24.5879 19.3583 24.8593 19.3583 25.1941V28.9071H16.8577V25.1941C16.8577 24.8593 16.5862 24.5879 16.2515 24.5879H12.6143V22.3146H16.2515C16.5862 22.3146 16.8577 22.0432 16.8577 21.7084V17.9955H19.3583V21.7084C19.3583 22.0432 19.6297 22.3146 19.9645 22.3146H23.6774V24.5879Z" fill="#FF7D94"/>
<path d="M42.8865 26.0532L35.7681 23.4434C34.1076 22.8339 32.2664 23.6769 31.6422 25.3319C31.0182 26.9868 31.8447 28.8353 33.4939 29.4741C31.7961 29.6659 30.5434 31.1503 30.6405 32.8564C30.7373 34.5622 32.1501 35.8954 33.8586 35.8933H41.4406C42.5793 35.8951 43.6339 35.2951 44.2144 34.3154C44.7948 33.3359 44.8141 32.1223 44.2656 31.1245C44.9295 30.3182 45.1613 29.2402 44.8872 28.2323C44.6131 27.2245 43.8672 26.4123 42.8865 26.0532ZM43.665 29.7715C43.6135 29.9115 43.5463 30.0453 43.4652 30.1705C42.8928 29.7055 42.1779 29.4519 41.4406 29.4524H38.2483L39.479 26.0949L42.4692 27.1913C43.5111 27.5746 44.046 28.729 43.665 29.7715ZM32.8342 27.3153C32.492 26.5774 32.6282 25.7063 33.1793 25.1078C33.7302 24.5096 34.5871 24.3018 35.3507 24.5818L38.3409 25.6782L37.2783 28.5766C37.3925 28.2625 37.2312 27.915 36.9175 27.8002L34.4962 26.9125C34.2925 26.8361 34.0634 26.8749 33.8962 27.014C33.729 27.1531 33.6491 27.3713 33.6866 27.5856C33.7245 27.7999 33.8743 27.9772 34.0791 28.0509L36.5001 28.9383C36.6508 28.9939 36.8174 28.9871 36.9633 28.9196C37.1093 28.8519 37.222 28.7293 37.2774 28.5784L36.9568 29.4524H36.9542L33.9664 28.3573C33.4649 28.1752 33.0574 27.8002 32.8342 27.3153ZM31.8479 32.6729C31.8494 31.5632 32.7492 30.6646 33.8586 30.6648H37.0287V33.7521C37.0311 33.5949 36.9693 33.4437 36.858 33.333C36.7464 33.2223 36.5945 33.1619 36.4376 33.1654H33.8586C33.5238 33.1654 33.2524 33.4369 33.2524 33.7716C33.2524 34.1064 33.5238 34.3778 33.8586 34.3778H36.4376C36.7721 34.3684 37.0361 34.0904 37.0287 33.7556V34.6809H33.8586C32.7492 34.6809 31.8494 33.7823 31.8479 32.6729ZM41.4406 34.6809H38.2412V30.6648H41.4406C42.5494 30.6648 43.4486 31.5638 43.4486 32.6729C43.4486 33.7817 42.5494 34.6809 41.4406 34.6809Z" fill="#846368"/>
</g>
<defs>
<filter id="filter0_d" x="0" y="-3" width="52.0001" height="51" filterUnits="userSpaceOnUse" color-interpolation-filters="sRGB">
<feFlood flood-opacity="0" result="BackgroundImageFix"/>
<feColorMatrix in="SourceAlpha" type="matrix" values="0 0 0 0 0 0 0 0 0 0 0 0 0 0 0 0 0 0 127 0"/>
<feOffset dy="3"/>
<feGaussianBlur stdDeviation="3.5"/>
<feColorMatrix type="matrix" values="0 0 0 0 1 0 0 0 0 0.490196 0 0 0 0 0.580392 0 0 0 0.358 0"/>
<feBlend mode="normal" in2="BackgroundImageFix" result="effect1_dropShadow"/>
<feBlend mode="normal" in="SourceGraphic" in2="effect1_dropShadow" result="shape"/>
</filter>
</defs>
</svg>
