<svg width="39" height="36" viewBox="0 0 39 36" fill="none" xmlns="http://www.w3.org/2000/svg">
<path d="M5 3.00049H12V13.5005H5.5L5 3.00049Z" fill="#8CE187"/>
<path d="M23 3.00049H30V13.5005H23.5L23 3.00049Z" fill="#8CE187"/>
<path d="M9 18.0005H16V28.5005H9V18.0005Z" fill="#FF7DBB"/>
<path d="M27 18.0005H34L33.5 28.5005H27.5L27 18.0005Z" fill="#FF7DBB"/>
<path fill-rule="evenodd" clip-rule="evenodd" d="M6 3.00049C5.44772 3.00049 5 3.4482 5 4.00049V12.0005C5 12.5528 5.44772 13.0005 6 13.0005H8C7.44772 13.0005 7 12.5528 7 12.0005V4.00049C7 3.4482 7.44772 3.00049 8 3.00049H6Z" fill="#6EBB69"/>
<path fill-rule="evenodd" clip-rule="evenodd" d="M24 3.00049C23.4477 3.00049 23 3.4482 23 4.00049V12.0005C23 12.5528 23.4477 13.0005 24 13.0005H26C25.4477 13.0005 25 12.5528 25 12.0005V4.00049C25 3.4482 25.4477 3.00049 26 3.00049H24Z" fill="#6EBB69"/>
<path fill-rule="evenodd" clip-rule="evenodd" d="M10 18.0005C9.44772 18.0005 9 18.4482 9 19.0005V27.0005C9 27.5528 9.44772 28.0005 10 28.0005H12C11.4477 28.0005 11 27.5528 11 27.0005V19.0005C11 18.4482 11.4477 18.0005 12 18.0005H10Z" fill="#D36198"/>
<path fill-rule="evenodd" clip-rule="evenodd" d="M28 18.0005C27.4477 18.0005 27 18.4482 27 19.0005V27.0005C27 27.5528 27.4477 28.0005 28 28.0005H30C29.4477 28.0005 29 27.5528 29 27.0005V19.0005C29 18.4482 29.4477 18.0005 30 18.0005H28Z" fill="#D36198"/>
<g filter="url(#filter0_d)">
<path d="M34.9689 18.8103V27.6745C34.9689 27.8567 34.8965 28.0315 34.7676 28.1603L33.6447 29.2831C33.5159 29.4119 33.3412 29.4843 33.159 29.4843H27.9982C27.8159 29.4843 27.6412 29.4119 27.5123 29.2831L26.3896 28.1603C26.2608 28.0315 26.1884 27.8567 26.1884 27.6745V25.7811H16.7805V27.6745C16.7805 27.8567 16.7081 28.0315 16.5793 28.1603L15.4565 29.2831C15.3277 29.4119 15.1529 29.4843 14.9707 29.4843H9.80965C9.6274 29.4843 9.4526 29.4119 9.32379 29.283L8.2012 28.1602C8.07232 28.0314 8 27.8567 8 27.6744V18.8103C8 18.628 8.07232 18.4533 8.2012 18.3245L9.32379 17.2018C9.4526 17.0729 9.6274 17.0005 9.80965 17.0005H14.9707C15.153 17.0005 15.3277 17.0729 15.4565 17.2017L16.5793 18.3244C16.7081 18.4533 16.7805 18.628 16.7805 18.8103V20.7037H26.1883V18.8103C26.1883 18.628 26.2607 18.4533 26.3895 18.3244L27.5122 17.2017C27.6411 17.0729 27.8158 17.0005 27.9981 17.0005H33.1589C33.3411 17.0005 33.5159 17.0729 33.6447 17.2017L34.7675 18.3244C34.8965 18.4533 34.9689 18.6281 34.9689 18.8103ZM15.4064 19.0949L14.6861 18.3746H10.0942L9.37405 19.0949V27.3899L10.0942 28.1102H14.6861L15.4064 27.3899V19.0949ZM33.5948 19.0949L32.8744 18.3746H28.2827L27.5624 19.0949V27.3899L28.2827 28.1102H32.8744L33.5948 27.3898V19.0949Z" fill="#836774"/>
</g>
<g filter="url(#filter1_d)">
<path d="M10.9707 14.4843H5.8098C5.62754 14.4843 5.45281 14.4119 5.32393 14.2831L4.20127 13.1603C4.07239 13.0314 4 12.8567 4 12.6744V3.81028C4 3.62803 4.07239 3.4533 4.20127 3.32442L5.32401 2.20169C5.45289 2.07288 5.62762 2.00049 5.80987 2.00049H10.9708C11.1531 2.00049 11.3278 2.07288 11.4566 2.20169L12.5793 3.32442C12.7082 3.4533 12.7806 3.62803 12.7806 3.81028V5.70369H22.1884V3.81028C22.1884 3.62803 22.2608 3.4533 22.3896 3.32442L23.5123 2.20169C23.6412 2.07288 23.8159 2.00049 23.9982 2.00049H29.159C29.3413 2.00049 29.516 2.07288 29.6449 2.20169L30.7676 3.32442C30.8965 3.45323 30.9689 3.62803 30.9689 3.81028V12.6744C30.9689 12.8567 30.8965 13.0315 30.7676 13.1603L29.6449 14.283C29.516 14.4118 29.3413 14.4842 29.159 14.4842H23.9982C23.8159 14.4842 23.6412 14.4118 23.5123 14.283L22.3896 13.1603C22.2608 13.0314 22.1884 12.8567 22.1884 12.6744V10.781H12.7806V12.6744C12.7806 12.8567 12.7082 13.0314 12.5793 13.1603L11.4566 14.283C11.3277 14.4119 11.153 14.4843 10.9707 14.4843ZM23.5625 12.3899L24.2828 13.1102H28.8745L29.5948 12.3898V4.09487L28.8745 3.37454H24.2828L23.5625 4.0948V12.3899ZM10.6861 13.1102L11.4064 12.3899V4.0948L10.6861 3.37454H6.09439L5.37413 4.09487V12.3898L6.09439 13.1101L10.6861 13.1102Z" fill="#6E816D"/>
</g>
<defs>
<filter id="filter0_d" x="4" y="15.0005" width="34.9689" height="20.4838" filterUnits="userSpaceOnUse" color-interpolation-filters="sRGB">
<feFlood flood-opacity="0" result="BackgroundImageFix"/>
<feColorMatrix in="SourceAlpha" type="matrix" values="0 0 0 0 0 0 0 0 0 0 0 0 0 0 0 0 0 0 127 0"/>
<feOffset dy="2"/>
<feGaussianBlur stdDeviation="2"/>
<feColorMatrix type="matrix" values="0 0 0 0 0.972549 0 0 0 0 0.478431 0 0 0 0 0.713726 0 0 0 0.476 0"/>
<feBlend mode="normal" in2="BackgroundImageFix" result="effect1_dropShadow"/>
<feBlend mode="normal" in="SourceGraphic" in2="effect1_dropShadow" result="shape"/>
</filter>
<filter id="filter1_d" x="0" y="0.000488281" width="34.9689" height="20.4838" filterUnits="userSpaceOnUse" color-interpolation-filters="sRGB">
<feFlood flood-opacity="0" result="BackgroundImageFix"/>
<feColorMatrix in="SourceAlpha" type="matrix" values="0 0 0 0 0 0 0 0 0 0 0 0 0 0 0 0 0 0 127 0"/>
<feOffset dy="2"/>
<feGaussianBlur stdDeviation="2"/>
<feColorMatrix type="matrix" values="0 0 0 0 0.44545 0 0 0 0 0.7375 0 0 0 0 0.433281 0 0 0 0.54 0"/>
<feBlend mode="normal" in2="BackgroundImageFix" result="effect1_dropShadow"/>
<feBlend mode="normal" in="SourceGraphic" in2="effect1_dropShadow" result="shape"/>
</filter>
</defs>
</svg>
