<svg width="48" height="46" viewBox="0 0 48 46" fill="none" xmlns="http://www.w3.org/2000/svg">
<g filter="url(#filter0_d)">
<path d="M39.5312 22.2419C39.5312 28.528 34.4353 33.6242 28.1489 33.6242C21.8628 33.6242 16.7668 28.528 16.7668 22.2419C16.7668 15.9555 21.8628 10.8596 28.1489 10.8596C34.4353 10.8596 39.5312 15.9555 39.5312 22.2419Z" fill="#A4A4A4"/>
<path d="M30.873 18.3928C33.7244 17.812 36.0298 16.6232 37.4761 15.716C35.4175 12.7795 32.0076 10.8596 28.1492 10.8596C21.8628 10.8596 16.7668 15.9555 16.7668 22.2419C16.7668 27.4118 17.2791 30.6133 22 32.0005C22.9502 29.3289 26.0359 27.4091 25.905 24.7678C25.7532 21.705 27.8679 19.0046 30.873 18.3928Z" fill="#77777F"/>
<path d="M28.1489 30.4812C23.606 30.4812 19.9099 26.7852 19.9099 22.242C19.9099 17.6988 23.606 14.0027 28.1489 14.0027C32.6921 14.0027 36.3882 17.6988 36.3882 22.242C36.3882 26.7852 32.6921 30.4812 28.1489 30.4812Z" fill="#FFDAAA"/>
<path d="M30.8728 18.3929C32.28 18.1062 33.5544 17.6714 34.658 17.1956C33.1492 15.2542 30.7925 14.0027 28.1489 14.0027C23.6057 14.0027 19.9097 17.6988 19.9097 22.242C19.9097 25.9263 22.3403 29.0535 25.6824 30.104C25.9573 28.2928 25.9878 26.4417 25.9048 24.7679C25.7532 21.7051 27.8679 19.0047 30.8728 18.3929Z" fill="#FFC477"/>
<path d="M28.1489 14.0027V30.4812C32.6921 30.4812 36.3882 26.7852 36.3882 22.242C36.3882 17.6988 32.6921 14.0027 28.1489 14.0027Z" fill="#71CE6A"/>
<path d="M30.8728 18.3929C32.28 18.1062 33.5544 17.6714 34.658 17.1956C33.1492 15.2542 30.7925 14.0027 28.1489 14.0027V19.6912C28.915 19.0589 29.8416 18.6028 30.8728 18.3929Z" fill="#53AF4C"/>
<path d="M19.9097 22.2419C19.9111 26.7854 23.6113 30.4829 28.1489 30.4812C32.6921 30.4795 36.3882 26.7851 36.3882 22.2419H19.9097Z" fill="#8CE187"/>
<path d="M28.1489 30.4812C32.6921 30.4812 36.3882 26.7851 36.3882 22.2419H28.1489V30.4812Z" fill="#FFEB99"/>
<path d="M39.5312 10.967C39.5312 8.82812 34.4353 7.09424 28.1489 7.09424C21.8628 7.09424 16.7668 8.82812 16.7668 10.967C16.7668 13.106 21.8628 14.8398 28.1489 14.8398C34.4353 14.8398 39.5312 13.106 39.5312 10.967Z" fill="#C6C5CA"/>
<path d="M38.5969 9.42795C36.8474 10.801 32.8279 11.7622 28.1489 11.7622C23.47 11.7622 19.4507 10.801 17.7012 9.42795C17.1003 9.89963 16.7668 10.4201 16.7668 10.967C16.7668 13.1059 21.8628 14.8401 28.1489 14.8401C34.4353 14.8401 39.5312 13.1059 39.5312 10.967C39.5312 10.4201 39.1978 9.89963 38.5969 9.42795Z" fill="#ACABB1"/>
<g filter="url(#filter1_d)">
<path d="M23.9565 27.212C23.9565 31.4888 20.4895 34.9559 16.2126 34.9559C11.9358 34.9559 8.46875 31.4888 8.46875 27.212C8.46875 22.9351 11.9358 19.4681 16.2126 19.4681C20.4895 19.4681 23.9565 22.9351 23.9565 27.212Z" fill="#FFE8A5"/>
</g>
<path d="M20.7134 27.2118C20.7134 29.6974 18.6982 31.7126 16.2126 31.7126C13.7271 31.7126 11.7119 29.6974 11.7119 27.2118C11.7119 24.7262 13.7271 22.7111 16.2126 22.7111C18.6982 22.7111 20.7134 24.7262 20.7134 27.2118Z" fill="#FAA719"/>
<path d="M40 10.967C40 9.47607 38.2412 8.21021 35.0476 7.40234C34.7969 7.33887 34.5417 7.49097 34.4783 7.74194C34.4148 7.99292 34.5669 8.2478 34.8179 8.31128C37.436 8.97363 39.0625 9.99121 39.0625 10.967C39.0625 12.5771 34.5806 14.3711 28.1489 14.3711C21.7175 14.3711 17.2356 12.5771 17.2356 10.967C17.2356 9.35693 21.7175 7.56299 28.1489 7.56299C29.812 7.56299 31.4114 7.68359 32.9031 7.92163C33.1594 7.96265 33.3989 7.78833 33.4397 7.53271C33.4807 7.2771 33.3064 7.03662 33.0508 6.99609C31.5105 6.75 29.8613 6.62549 28.1489 6.62549C25.0586 6.62549 22.1467 7.03711 19.9495 7.78491C16.9314 8.81177 16.2979 10.082 16.2979 10.967C16.2979 11.8174 16.884 13.0234 19.6069 14.0276C18.2532 15.4336 17.2717 17.1406 16.7427 19.0168C14.5667 18.7224 8 20.3965 8 27.2119C8 31.7405 11.6841 35.4246 16.2126 35.4246C18.678 35.4246 20.8928 34.3325 22.3997 32.6069C24.1516 33.5801 26.1304 34.093 28.1489 34.093C34.6836 34.093 40 28.7766 40 22.2419C40 19.1736 38.803 16.2268 36.6902 14.0278C39.4138 13.0237 40 11.8174 40 10.967ZM28.6177 22.7107H35.905C35.6709 26.6228 32.5298 29.7639 28.6177 29.9978V22.7107ZM28.6177 21.7732V15.3052C29.5481 15.2927 30.4595 15.2427 31.3372 15.1572C33.9836 16.3516 35.7319 18.8975 35.9043 21.7732H28.6177ZM20.6272 20.2893C21.2158 18.0254 22.8186 16.1252 24.96 15.1572C25.8379 15.2427 26.7495 15.2927 27.6802 15.3052V21.7732H22.3608C21.8552 21.2024 21.272 20.7019 20.6272 20.2893ZM20.6064 14.3564C21.4521 14.604 22.3853 14.8062 23.3799 14.9597C21.6526 16.0955 20.3652 17.8215 19.7849 19.8176C19.1287 19.4995 18.4241 19.2659 17.6851 19.1316C18.2239 17.3145 19.2273 15.6753 20.6064 14.3564ZM16.2126 34.4871C12.2012 34.4871 8.9375 31.2234 8.9375 27.2119C8.9375 23.2004 12.2012 19.9368 16.2126 19.9368C20.2244 19.9368 23.4878 23.2004 23.4878 27.2119C23.488 31.2234 20.2244 34.4871 16.2126 34.4871ZM28.1489 33.1555C26.3386 33.1555 24.564 32.7065 22.9827 31.8557C23.8921 30.5339 24.4255 28.9341 24.4255 27.2119C24.4255 25.551 23.9294 24.0042 23.0786 22.7107H27.6802V29.9968C27.2819 29.973 26.8877 29.9194 26.5 29.8358C26.1962 29.7703 24.5115 29.1572 24.2169 29.0547C23.9725 28.9697 23.7052 29.0989 23.6202 29.3433C23.535 29.5879 23.6642 29.855 23.9088 29.9402C23.9441 29.9525 25.3643 30.4936 25.3998 30.5054C25.4918 30.536 25.5842 30.5651 25.677 30.5927C25.8609 30.6472 26.0463 30.6955 26.233 30.7376C26.8588 30.8787 27.5 30.95 28.1489 30.95C32.9507 30.95 36.8569 27.0435 36.8569 22.2419C36.8569 19.2681 35.3516 16.551 32.9202 14.9595C33.9146 14.8059 34.8472 14.6038 35.6926 14.3562C37.8381 16.4106 39.0625 19.2642 39.0625 22.2419C39.0625 28.2598 34.1667 33.1555 28.1489 33.1555Z" fill="#5A5A5A"/>
<path d="M16.2126 22.2424C14.8162 22.2424 13.4761 22.8351 12.5356 23.8688C12.3616 24.0602 12.3755 24.3569 12.5671 24.5309C12.7585 24.7052 13.0552 24.6913 13.2292 24.4997C13.9922 23.6611 15.0796 23.1799 16.2126 23.1799C18.436 23.1799 20.2446 24.9887 20.2446 27.2118C20.2446 29.435 18.436 31.2438 16.2126 31.2438C13.9895 31.2438 12.1807 29.435 12.1807 27.2118C12.1807 26.8295 12.2341 26.4516 12.3394 26.0878C12.4111 25.8393 12.2681 25.5793 12.0193 25.5072C11.7708 25.4355 11.5107 25.5785 11.4387 25.8273C11.3091 26.2756 11.2432 26.7414 11.2432 27.2118C11.2432 29.9521 13.4724 32.1813 16.2126 32.1813C18.9529 32.1813 21.1821 29.9521 21.1821 27.2118C21.1821 24.4716 18.9529 22.2424 16.2126 22.2424Z" fill="#5D5342"/>
</g>
<defs>
<filter id="filter0_d" x="0" y="-0.999512" width="48" height="48" filterUnits="userSpaceOnUse" color-interpolation-filters="sRGB">
<feFlood flood-opacity="0" result="BackgroundImageFix"/>
<feColorMatrix in="SourceAlpha" type="matrix" values="0 0 0 0 0 0 0 0 0 0 0 0 0 0 0 0 0 0 127 0"/>
<feOffset dy="2"/>
<feGaussianBlur stdDeviation="4"/>
<feColorMatrix type="matrix" values="0 0 0 0 0 0 0 0 0 0 0 0 0 0 0 0 0 0 0.218 0"/>
<feBlend mode="normal" in2="BackgroundImageFix" result="effect1_dropShadow"/>
<feBlend mode="normal" in="SourceGraphic" in2="effect1_dropShadow" result="shape"/>
</filter>
<filter id="filter1_d" x="6.46875" y="15.4681" width="23.4878" height="23.4878" filterUnits="userSpaceOnUse" color-interpolation-filters="sRGB">
<feFlood flood-opacity="0" result="BackgroundImageFix"/>
<feColorMatrix in="SourceAlpha" type="matrix" values="0 0 0 0 0 0 0 0 0 0 0 0 0 0 0 0 0 0 127 0"/>
<feOffset dx="2"/>
<feGaussianBlur stdDeviation="2"/>
<feColorMatrix type="matrix" values="0 0 0 0 0 0 0 0 0 0 0 0 0 0 0 0 0 0 0.25 0"/>
<feBlend mode="normal" in2="BackgroundImageFix" result="effect1_dropShadow"/>
<feBlend mode="normal" in="SourceGraphic" in2="effect1_dropShadow" result="shape"/>
</filter>
</defs>
</svg>
