<svg width="42" height="54" viewBox="0 0 42 54" fill="none" xmlns="http://www.w3.org/2000/svg">
<path d="M24.2361 4.53396L21.207 3.06888H8.79321L4.76413 4.53396C3.76276 4.89812 5.02483 5.93474 5.00005 7.00003L4.5 26.5C4.49508 26.7112 5.3059 26.9168 5.50002 27L6.20566 25.2647V25.7059L6.20571 30.4827C6.20571 30.7683 6.43734 30.9999 6.72298 30.9999H13.0369C13.2777 30.9999 13.4867 30.8337 13.5408 30.599L15.0001 24.2758L16.4593 30.599C16.5135 30.8338 16.7224 30.9999 16.9632 30.9999H23.2934C23.579 30.9999 23.8106 30.7684 23.8106 30.4827L23.8236 27.9118L25.0924 27.5169C24.2866 27.4337 24.4106 27.2407 25.4057 27.0295L25.9376 6.90431C25.913 5.83919 25.2375 4.89812 24.2361 4.53396Z" fill="#7E7E7E"/>
<circle cx="13" cy="19" r="1" fill="#5B5B5B"/>
<path d="M8 7L14.5 18L10 6V4H6.5L8.5 5L8 7Z" fill="#595959"/>
<path d="M22 7L15 18L19.5 6V4H23L21 5L22 7Z" fill="#595959"/>
<path d="M21.5793 3.56852C21.1201 2.24518 20.0848 1.57375 19.3693 1.25564C18.972 1.07893 18.5381 1 18.1033 1H11.8964C11.4616 1 11.0279 1.07893 10.6307 1.25553C9.91525 1.57363 8.87966 2.24494 8.42058 3.56846C8.32238 3.85152 8.49816 4.15908 8.78884 4.23174L9.99013 4.53209C10.1462 4.57105 10.2 4.76541 10.0862 4.87908L9.5 5.90395C9.34022 6.06373 9.22766 6.29107 9.40713 6.50898L14.9996 18.069L21.0315 6.50898C21.136 6.30871 21.0984 6.06373 20.9386 5.90395L19.9136 4.87902C19.7999 4.76529 19.8537 4.571 20.0097 4.53203L21.211 4.23168C21.5017 4.15902 21.6774 3.85152 21.5793 3.56852Z" fill="#A4A4A4"/>
<path d="M16.4291 1H13.5708C12.2065 1 11.2158 2.29715 11.5747 3.61328L14.9997 18.0689L16.0343 14.3679C16.0343 13.9261 16.0856 13.487 16.1874 13.0572C17.1769 8.88133 18.4251 3.6134 18.4251 3.6134C18.784 2.29715 17.7932 1 16.4291 1Z" fill="#5B5B5B"/>
<path d="M12.4651 22.0655C12.4145 22.0741 12.3618 22.072 12.308 22.0585L8.60069 21.1115C8.36121 21.05 8.19873 20.7752 8.2375 20.4974C8.27668 20.2192 8.50277 20.0455 8.7423 20.1049L12.4496 21.0519C12.689 21.1134 12.8515 21.3882 12.8128 21.666C12.7825 21.8818 12.6393 22.0361 12.4651 22.0655Z" fill="#5B5B5B"/>
<path d="M4.41319 4.91322C5 6.5 4.41319 5.34718 4.41319 4.91322L4.02799 24.7094C4.02394 24.9171 3.93559 26.9182 4.09535 27H7V7.4928C7 6.6832 6.73092 5.90673 6.25194 5.33424C6.25194 5.33424 5.58681 4.5 5 4.5C4.41319 4.5 4.41319 4.91322 4.41319 4.91322Z" fill="#A4A4A4"/>
<path d="M24.2755 4.50004C24.2755 4.94697 24.2818 4.74579 24.2755 5.25284L24.0187 25.6409C24.016 25.8549 23.9571 27.9157 24.0636 28H26V7.90951C26 7.07569 25.9281 5.75976 25.5 5.25283C25.0719 4.74591 24.2755 4.50004 24.2755 4.50004Z" fill="#A4A4A4"/>
<path d="M7 17.5V27H6V30C6.16667 30.3333 6.7 31 7.5 31C8.3 31 10.8333 31 12 31C12.3333 31 13.1 30.8 13.5 30C13.9 29.2 14.6667 24 15 22.5L16.5 30C16.5 30.3333 16.7 31 17.5 31C18.3 31 19.8333 31 20.5 31" stroke="#5A5A5A" stroke-width="0.8" stroke-linecap="round"/>
<path d="M6.5 27H4V6.2019C4 5.86856 4 5.50008 4.5 5.00003C4.85353 4.64646 6 4.49999 6.5 5.99999" stroke="#5A5A5A" stroke-width="0.8" stroke-linecap="round"/>
<path d="M5 4.5L8.5 3C9.16667 2.33333 10.7 1 11.5 1C12.3 1 14.5 1 15.5 1H18C19.1667 1.33333 21.5 2.3 21.5 3.5L24 4.5C25 4 26 4.60557 26 5.5C26 6.5 26 20.1667 26 22" stroke="#5A5A5A" stroke-width="0.8" stroke-linecap="round"/>
<g filter="url(#filter0_d)">
<path d="M30.2114 30.7234V29.4139C30.2114 29.135 29.9853 28.9089 29.7063 28.9089H21.2944C21.0154 28.9089 20.7893 29.135 20.7893 29.4139V30.7225C18.8201 33.8776 17.6445 38.8954 17.6445 44.1447C17.6445 45.6402 17.7372 47.1253 17.9199 48.5588C17.952 48.8111 18.1667 49 18.4209 49H32.5792C32.8334 49 33.048 48.8111 33.0803 48.5588C33.263 47.1253 33.3556 45.6403 33.3556 44.1447C33.3556 38.8959 32.1802 33.8786 30.2114 30.7234Z" fill="#8CE187"/>
<path d="M20.5044 38.1133C20.5044 34.7156 21.5124 31.554 23.2441 28.9089H21.2944C21.0154 28.9089 20.7893 29.135 20.7893 29.4139V30.7225C18.8201 33.8776 17.6445 38.8954 17.6445 44.1448C17.6445 45.6403 17.7372 47.1254 17.9199 48.5589C17.952 48.8111 18.1667 49.0001 18.4209 49.0001H24.5017C22.0091 46.0653 20.5044 42.2653 20.5044 38.1133Z" fill="#71CE6A"/>
<path d="M30.9329 16H28.9666V16.4226C28.9666 16.898 27.4963 17.2831 25.6825 17.2831H25.3175C23.5036 17.2831 22.0334 16.898 22.0334 16.4226V16H20.0671C19.5889 16 20.933 19.6341 20.0671 18.5L19.5 19.3171L20.7081 28.6475H26.9926H28.7483H30.2919L31.7987 19.3171V16.8659C31.7988 16.3877 31.4111 16 30.9329 16Z" fill="#8CE187"/>
<path d="M25.3175 20.8245H25.6825C27.4963 20.8245 28.9666 19.3544 28.9666 17.5404V16.3505C28.9666 16.8258 27.4964 17.211 25.6825 17.211H25.3175C23.5036 17.211 22.0334 16.8258 22.0334 16.3505V17.5405C22.0336 19.3544 23.5037 20.8245 25.3175 20.8245Z" fill="#71CE6A"/>
<path d="M22.1481 28.6475C22.1716 28.6243 22.1962 28.6022 22.2221 28.5817L20.7259 19.3171V16.8659C20.7259 16.3877 21.1135 16 21.5917 16H20.0672C19.589 16 18.9999 16 19.7886 16.8659V19.3171L20.7082 28.6475H22.1481Z" fill="#71CE6A"/>
<path d="M29.7665 28.395H21.3104H21.2335C20.7554 28.395 20.3677 28.7827 20.3677 29.2609V29.3376V29.4413V29.518V29.7567V29.9371C20.3677 30.4578 20.7898 30.8797 21.3104 30.8797H29.6895C30.2102 30.8797 30.6323 30.4577 30.6323 29.9371V29.7567V29.518V29.4413V29.3376V29.2609C30.6324 28.7826 30.2446 28.395 29.7665 28.395Z" fill="#FFD89A"/>
<path d="M21.2335 28.395C21.031 28.395 20.845 28.4651 20.6975 28.5817C20.6232 28.6405 20.5587 28.7112 20.5069 28.7908C20.5046 28.7945 20.5025 28.7983 20.5001 28.8019C20.4865 28.8236 20.4738 28.8459 20.4621 28.8689C20.4584 28.8762 20.4549 28.8835 20.4515 28.8909C20.442 28.9108 20.4333 28.9313 20.4254 28.9521C20.4218 28.9613 20.4183 28.9706 20.415 28.9801C20.4083 28.9998 20.4024 29.0201 20.397 29.0405C20.3944 29.0508 20.3915 29.0609 20.3891 29.0713C20.3844 29.0925 20.3808 29.1143 20.3777 29.1362C20.3762 29.1458 20.3744 29.1552 20.3733 29.1648C20.3697 29.1964 20.3677 29.2283 20.3677 29.2608V29.3375V29.4412V29.5179V29.7565V29.9369C20.3677 29.9744 20.3705 30.0112 20.3748 30.0475C20.3761 30.0586 20.3782 30.0696 20.3798 30.0807C20.3837 30.1061 20.3884 30.1313 20.3943 30.1561C20.3971 30.1677 20.4 30.1793 20.4033 30.1909C20.4104 30.2163 20.4186 30.2411 20.4277 30.2656C20.431 30.2745 20.4339 30.2835 20.4375 30.2922C20.4511 30.3254 20.4661 30.3579 20.4832 30.3891C20.4834 30.3895 20.4837 30.3898 20.4839 30.3902C20.5007 30.4208 20.5195 30.4501 20.5395 30.4785C20.5445 30.4857 20.5499 30.4924 20.5552 30.4994C20.5715 30.5213 20.5887 30.5427 20.6069 30.563C20.6129 30.5697 20.619 30.5764 20.6252 30.583C20.6457 30.6047 20.6672 30.6255 20.6897 30.6451C20.6937 30.6487 20.6974 30.6525 20.7014 30.6558C20.7294 30.6796 20.7586 30.7019 20.7893 30.7222C20.9386 30.8216 21.1178 30.8797 21.3106 30.8797H22.2188C22.2504 30.8272 22.2818 30.7739 22.314 30.7224V30.7224C22.06 30.5534 21.8924 30.265 21.8924 29.9371V29.7567V29.518V29.4413V29.3376V29.2609C21.8924 28.9853 22.0216 28.7403 22.2222 28.5818L22.192 28.3951H21.3105L21.2335 28.395Z" fill="#FFB76D"/>
<path d="M27.3573 17.0906C27.4286 17.3523 27.4674 17.6275 27.4674 17.9116C27.4674 19.2427 26.6325 20.3782 25.458 20.8245H25.6824C27.4962 20.8245 28.9665 19.3544 28.9665 17.5404V16.3505C28.9666 16.6655 28.3206 16.9407 27.3573 17.0906Z" fill="#46AF71"/>
<path d="M26.0001 17.5C24.8001 17.5 23.8334 17 23.0001 16.5C22.2676 16.1 21.0001 16 19.5001 16.0001C20 17.5 20.0001 17.7 20.0001 18.5C20.0001 19.3 19.6667 20.6667 19.5001 21.0001L20.5001 28.5V31C20.0001 32.1667 19.3001 32.4 18.5001 36C17.7001 39.6 18.0001 47.1667 18.5001 49H32.5001C32.6667 47.6667 33.0001 43.9 33.0001 39.5C33.0001 35.1 31.0001 31.6667 30.0001 30.5C30.1667 30.3333 30.5001 29.9001 30.5001 29.5001C30.5001 28.5001 30.1667 28.1667 30.0001 28.0001L31.5001 20C32.0001 18.5 31.8795 18.6384 31.5001 17.5C31.0001 16 30.6667 16.1667 30.5001 16.0001L29.0001 16C28.5001 16.5 27.2001 17.5 26.0001 17.5Z" stroke="#498C44"/>
<path d="M21 30.5C20.7239 30.5 20.5 30.7239 20.5 31C20.5 31.2761 20.7239 31.5 21 31.5V30.5ZM30 31.5C30.2761 31.5 30.5 31.2761 30.5 31C30.5 30.7239 30.2761 30.5 30 30.5V31.5ZM21 31.5H30V30.5H21V31.5Z" fill="#4D8A48"/>
</g>
<defs>
<filter id="filter0_d" x="2" y="9.5" width="43" height="44" filterUnits="userSpaceOnUse" color-interpolation-filters="sRGB">
<feFlood flood-opacity="0" result="BackgroundImageFix"/>
<feColorMatrix in="SourceAlpha" type="matrix" values="0 0 0 0 0 0 0 0 0 0 0 0 0 0 0 0 0 0 127 0"/>
<feOffset dx="-2" dy="-1"/>
<feGaussianBlur stdDeviation="2.5"/>
<feColorMatrix type="matrix" values="0 0 0 0 0.331608 0 0 0 0 0.695833 0 0 0 0 0.304427 0 0 0 0.44 0"/>
<feBlend mode="normal" in2="BackgroundImageFix" result="effect1_dropShadow"/>
<feBlend mode="normal" in="SourceGraphic" in2="effect1_dropShadow" result="shape"/>
</filter>
</defs>
</svg>
