<svg width="42" height="42" viewBox="0 0 42 42" fill="none" xmlns="http://www.w3.org/2000/svg">
<g clip-path="url(#clip0)" filter="url(#filter0_d)">
<rect x="7" y="2.00049" width="20" height="9" fill="#FF7DBB"/>
<rect x="7" y="11.0005" width="20" height="9" fill="#AE7DFF"/>
<rect x="7" y="20.0005" width="20" height="8" fill="#5D9CEC"/>
<path d="M31 2.00049H35V27.0005L33 29.5005L31 27.0005V2.00049Z" fill="#FFCB7D"/>
<path d="M9 30.5005V28.5005H12L11.5 30.5005L10.5 30.0005L9 30.5005Z" fill="#FF7DBB"/>
<path fill-rule="evenodd" clip-rule="evenodd" d="M8 3.00049C7.44772 3.00049 7 3.4482 7 4.00049V27.0005C7 27.5528 7.44772 28.0005 8 28.0005H11C10.4477 28.0005 10 27.5528 10 27.0005V4.00049C10 3.4482 10.4477 3.00049 11 3.00049H8Z" fill="#6B6B6B" fill-opacity="0.46"/>
<path d="M26.002 2.00235H25H21.5H6.5V10.5054V20.5054V29.0004H8.5V31.9344L10.5 30.6014L12.5 31.9344V29.0004H21.5H25H26.002C27.1035 29.0004 28 28.1039 28 27.0024V20.5054V10.5054V4.00035C28 2.89885 27.1035 2.00235 26.002 2.00235ZM7.5 3.00235H21.5V10.5054H7.5V3.00235ZM21.5 19.5054H7.5V11.5054H21.5V19.5054ZM11.5 30.0664L10.5 29.3994L9.5 30.0664V29.0004H11.5V30.0664ZM12.5 28.0004H8.5H7.5V20.5054H21.5V28.0004H12.5ZM22.5 28.0004V20.5054V10.5054V3.00235H24V10.5054V20.5054V28.0004H22.5ZM25 11.5054H27V19.5054H25V11.5054ZM27 27.0024C27 27.5524 26.552 28.0004 26.002 28.0004H25V20.5054H27V27.0024ZM25 10.5054V3.00235H26.002C26.552 3.00235 27 3.44985 27 4.00035V10.5054H25Z" fill="#5D5342"/>
<path d="M34.0075 2.00049H31.993C31.1695 2.00049 30.5 2.66999 30.5 3.49299V5.50049V8.50049V27.1335L32.5 30.6335V31.5005C32.5 31.777 32.7235 32.0005 33 32.0005C33.2765 32.0005 33.5 31.777 33.5 31.5005V30.6335L35.5 27.1335V8.50049V5.50049V3.49299C35.5 2.66999 34.8305 2.00049 34.0075 2.00049ZM31.5 6.50049H34.5V7.50049H31.5V6.50049ZM33 29.4925L31.8615 27.5005H34.1385L33 29.4925ZM34.5 26.5005H31.5V8.50049H34.5V26.5005ZM31.5 5.50049V3.49299C31.5 3.22149 31.721 3.00049 31.9925 3.00049H34.007C34.279 3.00049 34.5 3.22149 34.5 3.49299V5.50049H31.5Z" fill="#5D5342"/>
</g>
<defs>
<filter id="filter0_d" x="0" y="0.000488281" width="42" height="42" filterUnits="userSpaceOnUse" color-interpolation-filters="sRGB">
<feFlood flood-opacity="0" result="BackgroundImageFix"/>
<feColorMatrix in="SourceAlpha" type="matrix" values="0 0 0 0 0 0 0 0 0 0 0 0 0 0 0 0 0 0 127 0"/>
<feOffset dy="4"/>
<feGaussianBlur stdDeviation="3"/>
<feColorMatrix type="matrix" values="0 0 0 0 0.364706 0 0 0 0 0.611765 0 0 0 0 0.92549 0 0 0 0.284 0"/>
<feBlend mode="normal" in2="BackgroundImageFix" result="effect1_dropShadow"/>
<feBlend mode="normal" in="SourceGraphic" in2="effect1_dropShadow" result="shape"/>
</filter>
<clipPath id="clip0">
<rect width="30" height="30" fill="white" transform="translate(6 2.00049)"/>
</clipPath>
</defs>
</svg>
