<svg width="55" height="45" viewBox="0 0 55 45" fill="none" xmlns="http://www.w3.org/2000/svg">
<g filter="url(#filter0_d)">
<rect x="9" y="31.0005" width="37" height="2" fill="#A2B8D4"/>
<rect x="13" y="10.0005" width="29" height="18" fill="#5D9CEC"/>
<path d="M46.3683 30.3136H45.6523V9.38168C45.6523 7.91863 44.462 6.72833 42.9989 6.72833H12.0011C10.538 6.72833 9.34773 7.91863 9.34773 9.38168V30.3136H8.63175C8.28286 30.3136 8 30.5965 8 30.9454V32.2931C8 33.3846 8.88799 34.2726 9.97948 34.2726H45.0205C46.112 34.2726 47 33.3846 47 32.2931V30.9454C47 30.5965 46.7171 30.3136 46.3683 30.3136ZM10.6112 9.38168C10.6112 8.61533 11.2347 7.99183 12.0011 7.99183H42.9989C43.7653 7.99183 44.3888 8.61533 44.3888 9.38168V30.3136H10.6112V9.38168ZM45.7365 32.2931C45.7365 32.6879 45.4153 33.0091 45.0205 33.0091H9.97948C9.58468 33.0091 9.2635 32.6879 9.2635 32.2931V31.5771H23.501C23.5001 31.5911 23.4989 31.605 23.4989 31.6193C23.4989 31.9682 23.7818 32.251 24.1307 32.251H30.8693C31.2182 32.251 31.5011 31.9682 31.5011 31.6193C31.5011 31.605 31.4999 31.5911 31.499 31.5771H45.7365V32.2931Z" fill="#5C7580"/>
<path d="M42.3251 9.4238H12.675C12.3261 9.4238 12.0432 9.70665 12.0432 10.0555V28.2499C12.0432 28.5988 12.3261 28.8817 12.675 28.8817H42.3251C42.674 28.8817 42.9568 28.5988 42.9568 28.2499V10.0555C42.9568 9.70665 42.674 9.4238 42.3251 9.4238ZM41.6933 27.6182H13.3067V10.6873H41.6933V27.6182Z" fill="#5C7580"/>
<path d="M13.5 10.5005V20.5005L41.5 10.5005H13.5Z" fill="#518EDC"/>
</g>
<defs>
<filter id="filter0_d" x="0" y="-4.99951" width="55" height="55" filterUnits="userSpaceOnUse" color-interpolation-filters="sRGB">
<feFlood flood-opacity="0" result="BackgroundImageFix"/>
<feColorMatrix in="SourceAlpha" type="matrix" values="0 0 0 0 0 0 0 0 0 0 0 0 0 0 0 0 0 0 127 0"/>
<feOffset dy="2"/>
<feGaussianBlur stdDeviation="4"/>
<feColorMatrix type="matrix" values="0 0 0 0 0.317647 0 0 0 0 0.556863 0 0 0 0 0.862745 0 0 0 0.41 0"/>
<feBlend mode="normal" in2="BackgroundImageFix" result="effect1_dropShadow"/>
<feBlend mode="normal" in="SourceGraphic" in2="effect1_dropShadow" result="shape"/>
</filter>
</defs>
</svg>
