<svg width="36" height="42" viewBox="0 0 36 42" fill="none" xmlns="http://www.w3.org/2000/svg">
<g clip-path="url(#clip0)" filter="url(#filter0_d)">
<path d="M24.9034 12.0014C23.7983 10.8404 23.1087 9.35289 22.9708 7.76974H16.326C16.1882 9.35289 15.4986 10.8403 14.3934 12.0014C13.1552 13.3023 12.3956 15.0628 12.3956 17.0005C12.3956 18.9384 13.1552 20.6987 14.3934 21.9996C15.4986 23.1607 16.1882 24.6481 16.326 26.2312H22.9709C23.1087 24.6481 23.7984 23.1608 24.9035 21.9996C26.1417 20.6987 26.9013 18.9383 26.9013 17.0005C26.9012 15.0627 26.1417 13.3022 24.9034 12.0014ZM22.9451 21.1182C22.0425 21.8421 20.8959 22.2752 19.6484 22.2752C18.401 22.2752 17.2543 21.8421 16.3517 21.1182C15.1458 20.1515 14.3737 18.666 14.3737 17.0005C14.3737 15.335 15.1458 13.8495 16.3517 12.883C17.2543 12.159 18.401 11.7258 19.6484 11.7258C20.8959 11.7258 22.0425 12.1589 22.9451 12.883C24.1511 13.8496 24.9232 15.335 24.9232 17.0005C24.9232 18.6661 24.1511 20.1515 22.9451 21.1182Z" fill="#FAA719"/>
<path d="M28.8377 16.6709C28.6913 16.1019 28.175 15.6819 27.5605 15.6819H26.8715H26.7811C26.8411 16.0044 26.8787 16.3346 26.8932 16.6709C26.8985 16.7803 26.9011 16.8904 26.9011 17.0005C26.9011 17.2228 26.8912 17.443 26.8715 17.6599C26.8517 17.8828 26.8214 18.103 26.7811 18.3192H27.5605C28.289 18.3192 28.8791 17.7292 28.8791 17.0006C28.8792 16.8872 28.8647 16.7763 28.8377 16.6709Z" fill="#FFE8A5"/>
<path d="M22.9451 10.5383C21.9561 10.0326 20.8358 9.74777 19.6484 9.74777C18.4609 9.74777 17.3406 10.0326 16.3516 10.5383C14.0031 11.739 12.3956 14.1819 12.3956 17.0005C12.3956 19.8192 14.0031 22.2621 16.3516 23.4628C17.3406 23.9685 18.4609 24.2532 19.6484 24.2532C20.8358 24.2532 21.9561 23.9685 22.9451 23.4628C25.2936 22.2621 26.9011 19.8192 26.9011 17.0005C26.9011 14.1819 25.2936 11.739 22.9451 10.5383ZM22.9451 21.1182C22.0424 21.8422 20.8958 22.2752 19.6484 22.2752C18.4009 22.2752 17.2543 21.8422 16.3516 21.1182C15.1457 20.1516 14.3736 18.666 14.3736 17.0005C14.3736 15.335 15.1457 13.8496 16.3516 12.883C17.2543 12.159 18.4009 11.7258 19.6484 11.7258C20.8958 11.7258 22.0424 12.159 22.9451 12.883C24.151 13.8496 24.9231 15.335 24.9231 17.0005C24.9231 18.6661 24.151 20.1516 22.9451 21.1182Z" fill="#FAA719"/>
<path d="M26.9011 17.0005C26.9011 19.1704 25.949 21.1168 24.4391 22.4453C25.5613 21.1683 26.2418 19.4934 26.2418 17.6599C26.2418 14.8412 24.6343 12.3984 22.2858 11.1977C21.2968 10.692 20.1765 10.4071 18.989 10.4071C17.8016 10.4071 16.6813 10.692 15.6923 11.1977C15.1517 11.4745 14.6498 11.8168 14.1982 12.215C14.8009 11.5293 15.5308 10.9583 16.3516 10.5383C17.3406 10.0326 18.4609 9.74777 19.6483 9.74777C20.8358 9.74777 21.9561 10.0326 22.9451 10.5383C25.2936 11.739 26.9011 14.1819 26.9011 17.0005Z" fill="#FAA719"/>
<path d="M13.7144 26.8905C13.7144 28.1479 14.2174 29.288 15.0331 30.1206C15.0225 30.1318 15.0113 30.1431 15.0001 30.1543C14.1613 30.9923 13.0016 31.5099 11.7205 31.5059C9.16689 31.4974 7.12097 29.3763 7.12097 26.822V7.16841C7.12097 4.62322 9.15634 2.51414 11.7015 2.49492C13.0069 2.48502 14.1878 3.0171 15.0331 3.88025C14.2174 4.71298 13.7144 5.85293 13.7144 7.11029V12.8294C12.883 14.009 12.3957 15.4477 12.3957 17.0004C12.3957 18.5532 12.883 19.9919 13.7144 21.1714V26.8905Z" fill="#FAA719"/>
<path d="M12.3976 31.4585C12.1767 31.4908 11.9506 31.5067 11.7204 31.5059C9.16683 31.4975 7.12085 29.3764 7.12085 26.8221V7.16845C7.12085 4.62337 9.15622 2.51417 11.7012 2.49495C11.9381 2.4929 12.1708 2.50937 12.3983 2.54235C10.1513 2.86691 8.43962 4.83431 8.43962 7.16845V26.8221C8.43962 29.1582 10.1513 31.1321 12.3976 31.4585Z" fill="#C4810E"/>
<path d="M16.3518 7.11034V7.18088C16.3518 7.37805 16.3432 7.57457 16.326 7.76969H22.9709C22.9537 7.57457 22.9451 7.37811 22.9451 7.18088V7.11034C22.9451 4.56133 20.8788 2.49496 18.3298 2.49496H11.7363C14.2854 2.49496 16.3518 4.56133 16.3518 7.11034ZM16.3518 26.8201V26.8905C16.3518 28.1651 15.8348 29.3189 15.0001 30.1543C14.1647 30.989 13.0109 31.5059 11.7364 31.5059H18.3298C20.8788 31.5059 22.9451 29.4395 22.9451 26.8905V26.8201C22.9451 26.6229 22.9537 26.4264 22.9709 26.2312H16.326C16.3431 26.4264 16.3518 26.6229 16.3518 26.8201Z" fill="#FFE8A5"/>
<path d="M24.9231 17.0005C24.9231 18.6661 24.151 20.1516 22.9451 21.1182C22.0425 21.842 20.8958 22.2753 19.6484 22.2753C18.4009 22.2753 17.2543 21.8421 16.3517 21.1182C15.1457 20.1516 14.3737 18.6661 14.3737 17.0005C14.3737 15.335 15.1457 13.8496 16.3517 12.883C17.2543 12.159 18.4009 11.7258 19.6484 11.7258C20.8958 11.7258 22.0425 12.159 22.9451 12.883C24.151 13.8496 24.9231 15.3351 24.9231 17.0005Z" fill="#74DBF6"/>
<path d="M24.9231 17.0005C24.9231 18.6661 24.151 20.1516 22.9451 21.1182C22.0425 21.842 20.8958 22.2753 19.6484 22.2753C18.4009 22.2753 17.2543 21.8421 16.3517 21.1182C15.1457 20.1516 14.3737 18.6661 14.3737 17.0005C14.3737 15.335 15.1457 13.8496 16.3517 12.883C17.2543 12.159 18.4009 11.7258 19.6484 11.7258C20.8958 11.7258 22.0425 12.159 22.9451 12.883C24.151 13.8496 24.9231 15.3351 24.9231 17.0005Z" fill="white"/>
<path opacity="0.15" d="M23.4291 20.677C23.2781 20.8339 23.1159 20.981 22.9451 21.1181C22.0425 21.8419 20.8958 22.2752 19.6484 22.2752C18.4009 22.2752 17.2542 21.842 16.3517 21.1181C15.1457 20.1515 14.3737 18.666 14.3737 17.0004C14.3737 15.3349 15.1457 13.8495 16.3517 12.8829C16.6108 12.6752 16.8903 12.4912 17.1864 12.335C16.2613 13.2851 15.6923 14.582 15.6923 16.0114C15.6923 17.677 16.4644 19.1625 17.6703 20.1291C18.5729 20.8529 19.7196 21.2862 20.967 21.2862C21.8565 21.2862 22.6939 21.066 23.4291 20.677Z" fill="#041012"/>
<path d="M27.5604 15.1873H27.1823C27.1727 15.1469 27.1617 15.1068 27.1513 15.0667C26.8261 13.7992 26.1831 12.6286 25.2615 11.6605C24.2283 10.5749 23.5898 9.17781 23.4635 7.72686C23.4477 7.54715 23.4396 7.36316 23.4396 7.181V7.11039C23.4396 4.29273 21.1473 2.00049 18.3297 2.00049H11.7362C11.733 2.00049 11.7298 2.0009 11.7266 2.00102C11.717 2.00102 11.7073 2.00049 11.6977 2.00049C8.9013 2.02146 6.62634 4.33984 6.62634 7.16846V26.8221C6.62634 29.668 8.91074 31.9911 11.7188 32.0005C11.7242 32.0005 11.7297 32.0005 11.7351 32.0005H11.7364H18.3297C21.1473 32.0005 23.4396 29.7082 23.4396 26.8906V26.82C23.4396 26.6379 23.4476 26.4544 23.4634 26.2747C23.5896 24.8238 24.2283 23.4263 25.2614 22.3407C26.183 21.3723 26.8261 20.2018 27.1512 18.9345C27.1616 18.8944 27.1726 18.8542 27.1823 18.8137H27.5604C28.5602 18.8137 29.3736 18.0004 29.3736 17.0005C29.3736 16.0007 28.5603 15.1873 27.5604 15.1873ZM26.4002 17.2865C26.3996 17.299 26.3992 17.3114 26.3987 17.3239C26.3945 17.4129 26.3883 17.5016 26.3806 17.5901C26.379 17.6086 26.3774 17.6273 26.3757 17.6456C26.3678 17.7302 26.358 17.8145 26.3468 17.8984C26.344 17.9198 26.3409 17.941 26.3379 17.9624C26.3259 18.046 26.3127 18.1292 26.2978 18.2116C26.2941 18.2317 26.2901 18.2515 26.2862 18.2716C26.2773 18.3183 26.268 18.3651 26.258 18.4115C26.2512 18.4433 26.2444 18.4752 26.2373 18.5067C26.2301 18.5383 26.2222 18.5697 26.2146 18.6013C26.1958 18.6786 26.1759 18.7554 26.1544 18.8317C26.1523 18.8392 26.1503 18.8468 26.1481 18.8545C25.3403 21.6825 22.7323 23.7587 19.6485 23.7587C16.3346 23.7587 13.5702 21.3612 12.9988 18.2096C12.9955 18.1922 12.9927 18.1748 12.9896 18.1574C12.9826 18.1166 12.9756 18.0758 12.9692 18.0347C12.9686 18.0311 12.9681 18.0275 12.9676 18.0241C12.9637 17.9986 12.9604 17.9731 12.9569 17.9476C12.9515 17.9092 12.9463 17.8707 12.9413 17.8321C12.9372 17.7989 12.9336 17.7655 12.93 17.732C12.9238 17.6757 12.9183 17.6189 12.9136 17.5622L12.9133 17.5578C12.9119 17.5415 12.9105 17.525 12.9092 17.5087C12.909 17.506 12.9088 17.5033 12.9086 17.5006C12.9037 17.4321 12.8997 17.3634 12.8969 17.2947C12.8959 17.2737 12.8952 17.2527 12.8945 17.2316C12.8919 17.1548 12.8901 17.0778 12.8901 17.0007C12.8901 16.9235 12.8919 16.8466 12.8945 16.7699C12.8952 16.7488 12.8959 16.7277 12.8969 16.7067C12.8997 16.6379 12.9037 16.5693 12.9086 16.5009C12.9088 16.4982 12.909 16.4955 12.9092 16.4928C12.9103 16.4764 12.9119 16.46 12.9133 16.4437L12.9137 16.4392C12.9183 16.3824 12.9239 16.3257 12.93 16.2692C12.9336 16.2358 12.9372 16.2024 12.9413 16.1692C12.9462 16.1307 12.9515 16.0922 12.9569 16.0537C12.9604 16.0284 12.9638 16.0028 12.9676 15.9774C12.9681 15.9738 12.9686 15.9704 12.9692 15.9665C12.9756 15.9255 12.9825 15.8848 12.9896 15.844C12.9927 15.8264 12.9955 15.8091 12.9988 15.7917C13.5703 12.64 16.3346 10.2424 19.6485 10.2424C22.7322 10.2424 25.3403 12.3187 26.1481 15.1468C26.1503 15.1543 26.1524 15.1621 26.1545 15.1697C26.1759 15.2458 26.1957 15.3225 26.2146 15.3997C26.2223 15.4313 26.2301 15.4628 26.2373 15.4945C26.2445 15.5261 26.2513 15.5579 26.258 15.5896C26.2679 15.6362 26.2773 15.6829 26.2862 15.7298C26.2901 15.7496 26.2941 15.7696 26.2977 15.7895C26.3128 15.8721 26.326 15.9553 26.3379 16.0388C26.3409 16.0601 26.344 16.0814 26.3468 16.1029C26.358 16.1867 26.3677 16.2709 26.3757 16.3555C26.3774 16.3741 26.3791 16.3925 26.3806 16.411C26.3883 16.4995 26.3945 16.5883 26.3987 16.6773C26.3993 16.6898 26.3996 16.7023 26.4002 16.7148C26.4041 16.8098 26.4066 16.9053 26.4066 17.0007C26.4066 17.0961 26.4041 17.1914 26.4002 17.2865ZM23.0328 10.0326C22.0095 9.53371 20.8612 9.25322 19.6484 9.25322C18.4378 9.25322 17.2912 9.53254 16.2695 10.0299C16.5075 9.46375 16.6748 8.87154 16.7655 8.26422H22.532C22.6236 8.87102 22.7936 9.46492 23.0328 10.0326ZM18.3297 2.98949C20.6019 2.98949 22.4506 4.83824 22.4506 7.11039V7.18094C22.4506 7.2124 22.4508 7.24375 22.4512 7.27522H16.8456C16.846 7.24375 16.8461 7.2124 16.8461 7.18094V7.11039C16.8461 7.0358 16.844 6.9618 16.8408 6.88785C16.84 6.87057 16.8394 6.85322 16.8384 6.83594C16.8347 6.76562 16.8297 6.69572 16.8232 6.62629C16.8215 6.60789 16.8192 6.58955 16.8173 6.57133C16.8117 6.51771 16.8052 6.46457 16.7979 6.41137C16.7946 6.38758 16.7916 6.36344 16.7881 6.33965C16.7791 6.28076 16.769 6.22234 16.7581 6.16416C16.7515 6.129 16.7444 6.09402 16.737 6.05893C16.7313 6.03162 16.7252 6.00432 16.7191 5.97719C16.7022 5.90301 16.6838 5.82924 16.6638 5.75605C16.6615 5.74756 16.6592 5.73906 16.6568 5.73068C16.4281 4.91125 15.9968 4.15768 15.3863 3.53424C15.19 3.33385 14.9799 3.15256 14.759 2.98949H18.3297ZM14.3944 5.8849C14.4069 5.84447 14.42 5.80428 14.4337 5.76437C14.4409 5.7434 14.4484 5.72266 14.456 5.7018C14.4698 5.66395 14.484 5.62633 14.4988 5.589C14.5069 5.56861 14.515 5.54816 14.5234 5.52795C14.54 5.48805 14.5575 5.44861 14.5753 5.40936C14.5828 5.39271 14.5901 5.37584 14.5977 5.35938C14.6239 5.30389 14.651 5.24875 14.6796 5.19426C14.6811 5.19168 14.6826 5.1891 14.6839 5.1867C14.7112 5.1352 14.7396 5.08416 14.7692 5.03389C14.7788 5.01713 14.7893 5.00066 14.7994 4.98402C14.8213 4.94781 14.8435 4.91178 14.8666 4.87621C14.8787 4.85758 14.8911 4.839 14.9035 4.82043C14.9261 4.78668 14.9493 4.75316 14.973 4.72012C14.9858 4.70225 14.9987 4.68432 15.0116 4.6665C15.0184 4.65748 15.0255 4.64869 15.0323 4.63973C15.4295 5.16824 15.7027 5.79496 15.8084 6.47646C15.8097 6.48508 15.8109 6.49375 15.8121 6.50242C15.8201 6.55604 15.8269 6.60994 15.8327 6.66402C15.8346 6.68184 15.8364 6.69941 15.838 6.71734C15.8426 6.76486 15.8461 6.81273 15.849 6.86096C15.8501 6.87924 15.8515 6.8974 15.8523 6.9158C15.8553 6.9802 15.8571 7.04518 15.8571 7.11033V7.18088C15.8571 7.27516 15.8547 7.36926 15.8506 7.46301C15.8486 7.50771 15.8448 7.55189 15.8418 7.59625C15.8386 7.64418 15.8361 7.69217 15.8318 7.73986C15.8266 7.79945 15.8194 7.85887 15.8124 7.91822C15.8086 7.9498 15.8055 7.98145 15.8014 8.01303C15.7916 8.08568 15.7802 8.15816 15.7678 8.23041C15.7652 8.24623 15.7629 8.26205 15.7601 8.27793C15.7448 8.36395 15.7279 8.44967 15.709 8.53521C15.4813 9.56518 14.9951 10.5412 14.2977 11.3659C14.271 11.3973 14.2452 11.4292 14.218 11.4602C14.2149 11.4635 14.2118 11.4669 14.2088 11.4702V7.11039C14.2088 7.0477 14.2105 6.98512 14.2134 6.92271C14.2143 6.90285 14.2158 6.88305 14.217 6.86324C14.2195 6.82064 14.2224 6.77799 14.2263 6.73557C14.2283 6.71277 14.2307 6.69016 14.2332 6.6673C14.2374 6.62729 14.2422 6.58721 14.2477 6.54742C14.2508 6.52498 14.2539 6.5026 14.2572 6.48016C14.2637 6.43791 14.271 6.39596 14.2789 6.35383C14.2824 6.3352 14.2855 6.31627 14.2892 6.29746C14.3012 6.23705 14.3143 6.17705 14.329 6.11734L14.3302 6.11301C14.3448 6.05494 14.3605 5.99734 14.3775 5.94021C14.3827 5.92164 14.3887 5.9033 14.3944 5.8849ZM14.1928 30.2C14.179 30.2103 14.1648 30.2201 14.1508 30.2301C14.1131 30.2574 14.0754 30.2845 14.0369 30.3105C14.018 30.3231 13.9988 30.3354 13.9797 30.3477C13.9455 30.3702 13.911 30.3923 13.8761 30.4134C13.8555 30.4261 13.8345 30.4384 13.8136 30.4506C13.7794 30.4706 13.745 30.4902 13.7103 30.5092C13.6889 30.5209 13.6675 30.5325 13.6458 30.5438C13.6104 30.5624 13.5746 30.5802 13.5387 30.5976C13.5176 30.608 13.4966 30.6183 13.4752 30.6283C13.4365 30.6463 13.3973 30.6634 13.358 30.6803C13.3394 30.6883 13.3207 30.6968 13.3018 30.7045C13.2494 30.726 13.1965 30.7462 13.1433 30.7656C13.1373 30.7677 13.1314 30.7703 13.1254 30.7724C13.0661 30.7936 13.0061 30.8133 12.9459 30.8317C12.9273 30.8374 12.9085 30.8423 12.8899 30.8475C12.848 30.8598 12.8061 30.8716 12.7637 30.8824C12.7401 30.8885 12.7163 30.8939 12.6924 30.8994C12.6547 30.9084 12.6167 30.9171 12.5787 30.9251C12.553 30.9302 12.5273 30.9351 12.5015 30.94C12.4645 30.9469 12.4275 30.9534 12.3902 30.9592C12.364 30.9634 12.3377 30.9674 12.3114 30.9711C12.2734 30.9763 12.2353 30.9808 12.1971 30.9851C12.1717 30.9879 12.1464 30.9909 12.1208 30.9932C12.0787 30.9972 12.0365 31 11.9942 31.0026C11.9724 31.0039 11.9509 31.0057 11.9291 31.0068C11.865 31.0096 11.8007 31.0114 11.7361 31.0114H11.7351C11.7307 31.0114 11.7263 31.0114 11.7219 31.0114C9.45742 31.0039 7.61517 29.1245 7.61517 26.8221V7.16846C7.61517 4.88107 9.4498 3.00648 11.7047 2.98949C11.7144 2.98949 11.7241 2.98949 11.7337 2.98938L11.736 2.98949C11.8046 2.98949 11.8728 2.99125 11.9406 2.99477C11.9502 2.99518 11.9598 2.996 11.9694 2.99641C12.0289 2.99992 12.0883 3.00414 12.1471 3.01006C12.1551 3.01088 12.1629 3.0117 12.1709 3.01264C12.9879 3.09865 13.7344 3.42461 14.3387 3.91832C14.2914 3.97732 14.2456 4.03732 14.2012 4.09797C14.1884 4.11566 14.1764 4.13365 14.1638 4.15129C14.1312 4.19699 14.099 4.24293 14.068 4.28951C14.0521 4.31342 14.0369 4.33779 14.0216 4.36193C13.995 4.4033 13.9688 4.4449 13.9436 4.48697C13.9278 4.51328 13.9125 4.53977 13.8972 4.56631C13.8736 4.60738 13.8505 4.64875 13.8281 4.69035C13.8133 4.71754 13.799 4.74479 13.7849 4.77209C13.7628 4.81469 13.7417 4.85775 13.721 4.90088C13.7082 4.92754 13.6952 4.9542 13.6827 4.98109C13.6613 5.02797 13.641 5.07525 13.6209 5.1226C13.611 5.14627 13.6004 5.16977 13.5907 5.19367C13.5648 5.25783 13.5402 5.32258 13.517 5.38785C13.5144 5.39506 13.5113 5.40227 13.5087 5.40977C13.483 5.48242 13.4594 5.55596 13.437 5.62984C13.4303 5.65229 13.4245 5.67496 13.418 5.69734C13.4032 5.74908 13.3887 5.80111 13.3754 5.85344C13.3684 5.8818 13.3619 5.91021 13.3553 5.93857C13.3442 5.98574 13.3336 6.03314 13.3238 6.08061C13.3176 6.11102 13.3118 6.14166 13.3061 6.1723C13.2977 6.21865 13.2897 6.26529 13.2824 6.31199C13.2775 6.34293 13.2729 6.37393 13.2685 6.40498C13.2619 6.45291 13.2563 6.5009 13.2511 6.54912C13.2478 6.579 13.2443 6.60871 13.2415 6.63871C13.2368 6.69139 13.2332 6.74436 13.23 6.79721C13.2285 6.82287 13.2263 6.84818 13.2252 6.87397C13.2218 6.95248 13.2197 7.03141 13.2197 7.11045V12.6742C13.058 12.9138 12.9106 13.1616 12.7776 13.4163C12.735 13.4978 12.6938 13.5803 12.6544 13.6629C12.65 13.6721 12.6457 13.6812 12.6414 13.6904C12.607 13.7632 12.5736 13.8367 12.5413 13.9107C12.5368 13.921 12.5322 13.9311 12.5277 13.9414C12.496 14.0154 12.4656 14.09 12.4361 14.165C12.4265 14.189 12.4173 14.2132 12.4081 14.2375C12.3849 14.2981 12.3625 14.3592 12.3408 14.4205C12.3302 14.4506 12.3199 14.4806 12.3096 14.5107C12.2901 14.5683 12.2713 14.626 12.2533 14.684C12.2431 14.7165 12.2331 14.7492 12.2233 14.7819C12.2052 14.8427 12.1878 14.9039 12.1711 14.9652C12.1609 15.003 12.1511 15.0408 12.1415 15.0788C12.1292 15.1272 12.1173 15.176 12.1058 15.2245C12.0978 15.2588 12.0899 15.2928 12.0824 15.3271C12.0746 15.3622 12.0678 15.3976 12.0606 15.4329C12.0595 15.4381 12.0585 15.4434 12.0574 15.4487C12.0514 15.4779 12.0449 15.5071 12.0394 15.5362C12.0335 15.5672 12.0282 15.5981 12.0227 15.629C12.0131 15.6827 12.0041 15.7364 11.9957 15.7904C11.9945 15.7983 11.9932 15.8061 11.9919 15.8138C11.9912 15.8185 11.9905 15.8233 11.9898 15.8281C11.9873 15.844 11.9846 15.86 11.9823 15.876C11.9791 15.8988 11.9765 15.9216 11.9736 15.9443C11.968 15.9848 11.9626 16.0253 11.9577 16.0659C11.9562 16.0781 11.9544 16.0902 11.953 16.1026C11.9502 16.1272 11.9477 16.1519 11.9451 16.1765C11.9366 16.2567 11.9291 16.3373 11.923 16.4184C11.9226 16.4232 11.9222 16.4279 11.9218 16.4328C11.9209 16.4438 11.9207 16.455 11.9201 16.4661C11.9154 16.5338 11.9117 16.602 11.9087 16.6701C11.9086 16.6737 11.9083 16.6769 11.9082 16.6803C11.9073 16.7014 11.9066 16.7225 11.9059 16.7436C11.9032 16.8287 11.9012 16.9148 11.9012 17.0005C11.9012 17.0864 11.9032 17.1718 11.9059 17.257C11.9067 17.278 11.9074 17.2998 11.9082 17.3209C11.9083 17.3243 11.9086 17.3277 11.9087 17.331C11.9117 17.3992 11.9154 17.4672 11.9201 17.5351C11.9208 17.5462 11.9211 17.5574 11.9218 17.5684C11.9222 17.5732 11.9227 17.578 11.923 17.5827C11.929 17.6638 11.9366 17.7443 11.9451 17.8246C11.9477 17.8493 11.9502 17.8739 11.953 17.8987C11.9544 17.9109 11.9563 17.923 11.9577 17.9353C11.9626 17.976 11.968 18.0164 11.9736 18.0569C11.9765 18.0797 11.9791 18.1025 11.9823 18.1251C11.9846 18.1411 11.9874 18.1572 11.9898 18.1732C11.9906 18.1778 11.9912 18.1826 11.9919 18.1874C11.9933 18.1952 11.9945 18.2031 11.9957 18.2109C12.0041 18.2647 12.0132 18.3186 12.0227 18.3721C12.0281 18.403 12.0335 18.4342 12.0394 18.4649C12.045 18.4943 12.0515 18.5234 12.0574 18.5526C12.0585 18.5578 12.0595 18.5631 12.0606 18.5683C12.0679 18.6036 12.0747 18.639 12.0824 18.6743C12.0899 18.7086 12.0978 18.7425 12.1058 18.7767C12.1173 18.8253 12.1291 18.874 12.1415 18.9224C12.1511 18.9603 12.1609 18.9982 12.1711 19.0361C12.1878 19.0974 12.2052 19.1586 12.2233 19.2194C12.233 19.2521 12.243 19.2847 12.2533 19.3173C12.2713 19.3752 12.2901 19.4328 12.3096 19.4903C12.3199 19.5205 12.3303 19.5508 12.3409 19.581C12.3626 19.6422 12.3849 19.7031 12.4081 19.7638C12.4175 19.788 12.4266 19.8122 12.4361 19.8365C12.4656 19.9114 12.4959 19.986 12.5278 20.0598C12.5322 20.0702 12.537 20.0805 12.5414 20.0908C12.5736 20.1645 12.6069 20.2378 12.6415 20.3107C12.6457 20.3201 12.65 20.3293 12.6545 20.3386C12.6939 20.4211 12.735 20.5032 12.7775 20.5844C12.9105 20.839 13.0582 21.0875 13.2198 21.3271V26.8906C13.2198 26.9697 13.2219 27.0486 13.2255 27.1272C13.2267 27.1529 13.2289 27.1782 13.2304 27.2038C13.2336 27.2568 13.2371 27.3098 13.2419 27.3624C13.2446 27.3923 13.2482 27.422 13.2514 27.4518C13.2567 27.5001 13.2623 27.5481 13.2689 27.5962C13.2732 27.6271 13.2778 27.6581 13.2827 27.689C13.29 27.7357 13.298 27.7825 13.3065 27.829C13.3122 27.8595 13.318 27.89 13.3242 27.9204C13.3338 27.9679 13.3446 28.0152 13.3557 28.0625C13.3623 28.0909 13.3687 28.1194 13.3758 28.1477C13.389 28.2 13.4035 28.2518 13.4183 28.3034C13.4247 28.326 13.4307 28.3487 13.4374 28.3711C13.4597 28.445 13.4834 28.5186 13.509 28.5912C13.5118 28.5989 13.515 28.6065 13.5177 28.6143C13.5409 28.679 13.5652 28.7434 13.591 28.8074C13.6008 28.8313 13.6115 28.8551 13.6215 28.879C13.6415 28.9263 13.6616 28.9732 13.6831 29.0199C13.6954 29.0469 13.7085 29.0737 13.7215 29.1005C13.7421 29.1435 13.7632 29.1864 13.7851 29.2288C13.7993 29.2563 13.8139 29.2837 13.8285 29.311C13.8509 29.3525 13.8739 29.3936 13.8974 29.4344C13.9127 29.4612 13.9282 29.4878 13.9441 29.5144C13.9693 29.5563 13.9952 29.5974 14.0215 29.6386C14.0372 29.663 14.0525 29.6874 14.0685 29.7116C14.0991 29.7578 14.131 29.8031 14.1632 29.8483C14.1761 29.8664 14.1886 29.8851 14.202 29.9033C14.2469 29.9648 14.293 30.0253 14.3409 30.0849C14.2922 30.1243 14.2428 30.1628 14.1928 30.2ZM14.6796 28.8066C14.651 28.7523 14.6239 28.6973 14.5979 28.6417C14.5901 28.6252 14.5828 28.6084 14.5753 28.5917C14.5575 28.5524 14.5401 28.513 14.5236 28.4732C14.5151 28.4528 14.507 28.4324 14.4989 28.412C14.4841 28.3747 14.4699 28.3372 14.4562 28.2994C14.4486 28.2785 14.441 28.2576 14.4337 28.2368C14.42 28.1968 14.407 28.1566 14.3944 28.1163C14.3887 28.0979 14.3827 28.0795 14.3772 28.061C14.3603 28.0037 14.3445 27.9462 14.33 27.8882L14.3288 27.8837C14.3141 27.8241 14.301 27.7639 14.2889 27.7036C14.2852 27.6849 14.2821 27.666 14.2786 27.6472C14.2708 27.6052 14.2635 27.5631 14.257 27.5209C14.2537 27.4984 14.2506 27.4761 14.2475 27.4536C14.2421 27.4138 14.2373 27.3739 14.2329 27.3337C14.2305 27.3111 14.2281 27.2883 14.2261 27.2655C14.2223 27.223 14.2193 27.1804 14.2168 27.138C14.2156 27.118 14.2141 27.0983 14.2131 27.0784C14.2104 27.0159 14.2087 26.9535 14.2087 26.8906V22.5307C14.2117 22.534 14.2147 22.5372 14.2176 22.5405C14.246 22.5727 14.2729 22.6059 14.3006 22.6386C14.9965 23.4626 15.4816 24.4367 15.7089 25.4653C15.7279 25.551 15.7448 25.637 15.7601 25.723C15.7629 25.7389 15.7652 25.7547 15.7678 25.7705C15.7802 25.8429 15.7915 25.9152 15.8014 25.9878C15.8055 26.0194 15.8086 26.0511 15.8124 26.0827C15.8194 26.142 15.8266 26.2015 15.8318 26.2609C15.8361 26.3088 15.8387 26.3567 15.8418 26.4046C15.8448 26.449 15.8486 26.4931 15.8506 26.5378C15.8547 26.6317 15.8571 26.7257 15.8571 26.8199V26.8905C15.8571 26.9537 15.8554 27.0167 15.8525 27.0794C15.8516 27.1002 15.85 27.121 15.8488 27.1417C15.8462 27.1837 15.8434 27.2254 15.8396 27.2669C15.8374 27.2915 15.8349 27.316 15.8322 27.3405C15.8281 27.3784 15.8234 27.4162 15.8182 27.4541C15.8148 27.4793 15.8114 27.5047 15.8075 27.5298C15.8017 27.5679 15.7949 27.6056 15.7879 27.6435C15.7835 27.6672 15.7796 27.691 15.7749 27.7146C15.7634 27.7715 15.7507 27.8281 15.7369 27.8842C15.7302 27.9112 15.7226 27.9378 15.7153 27.9647C15.7068 27.9964 15.6983 28.0283 15.6891 28.0599C15.6801 28.0902 15.6705 28.1203 15.6608 28.1504C15.652 28.1779 15.643 28.2055 15.6336 28.2328C15.6229 28.2638 15.612 28.2949 15.6005 28.3256C15.591 28.3514 15.5809 28.3767 15.571 28.4022C15.5586 28.4337 15.5463 28.4651 15.5331 28.4961C15.5232 28.5198 15.5125 28.543 15.502 28.5664C15.4747 28.6277 15.4458 28.6884 15.4155 28.7484C15.4053 28.7685 15.3956 28.7887 15.3851 28.8085C15.3689 28.8392 15.3518 28.8694 15.335 28.8996C15.322 28.9227 15.3092 28.9457 15.2958 28.9685C15.2788 28.9977 15.2611 29.0267 15.2431 29.0554C15.2286 29.0789 15.214 29.1023 15.1988 29.1255C15.1809 29.1533 15.1626 29.1811 15.1439 29.2086C15.1274 29.2328 15.1102 29.2565 15.0933 29.2804C15.0747 29.3063 15.0564 29.3324 15.0372 29.3579C15.0361 29.3596 15.0347 29.3612 15.0334 29.3629C15.0263 29.3533 15.0188 29.3441 15.0119 29.3346C14.9986 29.3167 14.9856 29.2986 14.9727 29.2804C14.9492 29.2475 14.9262 29.2142 14.9037 29.1808C14.8912 29.1621 14.8787 29.1435 14.8665 29.1245C14.8435 29.0891 14.8213 29.0533 14.7995 29.0171C14.7895 29.0004 14.7789 28.9839 14.7691 28.9669C14.7398 28.9168 14.7114 28.8663 14.6843 28.815C14.6828 28.8122 14.6812 28.8095 14.6796 28.8066ZM22.4506 26.82V26.8906C22.4506 29.1628 20.6019 31.0115 18.3297 31.0115H14.7596C14.7622 31.0096 14.7647 31.0076 14.7672 31.0057C14.7796 30.9965 14.7915 30.9869 14.8038 30.9776C14.8524 30.941 14.9005 30.9036 14.9479 30.8652C14.9675 30.8492 14.9869 30.833 15.0062 30.8169C15.0479 30.7821 15.089 30.7468 15.1295 30.7105C15.1475 30.6947 15.1653 30.679 15.183 30.6627C15.2393 30.6112 15.2951 30.5587 15.3493 30.5045C15.3613 30.4924 15.3737 30.4797 15.3852 30.4677L15.3863 30.4667L15.3888 30.4642C15.3902 30.4627 15.393 30.4599 15.393 30.4599L15.3951 30.4574C15.4114 30.4407 15.4267 30.4233 15.4427 30.4064C15.4773 30.3698 15.5122 30.3336 15.5455 30.2962C15.5667 30.2727 15.5869 30.2484 15.6075 30.2243C15.642 30.1844 15.6766 30.1445 15.7097 30.1038C15.7274 30.0819 15.7442 30.0596 15.7613 30.0375C15.7959 29.9934 15.8304 29.9494 15.8635 29.9044C15.8775 29.8853 15.8907 29.8656 15.9044 29.8463C15.9392 29.7975 15.9738 29.7486 16.0067 29.6988C16.0172 29.6827 16.0271 29.6663 16.0374 29.6502C16.0721 29.5965 16.1063 29.5425 16.1388 29.4876C16.1465 29.4746 16.1536 29.4614 16.1611 29.4483C16.1952 29.3897 16.2285 29.3308 16.26 29.271C16.2651 29.2613 16.2697 29.2514 16.2748 29.2417C16.3078 29.1782 16.3399 29.1142 16.3701 29.0496C16.3732 29.0428 16.376 29.0358 16.3792 29.0291C16.4104 28.9612 16.4406 28.893 16.4687 28.8238C16.4707 28.819 16.4725 28.8139 16.4745 28.8089C16.5033 28.7379 16.5307 28.6663 16.5561 28.5941C16.5576 28.59 16.5587 28.586 16.5602 28.5818C16.5859 28.5087 16.6101 28.4349 16.6323 28.3605C16.6337 28.3561 16.6346 28.3517 16.636 28.3473C16.6579 28.2732 16.6785 28.1986 16.6971 28.1233C16.6987 28.1166 16.7 28.1098 16.7016 28.1031C16.7193 28.0301 16.7359 27.9568 16.7502 27.8829C16.7526 27.8708 16.7543 27.8586 16.7566 27.8465C16.7695 27.7777 16.7818 27.7088 16.7919 27.6394C16.7951 27.618 16.797 27.5966 16.7998 27.5751C16.8078 27.5145 16.816 27.4537 16.8219 27.3926C16.8255 27.3558 16.8273 27.3187 16.83 27.2817C16.8336 27.2355 16.8379 27.1895 16.8401 27.1431C16.8442 27.0592 16.8463 26.975 16.8463 26.8904V26.8199C16.8463 26.7885 16.8461 26.7571 16.8457 26.7256H22.4513C22.4508 26.7572 22.4506 26.7888 22.4506 26.82ZM16.7655 25.7368C16.6747 25.1294 16.5075 24.5372 16.2695 23.9711C17.2912 24.4684 18.4378 24.7478 19.6484 24.7478C20.8612 24.7478 22.0095 24.4674 23.0328 23.9684C22.7936 24.5362 22.6237 25.1301 22.5319 25.7368H16.7655ZM27.5604 17.8247H27.3521C27.3528 17.8179 27.3535 17.8111 27.3541 17.8045C27.3573 17.7728 27.3599 17.7411 27.3628 17.7093C27.3643 17.6947 27.3657 17.6802 27.367 17.6655C27.3677 17.6569 27.3683 17.6482 27.3691 17.6396C27.3732 17.5906 27.3765 17.5414 27.3796 17.4921C27.3801 17.4833 27.3808 17.4746 27.3813 17.4657C27.3817 17.4607 27.3819 17.4558 27.3822 17.4508C27.3857 17.3908 27.3884 17.3304 27.3904 17.27C27.3906 17.2661 27.3908 17.2622 27.3909 17.2585C27.391 17.2564 27.391 17.2543 27.3912 17.2523C27.3938 17.1685 27.3957 17.0849 27.3957 17.0005C27.3957 16.9163 27.3938 16.8325 27.3912 16.7488C27.3911 16.7468 27.391 16.7448 27.3909 16.7426C27.3908 16.7389 27.3906 16.7351 27.3904 16.7312C27.3884 16.6707 27.3857 16.6104 27.3822 16.5503C27.3819 16.5454 27.3817 16.5404 27.3813 16.5354C27.3808 16.5266 27.3801 16.5179 27.3796 16.509C27.3765 16.4598 27.3732 16.4106 27.3691 16.3616C27.3684 16.353 27.3677 16.3442 27.367 16.3356C27.3657 16.3209 27.3643 16.3064 27.3628 16.2918C27.3599 16.2602 27.3573 16.2283 27.3541 16.1968C27.3535 16.1899 27.3528 16.1832 27.3521 16.1764H27.5604C28.0149 16.1764 28.3846 16.546 28.3846 17.0005C28.3846 17.4551 28.0149 17.8247 27.5604 17.8247Z" fill="#5D5342"/>
<path d="M24.4286 17.0005C24.4286 18.4589 23.7751 19.8191 22.6358 20.7324C21.7806 21.4183 20.7476 21.7808 19.6484 21.7808C18.5492 21.7808 17.5162 21.4183 16.661 20.7323C15.5216 19.8191 14.8682 18.4589 14.8682 17.0005C14.8682 15.5422 15.5216 14.182 16.661 13.2686C17.5162 12.5829 18.5491 12.2203 19.6483 12.2203C20.522 12.2203 21.3764 12.458 22.1193 12.9076C22.353 13.0491 22.657 12.9743 22.7984 12.7407C22.9398 12.5071 22.8651 12.2029 22.6315 12.0615C21.7341 11.5184 20.7026 11.2313 19.6483 11.2313C18.3407 11.2313 17.06 11.6809 16.0424 12.4972C14.6676 13.599 13.8792 15.2405 13.8792 17.0005C13.8792 18.7606 14.6676 20.4021 16.0423 21.5039C17.0601 22.3202 18.3407 22.7697 19.6484 22.7697C20.9561 22.7697 22.2367 22.3202 23.2544 21.504C24.6292 20.402 25.4176 18.7606 25.4176 17.0005C25.4176 16.9272 25.4161 16.8543 25.4134 16.7817C25.4034 16.5087 25.1749 16.2955 24.9009 16.306C24.6279 16.3161 24.415 16.5456 24.4252 16.8186C24.4275 16.8789 24.4286 16.9396 24.4286 17.0005Z" fill="#5D5342"/>
<path d="M19.6483 13.8686C19.3752 13.8686 19.1538 14.09 19.1538 14.3632V17.6599C19.1538 17.933 19.3752 18.1544 19.6483 18.1544H21.6263C21.8995 18.1544 22.1209 17.933 22.1209 17.6599C22.1209 17.3868 21.8995 17.1653 21.6263 17.1653H20.1428V14.3632C20.1429 14.09 19.9214 13.8686 19.6483 13.8686Z" fill="#5D5342"/>
</g>
<defs>
<filter id="filter0_d" x="-3" y="0.000488281" width="42" height="42" filterUnits="userSpaceOnUse" color-interpolation-filters="sRGB">
<feFlood flood-opacity="0" result="BackgroundImageFix"/>
<feColorMatrix in="SourceAlpha" type="matrix" values="0 0 0 0 0 0 0 0 0 0 0 0 0 0 0 0 0 0 127 0"/>
<feOffset dy="4"/>
<feGaussianBlur stdDeviation="3"/>
<feColorMatrix type="matrix" values="0 0 0 0 0.980392 0 0 0 0 0.654902 0 0 0 0 0.0980392 0 0 0 0.32 0"/>
<feBlend mode="normal" in2="BackgroundImageFix" result="effect1_dropShadow"/>
<feBlend mode="normal" in="SourceGraphic" in2="effect1_dropShadow" result="shape"/>
</filter>
<clipPath id="clip0">
<rect width="30" height="30" fill="white" transform="translate(3 2.00049)"/>
</clipPath>
</defs>
</svg>
