<svg width="52" height="45" viewBox="0 0 52 45" fill="none" xmlns="http://www.w3.org/2000/svg">
<g clip-path="url(#clip0)" filter="url(#filter0_d)">
<ellipse cx="18.8571" cy="29.0481" rx="5.2381" ry="5.23809" fill="#71CE6A"/>
<circle cx="37.4286" cy="27.6195" r="7.61905" fill="#FFE8A5"/>
<path fill-rule="evenodd" clip-rule="evenodd" d="M38.4286 20.0655C34.6933 20.5552 31.8096 23.7506 31.8096 27.6195C31.8096 31.4885 34.6933 34.6839 38.4286 35.1735C38.1014 35.2164 37.7676 35.2386 37.4286 35.2386C33.2207 35.2386 29.8096 31.8274 29.8096 27.6195C29.8096 23.4117 33.2207 20.0005 37.4286 20.0005C37.7676 20.0005 38.1014 20.0226 38.4286 20.0655Z" fill="#D5C187"/>
<ellipse cx="12.1905" cy="30.0005" rx="5.23809" ry="5.23809" fill="#71CE6A"/>
<path fill-rule="evenodd" clip-rule="evenodd" d="M13.1902 24.8576C10.7756 25.3243 8.95215 27.4494 8.95215 30.0003C8.95215 32.5512 10.7756 34.6763 13.1902 35.1431C12.8665 35.2056 12.5322 35.2384 12.1902 35.2384C9.29732 35.2384 6.95215 32.8932 6.95215 30.0003C6.95215 27.1074 9.29732 24.7622 12.1902 24.7622C12.5322 24.7622 12.8665 24.795 13.1902 24.8576Z" fill="#61B15B"/>
<path d="M37.3352 18.6578C36.2784 18.6596 35.2313 18.8561 34.2459 19.2372L32.4169 15.3754C32.2772 15.0865 32.3678 14.7387 32.6308 14.5547L36.178 12.0201C38.0549 11.8941 39.3713 10.3647 39.8402 7.65649C39.936 7.10032 39.7902 6.52982 39.439 6.08805C39.0879 5.64629 38.565 5.37538 38.0015 5.34334V5.3287C38.0009 4.59284 37.4044 3.9964 36.6686 3.99579H34.0028C33.2669 3.9964 32.6704 4.59284 32.6698 5.3287V6.66161C32.6704 7.39747 33.2669 7.99391 34.0028 7.99452H36.6686C37.3922 7.993 37.9826 7.41425 37.9984 6.6909C38.1467 6.71531 38.2822 6.78975 38.3825 6.90141C38.507 7.04693 38.5601 7.24066 38.5268 7.4292C38.1729 9.47326 37.3706 10.5572 36.1554 10.6854C36.0438 10.6585 35.9269 10.6613 35.8168 10.6939C35.6926 10.6942 35.5684 10.686 35.4455 10.6695C34.3097 10.5505 33.2736 9.96781 32.5823 9.05896C31.811 8.03388 30.6194 7.41059 29.3374 7.36147V7.32791C29.3368 6.59205 28.7404 5.99592 28.0045 5.995H24.0058C23.2699 5.99592 22.6735 6.59205 22.6728 7.32791V8.66083C22.6735 9.39669 23.2699 9.99313 24.0058 9.99404H28.0045C28.7272 9.99252 29.317 9.4156 29.3341 8.69316C30.2362 8.74228 31.0657 9.20265 31.584 9.94248C32.2674 10.8077 33.2016 11.4404 34.2587 11.7535L31.8577 13.4686C31.0648 14.0266 30.7924 15.077 31.2146 15.9499L31.6881 16.9503C28.2693 18.2325 25.1446 20.1921 22.5014 22.7112L21.375 19.322C21.9541 19.0739 22.5896 18.9876 23.2138 19.0724C23.8569 19.1124 24.4796 18.8363 24.8817 18.3326C25.3286 17.5723 25.44 16.6604 25.1889 15.815C25.1093 15.5258 24.8463 15.3254 24.5464 15.3257H14.5494C14.3258 15.3257 14.1171 15.4377 13.9938 15.6241C13.1274 16.932 13.1256 18.264 13.9896 19.279C14.8767 20.2006 16.1139 20.7016 17.3925 20.6564C18.1146 20.6607 18.8291 20.5118 19.4896 20.2201C19.7462 20.1039 19.964 20.002 20.1648 19.9068L21.2786 23.2573C18.956 22.1281 16.1709 22.6212 14.3767 24.4788C11.5907 23.2762 8.3452 24.344 6.81673 26.9656C5.28856 29.5871 5.95853 32.9373 8.37784 34.7693C10.7969 36.6013 14.2031 36.3386 16.3125 34.157C18.9536 35.3001 22.034 34.4014 23.6458 32.0171C25.2575 29.6332 24.9439 26.4393 22.8986 24.4147C22.9346 24.319 22.9477 24.2161 22.9367 24.1148C26.142 21.1406 29.2746 19.1444 32.2626 18.1633L33.0411 19.8071C29.2743 21.9707 27.6961 26.5924 29.3536 30.6079C31.0108 34.6235 35.389 36.7871 39.5855 35.6641C43.7819 34.5408 46.4944 30.4798 45.9245 26.1733C45.3546 21.8667 41.6793 18.6508 37.3352 18.6578ZM36.6686 6.66161H34.0028V5.3287H36.6686V6.66161ZM28.0045 8.66083H24.0058V7.32791H28.0045V8.66083ZM18.6741 23.9898C19.367 23.9892 20.051 24.1457 20.6746 24.4471C20.0836 25.0402 19.493 25.6558 18.8858 26.3352L18.8822 26.3389L18.8782 26.3435C18.3815 26.8957 17.955 27.3921 17.595 27.818C17.1832 26.7651 16.483 25.8496 15.5751 25.1759C16.4256 24.4111 17.5297 23.9882 18.6741 23.9898ZM12.0093 34.6531C9.56126 34.654 7.52879 32.7625 7.35429 30.3206C7.17978 27.8787 8.92211 25.7171 11.3454 25.37C13.769 25.0225 16.0486 26.6071 16.5669 28.9999C16.5443 29.0185 16.5294 29.0398 16.5031 29.0584C16.2762 29.2299 15.9994 29.322 15.7148 29.3214H14.5805C14.258 28.0684 13.0832 27.2276 11.793 27.3268C10.5031 27.4256 9.47035 28.4361 9.34282 29.7235C9.2153 31.011 10.0302 32.2045 11.2758 32.5544C12.5212 32.9043 13.8382 32.31 14.4002 31.1446C14.4121 31.1251 14.4231 31.1052 14.4328 31.0845C14.4942 30.9457 14.5439 30.8017 14.5805 30.6543H15.7148C16.0339 30.6522 16.35 30.593 16.6481 30.4789C16.3939 32.8506 14.3944 34.65 12.0093 34.6531ZM18.6741 33.3201C18.1561 33.3177 17.642 33.2286 17.1536 33.0566C17.5014 32.4809 17.7491 31.8499 17.8861 31.1913C19.0887 31.5711 20.3923 31.0525 21.0053 29.9502C21.6182 28.8482 21.3711 27.4668 20.414 26.6458C20.8796 26.1409 21.343 25.6598 21.8046 25.2016C23.2351 26.4954 23.7211 28.5364 23.0271 30.3358C22.3333 32.1355 20.6029 33.3217 18.6741 33.3201ZM37.3352 34.6531C34.0302 34.6564 31.1325 32.4455 30.2624 29.257C29.3923 26.0689 30.7655 22.6925 33.6138 21.0167L35.6356 25.2855C34.6166 26.1491 34.3984 27.6355 35.1261 28.7555C35.8537 29.8757 37.3007 30.2803 38.504 29.7003C39.7072 29.1201 40.2918 27.7362 39.8686 26.4692C39.4454 25.2022 38.1464 24.4474 36.8361 24.7067L34.8179 20.4456C37.5667 19.4385 40.6508 20.164 42.6623 22.2908C44.674 24.4172 45.2265 27.5373 44.0681 30.2254C42.9097 32.9138 40.2625 34.6546 37.3352 34.6531Z" fill="#7D6D6D"/>
</g>
<defs>
<filter id="filter0_d" x="0" y="-2.99951" width="52" height="52" filterUnits="userSpaceOnUse" color-interpolation-filters="sRGB">
<feFlood flood-opacity="0" result="BackgroundImageFix"/>
<feColorMatrix in="SourceAlpha" type="matrix" values="0 0 0 0 0 0 0 0 0 0 0 0 0 0 0 0 0 0 127 0"/>
<feOffset dy="3"/>
<feGaussianBlur stdDeviation="3"/>
<feColorMatrix type="matrix" values="0 0 0 0 0.490196 0 0 0 0 0.427451 0 0 0 0 0.427451 0 0 0 0.438 0"/>
<feBlend mode="normal" in2="BackgroundImageFix" result="effect1_dropShadow"/>
<feBlend mode="normal" in="SourceGraphic" in2="effect1_dropShadow" result="shape"/>
</filter>
<clipPath id="clip0">
<rect width="40" height="40" fill="white" transform="translate(6 0.000488281)"/>
</clipPath>
</defs>
</svg>
