<svg width="51" height="51" viewBox="0 0 51 51" fill="none" xmlns="http://www.w3.org/2000/svg">
<g clip-path="url(#clip0)" filter="url(#filter0_d)">
<path d="M44.371 7.46009C44.719 7.46009 45 7.17906 45 6.83106V6.20203C45 5.85404 44.719 5.573 44.371 5.573C44.023 5.573 43.7419 5.85404 43.7419 6.20203V6.83106C43.7419 7.17906 44.023 7.46009 44.371 7.46009Z" fill="#CCD1D9"/>
<path d="M39.34 7.46013C39.688 7.46013 39.969 7.17909 39.969 6.83109V6.20206C39.969 5.85407 39.688 5.57303 39.34 5.57303C38.9923 5.57303 38.7109 5.85407 38.7109 6.20206V6.83109C38.7109 7.17909 38.9923 7.46013 39.34 7.46013Z" fill="#CCD1D9"/>
<path d="M34.3126 7.46013C34.6606 7.46013 34.9417 7.17909 34.9417 6.83109V6.20206C34.9417 5.85407 34.6606 5.57303 34.3126 5.57303C33.9649 5.57303 33.6836 5.85407 33.6836 6.20206V6.83109C33.6836 7.17909 33.9649 7.46013 34.3126 7.46013Z" fill="#CCD1D9"/>
<path d="M29.2867 7.46013C29.6347 7.46013 29.9158 7.17909 29.9158 6.83109V6.20206C29.9158 5.85407 29.6347 5.57303 29.2867 5.57303C28.9387 5.57303 28.6577 5.85407 28.6577 6.20206V6.83109C28.6577 7.17909 28.9387 7.46013 29.2867 7.46013Z" fill="#CCD1D9"/>
<path d="M41.232 35.1376V42.0569H43.7419L44.371 41.4291V31.9985C42.635 32.005 41.2384 33.4016 41.2384 35.1376H41.232Z" fill="#5D9CEC"/>
<path d="M41.8548 31.9985H41.2258C39.496 31.9985 38.0868 33.4016 38.0868 35.1376H38.0806V42.0569H41.232V35.1376H41.2384C41.2384 33.4016 42.6356 32.005 44.371 31.9985H41.8548Z" fill="#4A89DC"/>
<path d="M38.0807 31.9985C36.3447 31.9985 34.9417 33.4016 34.9417 35.1376H34.9355V41.4291L35.5645 42.0569H38.0807V35.1376H38.0868C38.0868 33.4016 39.496 31.9985 41.2258 31.9985H38.0807Z" fill="#5D9CEC"/>
<path d="M41.8549 31.9986C37.6851 31.9986 34.3003 28.6215 34.3003 24.444H34.3126V8.08798H25L29.2742 21.9341C32 27.5005 33.7782 31.9986 39.3387 31.9986H41.8549Z" fill="#5D9CEC"/>
<path d="M34.3003 24.444C34.3003 28.6215 37.685 31.9986 41.8548 31.9986H44.371C41.5842 31.9924 39.3387 29.7469 39.3387 26.9602H39.3513V8.08798H34.3126V24.444H34.3003Z" fill="#4A89DC"/>
<path d="M39.3513 26.9602H39.3387C39.3387 29.7469 41.5842 31.9924 44.371 31.9986V8.08798H39.3513V26.9602Z" fill="#5D9CEC"/>
<path d="M45 8.00049H25V9.00049H45V8.00049Z" fill="#E6E9ED"/>
<path d="M36.1859 31.3695H44.371V32.6276H36.1859C35.8382 32.6276 35.5568 32.3466 35.5568 31.9986C35.5568 31.6509 35.8388 31.3695 36.1859 31.3695Z" fill="#E6E9ED"/>
<path d="M34.9355 41.428C34.9355 41.7754 35.2172 42.057 35.5646 42.057C35.912 42.057 36.1936 41.7754 36.1936 41.428C36.1936 41.0806 35.912 40.799 35.5646 40.799C35.2172 40.799 34.9355 41.0806 34.9355 41.428Z" fill="#5D9CEC"/>
<path d="M43.1129 41.428C43.1129 41.7754 43.3946 42.057 43.7419 42.057C44.0893 42.057 44.371 41.7754 44.371 41.428C44.371 41.0806 44.0893 40.799 43.7419 40.799C43.3946 40.799 43.1129 41.0806 43.1129 41.428Z" fill="#5D9CEC"/>
<path d="M6.62902 7.46009C6.28103 7.46009 5.99999 7.17906 5.99999 6.83106V6.20203C5.99999 5.85404 6.28103 5.573 6.62902 5.573C6.97702 5.573 7.25806 5.85404 7.25806 6.20203V6.83106C7.25806 7.17906 6.97702 7.46009 6.62902 7.46009Z" fill="#CCD1D9"/>
<path d="M11.66 7.46009C11.312 7.46009 11.031 7.17906 11.031 6.83106V6.20203C11.031 5.85404 11.312 5.573 11.66 5.573C12.0077 5.573 12.2891 5.85404 12.2891 6.20203V6.83106C12.2891 7.17906 12.0077 7.46009 11.66 7.46009Z" fill="#CCD1D9"/>
<path d="M16.6874 7.46009C16.3394 7.46009 16.0583 7.17906 16.0583 6.83106V6.20203C16.0583 5.85404 16.3394 5.573 16.6874 5.573C17.0351 5.573 17.3164 5.85404 17.3164 6.20203V6.83106C17.3164 7.17906 17.0351 7.46009 16.6874 7.46009Z" fill="#CCD1D9"/>
<path d="M21.7133 7.46009C21.3653 7.46009 21.0842 7.17906 21.0842 6.83106V6.20203C21.0842 5.85404 21.3653 5.573 21.7133 5.573C22.0612 5.573 22.3423 5.85404 22.3423 6.20203V6.83106C22.3423 7.17906 22.0612 7.46009 21.7133 7.46009Z" fill="#CCD1D9"/>
<path d="M9.76807 35.1376V42.0569H7.25808L6.62905 41.4291V31.9985C8.36503 32.005 9.76162 33.4016 9.76162 35.1376H9.76807Z" fill="#5D9CEC"/>
<path d="M9.14512 31.9985H9.77415C11.504 31.9985 12.9132 33.4016 12.9132 35.1376H12.9193V42.0569H9.76801V35.1376H9.76156C9.76156 33.4016 8.36436 32.005 6.62899 31.9985H9.14512Z" fill="#4A89DC"/>
<path d="M12.9193 31.9985C14.6553 31.9985 16.0583 33.4016 16.0583 35.1376H16.0645V41.4291L15.4354 42.0569H12.9193V35.1376H12.9131C12.9131 33.4016 11.504 31.9985 9.77413 31.9985H12.9193Z" fill="#5D9CEC"/>
<path d="M9.14515 31.9986C13.315 31.9986 16.6997 28.6215 16.6997 24.444H16.6874V8.08798H25L21.7258 21.9341C19.5 27.5005 17.2218 31.9986 11.6613 31.9986H9.14515Z" fill="#5D9CEC"/>
<path d="M16.6997 24.444C16.6997 28.6215 13.315 31.9986 9.14518 31.9986H6.62905C9.41577 31.9924 11.6613 29.7469 11.6613 26.9602H11.6487V8.08798H16.6874V24.444H16.6997Z" fill="#4A89DC"/>
<path d="M11.6487 26.9602H11.6613C11.6613 29.7469 9.41572 31.9924 6.629 31.9986V8.08798H11.6487V26.9602Z" fill="#5D9CEC"/>
<path d="M25 8.00049H6V9.00049H25V8.00049Z" fill="#E6E9ED"/>
<path d="M14.8141 31.3695H6.62898V32.6276H14.8141C15.1618 32.6276 15.4431 32.3466 15.4431 31.9986C15.4431 31.6509 15.1612 31.3695 14.8141 31.3695Z" fill="#E6E9ED"/>
<path d="M14.8064 41.428C14.8064 41.7754 15.088 42.057 15.4354 42.057C15.7828 42.057 16.0645 41.7754 16.0645 41.428C16.0645 41.0806 15.7828 40.799 15.4354 40.799C15.088 40.799 14.8064 41.0806 14.8064 41.428Z" fill="#5D9CEC"/>
<path d="M6.62902 41.428C6.62902 41.7754 6.91067 42.057 7.25805 42.057C7.60543 42.057 7.88708 41.7754 7.88708 41.428C7.88708 41.0806 7.60543 40.799 7.25805 40.799C6.91067 40.799 6.62902 41.0806 6.62902 41.428Z" fill="#5D9CEC"/>
<path d="M6 4.94409V6.83119H45V4.94409H6Z" fill="#7E7E7E"/>
<path d="M6.5 9.00049V31.0005V33.0005V42.5005H16C16 41.0005 16 39.5005 16 37.5005C16 34.4591 15 32.5005 15 32.5005" stroke="#2B60A5" stroke-linecap="round"/>
<path d="M25.5 9.50049C26.5 12.6672 28.6 19.2005 29 20.0005C29.5 21.0005 31 25.0005 32 27.0005C33 29.0005 35.5 31.0005 37 31.0005C36.5 31.1672 36 31.0005 36 32.0005C36 32.5005 36.6667 32.5005 37 32.5005C36.3333 32.6672 35 33.3005 35 34.5005C35 35.7005 34.6667 40.0005 34.5 42.0005H44" stroke="#2B60A5" stroke-linecap="round"/>
<path d="M45 9.00049C45 8.72435 44.7761 8.50049 44.5 8.50049C44.2239 8.50049 44 8.72435 44 9.00049H45ZM44 42.0005C44 42.2766 44.2239 42.5005 44.5 42.5005C44.7761 42.5005 45 42.2766 45 42.0005H44ZM44 9.00049V42.0005H45V9.00049H44Z" fill="#2B60A5"/>
<path d="M25.482 9.13345C25.5554 8.86725 25.3992 8.59193 25.133 8.51849C24.8668 8.44506 24.5914 8.60132 24.518 8.86752L25.482 9.13345ZM21 23.5005L21.4596 23.6974L21.473 23.6662L21.482 23.6335L21 23.5005ZM15.5 31.5005L15.2428 31.0717C15.05 31.1874 14.9582 31.4174 15.0181 31.634C15.0781 31.8505 15.2753 32.0005 15.5 32.0005V31.5005ZM15 32.0005C14.7239 32.0005 14.5 32.2243 14.5 32.5005C14.5 32.7766 14.7239 33.0005 15 33.0005V32.0005ZM24.518 8.86752L20.518 23.3675L21.482 23.6335L25.482 9.13345L24.518 8.86752ZM20.5404 23.3035C20.0359 24.4808 19.3536 26.0687 18.584 27.2231L19.416 27.7778C20.2464 26.5323 20.9641 24.8535 21.4596 23.6974L20.5404 23.3035ZM18.584 27.2231C18.1973 27.8031 17.5432 28.6624 16.8819 29.4388C16.5518 29.8262 16.2247 30.1875 15.9324 30.4797C15.6319 30.7802 15.3952 30.9803 15.2428 31.0717L15.7572 31.9292C16.0215 31.7707 16.3306 31.4957 16.6395 31.1869C16.9566 30.8698 17.3023 30.4873 17.6431 30.0872C18.3234 29.2886 19.0027 28.3978 19.416 27.7778L18.584 27.2231ZM15.5 32.0005C15.4644 32.0005 15.4221 31.9919 15.3808 31.9703C15.3405 31.9493 15.3133 31.9223 15.2969 31.9005C15.2673 31.861 15.2742 31.8423 15.2754 31.8713C15.2777 31.9265 15.2512 32.0422 15.1464 32.1469L15.8536 32.854C16.1488 32.5588 16.2889 32.1745 16.2746 31.8297C16.2674 31.6587 16.2202 31.4649 16.0969 31.3005C15.9634 31.1225 15.7533 31.0005 15.5 31.0005V32.0005ZM15.1464 32.1469C15.095 32.1983 15.0613 32.2321 15.0369 32.2556C15.0249 32.2672 15.0185 32.2731 15.0158 32.2755C15.0116 32.2792 15.0195 32.2718 15.0351 32.2608C15.0434 32.2549 15.0588 32.2446 15.0798 32.2334C15.0999 32.2227 15.1348 32.206 15.1815 32.1939C15.2292 32.1814 15.2991 32.1712 15.3816 32.1845C15.4686 32.1985 15.5467 32.2351 15.6102 32.2858C15.6695 32.3333 15.7054 32.3845 15.7256 32.4188C15.7456 32.4529 15.7569 32.4819 15.7623 32.4968C15.7679 32.5124 15.7712 32.5243 15.7721 32.5277C15.7731 32.5311 15.7737 32.5336 15.7726 32.5292C15.7697 32.5179 15.7554 32.4555 15.7218 32.3866C15.6854 32.312 15.6292 32.2335 15.5452 32.1663C15.3809 32.0349 15.1806 32.0005 15 32.0005V33.0005C15.0694 33.0005 15.0066 33.0161 14.9205 32.9472C14.8212 32.8678 14.7995 32.76 14.8024 32.7718C14.8029 32.7736 14.805 32.782 14.8074 32.7908C14.8098 32.7996 14.8145 32.8164 14.8217 32.8364C14.8303 32.86 14.8704 32.9746 14.9855 33.0667C15.1389 33.1894 15.3147 33.1925 15.4335 33.1616C15.526 33.1375 15.5904 33.0928 15.6118 33.0777C15.661 33.043 15.7061 32.9995 15.7315 32.975C15.7637 32.9439 15.805 32.9026 15.8536 32.854L15.1464 32.1469Z" fill="#2B60A5"/>
</g>
<defs>
<filter id="filter0_d" x="0" y="0.000488281" width="51" height="51" filterUnits="userSpaceOnUse" color-interpolation-filters="sRGB">
<feFlood flood-opacity="0" result="BackgroundImageFix"/>
<feColorMatrix in="SourceAlpha" type="matrix" values="0 0 0 0 0 0 0 0 0 0 0 0 0 0 0 0 0 0 127 0"/>
<feOffset dy="2"/>
<feGaussianBlur stdDeviation="3"/>
<feColorMatrix type="matrix" values="0 0 0 0 0.364706 0 0 0 0 0.611765 0 0 0 0 0.92549 0 0 0 0.608 0"/>
<feBlend mode="normal" in2="BackgroundImageFix" result="effect1_dropShadow"/>
<feBlend mode="normal" in="SourceGraphic" in2="effect1_dropShadow" result="shape"/>
</filter>
<clipPath id="clip0">
<rect width="39" height="39" fill="white" transform="matrix(-1 0 0 1 45 4.00049)"/>
</clipPath>
</defs>
</svg>
