<svg width="38" height="38" viewBox="0 0 38 38" fill="none" xmlns="http://www.w3.org/2000/svg">
<g clip-path="url(#clip0)">
<path d="M8.83724 12.8144H13.6977V17.2331L12.3721 16.7912H11.0465L9.72096 18.1168V20.3261L11.4884 21.2098L13.6977 20.7679V25.6284H8.83724L9.72096 26.5121L9.2791 28.7214L7.51166 29.6051L5.74422 29.1633L4.8605 27.3958L5.30236 25.6284H0.441895V22.0935L1.32562 21.2098L3.53492 20.7679L4.8605 19.4424L3.97678 17.2331L3.09306 16.7912L2.20934 16.3493L0.883755 17.2331V12.3726H5.30236L4.8605 11.4889V10.1633L5.30236 8.8377L7.0698 8.39584L8.83724 8.8377L9.2791 10.6051L8.83724 12.8144Z" fill="#FFE8A5"/>
<path d="M20.7675 16.7912V11.9307H25.1861L24.7442 13.2563V14.5819L26.0698 15.9075H28.2791L29.1628 14.14L28.721 11.9307L33.5814 11.9307V16.7912L34.4652 15.9075L36.6745 16.3493L37.5582 18.1168L37.1163 19.8842L35.3489 20.7679L33.5814 20.3261V25.1865H30.0466L29.1628 24.3028L28.721 22.0935L27.3954 20.7679L25.1861 21.6517L24.7442 22.5354L24.3024 23.4191L25.1861 24.7447H20.3256V20.3261L19.4419 20.7679H18.1163L16.7907 20.3261L16.3489 18.5586L16.7907 16.7912L18.5582 16.3493L20.7675 16.7912Z" fill="#5D9CEC"/>
<g filter="url(#filter0_d)">
<path d="M13.0616 17.6647C13.1602 17.7435 13.2498 17.8332 13.3287 17.9318C13.5618 18.2224 13.9864 18.269 14.2769 18.0359C14.4373 17.9072 14.5302 17.7124 14.5294 17.5069V12.4142C14.5294 12.0417 14.2274 11.7396 13.8548 11.7396C13.8526 11.7396 13.8503 11.7396 13.8481 11.7396H10.0842C10.2404 11.3681 10.3206 10.969 10.3203 10.566C10.241 8.87652 8.80708 7.57131 7.11763 7.65065C5.53932 7.72476 4.27643 8.98757 4.20232 10.566C4.20198 10.969 4.28225 11.3681 4.43841 11.7396H0.674535C0.302027 11.7396 6.37032e-06 12.0417 6.37032e-06 12.4142V17.5136C-0.00159564 17.8861 0.29916 18.1894 0.671668 18.191C0.877231 18.1918 1.072 18.0989 1.20067 17.9386C1.78928 17.1977 2.86701 17.0742 3.60789 17.6628C4.34878 18.2515 4.47222 19.3292 3.88361 20.0701C3.295 20.811 2.21727 20.9344 1.47638 20.3458C1.37427 20.2647 1.28178 20.1722 1.20067 20.0701C0.967533 19.7795 0.543002 19.7329 0.252449 19.966C0.0920795 20.0947 -0.000836791 20.2895 6.37032e-06 20.495V25.5945C6.37032e-06 25.967 0.302027 26.269 0.674535 26.269H4.3777C3.81354 27.8634 4.64877 29.6133 6.24319 30.1775C7.83761 30.7416 9.5875 29.9064 10.1517 28.312C10.3855 27.6511 10.3855 26.9299 10.1517 26.2691H13.8548C14.2273 26.2691 14.5294 25.9671 14.5294 25.5945V20.4884C14.531 20.1159 14.2302 19.8126 13.8577 19.811C13.6521 19.8101 13.4574 19.903 13.3287 20.0634C12.7401 20.7995 11.6662 20.9191 10.9301 20.3305C10.194 19.7419 10.0743 18.6681 10.663 17.9319C11.2516 17.1957 12.3255 17.0762 13.0616 17.6647ZM11.7125 22.0599C11.8082 22.0644 11.9042 22.0644 11.9999 22.0599C12.403 22.0609 12.8021 21.9806 13.1736 21.8238V24.9132H8.93751C8.565 24.9147 8.26425 25.218 8.26585 25.5905C8.26661 25.7694 8.33836 25.9407 8.46534 26.0666C9.13852 26.7316 9.14518 27.8164 8.48018 28.4895C7.81518 29.1627 6.73045 29.1694 6.05727 28.5044C5.38409 27.8394 5.37743 26.7547 6.04243 26.0815C6.04733 26.0765 6.0523 26.0715 6.05727 26.0666C6.32177 25.8043 6.32354 25.3772 6.06124 25.1127C5.93527 24.9857 5.76402 24.9139 5.58519 24.9132H1.34906V21.8238C1.72056 21.9804 2.11963 22.0607 2.52274 22.0599C4.21219 21.9806 5.5174 20.5467 5.43806 18.8573C5.36394 17.279 4.10114 16.0161 2.52274 15.942C2.11963 15.9412 1.72056 16.0216 1.34906 16.178V13.0887H5.77397C6.1464 13.0793 6.44058 12.7696 6.43113 12.3973C6.42607 12.1987 6.33375 12.0123 6.17869 11.888C5.4378 11.2994 5.31437 10.2217 5.90298 9.48082C6.49159 8.73993 7.56931 8.61649 8.3102 9.2051C9.05109 9.79371 9.17452 10.8714 8.58591 11.6123C8.5048 11.7144 8.41231 11.8069 8.3102 11.888C8.01965 12.1212 7.97302 12.5457 8.20615 12.8363C8.33482 12.9966 8.52959 13.0895 8.73515 13.0887H13.1601L13.1736 16.178C12.8021 16.0213 12.403 15.941 11.9999 15.942C10.3104 15.8626 8.87655 17.1678 8.79721 18.8573C8.71787 20.5467 10.0231 21.9806 11.7125 22.0599Z" fill="#888174"/>
</g>
<g filter="url(#filter1_d)">
<path d="M35.9582 16.0364C35.6292 15.92 35.2828 15.8606 34.9339 15.861C34.5868 15.8609 34.2424 15.9203 33.9153 16.0364V12.3332C33.9153 11.9607 33.6133 11.6587 33.2408 11.6587H28.1414C27.7688 11.6616 27.4693 11.9661 27.4722 12.3386C27.4738 12.5376 27.5632 12.7257 27.7164 12.8526C28.4587 13.4393 28.5849 14.5167 27.9982 15.2591C27.4114 16.0015 26.334 16.1277 25.5916 15.5409C24.8492 14.9542 24.7231 13.8768 25.3099 13.1344C25.3925 13.0298 25.4871 12.9352 25.5916 12.8526C25.8822 12.6194 25.9288 12.1949 25.6957 11.9044C25.567 11.744 25.3722 11.6511 25.1667 11.6519H20.0672C19.6947 11.6519 19.3927 11.9539 19.3927 12.3265V16.0903C19.0212 15.9338 18.6222 15.8535 18.219 15.8542C16.5296 15.9336 15.2244 17.3675 15.3037 19.0569C15.3778 20.6352 16.6406 21.898 18.219 21.9722C18.6222 21.9727 19.0212 21.8924 19.3927 21.7361V25.5C19.3927 25.8725 19.6947 26.1745 20.0672 26.1745H25.1802C25.5527 26.1744 25.8546 25.8723 25.8545 25.4998C25.8545 25.2618 25.7289 25.0414 25.5242 24.9199C24.8122 24.2966 24.7403 23.2142 25.3636 22.5022C25.9868 21.7903 27.0693 21.7183 27.7812 22.3416C28.4932 22.9649 28.5651 24.0472 27.9419 24.7593C27.8734 24.8375 27.7979 24.9094 27.7164 24.9739C27.4258 25.207 27.3792 25.6315 27.6124 25.9221C27.741 26.0825 27.9358 26.1754 28.1414 26.1745H33.2408C33.6133 26.1745 33.9153 25.8725 33.9153 25.5V21.8103C35.5097 22.3745 37.2596 21.5393 37.8238 19.9448C38.388 18.3504 37.5527 16.6005 35.9582 16.0364ZM36.125 20.1511C35.807 20.4687 35.3765 20.648 34.9271 20.6502L34.9339 20.63C34.4776 20.6311 34.0401 20.4488 33.7197 20.1241C33.4574 19.8596 33.0303 19.8578 32.7658 20.1201C32.6388 20.2461 32.567 20.4173 32.5663 20.5962V24.8322H29.4702C29.6305 24.4569 29.713 24.0531 29.713 23.645C29.6337 21.9556 28.1998 20.6504 26.5103 20.7297C24.932 20.8038 23.6691 22.0666 23.595 23.645C23.5947 24.0481 23.675 24.4471 23.8311 24.8187H20.7418V20.4141C20.7434 20.0415 20.4426 19.7383 20.0701 19.7367C19.8646 19.7358 19.6698 19.8287 19.5411 19.9891C18.9525 20.73 17.8748 20.8534 17.1339 20.2648C16.393 19.6762 16.2696 18.5985 16.8582 17.8576C17.4468 17.1167 18.5245 16.9933 19.2654 17.5819C19.3675 17.663 19.46 17.7555 19.5411 17.8576C19.7742 18.1481 20.1988 18.1948 20.4893 17.9616C20.6497 17.833 20.7426 17.6382 20.7418 17.4326V13.0077H23.8311C23.67 13.3851 23.5874 13.7913 23.5883 14.2016C23.5089 15.8911 24.8142 17.325 26.5036 17.4043C28.193 17.4836 29.6269 16.1784 29.7063 14.489C29.7107 14.3933 29.7107 14.2973 29.7063 14.2016C29.7066 13.7986 29.6263 13.3995 29.4702 13.028H32.5595V17.264C32.5611 17.6365 32.8643 17.9373 33.2369 17.9357C33.4157 17.9349 33.5871 17.8632 33.713 17.7362C34.3798 17.0701 35.4603 17.0707 36.1264 17.7376C36.7924 18.4045 36.7918 19.485 36.125 20.1511Z" fill="#476E84"/>
</g>
</g>
<defs>
<filter id="filter0_d" x="-4" y="5.64722" width="22.5294" height="30.7065" filterUnits="userSpaceOnUse" color-interpolation-filters="sRGB">
<feFlood flood-opacity="0" result="BackgroundImageFix"/>
<feColorMatrix in="SourceAlpha" type="matrix" values="0 0 0 0 0 0 0 0 0 0 0 0 0 0 0 0 0 0 127 0"/>
<feOffset dy="2"/>
<feGaussianBlur stdDeviation="2"/>
<feColorMatrix type="matrix" values="0 0 0 0 0.996078 0 0 0 0 0.905882 0 0 0 0 0.647059 0 0 0 1 0"/>
<feBlend mode="normal" in2="BackgroundImageFix" result="effect1_dropShadow"/>
<feBlend mode="normal" in="SourceGraphic" in2="effect1_dropShadow" result="shape"/>
</filter>
<filter id="filter1_d" x="11.3003" y="9.65192" width="30.6997" height="22.5226" filterUnits="userSpaceOnUse" color-interpolation-filters="sRGB">
<feFlood flood-opacity="0" result="BackgroundImageFix"/>
<feColorMatrix in="SourceAlpha" type="matrix" values="0 0 0 0 0 0 0 0 0 0 0 0 0 0 0 0 0 0 127 0"/>
<feOffset dy="2"/>
<feGaussianBlur stdDeviation="2"/>
<feColorMatrix type="matrix" values="0 0 0 0 0.360784 0 0 0 0 0.603922 0 0 0 0 0.913725 0 0 0 0.45 0"/>
<feBlend mode="normal" in2="BackgroundImageFix" result="effect1_dropShadow"/>
<feBlend mode="normal" in="SourceGraphic" in2="effect1_dropShadow" result="shape"/>
</filter>
<clipPath id="clip0">
<rect width="38" height="38" fill="white" transform="translate(0 0.000488281)"/>
</clipPath>
</defs>
</svg>
