<svg width="58" height="44" viewBox="0 0 58 44" fill="none" xmlns="http://www.w3.org/2000/svg">
<g filter="url(#filter0_d)">
<rect x="9" y="10" width="14" height="22" fill="#FFE8A5"/>
<rect x="35" y="10" width="14" height="22" fill="#FFE8A5"/>
<path fill-rule="evenodd" clip-rule="evenodd" d="M10 10C9.44772 10 9 10.4477 9 11V31C9 31.5523 9.44772 32 10 32H12C11.4477 32 11 31.5523 11 31V11C11 10.4477 11.4477 10 12 10H10Z" fill="#DFC782"/>
<path fill-rule="evenodd" clip-rule="evenodd" d="M48 10C48.5523 10 49 10.4477 49 11V31C49 31.5523 48.5523 32 48 32H46C46.5523 32 47 31.5523 47 31V11C47 10.4477 46.5523 10 46 10H48Z" fill="#DFC782"/>
<circle cx="16" cy="24" r="4" fill="white"/>
<path d="M15.9374 19.2311C13.1613 19.2311 10.9028 21.4896 10.9028 24.2656C10.9028 27.0417 13.1613 29.3002 15.9374 29.3002C18.7135 29.3002 20.9719 27.0417 20.9719 24.2656C20.9719 21.4896 18.7135 19.2311 15.9374 19.2311ZM15.9374 27.9395C13.9116 27.9395 12.2635 26.2914 12.2635 24.2656C12.2635 22.2398 13.9116 20.5918 15.9374 20.5918C17.9632 20.5918 19.6113 22.2398 19.6113 24.2656C19.6113 26.2914 17.9632 27.9395 15.9374 27.9395Z" fill="#5D5342"/>
<circle cx="42" cy="24" r="4" fill="white"/>
<rect x="23" y="21" width="12" height="11" fill="#FF9559"/>
<path d="M15.9373 16.9633C17.1127 16.9633 18.069 16.007 18.069 14.8315C18.069 13.6561 17.1127 12.6998 15.9373 12.6998C14.7618 12.6998 13.8055 13.6561 13.8055 14.8315C13.8055 16.007 14.7618 16.9633 15.9373 16.9633Z" fill="#5D5342"/>
<path d="M15.9373 22.1339C14.7618 22.1339 13.8055 23.0902 13.8055 24.2656C13.8055 25.4411 14.7618 26.3974 15.9373 26.3974C17.1127 26.3974 18.069 25.4411 18.069 24.2656C18.069 23.0902 17.1127 22.1339 15.9373 22.1339Z" fill="#5D5342"/>
<path d="M47.8682 9.07126H36.257C35.0816 9.07126 34.1253 10.0276 34.1253 11.203V20.8274C33.886 20.7342 33.6261 20.6825 33.3542 20.6825H24.6458C24.3739 20.6825 24.114 20.7342 23.8747 20.8274V11.203C23.8747 10.0276 22.9184 9.07126 21.743 9.07126H10.1317C8.95629 9.07126 8 10.0276 8 11.203V30.797C8 31.9724 8.95629 32.9287 10.1317 32.9287H21.743C22.3033 32.9287 22.8135 32.7111 23.1944 32.3563C23.5753 32.7111 24.0855 32.9287 24.6458 32.9287H33.3542C33.9145 32.9287 34.4247 32.7111 34.8056 32.3563C35.1865 32.7111 35.6967 32.9287 36.257 32.9287H47.8682C49.0437 32.9287 50 31.9724 50 30.797V11.203C50 10.0276 49.0437 9.07126 47.8682 9.07126ZM21.743 31.568H10.1317C9.70658 31.568 9.36069 31.2221 9.36069 30.797V11.203C9.36069 10.7778 9.70658 10.4319 10.1317 10.4319H21.743C22.1682 10.4319 22.514 10.7778 22.514 11.203V22.8142V30.797C22.514 31.2221 22.1682 31.568 21.743 31.568ZM33.3542 31.568H32.5832V28.6199C32.5832 27.8445 31.9524 27.2138 31.1771 27.2138H26.8229C26.0476 27.2138 25.4168 27.8445 25.4168 28.6199V31.568H24.6458C24.2206 31.568 23.8747 31.2221 23.8747 30.797V22.8142C23.8747 22.3891 24.2206 22.0432 24.6458 22.0432H33.3542C33.7794 22.0432 34.1253 22.3891 34.1253 22.8142V30.797C34.1253 31.2221 33.7794 31.568 33.3542 31.568ZM48.6393 30.797C48.6393 31.2221 48.2934 31.568 47.8682 31.568H36.257C35.8318 31.568 35.486 31.2221 35.486 30.797V22.8142V11.203C35.486 10.7778 35.8318 10.4319 36.257 10.4319H47.8682C48.2934 10.4319 48.6393 10.7778 48.6393 11.203V30.797Z" fill="#5D5342"/>
<path d="M42.0626 19.2311C39.2866 19.2311 37.0281 21.4896 37.0281 24.2656C37.0281 27.0417 39.2866 29.3002 42.0626 29.3002C44.8387 29.3002 47.0972 27.0417 47.0972 24.2656C47.0972 21.4896 44.8387 19.2311 42.0626 19.2311ZM42.0626 27.9395C40.0368 27.9395 38.3888 26.2914 38.3888 24.2656C38.3888 22.2398 40.0368 20.5918 42.0626 20.5918C44.0884 20.5918 45.7365 22.2398 45.7365 24.2656C45.7365 26.2914 44.0884 27.9395 42.0626 27.9395Z" fill="#5D5342"/>
<path d="M42.0627 16.9633C43.2381 16.9633 44.1944 16.007 44.1944 14.8315C44.1944 13.6561 43.2381 12.6998 42.0627 12.6998C40.8872 12.6998 39.9309 13.6561 39.9309 14.8315C39.9309 16.007 40.8872 16.9633 42.0627 16.9633Z" fill="#5D5342"/>
<path d="M42.0627 22.1339C40.8872 22.1339 39.9309 23.0902 39.9309 24.2656C39.9309 25.4411 40.8872 26.3974 42.0627 26.3974C43.2381 26.3974 44.1944 25.4411 44.1944 24.2656C44.1944 23.0902 43.2381 22.1339 42.0627 22.1339Z" fill="#5D5342"/>
<path d="M31.1771 25.0367H26.8229C26.4472 25.0367 26.1426 25.3412 26.1426 25.717C26.1426 26.0928 26.4472 26.3974 26.8229 26.3974H31.1771C31.5529 26.3974 31.8575 26.0928 31.8575 25.717C31.8575 25.3412 31.5529 25.0367 31.1771 25.0367Z" fill="#5D5342"/>
<path d="M31.1771 22.8596H26.8229C26.4472 22.8596 26.1426 23.1641 26.1426 23.5399C26.1426 23.9158 26.4472 24.2203 26.8229 24.2203H31.1771C31.5529 24.2203 31.8575 23.9158 31.8575 23.5399C31.8575 23.1641 31.5529 22.8596 31.1771 22.8596Z" fill="#5D5342"/>
</g>
<defs>
<filter id="filter0_d" x="0" y="-5" width="58" height="58" filterUnits="userSpaceOnUse" color-interpolation-filters="sRGB">
<feFlood flood-opacity="0" result="BackgroundImageFix"/>
<feColorMatrix in="SourceAlpha" type="matrix" values="0 0 0 0 0 0 0 0 0 0 0 0 0 0 0 0 0 0 127 0"/>
<feOffset dy="3"/>
<feGaussianBlur stdDeviation="4"/>
<feColorMatrix type="matrix" values="0 0 0 0 1 0 0 0 0 0.915098 0 0 0 0 0.647059 0 0 0 1 0"/>
<feBlend mode="normal" in2="BackgroundImageFix" result="effect1_dropShadow"/>
<feBlend mode="normal" in="SourceGraphic" in2="effect1_dropShadow" result="shape"/>
</filter>
</defs>
</svg>
