<svg width="50" height="50" viewBox="0 0 50 50" fill="none" xmlns="http://www.w3.org/2000/svg">
<g filter="url(#filter0_d)">
<rect x="28" y="10" width="13" height="8" fill="#FF9459"/>
<rect x="28" y="30" width="13" height="4" fill="#FF9459"/>
<path fill-rule="evenodd" clip-rule="evenodd" d="M29 10C28.4477 10 28 10.4477 28 11V33C28 33.5523 28.4477 34 29 34H31.6667C31.1144 34 30.6667 33.5523 30.6667 33V11C30.6667 10.4477 31.1144 10 31.6667 10H29Z" fill="#DC7841"/>
<path d="M24 14C24 19.5228 20.6421 24 16.5 24C12.5 25 9 19.5228 9 14C9 10.0674 10.7025 6.66501 13.1784 5.03168C14.1796 4.37119 15.3073 4.83207 16.5 4.83207C17.5667 4.83207 18.5813 4.29688 19.5 4.83207C20.5 5.99998 24 9.89935 24 14Z" fill="#FFE8A5"/>
<rect x="28" y="18" width="13" height="12" fill="white"/>
<path d="M34.5346 23.7796C32.6861 23.7796 31.1821 25.1824 31.1821 26.9066C31.1821 27.7577 31.6841 28.2658 32.5249 28.2658C32.8957 28.2658 33.2964 28.173 33.6839 28.0833C33.9958 28.011 34.3183 27.9363 34.5346 27.9363C34.7217 27.9363 35.0278 28.0077 35.3237 28.0767C35.7227 28.1697 36.1351 28.2658 36.5212 28.2658C37.3766 28.2658 37.8874 27.7576 37.8874 26.9066C37.8873 25.1824 36.3834 23.7796 34.5346 23.7796Z" fill="#BB7249"/>
<path d="M32.5968 22.8473C32.5968 21.8802 31.92 21.0934 31.0882 21.0934C30.2564 21.0934 29.5796 21.8802 29.5796 22.8473C29.5796 23.8145 30.2563 24.6013 31.0882 24.6013C31.9201 24.6013 32.5968 23.8145 32.5968 22.8473Z" fill="#BB7249"/>
<path d="M34.6291 22.7097C35.4609 22.7097 36.1377 21.9229 36.1377 20.9558C36.1377 19.9887 35.461 19.2019 34.6291 19.2019C33.7973 19.2019 33.1206 19.9887 33.1206 20.9558C33.1206 21.9229 33.7973 22.7097 34.6291 22.7097Z" fill="#BB7249"/>
<path d="M38.1702 21.0934C37.3384 21.0934 36.6616 21.8802 36.6616 22.8473C36.6616 23.8145 37.3384 24.6013 38.1702 24.6013C39.0021 24.6013 39.6788 23.8145 39.6788 22.8473C39.6788 21.8801 39.0021 21.0934 38.1702 21.0934Z" fill="#BB7249"/>
<path d="M14.5 29C14.9 28.2 14.3333 25.6667 14 24.5H18.5V30C18.5 30.8 19.1667 34 19.5 35.5C19.3333 36.8333 18.5 39.5 16.5 39.5C14 39.5 13.5 36 13.5 34.5C13.5 33 14 30 14.5 29Z" fill="#FFE8A5"/>
<path d="M15.5 6.5C15.9 6.1 16.6667 5.66667 17 5.5H16.7718L13.5 4.5L12 6.5L10 8.5L9.5 12L8.5 14.5L9 16.5L9.5 19.5L11.5 21.5L13.5 24H18.5C18.3333 23.8333 17.8 23.4 17 23C16 22.5 15 23 15 21C15 20.5 12.1056 20.2889 13 18.5C13.5 17.5 12.5 16.5 12.5 16C12.5 15.5 11.5 15.118 11.5 14C11.5 12.5 13 12.5 13 12C13 11.5 12.5 10.5 13 9.5C13.5 8.5 14.5 9 15 8.5C15.5 8 15 7 15.5 6.5Z" fill="#D7C184"/>
<path d="M23.8025 11.6199C23.7323 11.2934 23.7429 10.9164 23.754 10.5173C23.7715 9.89475 23.7896 9.25111 23.5059 8.66054C23.1854 7.99359 22.5989 7.5737 22.0814 7.20324C21.7942 6.99757 21.5229 6.80338 21.3368 6.59655C21.1317 6.36867 20.9546 6.07683 20.7671 5.76794C20.4111 5.18143 20.043 4.57504 19.3933 4.2493C19.0589 4.08153 18.6784 4 18.2301 4C17.8753 4 17.5243 4.04958 17.1849 4.0975C16.8737 4.14142 16.5799 4.18294 16.3113 4.18294C16.0429 4.18294 15.7489 4.14142 15.4378 4.0975C15.0984 4.04958 14.7474 4 14.3926 4C13.9444 4 13.5639 4.08153 13.2295 4.24922C12.5798 4.57504 12.2117 5.18143 11.8557 5.76794C11.6682 6.07683 11.4911 6.3686 11.2861 6.59655C11.1 6.80331 10.8286 6.99757 10.5414 7.20317C10.0238 7.5737 9.43726 7.99367 9.11674 8.66068C8.83304 9.25118 8.85111 9.89482 8.86861 10.5173C8.87986 10.9165 8.89046 11.2935 8.82019 11.6199C8.7579 11.9093 8.59783 12.2289 8.42846 12.5674C8.15797 13.1076 7.85132 13.72 7.85132 14.4155C7.85132 15.111 8.15797 15.7234 8.42846 16.2637C8.5979 16.6022 8.75797 16.9219 8.82026 17.2112C8.89053 17.5377 8.87986 17.9147 8.86868 18.3138C8.85119 18.9363 8.83311 19.58 9.11682 20.1705C9.4374 20.8375 10.0239 21.2574 10.5414 21.6279C10.8286 21.8336 11.0999 22.0278 11.286 22.2344C11.491 22.4624 11.6681 22.7542 11.8557 23.0631C12.2116 23.6496 12.5797 24.256 13.2294 24.5818C13.3721 24.6534 13.5238 24.7082 13.685 24.7488C13.7266 25.7816 13.7946 28.2228 13.6841 29.068C13.5729 29.9175 13.4062 30.8069 13.245 31.667C13.0048 32.9484 12.7973 34.0552 12.7973 34.86C12.7973 37.7422 14.3408 39.9999 16.3113 39.9999C18.2817 39.9999 19.8252 37.7422 19.8252 34.86C19.8252 34.0552 19.6178 32.9484 19.3776 31.667C19.2164 30.8069 19.0497 29.9175 18.9385 29.068C18.8152 28.125 18.9128 25.3853 18.9377 24.7488C19.0988 24.7083 19.2505 24.6534 19.3932 24.5818C20.0429 24.256 20.411 23.6496 20.7669 23.0631C20.9544 22.7542 21.1316 22.4624 21.3367 22.2344C21.5227 22.0277 21.794 21.8335 22.0813 21.6278C22.5987 21.2573 23.1853 20.8374 23.5058 20.1703C23.7895 19.5798 23.7715 18.9362 23.754 18.3136C23.7427 17.9145 23.7321 17.5375 23.8024 17.211C23.8647 16.9216 24.0248 16.602 24.1942 16.2635C24.4647 15.7233 24.7713 15.1109 24.7713 14.4154C24.7713 13.7199 24.4646 13.1075 24.1942 12.5672C24.0248 12.2289 23.8648 11.9092 23.8025 11.6199ZM16.3113 38.7796C15.068 38.7796 14.0177 36.9846 14.0177 34.86C14.0177 34.1686 14.225 33.0627 14.4444 31.8919C14.6087 31.0155 14.7786 30.1093 14.8941 29.2263C15.0254 28.2231 14.9393 25.6114 14.9083 24.8015C15.0871 24.7829 15.2639 24.758 15.4377 24.7335C15.7489 24.6896 16.0428 24.6481 16.3113 24.6481C16.5798 24.6481 16.8737 24.6896 17.1848 24.7335C17.3585 24.758 17.5354 24.7829 17.7143 24.8015C17.6833 25.6113 17.5972 28.223 17.7284 29.2263C17.8439 30.1092 18.0138 31.0155 18.1781 31.8918C18.3975 33.0626 18.6048 34.1685 18.6048 34.8599C18.6049 36.9846 17.5546 38.7796 16.3113 38.7796ZM23.103 15.7173C22.907 16.1088 22.7042 16.5137 22.6094 16.9544C22.5082 17.4247 22.5214 17.8941 22.5341 18.348C22.5481 18.847 22.5614 19.3183 22.4059 19.6419C22.2207 20.0272 21.808 20.3227 21.3709 20.6356C21.0432 20.8702 20.7044 21.1128 20.4295 21.4182C20.1478 21.7314 19.9322 22.0865 19.7237 22.4299C19.4451 22.889 19.1819 23.3227 18.8462 23.491C18.6833 23.5727 18.4875 23.6107 18.2301 23.6107C17.9611 23.6107 17.667 23.5692 17.3556 23.5252C17.0164 23.4773 16.6656 23.4277 16.3113 23.4277C15.9571 23.4277 15.6063 23.4773 15.2671 23.5251C14.9557 23.5691 14.6615 23.6107 14.3925 23.6107C14.1351 23.6107 13.9393 23.5727 13.7764 23.4909C13.4407 23.3226 13.1775 22.889 12.8989 22.4299C12.6904 22.0865 12.4748 21.7313 12.1931 21.4182C11.9182 21.1127 11.5794 20.8701 11.2517 20.6356C10.8147 20.3227 10.4019 20.0272 10.2168 19.6419C10.0613 19.3183 10.0746 18.847 10.0886 18.3481C10.1014 17.8942 10.1145 17.4248 10.0133 16.9544C9.9185 16.5139 9.71574 16.1089 9.51973 15.7173C9.28938 15.2571 9.07181 14.8226 9.07181 14.4155C9.07181 14.0084 9.28938 13.5739 9.51973 13.1137C9.71581 12.7222 9.9185 12.3173 10.0133 11.8767C10.1146 11.4063 10.1014 10.9369 10.0886 10.4831C10.0746 9.98419 10.0614 9.51289 10.2169 9.18918C10.402 8.80392 10.8148 8.50838 11.2518 8.19549C11.5795 7.96093 11.9184 7.71831 12.1933 7.41282C12.4749 7.09972 12.6905 6.74458 12.899 6.40112C13.1776 5.94202 13.4409 5.50841 13.7766 5.34005C13.9395 5.25838 14.1353 5.22034 14.3927 5.22034C14.6617 5.22034 14.9559 5.26187 15.2672 5.30586C15.6064 5.35378 15.9571 5.40329 16.3114 5.40329C16.6656 5.40329 17.0164 5.35378 17.3556 5.30586C17.667 5.26187 17.9612 5.22034 18.2302 5.22034C18.4876 5.22034 18.6834 5.25838 18.8463 5.34013C19.1821 5.50848 19.4452 5.9421 19.7239 6.40112C19.9324 6.74458 20.148 7.09979 20.4296 7.41282C20.7045 7.71831 21.0434 7.96085 21.3711 8.19549C21.808 8.50838 22.2208 8.80377 22.4059 9.18904C22.5614 9.51274 22.5481 9.98397 22.5341 10.4829C22.5214 10.9368 22.5082 11.4062 22.6094 11.8766C22.7042 12.3171 22.907 12.7221 23.103 13.1137C23.3334 13.5738 23.5509 14.0085 23.5509 14.4155C23.551 14.8226 23.3334 15.2571 23.103 15.7173Z" fill="#7E7464"/>
<path d="M40.0564 9.56893H38.7399V7.65958C38.7399 6.50588 37.8013 5.56735 36.6477 5.56735H32.8931C31.7394 5.56735 30.8008 6.50595 30.8008 7.65958V9.56893H29.4843C28.3306 9.56893 27.3921 10.5075 27.3921 11.6612V32.3607C27.3921 33.5144 28.3307 34.4529 29.4843 34.4529H40.0564C41.2101 34.4529 42.1486 33.5143 42.1486 32.3607V11.6612C42.1487 10.5075 41.2101 9.56893 40.0564 9.56893ZM28.6125 18.3971H40.9283V29.2462H28.6125V18.3971ZM32.0213 7.65958C32.0213 7.17877 32.4123 6.7877 32.8931 6.7877H36.6478C37.1285 6.7877 37.5196 7.17877 37.5196 7.65958V9.56893H32.0213V7.65958H32.0213ZM29.4844 10.7893L40.0564 10.7893C40.5372 10.7893 40.9283 11.1805 40.9283 11.6612V17.1769H28.6125V11.6612C28.6125 11.1804 29.0036 10.7893 29.4844 10.7893ZM40.0564 33.2326H29.4844C29.0036 33.2326 28.6125 32.8414 28.6125 32.3607V30.4666H40.9283V32.3607C40.9283 32.8414 40.5372 33.2326 40.0564 33.2326Z" fill="#5D5342"/>
</g>
<defs>
<filter id="filter0_d" x="0" y="0" width="50" height="50" filterUnits="userSpaceOnUse" color-interpolation-filters="sRGB">
<feFlood flood-opacity="0" result="BackgroundImageFix"/>
<feColorMatrix in="SourceAlpha" type="matrix" values="0 0 0 0 0 0 0 0 0 0 0 0 0 0 0 0 0 0 127 0"/>
<feOffset dy="3"/>
<feGaussianBlur stdDeviation="3.5"/>
<feColorMatrix type="matrix" values="0 0 0 0 1 0 0 0 0 0.580392 0 0 0 0 0.34902 0 0 0 0.42 0"/>
<feBlend mode="normal" in2="BackgroundImageFix" result="effect1_dropShadow"/>
<feBlend mode="normal" in="SourceGraphic" in2="effect1_dropShadow" result="shape"/>
</filter>
</defs>
</svg>
