<svg width="25" height="23" viewBox="0 0 25 23" fill="none" xmlns="http://www.w3.org/2000/svg">
<path fill-rule="evenodd" clip-rule="evenodd" d="M18.2 10C18.2 14.5287 14.5287 18.2 10 18.2C5.47126 18.2 1.8 14.5287 1.8 10C1.8 5.47126 5.47126 1.8 10 1.8C14.5287 1.8 18.2 5.47126 18.2 10ZM17.1421 16.9993C15.3271 18.8511 12.7977 20 10 20C4.47715 20 0 15.5228 0 10C0 4.47715 4.47715 0 10 0C15.5228 0 20 4.47715 20 10C20 12.0773 19.3666 14.0066 18.2825 15.6054L24.508 21.0527C24.8821 21.38 24.92 21.9486 24.5927 22.3227C24.2653 22.6968 23.6968 22.7347 23.3227 22.4073L17.1421 16.9993Z" fill="#2A2A29"/>
</svg>
