<svg width="20" height="20" viewBox="0 0 20 20" fill="none" xmlns="http://www.w3.org/2000/svg">
<path d="M7.82634 12.0579C7.93709 12.1686 8.08215 12.2239 8.22721 12.2239C8.37236 12.2239 8.51742 12.1685 8.62817 12.0579L14.6183 6.06781C14.8397 5.84635 14.8397 5.48734 14.6183 5.26598C14.3969 5.04456 14.0378 5.04456 13.8164 5.26598L7.82634 11.256C7.60492 11.4775 7.60492 11.8364 7.82634 12.0579Z" fill="#8EA4F3"/>
<path d="M19.7434 3.61351C19.5244 2.95806 19.0395 2.24236 18.3407 1.54381C17.6366 0.839543 16.5643 0 15.455 0C14.9574 0 14.499 0.174968 14.1256 0.50657C14.1062 0.521501 14.0876 0.537803 14.0701 0.555332L11.919 2.70635H0.680955C0.367828 2.70635 0.113953 2.96023 0.113953 3.27336V19.433C0.113953 19.7461 0.367828 20 0.680955 20H16.8406C17.1537 20 17.4076 19.7461 17.4076 19.433V7.84936C17.4076 7.81401 17.4039 7.77961 17.3977 7.74607L19.2808 5.86296C19.2845 5.85922 19.2883 5.85554 19.292 5.85176C19.2921 5.85171 19.2922 5.85161 19.2923 5.85152L19.3292 5.81457C19.3466 5.79714 19.3626 5.77894 19.3773 5.7599C19.8929 5.18151 20.0196 4.44053 19.7434 3.61351ZM7.71694 15.3524L3.7164 16.507L4.62479 12.2603L7.71694 15.3524ZM8.75413 14.7858L5.09876 11.1305L13.6272 2.60188L17.2826 6.25731L8.75413 14.7858ZM16.2736 18.866H1.24796V3.84036H10.7851L3.88291 10.7426C3.80557 10.8199 3.75222 10.918 3.72935 11.025L2.40946 17.1957C2.36774 17.3906 2.43153 17.5931 2.57734 17.7291C2.68375 17.8282 2.82238 17.8813 2.96404 17.8813C2.99433 17.8813 13.9034 17.8813 13.9034 17.8813C14.2166 17.8813 14.4704 17.6274 14.4704 17.3143C14.4704 17.0012 14.2166 16.7473 13.9034 16.7473H6.97331L8.83341 16.2104C8.9255 16.1838 9.00933 16.1344 9.07713 16.0666L16.2736 8.87015V18.866ZM18.5127 5.02511C18.5065 5.03173 18.5005 5.03849 18.4947 5.04534L18.4907 5.04935C18.4887 5.05129 18.4867 5.05323 18.4847 5.05516L18.0845 5.45537L14.4291 1.8L14.8385 1.39053C14.8456 1.38453 14.8527 1.37834 14.8595 1.37186C15.0332 1.20961 15.2224 1.13401 15.455 1.13401C16.0094 1.13401 16.769 1.57561 17.5389 2.34569C17.9606 2.76735 19.2773 4.20683 18.5127 5.02511Z" fill="#8EA4F3"/>
</svg>
