<svg width="16" height="20" viewBox="0 0 16 20" fill="none" xmlns="http://www.w3.org/2000/svg">
<path d="M4.6 2C4.6 1.2268 5.2268 0.6 6 0.6H10C10.7732 0.6 11.4 1.2268 11.4 2C11.4 2.7732 10.7732 3.4 10 3.4H6C5.2268 3.4 4.6 2.7732 4.6 2Z" stroke="#8EA4F3" stroke-width="1.2"/>
<rect x="2.6" y="3.6" width="10.8" height="15.8" rx="2.4" stroke="#8EA4F3" stroke-width="1.2"/>
<path fill-rule="evenodd" clip-rule="evenodd" d="M5.59995 7C5.93132 7 6.19995 7.26863 6.19995 7.6L6.19995 16.4C6.19995 16.7314 5.93132 17 5.59995 17C5.26858 17 4.99995 16.7314 4.99995 16.4L4.99995 7.6C4.99995 7.26863 5.26858 7 5.59995 7Z" fill="#8EA4F3"/>
<path fill-rule="evenodd" clip-rule="evenodd" d="M8.09995 7.09961C8.43132 7.09961 8.69995 7.36824 8.69995 7.69961L8.69995 16.4996C8.69995 16.831 8.43132 17.0996 8.09995 17.0996C7.76858 17.0996 7.49995 16.831 7.49995 16.4996L7.49995 7.69961C7.49995 7.36824 7.76858 7.09961 8.09995 7.09961Z" fill="#8EA4F3"/>
<path fill-rule="evenodd" clip-rule="evenodd" d="M10.6 7C10.9313 7 11.2 7.26863 11.2 7.6L11.2 16.4C11.2 16.7314 10.9313 17 10.6 17C10.2686 17 9.99995 16.7314 9.99995 16.4L9.99995 7.6C9.99995 7.26863 10.2686 7 10.6 7Z" fill="#8EA4F3"/>
<path d="M0.6 4C0.6 3.2268 1.2268 2.6 2 2.6H14C14.7732 2.6 15.4 3.2268 15.4 4C15.4 4.7732 14.7732 5.4 14 5.4H2C1.2268 5.4 0.6 4.7732 0.6 4Z" fill="white" stroke="#8EA4F3" stroke-width="1.2"/>
</svg>
