<svg width="103" height="88" viewBox="0 0 103 88" fill="none" xmlns="http://www.w3.org/2000/svg">
<g filter="url(#filter0_d)">
<path d="M41.6466 29.3165H83.5946V59.8338H41.6466V29.3165Z" fill="#6C86E3"/>
<path d="M79.7933 31.0965H86.9139V57.7147H79.7933V31.0965Z" fill="#8EA4F3"/>
<path d="M45.2067 57.241H38.0861V32.0285H45.2067V57.241Z" fill="#8EA4F3"/>
<path d="M77.7586 28.8077H88.948V31.3509C88.948 32.4745 88.0374 33.3851 86.9139 33.3851H79.7932C78.6692 33.3851 77.7586 32.4745 77.7586 31.3509V28.8077Z" fill="#9EB3FF"/>
<path d="M79.7932 55.7639H86.9139C88.0374 55.7639 88.948 56.675 88.948 57.7985V60.3418H77.7586V57.7985C77.7586 56.675 78.6692 55.7639 79.7932 55.7639Z" fill="#9EB3FF"/>
<path d="M45.2067 33.3847H38.086C36.9625 33.3847 36.0519 32.474 36.0519 31.3505V28.8073H47.2413V31.3505C47.2413 32.474 46.3307 33.3847 45.2067 33.3847Z" fill="#9EB3FF"/>
<path d="M47.2413 60.3418H36.0519V57.7985C36.0519 56.675 36.9625 55.7639 38.086 55.7639H45.2067C46.3307 55.7639 47.2413 56.675 47.2413 57.7985V60.3418Z" fill="#9EB3FF"/>
<path d="M66.0083 57.2534H58.8876V32.041H66.0083V57.2534Z" fill="#8EA4F3"/>
<path d="M66.0083 33.3974H58.8877C57.7641 33.3974 56.8535 32.4867 56.8535 31.3632V28.8199H68.043V31.3632C68.043 32.4867 67.1323 33.3974 66.0083 33.3974Z" fill="#9EB3FF"/>
<path d="M68.043 60.355H56.8535V57.8118C56.8535 56.6882 57.7641 55.7772 58.8877 55.7772H66.0083C67.1323 55.7772 68.043 56.6882 68.043 57.8118V60.355Z" fill="#9EB3FF"/>
<path d="M35.0346 23.9254H90.9827V28.2993C90.9827 28.8611 90.5272 29.3166 89.9654 29.3166H36.0519C35.4901 29.3166 35.0346 28.8611 35.0346 28.2993V23.9254Z" fill="#C1EAFF"/>
<path d="M36.0519 59.8337H89.9654C90.5272 59.8337 90.9827 60.2892 90.9827 60.851V65.937H35.0346V60.851C35.0346 60.2892 35.4901 59.8337 36.0519 59.8337Z" fill="#8574E3"/>
<path d="M33.5 18.8765L33.5 18.876C33.4998 18.6501 33.6462 18.4503 33.8613 18.3824C33.8615 18.3823 33.8618 18.3822 33.862 18.3821L61.7439 9.73018L61.7441 9.73009C62.2367 9.57695 62.7633 9.57695 63.2559 9.73009L63.2561 9.73018L91.138 18.3821C91.1382 18.3822 91.1384 18.3823 91.1387 18.3823C91.3538 18.4502 91.5002 18.6501 91.5 18.876V18.8765V24.2304C91.5 24.516 91.2683 24.7477 90.9827 24.7477H34.0173C33.7317 24.7477 33.5 24.516 33.5 24.2304L33.5 18.8765Z" fill="#8EA4F3" stroke="#8398E5"/>
<path d="M37.0688 21.1786V21.1246L62.1948 13.3255C62.3911 13.2648 62.6009 13.2648 62.7971 13.3255L87.9313 21.1246V21.1786H37.0688Z" fill="#6781DD"/>
<path d="M34.0173 63.9021H90.9827C91.5445 63.9021 92 64.3576 92 64.9194V66.954C92 67.5158 91.5445 67.9713 90.9827 67.9713H34.0173C33.4555 67.9713 33 67.5158 33 66.954V64.9194C33 64.3576 33.4555 63.9021 34.0173 63.9021Z" fill="#8EA4F3"/>
</g>
<g filter="url(#filter1_d)">
<path d="M14.2031 45.2656H48.7969C50.2869 45.2656 51.5 46.4788 51.5 47.9688V71.0312C51.5 72.5212 50.2869 73.7344 48.7969 73.7344H14.2031C12.7131 73.7344 11.5 72.5212 11.5 71.0312V47.9688C11.5 46.4788 12.7131 45.2656 14.2031 45.2656Z" fill="#C1EAFF" stroke="#A6D5ED"/>
<path d="M25.0938 57.5781H17.4062C16.6986 57.5781 16.125 57.0045 16.125 56.2969V51.1719C16.125 50.4642 16.6986 49.8906 17.4062 49.8906H25.0938C25.8014 49.8906 26.375 50.4642 26.375 51.1719V56.2969C26.375 57.0045 25.8014 57.5781 25.0938 57.5781Z" fill="#FFEC87"/>
<path d="M20.6094 65.9062H17.4062C16.6986 65.9062 16.125 65.3327 16.125 64.625V63.9844C16.125 63.2767 16.6986 62.7031 17.4062 62.7031H20.6094C21.317 62.7031 21.8906 63.2767 21.8906 63.9844V64.625C21.8906 65.3327 21.317 65.9062 20.6094 65.9062Z" fill="#85CAED"/>
<path d="M28.9375 65.9062H25.7344C25.0267 65.9062 24.4531 65.3327 24.4531 64.625V63.9844C24.4531 63.2767 25.0267 62.7031 25.7344 62.7031H28.9375C29.6452 62.7031 30.2188 63.2767 30.2188 63.9844V64.625C30.2188 65.3327 29.6452 65.9062 28.9375 65.9062Z" fill="#85CAED"/>
<path d="M37.2656 65.9062H34.0625C33.3548 65.9062 32.7812 65.3327 32.7812 64.625V63.9844C32.7812 63.2767 33.3548 62.7031 34.0625 62.7031H37.2656C37.9733 62.7031 38.5469 63.2767 38.5469 63.9844V64.625C38.5469 65.3327 37.9733 65.9062 37.2656 65.9062Z" fill="#85CAED"/>
<path d="M45.5938 65.9062H42.3906C41.683 65.9062 41.1094 65.3327 41.1094 64.625V63.9844C41.1094 63.2767 41.683 62.7031 42.3906 62.7031H45.5938C46.3014 62.7031 46.875 63.2767 46.875 63.9844V64.625C46.875 65.3327 46.3014 65.9062 45.5938 65.9062Z" fill="#85CAED"/>
<path d="M29.5781 69.75H16.7656C16.4115 69.75 16.125 69.4632 16.125 69.1094C16.125 68.7556 16.4115 68.4688 16.7656 68.4688H29.5781C29.9322 68.4688 30.2188 68.7556 30.2188 69.1094C30.2188 69.4632 29.9322 69.75 29.5781 69.75Z" fill="#85CAED"/>
<path d="M37.9062 69.75H32.1406C31.7865 69.75 31.5 69.4632 31.5 69.1094C31.5 68.7556 31.7865 68.4688 32.1406 68.4688H37.9062C38.2604 68.4688 38.5469 68.7556 38.5469 69.1094C38.5469 69.4632 38.2604 69.75 37.9062 69.75Z" fill="#85CAED"/>
<path d="M40.4688 56.297C39.765 57.0833 38.7422 57.5781 37.6039 57.5781C35.481 57.5781 33.7601 55.8572 33.7601 53.7344C33.7601 51.6115 35.481 49.8906 37.6039 49.8906C38.742 49.8906 39.7646 50.3853 40.4684 51.1713" fill="#6ACDFF"/>
<path d="M26.375 54.375H19.9688V53.0938H26.375V51.8125H19.9688V49.8906H18.6875V57.5781H19.9688V55.6562H26.375V54.375Z" fill="#E6D0A6"/>
<path d="M43.0312 57.5781C45.1541 57.5781 46.875 55.8572 46.875 53.7344C46.875 51.6115 45.1541 49.8906 43.0312 49.8906C40.9084 49.8906 39.1875 51.6115 39.1875 53.7344C39.1875 55.8572 40.9084 57.5781 43.0312 57.5781Z" fill="#8EA4F3"/>
</g>
<defs>
<filter id="filter0_d" x="22" y="0" width="81" height="81" filterUnits="userSpaceOnUse" color-interpolation-filters="sRGB">
<feFlood flood-opacity="0" result="BackgroundImageFix"/>
<feColorMatrix in="SourceAlpha" type="matrix" values="0 0 0 0 0 0 0 0 0 0 0 0 0 0 0 0 0 0 127 0"/>
<feOffset dy="2"/>
<feGaussianBlur stdDeviation="5.5"/>
<feColorMatrix type="matrix" values="0 0 0 0 0.556863 0 0 0 0 0.643137 0 0 0 0 0.952941 0 0 0 0.592 0"/>
<feBlend mode="normal" in2="BackgroundImageFix" result="effect1_dropShadow"/>
<feBlend mode="normal" in="SourceGraphic" in2="effect1_dropShadow" result="shape"/>
</filter>
<filter id="filter1_d" x="0" y="30" width="63" height="63" filterUnits="userSpaceOnUse" color-interpolation-filters="sRGB">
<feFlood flood-opacity="0" result="BackgroundImageFix"/>
<feColorMatrix in="SourceAlpha" type="matrix" values="0 0 0 0 0 0 0 0 0 0 0 0 0 0 0 0 0 0 127 0"/>
<feOffset dy="2"/>
<feGaussianBlur stdDeviation="5.5"/>
<feColorMatrix type="matrix" values="0 0 0 0 0.756863 0 0 0 0 0.917647 0 0 0 0 1 0 0 0 0.5 0"/>
<feBlend mode="normal" in2="BackgroundImageFix" result="effect1_dropShadow"/>
<feBlend mode="normal" in="SourceGraphic" in2="effect1_dropShadow" result="shape"/>
</filter>
</defs>
</svg>
