<svg width="107" height="102" viewBox="0 0 107 102" fill="none" xmlns="http://www.w3.org/2000/svg">
<g filter="url(#filter0_d)">
<path d="M59.9945 41.1294C60.3125 41.1294 60.5851 40.9023 60.6306 40.5388L61.1304 25.4095C61.3121 20.3664 65.5376 16.3683 70.581 16.55C75.6243 16.7318 79.6226 20.9571 79.4409 26.0456L78.9411 41.1749C78.9411 41.4929 79.1683 41.7655 79.5318 41.8109C79.8498 41.8109 80.1224 41.5838 80.1679 41.2203L80.6677 26.091C80.8494 20.3664 76.3513 15.5505 70.6264 15.3688C64.9015 15.1871 60.0853 19.6849 59.9036 25.4095L59.4038 40.5388C59.4038 40.8114 59.6764 41.084 59.9945 41.1294Z" fill="#CCCCEA"/>
<path d="M47.8175 85.0177L50.3164 82.11L48.2264 33.769L43.2739 35.45L47.8175 85.0177Z" fill="#859BEA"/>
<path d="M46.3181 34.9042L46.9088 73.159L43.2739 35.4494L46.3181 34.9042Z" fill="#859BEA"/>
<path d="M94.6163 35.3137L48.1812 33.769L49.2262 82.1554L96.8881 83.1095L94.6163 35.3137Z" fill="#7B8ED1"/>
<path d="M37.8218 84.4282L86.8467 87.4723L88.0281 36.9959L43.2286 35.4966L37.8218 84.4282Z" fill="#9AAEF7"/>
<path d="M86.8467 87.4709L96.8879 83.1093L94.6161 35.3135L88.028 36.9945L86.8467 87.4709Z" fill="#899CE1"/>
<path d="M56.9049 42.766C57.2229 42.766 57.4955 42.5388 57.541 42.1753L58.0408 27.0461C58.2225 22.003 62.448 18.0048 67.4914 18.1866C72.5347 18.3683 76.533 22.5936 76.3513 27.6821L75.8515 42.8114C75.8515 43.1294 76.0787 43.402 76.4422 43.4475C76.7602 43.4475 77.0328 43.2203 77.0783 42.8568L77.578 27.7276C77.7598 22.003 73.2617 17.187 67.5368 17.0053C61.8119 16.7781 56.9957 21.276 56.814 27.0006L56.3142 42.1299C56.3142 42.4934 56.5868 42.766 56.9049 42.766Z" fill="#CCCCEA"/>
</g>
<g filter="url(#filter1_d)">
<path d="M25.7269 4.73926L14.6155 18.2317H20.1712V42.0418H31.2826V18.2317H36.8383L25.7269 4.73926Z" fill="#AEDCF3"/>
</g>
<path d="M37.4124 17.7592L26.301 4.26687C26.0079 3.91104 25.4453 3.91104 25.1522 4.26687L14.0409 17.7592C13.6487 18.2355 13.9996 18.9763 14.6153 18.9763H19.4269V42.0424C19.4269 42.4533 19.7601 42.7864 20.171 42.7864H31.2823C31.6932 42.7864 32.0264 42.4533 32.0264 42.0424V38.9173C32.0264 38.5065 31.6932 38.1733 31.2823 38.1733C30.8715 38.1733 30.5383 38.5065 30.5383 38.9173V41.2984H20.9151V18.2323C20.9151 17.8214 20.582 17.4883 20.1711 17.4883H16.1921L25.7268 5.91039L35.2614 17.4883H31.2824C30.8716 17.4883 30.5384 17.8214 30.5384 18.2323V38.7304C30.5384 39.1413 30.8716 39.4745 31.2824 39.4745C31.6933 39.4745 32.0265 39.1413 32.0265 38.7304V18.9763H36.8381C37.4536 18.9763 37.8047 18.2356 37.4124 17.7592Z" fill="#80B6D1"/>
<g filter="url(#filter2_d)">
<path d="M31.2827 45.2663H20.1713C19.7604 45.2663 19.4272 45.5995 19.4272 46.0103C19.4272 46.4212 19.7604 46.7544 20.1713 46.7544H31.2826C31.6935 46.7544 32.0267 46.4212 32.0267 46.0103C32.0268 45.5994 31.6936 45.2663 31.2827 45.2663Z" fill="#80B6D1"/>
</g>
<g filter="url(#filter3_d)">
<path d="M31.2827 49.2349H20.1713C19.7604 49.2349 19.4272 49.568 19.4272 49.9789C19.4272 50.3898 19.7604 50.7229 20.1713 50.7229H31.2826C31.6935 50.7229 32.0267 50.3898 32.0267 49.9789C32.0268 49.568 31.6936 49.2349 31.2827 49.2349Z" fill="#80B6D1"/>
</g>
<g filter="url(#filter4_d)">
<path d="M31.2827 53.2018H20.1713C19.7604 53.2018 19.4272 53.5349 19.4272 53.9458C19.4272 54.3567 19.7604 54.6898 20.1713 54.6898H31.2826C31.6935 54.6898 32.0267 54.3567 32.0267 53.9458C32.0268 53.5349 31.6936 53.2018 31.2827 53.2018Z" fill="#80B6D1"/>
</g>
<g filter="url(#filter5_d)">
<path d="M56.4855 67.0358H5.79554C4.83018 67.0358 4.04761 67.8183 4.04761 68.7837V96.2512C4.04761 97.2165 4.83018 97.9991 5.79554 97.9991H56.4855C57.4508 97.9991 58.2334 97.2165 58.2334 96.2512V68.7837C58.2334 67.8183 57.4508 67.0358 56.4855 67.0358Z" fill="#80CE7B"/>
<path d="M5.79554 68.021H56.4855C56.9067 68.021 57.2482 68.3624 57.2482 68.7837V96.2512C57.2482 96.6724 56.9067 97.0139 56.4855 97.0139H5.79554C5.37429 97.0139 5.0328 96.6724 5.0328 96.2512V68.7837C5.0328 68.3625 5.37429 68.021 5.79554 68.021Z" stroke="#5FBD58" stroke-width="1.97039"/>
</g>
<path d="M54.3631 67.035H5.98291V65.058C5.98291 64.0377 6.85317 63.2342 7.87023 63.3156L54.3631 67.035Z" fill="#63AF5E"/>
<path d="M43.7195 82.5172C43.7195 89.4646 38.088 95.0961 31.1406 95.0961C24.1932 95.0961 18.5618 89.4646 18.5618 82.5172C18.5618 75.5698 24.1932 69.9384 31.1406 69.9384C38.088 69.9384 43.7195 75.5698 43.7195 82.5172Z" fill="#59A854"/>
<path d="M24.4581 93.1612C20.9206 90.9348 18.5615 87.0063 18.5615 82.5176C18.5615 78.0289 20.9206 74.1004 24.4581 71.874H14.6669C14.6814 72.0336 14.6911 72.1942 14.6911 72.3578C14.6911 75.2973 12.3079 77.6796 9.3693 77.6796C9.20577 77.6796 9.04515 77.6699 8.8855 77.6554V87.3798C9.04515 87.3653 9.20577 87.3556 9.3693 87.3556C12.3079 87.3556 14.6911 89.7379 14.6911 92.6774C14.6911 92.841 14.6814 93.0016 14.6669 93.1612H24.4581Z" fill="#EAEAD7"/>
<path d="M52.9116 77.6796C49.972 77.6796 47.5897 75.2973 47.5897 72.3578C47.5897 72.1942 47.5994 72.0336 47.6139 71.874H37.8228C41.3603 74.1004 43.7193 78.0289 43.7193 82.5176C43.7193 87.0063 41.3603 90.9348 37.8228 93.1612H47.6139C47.5994 93.0016 47.5897 92.841 47.5897 92.6774C47.5897 89.7379 49.972 87.3556 52.9116 87.3556C53.0751 87.3556 53.2357 87.3653 53.3954 87.3798V77.6554C53.2357 77.6699 53.0751 77.6796 52.9116 77.6796Z" fill="#EAEAD7"/>
<path d="M9.36969 74.7764C8.03537 74.7764 6.95068 73.6917 6.95068 72.3574C6.95068 71.023 8.03537 69.9384 9.36969 69.9384C10.704 69.9384 11.7887 71.023 11.7887 72.3574C11.7887 73.6917 10.704 74.7764 9.36969 74.7764Z" fill="#EAEAD7"/>
<path d="M52.9117 74.7764C51.5774 74.7764 50.4927 73.6917 50.4927 72.3574C50.4927 71.023 51.5774 69.9384 52.9117 69.9384C54.246 69.9384 55.3307 71.023 55.3307 72.3574C55.3307 73.6917 54.246 74.7764 52.9117 74.7764Z" fill="#EAEAD7"/>
<path d="M9.36969 95.096C8.03537 95.096 6.95068 94.0113 6.95068 92.677C6.95068 91.3427 8.03537 90.258 9.36969 90.258C10.704 90.258 11.7887 91.3427 11.7887 92.677C11.7887 94.0113 10.704 95.096 9.36969 95.096Z" fill="#EAEAD7"/>
<path d="M52.9117 95.096C51.5774 95.096 50.4927 94.0113 50.4927 92.677C50.4927 91.3427 51.5774 90.258 52.9117 90.258C54.246 90.258 55.3307 91.3427 55.3307 92.677C55.3307 94.0113 54.246 95.096 52.9117 95.096Z" fill="#EAEAD7"/>
<path d="M10.9096 59.6189C9.84757 59.449 8.8855 60.2694 8.8855 61.3449V63.3977L54.3629 67.0359H57.2657L10.9096 59.6189Z" fill="#599E54"/>
<path d="M36.5282 85.4458C37.2152 85.233 37.7203 84.5982 37.7203 83.8435V83.0017C37.7203 82.3563 37.3487 81.7989 36.8127 81.5164C36.4411 78.3485 34.3472 77.0664 30.9809 77.0664C30.8222 77.0664 30.6655 77.0722 30.5126 77.0848C27.7039 77.3159 27.7039 76.6148 27.7039 75.7699L26.4366 77.4596C26.0142 78.7269 26.2658 77.8027 25.7249 79.1225C25.4259 79.8521 25.2333 80.662 25.1434 81.5193C24.6112 81.8038 24.2415 82.3582 24.2415 83.0017V83.8435C24.2415 84.5982 24.7476 85.233 25.4336 85.4458C25.8894 87.1507 26.825 88.5141 28.4535 89.2156V90.1803C28.4535 90.4271 28.3132 90.6515 28.0926 90.7609L24.8405 92.3632C24.5589 92.5161 24.3267 92.7261 24.1196 92.9573C26.1245 94.3081 28.5406 95.0977 31.1406 95.0977C33.6438 95.0977 35.9708 94.3575 37.9302 93.0967C37.6893 92.8045 37.3864 92.5606 37.0342 92.3845L33.8615 90.7628C33.6447 90.6525 33.5083 90.43 33.5083 90.1871V89.2156C35.1368 88.5141 36.0724 87.1507 36.5282 85.4458Z" fill="#EAEAD7"/>
<defs>
<filter id="filter0_d" x="28.5283" y="7.75969" width="77.6533" height="90.6958" filterUnits="userSpaceOnUse" color-interpolation-filters="sRGB">
<feFlood flood-opacity="0" result="BackgroundImageFix"/>
<feColorMatrix in="SourceAlpha" type="matrix" values="0 0 0 0 0 0 0 0 0 0 0 0 0 0 0 0 0 0 127 0"/>
<feOffset dy="1.68973"/>
<feGaussianBlur stdDeviation="4.64675"/>
<feColorMatrix type="matrix" values="0 0 0 0 0.556863 0 0 0 0 0.643137 0 0 0 0 0.952941 0 0 0 0.592 0"/>
<feBlend mode="normal" in2="BackgroundImageFix" result="effect1_dropShadow"/>
<feBlend mode="normal" in="SourceGraphic" in2="effect1_dropShadow" result="shape"/>
</filter>
<filter id="filter1_d" x="10.3912" y="0.514939" width="30.6715" height="45.7512" filterUnits="userSpaceOnUse" color-interpolation-filters="sRGB">
<feFlood flood-opacity="0" result="BackgroundImageFix"/>
<feColorMatrix in="SourceAlpha" type="matrix" values="0 0 0 0 0 0 0 0 0 0 0 0 0 0 0 0 0 0 127 0"/>
<feOffset/>
<feGaussianBlur stdDeviation="2.11216"/>
<feColorMatrix type="matrix" values="0 0 0 0 0.22807 0 0 0 0 0.69977 0 0 0 0 0.923828 0 0 0 0.45 0"/>
<feBlend mode="normal" in2="BackgroundImageFix" result="effect1_dropShadow"/>
<feBlend mode="normal" in="SourceGraphic" in2="effect1_dropShadow" result="shape"/>
</filter>
<filter id="filter2_d" x="16.7593" y="42.5983" width="17.9354" height="6.82403" filterUnits="userSpaceOnUse" color-interpolation-filters="sRGB">
<feFlood flood-opacity="0" result="BackgroundImageFix"/>
<feColorMatrix in="SourceAlpha" type="matrix" values="0 0 0 0 0 0 0 0 0 0 0 0 0 0 0 0 0 0 127 0"/>
<feOffset/>
<feGaussianBlur stdDeviation="1.33399"/>
<feColorMatrix type="matrix" values="0 0 0 0 0.477799 0 0 0 0 0.780676 0 0 0 0 1 0 0 0 0.54 0"/>
<feBlend mode="normal" in2="BackgroundImageFix" result="effect1_dropShadow"/>
<feBlend mode="normal" in="SourceGraphic" in2="effect1_dropShadow" result="shape"/>
</filter>
<filter id="filter3_d" x="16.7593" y="46.5669" width="17.9354" height="6.82403" filterUnits="userSpaceOnUse" color-interpolation-filters="sRGB">
<feFlood flood-opacity="0" result="BackgroundImageFix"/>
<feColorMatrix in="SourceAlpha" type="matrix" values="0 0 0 0 0 0 0 0 0 0 0 0 0 0 0 0 0 0 127 0"/>
<feOffset/>
<feGaussianBlur stdDeviation="1.33399"/>
<feColorMatrix type="matrix" values="0 0 0 0 0.477799 0 0 0 0 0.780676 0 0 0 0 1 0 0 0 0.54 0"/>
<feBlend mode="normal" in2="BackgroundImageFix" result="effect1_dropShadow"/>
<feBlend mode="normal" in="SourceGraphic" in2="effect1_dropShadow" result="shape"/>
</filter>
<filter id="filter4_d" x="16.7593" y="50.5338" width="17.9354" height="6.82401" filterUnits="userSpaceOnUse" color-interpolation-filters="sRGB">
<feFlood flood-opacity="0" result="BackgroundImageFix"/>
<feColorMatrix in="SourceAlpha" type="matrix" values="0 0 0 0 0 0 0 0 0 0 0 0 0 0 0 0 0 0 127 0"/>
<feOffset/>
<feGaussianBlur stdDeviation="1.33399"/>
<feColorMatrix type="matrix" values="0 0 0 0 0.477799 0 0 0 0 0.780676 0 0 0 0 1 0 0 0 0.54 0"/>
<feBlend mode="normal" in2="BackgroundImageFix" result="effect1_dropShadow"/>
<feBlend mode="normal" in="SourceGraphic" in2="effect1_dropShadow" result="shape"/>
</filter>
<filter id="filter5_d" x="0.668152" y="63.6563" width="60.9447" height="37.7222" filterUnits="userSpaceOnUse" color-interpolation-filters="sRGB">
<feFlood flood-opacity="0" result="BackgroundImageFix"/>
<feColorMatrix in="SourceAlpha" type="matrix" values="0 0 0 0 0 0 0 0 0 0 0 0 0 0 0 0 0 0 127 0"/>
<feOffset/>
<feGaussianBlur stdDeviation="1.68973"/>
<feColorMatrix type="matrix" values="0 0 0 0 0.252067 0 0 0 0 0.687044 0 0 0 0 0.224184 0 0 0 1 0"/>
<feBlend mode="normal" in2="BackgroundImageFix" result="effect1_dropShadow"/>
<feBlend mode="normal" in="SourceGraphic" in2="effect1_dropShadow" result="shape"/>
</filter>
</defs>
</svg>
