<svg width="154" height="107" viewBox="0 0 154 107" fill="none" xmlns="http://www.w3.org/2000/svg">
<g clip-path="url(#clip0)">
<path d="M63.1329 49.7293C72.8003 49.7293 80.6373 41.8924 80.6373 32.225C80.6373 22.5576 72.8003 14.7206 63.1329 14.7206C53.4655 14.7206 45.6285 22.5576 45.6285 32.225C45.6285 41.8924 53.4655 49.7293 63.1329 49.7293Z" fill="#FDE180"/>
<path d="M63.133 45.6899C70.5694 45.6899 76.5978 39.6614 76.5978 32.225C76.5978 24.7885 70.5694 18.7601 63.133 18.7601C55.6965 18.7601 49.6681 24.7885 49.6681 32.225C49.6681 39.6614 55.6965 45.6899 63.133 45.6899Z" fill="#FCDA60"/>
<path d="M80.6375 60.5009H45.6288V68.5799H80.6375V60.5009Z" fill="#FDE180"/>
<path d="M51.0147 60.5009H45.6288V68.5799H51.0147V60.5009Z" fill="#FCDA60"/>
<path d="M80.6375 76.6589H45.6288V84.7379H80.6375V76.6589Z" fill="#FDE180"/>
<path d="M51.0147 76.6589H45.6288V84.7379H51.0147V76.6589Z" fill="#FCDA60"/>
<path d="M83.3305 68.5804H48.3218V76.6593H83.3305V68.5804Z" fill="#FDE9A0"/>
<path d="M53.7077 68.5804H48.3218V76.6593H53.7077V68.5804Z" fill="#FDE180"/>
<path d="M83.3305 52.4218H48.3218V60.5007H83.3305V52.4218Z" fill="#FDE9A0"/>
<path d="M53.7077 52.4218H48.3218V60.5007H53.7077V52.4218Z" fill="#FDE180"/>
<g filter="url(#filter0_d)">
<path d="M63.1331 50.9912C73.481 50.9912 81.8997 42.5724 81.8997 32.2245C81.8997 21.8766 73.4812 13.4577 63.1331 13.4577C52.785 13.4577 44.3665 21.8765 44.3665 32.2245C44.3665 42.5726 52.785 50.9912 63.1331 50.9912ZM63.1331 15.9824C72.089 15.9824 79.3752 23.2686 79.3752 32.2245C79.3752 41.1804 72.089 48.4666 63.1331 48.4666C54.1772 48.4666 46.891 41.1804 46.891 32.2245C46.891 23.2686 54.1772 15.9824 63.1331 15.9824Z" fill="#DBB034"/>
</g>
<path d="M63.9557 37.5429H62.5886C61.5521 37.5429 60.7088 36.697 60.7088 35.6571C60.7088 35.1838 60.3262 34.8 59.8544 34.8C59.3826 34.8 59 35.1838 59 35.6571C59 37.6421 60.6099 39.2571 62.5886 39.2571H62.6456V41.1429C62.6456 41.6162 63.0282 42 63.5 42C63.9718 42 64.3544 41.6162 64.3544 41.1429V39.2373C66.3981 39.0356 68 37.3021 68 35.2C68 32.9628 66.1858 31.1429 63.9557 31.1429H63.0443C61.7565 31.1429 60.7088 30.0919 60.7088 28.8C60.7088 27.5081 61.7565 26.4571 63.0443 26.4571H64.4114C65.4479 26.4571 66.2912 27.303 66.2912 28.3429V29.2571C66.2912 29.7304 66.6738 30.1142 67.1456 30.1142C67.6174 30.1142 68 29.7304 68 29.2571V28.3429C68 26.3579 66.3901 24.7429 64.4114 24.7429H64.3544V22.8571C64.3544 22.3838 63.9718 22 63.5 22C63.0282 22 62.6456 22.3838 62.6456 22.8571V24.7627C60.6019 24.9644 59 26.6979 59 28.8C59 31.0372 60.8142 32.8571 63.0443 32.8571H63.9557C65.2435 32.8571 66.2912 33.9081 66.2912 35.2C66.2912 36.4919 65.2435 37.5429 63.9557 37.5429Z" fill="#DBB034"/>
<g filter="url(#filter1_d)">
<path d="M83.3305 51.1595H48.3217C47.6247 51.1595 47.0595 51.7248 47.0595 52.4218V59.2385H45.6289C44.9318 59.2385 44.3666 59.8037 44.3666 60.5008V68.5798C44.3666 69.2768 44.9318 69.842 45.6289 69.842H47.0595V75.3963H45.6289C44.9318 75.3963 44.3666 75.9615 44.3666 76.6586V84.7375C44.3666 85.4346 44.9318 85.9998 45.6289 85.9998H80.6376C81.3347 85.9998 81.8999 85.4346 81.8999 84.7375V77.9208H83.3305C84.0275 77.9208 84.5927 77.3556 84.5927 76.6586V68.5796C84.5927 67.8825 84.0275 67.3173 83.3305 67.3173H81.8999V61.7631H83.3305C84.0275 61.7631 84.5927 61.1979 84.5927 60.5008V52.4218C84.5927 51.7248 84.0275 51.1595 83.3305 51.1595ZM79.3751 83.4754H46.891V77.9212H79.3751V83.4754ZM82.0682 75.3964H49.584V69.8422H82.0682V75.3964ZM79.3751 67.3175H46.891V61.7632H79.3751V67.3175ZM82.0682 59.2385H49.584V53.6843H82.0682V59.2385Z" fill="#DBB034"/>
</g>
</g>
<g filter="url(#filter2_d)">
<circle cx="30.8176" cy="74.8176" r="19.8176" fill="white"/>
</g>
<path d="M29.6705 76.9486C29.5164 76.9486 29.3776 76.8952 29.2543 76.7886C29.1464 76.6667 29.0925 76.5295 29.0925 76.3771V66.5714C29.0925 66.4038 29.1464 66.2667 29.2543 66.16C29.3776 66.0533 29.5164 66 29.6705 66H32.3295C32.499 66 32.6378 66.0533 32.7457 66.16C32.8536 66.2667 32.9075 66.4038 32.9075 66.5714V76.3771C32.9075 76.5295 32.8536 76.6667 32.7457 76.7886C32.6378 76.8952 32.499 76.9486 32.3295 76.9486H29.6705ZM29.578 83C29.4085 83 29.2697 82.9467 29.1618 82.84C29.0539 82.7333 29 82.5962 29 82.4286V79.6171C29 79.4495 29.0539 79.3124 29.1618 79.2057C29.2697 79.0838 29.4085 79.0229 29.578 79.0229H32.422C32.5761 79.0229 32.7071 79.0838 32.815 79.2057C32.9383 79.3124 33 79.4495 33 79.6171V82.4286C33 82.581 32.9461 82.7181 32.8382 82.84C32.7303 82.9467 32.5915 83 32.422 83H29.578Z" fill="#DF4D4D" stroke="#AB3939"/>
<g filter="url(#filter3_d)">
<path d="M148.033 35.0274L132.063 21.8756V28.4514L103.88 28.4514V41.6032H132.063V48.179L148.033 35.0274Z" fill="#B4E6FF"/>
</g>
<path d="M132.623 48.8589L148.593 35.7071C149.014 35.3602 149.014 34.6943 148.593 34.3474L132.623 21.1957C132.059 20.7316 131.182 21.1469 131.182 21.8757V27.5708L103.881 27.5708C103.394 27.5708 103 27.9652 103 28.4515V41.6031C103 42.0895 103.394 42.4838 103.881 42.4838H107.579C108.066 42.4838 108.46 42.0895 108.46 41.6031C108.46 41.1168 108.066 40.7225 107.579 40.7225H104.761V29.3323L132.063 29.3323C132.549 29.3323 132.943 28.9379 132.943 28.4516V23.742L146.647 35.0274L132.943 46.3129V41.6033C132.943 41.1169 132.549 40.7226 132.063 40.7226H107.801C107.314 40.7226 106.92 41.1169 106.92 41.6033C106.92 42.0896 107.314 42.4839 107.801 42.4839H131.182V48.1791C131.182 48.9076 132.059 49.3232 132.623 48.8589Z" fill="#80B6D1"/>
<g filter="url(#filter4_d)">
<path d="M99.8759 64.0274L115.846 50.8756V57.4514H144.028V70.6032H115.846V77.179L99.8759 64.0274Z" fill="#DF4D4D"/>
</g>
<path d="M115.286 77.8589L99.3159 64.7071C98.8947 64.3602 98.8947 63.6943 99.3159 63.3474L115.286 50.1957C115.849 49.7316 116.726 50.1469 116.726 50.8757V56.5708H144.028C144.514 56.5708 144.909 56.9652 144.909 57.4515V70.6031C144.909 71.0895 144.514 71.4838 144.028 71.4838H140.329C139.843 71.4838 139.448 71.0895 139.448 70.6031C139.448 70.1168 139.843 69.7225 140.329 69.7225H143.147V58.3323H115.846C115.359 58.3323 114.965 57.9379 114.965 57.4516V52.742L101.261 64.0274L114.965 75.3129V70.6033C114.965 70.1169 115.359 69.7226 115.846 69.7226H140.108C140.594 69.7226 140.988 70.1169 140.988 70.6033C140.988 71.0896 140.594 71.4839 140.108 71.4839H116.726V77.1791C116.726 77.9076 115.85 78.3232 115.286 77.8589Z" fill="#AB3939"/>
<defs>
<filter id="filter0_d" x="40.3665" y="9.4577" width="45.5333" height="45.5335" filterUnits="userSpaceOnUse" color-interpolation-filters="sRGB">
<feFlood flood-opacity="0" result="BackgroundImageFix"/>
<feColorMatrix in="SourceAlpha" type="matrix" values="0 0 0 0 0 0 0 0 0 0 0 0 0 0 0 0 0 0 127 0"/>
<feOffset/>
<feGaussianBlur stdDeviation="2"/>
<feColorMatrix type="matrix" values="0 0 0 0 0.908789 0 0 0 0 0.78193 0 0 0 0 0.342453 0 0 0 1 0"/>
<feBlend mode="normal" in2="BackgroundImageFix" result="effect1_dropShadow"/>
<feBlend mode="normal" in="SourceGraphic" in2="effect1_dropShadow" result="shape"/>
</filter>
<filter id="filter1_d" x="40.3666" y="47.1595" width="48.2262" height="42.8403" filterUnits="userSpaceOnUse" color-interpolation-filters="sRGB">
<feFlood flood-opacity="0" result="BackgroundImageFix"/>
<feColorMatrix in="SourceAlpha" type="matrix" values="0 0 0 0 0 0 0 0 0 0 0 0 0 0 0 0 0 0 127 0"/>
<feOffset/>
<feGaussianBlur stdDeviation="2"/>
<feColorMatrix type="matrix" values="0 0 0 0 0.908789 0 0 0 0 0.78193 0 0 0 0 0.342453 0 0 0 1 0"/>
<feBlend mode="normal" in2="BackgroundImageFix" result="effect1_dropShadow"/>
<feBlend mode="normal" in="SourceGraphic" in2="effect1_dropShadow" result="shape"/>
</filter>
<filter id="filter2_d" x="0.241868" y="45.3743" width="61.1515" height="61.1515" filterUnits="userSpaceOnUse" color-interpolation-filters="sRGB">
<feFlood flood-opacity="0" result="BackgroundImageFix"/>
<feColorMatrix in="SourceAlpha" type="matrix" values="0 0 0 0 0 0 0 0 0 0 0 0 0 0 0 0 0 0 127 0"/>
<feOffset dy="1.13243"/>
<feGaussianBlur stdDeviation="5.37907"/>
<feColorMatrix type="matrix" values="0 0 0 0 0.87451 0 0 0 0 0.301961 0 0 0 0 0.301961 0 0 0 0.33 0"/>
<feBlend mode="normal" in2="BackgroundImageFix" result="effect1_dropShadow"/>
<feBlend mode="normal" in="SourceGraphic" in2="effect1_dropShadow" result="shape"/>
</filter>
<filter id="filter3_d" x="98.8804" y="16.8756" width="54.1522" height="36.3034" filterUnits="userSpaceOnUse" color-interpolation-filters="sRGB">
<feFlood flood-opacity="0" result="BackgroundImageFix"/>
<feColorMatrix in="SourceAlpha" type="matrix" values="0 0 0 0 0 0 0 0 0 0 0 0 0 0 0 0 0 0 127 0"/>
<feOffset/>
<feGaussianBlur stdDeviation="2.5"/>
<feColorMatrix type="matrix" values="0 0 0 0 0.22807 0 0 0 0 0.69977 0 0 0 0 0.923828 0 0 0 0.45 0"/>
<feBlend mode="normal" in2="BackgroundImageFix" result="effect1_dropShadow"/>
<feBlend mode="normal" in="SourceGraphic" in2="effect1_dropShadow" result="shape"/>
</filter>
<filter id="filter4_d" x="94.8759" y="45.8756" width="54.1522" height="36.3034" filterUnits="userSpaceOnUse" color-interpolation-filters="sRGB">
<feFlood flood-opacity="0" result="BackgroundImageFix"/>
<feColorMatrix in="SourceAlpha" type="matrix" values="0 0 0 0 0 0 0 0 0 0 0 0 0 0 0 0 0 0 127 0"/>
<feOffset/>
<feGaussianBlur stdDeviation="2.5"/>
<feColorMatrix type="matrix" values="0 0 0 0 0.87451 0 0 0 0 0.301961 0 0 0 0 0.301961 0 0 0 0.66 0"/>
<feBlend mode="normal" in2="BackgroundImageFix" result="effect1_dropShadow"/>
<feBlend mode="normal" in="SourceGraphic" in2="effect1_dropShadow" result="shape"/>
</filter>
<clipPath id="clip0">
<rect width="86" height="86" fill="white" transform="translate(41)"/>
</clipPath>
</defs>
</svg>
