<svg width="144" height="116" viewBox="0 0 144 116" fill="none" xmlns="http://www.w3.org/2000/svg">
<g clip-path="url(#clip0)">
<path d="M61.133 49.7293C70.8004 49.7293 78.6374 41.8923 78.6374 32.2249C78.6374 22.5575 70.8004 14.7206 61.133 14.7206C51.4656 14.7206 43.6287 22.5575 43.6287 32.2249C43.6287 41.8923 51.4656 49.7293 61.133 49.7293Z" fill="#FDE180"/>
<path d="M61.1328 45.6899C68.5693 45.6899 74.5977 39.6615 74.5977 32.225C74.5977 24.7886 68.5693 18.7601 61.1328 18.7601C53.6964 18.7601 47.668 24.7886 47.668 32.225C47.668 39.6615 53.6964 45.6899 61.1328 45.6899Z" fill="#FCDA60"/>
<path d="M78.6374 60.5009H43.6287V68.5799H78.6374V60.5009Z" fill="#FDE180"/>
<path d="M49.0146 60.5009H43.6287V68.5799H49.0146V60.5009Z" fill="#FCDA60"/>
<path d="M78.6374 76.6589H43.6287V84.7378H78.6374V76.6589Z" fill="#FDE180"/>
<path d="M49.0146 76.6589H43.6287V84.7378H49.0146V76.6589Z" fill="#FCDA60"/>
<path d="M81.3305 68.5804H46.3218V76.6593H81.3305V68.5804Z" fill="#FDE9A0"/>
<path d="M51.7077 68.5804H46.3218V76.6593H51.7077V68.5804Z" fill="#FDE180"/>
<path d="M81.3305 52.4218H46.3218V60.5007H81.3305V52.4218Z" fill="#FDE9A0"/>
<path d="M51.7077 52.4218H46.3218V60.5007H51.7077V52.4218Z" fill="#FDE180"/>
<g filter="url(#filter0_d)">
<path d="M61.1331 50.9912C71.481 50.9912 79.8997 42.5724 79.8997 32.2245C79.8997 21.8766 71.4812 13.4577 61.1331 13.4577C50.785 13.4577 42.3665 21.8765 42.3665 32.2245C42.3665 42.5726 50.785 50.9912 61.1331 50.9912ZM61.1331 15.9824C70.089 15.9824 77.3752 23.2686 77.3752 32.2245C77.3752 41.1804 70.089 48.4666 61.1331 48.4666C52.1772 48.4666 44.891 41.1804 44.891 32.2245C44.891 23.2686 52.1772 15.9824 61.1331 15.9824Z" fill="#DBB034"/>
</g>
<path d="M61.9557 37.5429H60.5886C59.5521 37.5429 58.7088 36.697 58.7088 35.6571C58.7088 35.1838 58.3262 34.8 57.8544 34.8C57.3826 34.8 57 35.1838 57 35.6571C57 37.6421 58.6099 39.2571 60.5886 39.2571H60.6456V41.1429C60.6456 41.6162 61.0282 42 61.5 42C61.9718 42 62.3544 41.6162 62.3544 41.1429V39.2373C64.3981 39.0356 66 37.3021 66 35.2C66 32.9628 64.1858 31.1429 61.9557 31.1429H61.0443C59.7565 31.1429 58.7088 30.0919 58.7088 28.8C58.7088 27.5081 59.7565 26.4571 61.0443 26.4571H62.4114C63.4479 26.4571 64.2912 27.303 64.2912 28.3429V29.2571C64.2912 29.7304 64.6738 30.1142 65.1456 30.1142C65.6174 30.1142 66 29.7304 66 29.2571V28.3429C66 26.3579 64.3901 24.7429 62.4114 24.7429H62.3544V22.8571C62.3544 22.3838 61.9718 22 61.5 22C61.0282 22 60.6456 22.3838 60.6456 22.8571V24.7627C58.6019 24.9644 57 26.6979 57 28.8C57 31.0372 58.8142 32.8571 61.0443 32.8571H61.9557C63.2435 32.8571 64.2912 33.9081 64.2912 35.2C64.2912 36.4919 63.2435 37.5429 61.9557 37.5429Z" fill="#DBB034"/>
<g filter="url(#filter1_d)">
<path d="M81.3306 51.1595H46.3219C45.6248 51.1595 45.0596 51.7248 45.0596 52.4218V59.2385H43.629C42.9319 59.2385 42.3667 59.8037 42.3667 60.5008V68.5798C42.3667 69.2768 42.9319 69.842 43.629 69.842H45.0596V75.3963H43.629C42.9319 75.3963 42.3667 75.9615 42.3667 76.6586V84.7375C42.3667 85.4346 42.9319 85.9998 43.629 85.9998H78.6377C79.3348 85.9998 79.9 85.4346 79.9 84.7375V77.9208H81.3306C82.0277 77.9208 82.5929 77.3556 82.5929 76.6586V68.5796C82.5929 67.8825 82.0277 67.3173 81.3306 67.3173H79.9V61.7631H81.3306C82.0277 61.7631 82.5929 61.1979 82.5929 60.5008V52.4218C82.5929 51.7248 82.0277 51.1595 81.3306 51.1595ZM77.3753 83.4754H44.8911V77.9212H77.3753V83.4754ZM80.0683 75.3964H47.5841V69.8422H80.0683V75.3964ZM77.3753 67.3175H44.8911V61.7632H77.3753V67.3175ZM80.0683 59.2385H47.5841V53.6843H80.0683V59.2385Z" fill="#DBB034"/>
</g>
</g>
<g filter="url(#filter2_d)">
<circle cx="30.8176" cy="83.8176" r="19.8176" fill="white"/>
</g>
<path d="M40.1483 90.5466L32.3207 90.4475C31.7629 90.4406 31.2285 90.2247 30.8229 89.8422C30.416 89.459 29.8814 89.2409 29.3223 89.2338L28.2745 89.221L28.2873 80.5076L32.1965 76.8966C32.5007 76.6153 32.769 76.3031 32.9983 75.9662C33.5914 75.0947 33.9219 74.0611 33.9357 72.99C33.9391 72.7266 34.0214 72.4821 34.1595 72.2792C34.3953 71.9326 34.795 71.707 35.246 71.7127C35.8538 71.7203 36.3739 72.1497 36.4965 72.7449L36.7157 73.805C36.9654 75.0185 36.9414 76.2727 36.6439 77.4754L36.3538 78.651L41.5571 78.7222C42.3886 78.7328 43.0511 79.4265 43.0176 80.2628C42.9857 81.0686 42.2958 81.6926 41.4891 81.6823C41.4793 81.6822 41.474 81.6891 41.4725 81.696C41.4717 81.7041 41.4757 81.7126 41.4854 81.7145C41.6644 81.7565 41.8308 81.831 41.978 81.9312C42.2129 82.091 42.3997 82.3172 42.5112 82.5815C42.5881 82.7636 42.6294 82.9643 42.6267 83.1745C42.6215 83.5805 42.4533 83.9464 42.185 84.2103C41.7627 84.6262 41.2448 84.6362 41.1445 84.6361C41.1273 84.6363 41.1131 84.6502 41.113 84.6679C41.1128 84.6682 41.113 84.669 41.1133 84.6692C41.1136 84.6853 41.1271 84.699 41.1431 84.6995C41.2571 84.7423 41.3644 84.7988 41.464 84.8666C41.707 85.032 41.9018 85.2656 42.0182 85.5365C42.0967 85.72 42.1396 85.9211 42.1368 86.1298C42.1265 86.9471 41.4556 87.6015 40.6375 87.5909C40.6173 87.5909 40.597 87.5909 40.577 87.5904C40.5647 87.5913 40.5553 87.5999 40.5546 87.6099C40.5542 87.6122 40.5548 87.6154 40.556 87.6174C40.5589 87.6266 40.5684 87.6338 40.5808 87.6331C41.0124 87.7521 41.3567 88.0659 41.5282 88.4733C41.6078 88.6601 41.6499 88.8674 41.6472 89.0846C41.6367 89.9024 40.9657 90.5567 40.1483 90.5466Z" fill="#FDD7BD"/>
<path d="M27.5561 90.3869L24.2538 90.3452L19.4863 90.285C18.5 85.4999 18 83.4999 17.7992 78.9394L24.332 79.0092L27.7002 79.0516C28.088 79.0564 28.3986 79.3754 28.3935 79.7638L28.2686 89.6931C28.2635 90.0814 27.9449 90.3914 27.5561 90.3869Z" fill="#9ADD95"/>
<path d="M27.5561 90.3869L24.2538 90.3452L24.332 79.0092L27.7001 79.0516C28.088 79.0564 28.3986 79.3754 28.3935 79.7638L28.2687 89.6929C28.2635 90.0814 27.9449 90.3914 27.5561 90.3869Z" fill="#70BC6C"/>
<path d="M42.5112 82.5809L40.0617 82.3198C39.7144 82.2825 39.4469 81.9965 39.4335 81.6481L41.4724 81.6956C41.4715 81.7036 41.4755 81.7122 41.4852 81.7141C41.6642 81.7561 41.8307 81.8306 41.9778 81.9307C42.2129 82.0907 42.3995 82.3167 42.5112 82.5809Z" fill="#FAC5AA"/>
<path d="M42.0179 85.5359L39.6223 85.2797C39.2748 85.2428 39.0072 84.9571 38.9936 84.6085L41.0326 84.6558L41.1132 84.6687C41.1135 84.6848 41.1271 84.6984 41.143 84.699C41.257 84.7418 41.3643 84.7983 41.4639 84.866C41.707 85.0315 41.9017 85.2651 42.0179 85.5359Z" fill="#FAC5AA"/>
<path d="M41.5284 88.4725L39.4181 88.2472C39.0713 88.2099 38.8038 87.9242 38.7897 87.5754L40.556 87.6164C40.559 87.6257 40.5686 87.633 40.5809 87.632C41.0124 87.7512 41.3567 88.0649 41.5284 88.4725Z" fill="#FAC5AA"/>
<g filter="url(#filter3_d)">
<path d="M138.032 35.0274L122.062 21.8756V28.4514L93.8803 28.4514V41.6032L122.062 41.6032V48.179L138.032 35.0274Z" fill="#B4E6FF"/>
</g>
<path d="M122.622 48.8589L138.592 35.7071C139.013 35.3602 139.013 34.6943 138.592 34.3474L122.622 21.1957C122.059 20.7316 121.182 21.1469 121.182 21.8757V27.5708L93.8804 27.5708C93.394 27.5708 92.9997 27.9652 92.9997 28.4515V41.6031C92.9997 42.0895 93.394 42.4838 93.8804 42.4838L97.5793 42.4838C98.0656 42.4838 98.4599 42.0895 98.4599 41.6031C98.4599 41.1168 98.0656 40.7225 97.5793 40.7225L94.761 40.7225V29.3323L122.063 29.3323C122.549 29.3323 122.943 28.9379 122.943 28.4516V23.742L136.647 35.0274L122.943 46.3129V41.6033C122.943 41.1169 122.549 40.7226 122.063 40.7226H97.8005C97.3142 40.7226 96.9198 41.1169 96.9198 41.6033C96.9198 42.0896 97.3142 42.4839 97.8005 42.4839H121.182V48.1791C121.182 48.9076 122.059 49.3232 122.622 48.8589Z" fill="#80B6D1"/>
<g filter="url(#filter4_d)">
<path d="M89.8757 64.0274L105.846 50.8756V57.4514L134.028 57.4514V70.6032H105.846V77.179L89.8757 64.0274Z" fill="#80CE7B"/>
</g>
<path d="M105.286 77.8589L89.3159 64.7071C88.8947 64.3602 88.8947 63.6943 89.3159 63.3474L105.286 50.1957C105.849 49.7316 106.726 50.1469 106.726 50.8757V56.5708L134.028 56.5708C134.514 56.5708 134.909 56.9652 134.909 57.4515V70.6031C134.909 71.0895 134.514 71.4838 134.028 71.4838H130.329C129.843 71.4838 129.448 71.0895 129.448 70.6031C129.448 70.1168 129.843 69.7225 130.329 69.7225H133.147V58.3323L105.846 58.3323C105.359 58.3323 104.965 57.9379 104.965 57.4516V52.742L91.2612 64.0274L104.965 75.3129V70.6033C104.965 70.1169 105.359 69.7226 105.846 69.7226H130.108C130.594 69.7226 130.988 70.1169 130.988 70.6033C130.988 71.0896 130.594 71.4839 130.108 71.4839H106.726V77.1791C106.726 77.9076 105.85 78.3232 105.286 77.8589Z" fill="#68B564"/>
<defs>
<filter id="filter0_d" x="38.3665" y="9.4577" width="45.5333" height="45.5335" filterUnits="userSpaceOnUse" color-interpolation-filters="sRGB">
<feFlood flood-opacity="0" result="BackgroundImageFix"/>
<feColorMatrix in="SourceAlpha" type="matrix" values="0 0 0 0 0 0 0 0 0 0 0 0 0 0 0 0 0 0 127 0"/>
<feOffset/>
<feGaussianBlur stdDeviation="2"/>
<feColorMatrix type="matrix" values="0 0 0 0 0.908789 0 0 0 0 0.78193 0 0 0 0 0.342453 0 0 0 1 0"/>
<feBlend mode="normal" in2="BackgroundImageFix" result="effect1_dropShadow"/>
<feBlend mode="normal" in="SourceGraphic" in2="effect1_dropShadow" result="shape"/>
</filter>
<filter id="filter1_d" x="38.3667" y="47.1595" width="48.2262" height="42.8403" filterUnits="userSpaceOnUse" color-interpolation-filters="sRGB">
<feFlood flood-opacity="0" result="BackgroundImageFix"/>
<feColorMatrix in="SourceAlpha" type="matrix" values="0 0 0 0 0 0 0 0 0 0 0 0 0 0 0 0 0 0 127 0"/>
<feOffset/>
<feGaussianBlur stdDeviation="2"/>
<feColorMatrix type="matrix" values="0 0 0 0 0.908789 0 0 0 0 0.78193 0 0 0 0 0.342453 0 0 0 1 0"/>
<feBlend mode="normal" in2="BackgroundImageFix" result="effect1_dropShadow"/>
<feBlend mode="normal" in="SourceGraphic" in2="effect1_dropShadow" result="shape"/>
</filter>
<filter id="filter2_d" x="0.241868" y="54.3743" width="61.1515" height="61.1515" filterUnits="userSpaceOnUse" color-interpolation-filters="sRGB">
<feFlood flood-opacity="0" result="BackgroundImageFix"/>
<feColorMatrix in="SourceAlpha" type="matrix" values="0 0 0 0 0 0 0 0 0 0 0 0 0 0 0 0 0 0 127 0"/>
<feOffset dy="1.13243"/>
<feGaussianBlur stdDeviation="5.37907"/>
<feColorMatrix type="matrix" values="0 0 0 0 0.501961 0 0 0 0 0.807843 0 0 0 0 0.482353 0 0 0 0.59 0"/>
<feBlend mode="normal" in2="BackgroundImageFix" result="effect1_dropShadow"/>
<feBlend mode="normal" in="SourceGraphic" in2="effect1_dropShadow" result="shape"/>
</filter>
<filter id="filter3_d" x="88.8804" y="16.8756" width="54.1522" height="36.3034" filterUnits="userSpaceOnUse" color-interpolation-filters="sRGB">
<feFlood flood-opacity="0" result="BackgroundImageFix"/>
<feColorMatrix in="SourceAlpha" type="matrix" values="0 0 0 0 0 0 0 0 0 0 0 0 0 0 0 0 0 0 127 0"/>
<feOffset/>
<feGaussianBlur stdDeviation="2.5"/>
<feColorMatrix type="matrix" values="0 0 0 0 0.22807 0 0 0 0 0.69977 0 0 0 0 0.923828 0 0 0 0.45 0"/>
<feBlend mode="normal" in2="BackgroundImageFix" result="effect1_dropShadow"/>
<feBlend mode="normal" in="SourceGraphic" in2="effect1_dropShadow" result="shape"/>
</filter>
<filter id="filter4_d" x="84.8757" y="45.8756" width="54.1522" height="36.3034" filterUnits="userSpaceOnUse" color-interpolation-filters="sRGB">
<feFlood flood-opacity="0" result="BackgroundImageFix"/>
<feColorMatrix in="SourceAlpha" type="matrix" values="0 0 0 0 0 0 0 0 0 0 0 0 0 0 0 0 0 0 127 0"/>
<feOffset/>
<feGaussianBlur stdDeviation="2.5"/>
<feColorMatrix type="matrix" values="0 0 0 0 0.501961 0 0 0 0 0.807843 0 0 0 0 0.482353 0 0 0 1 0"/>
<feBlend mode="normal" in2="BackgroundImageFix" result="effect1_dropShadow"/>
<feBlend mode="normal" in="SourceGraphic" in2="effect1_dropShadow" result="shape"/>
</filter>
<clipPath id="clip0">
<rect width="86" height="86" fill="white" transform="translate(39)"/>
</clipPath>
</defs>
</svg>
