<svg width="14" height="14" viewBox="0 0 14 14" fill="none" xmlns="http://www.w3.org/2000/svg">
<path fill-rule="evenodd" clip-rule="evenodd" d="M1.65691 1.65633C2.04743 1.2658 2.6806 1.2658 3.07112 1.65633L12.9706 11.5558C13.3611 11.9463 13.3611 12.5795 12.9706 12.97C12.5801 13.3606 11.9469 13.3606 11.5564 12.97L1.65691 3.07054C1.26638 2.68001 1.26638 2.04685 1.65691 1.65633Z" fill="#2A2A29"/>
<path fill-rule="evenodd" clip-rule="evenodd" d="M1.65681 12.9708C1.26629 12.5803 1.26629 11.9471 1.65681 11.5566L11.5563 1.65707C11.9468 1.26655 12.58 1.26655 12.9705 1.65707C13.361 2.04759 13.361 2.68076 12.9705 3.07128L3.07103 12.9708C2.6805 13.3613 2.04734 13.3613 1.65681 12.9708Z" fill="#2A2A29"/>
</svg>
