<svg width="149" height="144" viewBox="0 0 149 144" fill="none" xmlns="http://www.w3.org/2000/svg">
<path opacity="0.38" d="M24.5319 58.4562C24.5319 56.6048 26.0328 55.1039 27.8842 55.1039H100.991C102.842 55.1039 104.343 56.6048 104.343 58.4562V77.1854H24.5319V58.4562Z" fill="#F2D57E" stroke="#746958" stroke-width="2.04427"/>
<g filter="url(#filter0_d)">
<path d="M44.8682 10.3222C44.8682 8.48742 46.3556 7 48.1904 7H121.678C123.513 7 125 8.48741 125 10.3222V94.3742C125 96.2091 123.513 97.6965 121.678 97.6965H48.1904C46.3556 97.6965 44.8682 96.2091 44.8682 94.3742V64.0178V46.5049V27.6448V10.3222Z" fill="white"/>
</g>
<circle cx="52.2377" cy="91.398" r="3.35" fill="#E0E0E0"/>
<mask id="mask0" mask-type="alpha" maskUnits="userSpaceOnUse" x="49" y="88" width="6" height="6">
<circle cx="52.2385" cy="91.2169" r="2.36445" fill="#C4C4C4"/>
</mask>
<g mask="url(#mask0)">
<circle cx="52.3201" cy="93.2556" r="1.63066" fill="white"/>
<circle cx="52.3202" cy="90.8094" r="0.978395" fill="white"/>
</g>
<path fill-rule="evenodd" clip-rule="evenodd" d="M117.962 73.9468C118.107 73.6181 118.503 73.0401 119.085 73.0401C119.694 73.0401 120.227 73.4209 120.037 74.3731C119.926 74.9284 119.474 75.5804 117.981 76.6307V76.6599C117.975 76.6551 117.968 76.6502 117.961 76.6453C117.955 76.6496 117.948 76.6538 117.942 76.6581V76.6325C116.45 75.5822 115.998 74.9302 115.887 74.3749C115.696 73.4228 116.23 73.0419 116.839 73.0419C117.419 73.0419 117.816 73.6178 117.962 73.9468Z" fill="#D2D2D2"/>
<line x1="47.0117" y1="85.4519" x2="122.856" y2="85.4519" stroke="#D9D9D9" stroke-width="0.369137"/>
<rect x="57.4951" y="89.9051" width="15.0551" height="0.971298" rx="0.485649" fill="#E5E5E5"/>
<rect x="48.7529" y="74.3645" width="58.2779" height="2.42824" rx="1.21412" fill="#E5E5E5"/>
<rect x="48.7529" y="78.2495" width="50.0218" height="2.42824" rx="1.21412" fill="#E5E5E5"/>
<rect x="115.287" y="79.2205" width="5.34214" height="0.971298" rx="0.485649" fill="#E5E5E5"/>
<rect x="57.4951" y="91.848" width="12.1412" height="0.971298" rx="0.485649" fill="#E5E5E5"/>
<rect x="46.5918" y="8.7229" width="76.6855" height="60.3145" fill="#F3F2F3"/>
<g clip-path="url(#clip0)">
<path d="M99.9461 31.0158V43.2215C98.775 42.0074 97.3448 40.8009 96.1039 39.5792L91.8946 36.3748L86.2481 41.9429L79.6343 38.7275L73.0205 42.5703V31.0158C73.0205 29.6826 74.0923 28.6108 75.4255 28.6108H97.5411C98.8743 28.637 99.9461 29.7087 99.9461 31.0158ZM87.1369 34.937C87.1369 33.7607 86.1958 32.8196 85.0194 32.8196C83.843 32.8196 82.902 33.7607 82.902 34.937C82.902 36.1134 83.843 37.0545 85.0194 37.0545C86.1958 37.0545 87.1369 36.1134 87.1369 34.937Z" fill="white"/>
<path d="M80.1826 47.9024L86.2213 41.9683L91.894 36.3741L99.9885 44.3248V44.5578C99.9885 46.405 98.4911 47.9024 96.6439 47.9024H80.1826Z" fill="#BBCAFE"/>
<path d="M85.0452 32.8198C86.2216 32.8198 87.1626 33.7609 87.1626 34.9373C87.1626 36.1136 86.2216 37.0547 85.0452 37.0547C83.8688 37.0547 82.9277 36.1136 82.9277 34.9373C82.9277 33.7609 83.8688 32.8198 85.0452 32.8198Z" fill="white"/>
<path d="M86.2481 41.943L80.1832 47.8771H75.4255C74.0923 47.8771 73.0205 46.8053 73.0205 45.4721V42.5704L79.6604 38.7276L86.2481 41.943Z" fill="#AEDCF3"/>
<path d="M85.045 37.5246C86.4828 37.5246 87.633 36.3744 87.633 34.9366C87.633 33.4989 86.4828 32.3486 85.045 32.3486C83.6073 32.3486 82.457 33.4989 82.457 34.9366C82.457 36.3744 83.6073 37.5246 85.045 37.5246ZM85.045 33.3159C85.9338 33.3159 86.6658 34.0478 86.6658 34.9366C86.6658 35.8254 85.9338 36.5574 85.045 36.5574C84.1562 36.5574 83.4243 35.8254 83.4243 34.9366C83.3981 34.0478 84.1301 33.3159 85.045 33.3159Z" fill="#F3F2F3"/>
<path d="M72.3066 43.2207L79.5914 38.8499L85.9048 41.7638L91.9754 36.4216L100.96 44.6777" stroke="#F3F2F3" stroke-width="1.33784" stroke-linecap="round" stroke-linejoin="round"/>
</g>
<g filter="url(#filter1_d)">
<path d="M8.34857 68.1979C8.15923 64.7424 10.9102 61.8365 14.371 61.8365H38.2898L53.3684 73.8994H105.087C108.713 73.8994 111.719 76.7085 111.964 80.3262L114.448 116.952C114.733 121.163 111.394 124.736 107.174 124.736H18.3487C14.4771 124.736 11.2807 121.71 11.0689 117.844L8.34857 68.1979Z" fill="#FFE9A9"/>
<path d="M52.7299 74.6975L53.0098 74.9215H53.3684H105.087C108.175 74.9215 110.736 77.3141 110.945 80.3953L113.428 117.021C113.673 120.642 110.802 123.714 107.174 123.714H18.3487C15.0199 123.714 12.2716 121.112 12.0895 117.788L9.36918 68.142C9.21192 65.272 11.4967 62.8586 14.371 62.8586H37.9312L52.7299 74.6975Z" stroke="#A89B87" stroke-width="2.04427"/>
</g>
<g filter="url(#filter2_d)">
<circle cx="117.818" cy="111.818" r="19.8176" fill="white"/>
</g>
<path d="M115.269 103.041L114.986 104.174V104.74H112.438C111.872 104.74 111.306 105.306 111.306 105.872C111.306 106.325 112.061 107.005 112.438 107.288V117.48C112.438 118.612 113.382 119.084 113.854 119.178C116.213 119.273 121.158 119.405 122.064 119.178C122.97 118.952 123.385 118.14 123.479 117.763V107.005C123.762 106.91 124.385 106.552 124.612 105.872C124.838 105.193 124.329 104.834 124.046 104.74L120.931 104.457V103.041C120.931 102.588 120.176 102.475 119.799 102.475H116.119C115.666 102.475 115.364 102.852 115.269 103.041Z" fill="#DF4D4D"/>
<path fill-rule="evenodd" clip-rule="evenodd" d="M112.136 107.417V117.545C112.136 118.144 112.356 118.706 112.739 119.109C113.121 119.514 113.652 119.743 114.208 119.744H121.986C122.542 119.743 123.073 119.514 123.454 119.109C123.838 118.706 124.057 118.144 124.057 117.545V107.417C124.82 107.215 125.313 106.478 125.211 105.696C125.109 104.914 124.443 104.329 123.654 104.329H121.55V103.815C121.552 103.383 121.381 102.968 121.075 102.663C120.77 102.358 120.354 102.188 119.922 102.191H116.272C115.84 102.188 115.424 102.358 115.118 102.663C114.812 102.968 114.641 103.383 114.644 103.815V104.329H112.539C111.75 104.329 111.084 104.914 110.982 105.696C110.88 106.478 111.374 107.215 112.136 107.417ZM121.986 118.922H114.208C113.505 118.922 112.958 118.318 112.958 117.545V107.453H123.235V117.545C123.235 118.318 122.688 118.922 121.986 118.922ZM115.466 103.815C115.463 103.601 115.547 103.395 115.699 103.244C115.851 103.093 116.057 103.01 116.272 103.014H119.922C120.136 103.01 120.343 103.093 120.494 103.244C120.646 103.395 120.73 103.601 120.728 103.815V104.329H115.466V103.815ZM112.539 105.151H123.654C124.063 105.151 124.394 105.482 124.394 105.891C124.394 106.3 124.063 106.631 123.654 106.631H112.539C112.13 106.631 111.799 106.3 111.799 105.891C111.799 105.482 112.13 105.151 112.539 105.151ZM115.26 108.961C115.26 108.734 115.444 108.55 115.671 108.55C115.898 108.55 116.082 108.734 116.082 108.961V116.731C116.082 116.957 115.898 117.142 115.671 117.142C115.444 117.142 115.26 116.957 115.26 116.731V108.961ZM120.111 108.961C120.111 108.734 120.295 108.55 120.522 108.55C120.749 108.55 120.933 108.734 120.933 108.961V116.731C120.933 116.957 120.749 117.142 120.522 117.142C120.295 117.142 120.111 116.957 120.111 116.731V108.961ZM117.686 108.961C117.686 108.734 117.87 108.55 118.097 108.55C118.324 108.55 118.508 108.734 118.508 108.961V116.731C118.508 116.957 118.324 117.142 118.097 117.142C117.87 117.142 117.686 116.957 117.686 116.731V108.961Z" fill="#752C2C"/>
<defs>
<filter id="filter0_d" x="37.8546" y="0.724674" width="94.1593" height="104.724" filterUnits="userSpaceOnUse" color-interpolation-filters="sRGB">
<feFlood flood-opacity="0" result="BackgroundImageFix"/>
<feColorMatrix in="SourceAlpha" type="matrix" values="0 0 0 0 0 0 0 0 0 0 0 0 0 0 0 0 0 0 127 0"/>
<feOffset dy="0.738274"/>
<feGaussianBlur stdDeviation="3.5068"/>
<feColorMatrix type="matrix" values="0 0 0 0 0 0 0 0 0 0 0 0 0 0 0 0 0 0 0.182 0"/>
<feBlend mode="normal" in2="BackgroundImageFix" result="effect1_dropShadow"/>
<feBlend mode="normal" in="SourceGraphic" in2="effect1_dropShadow" result="shape"/>
</filter>
<filter id="filter1_d" x="0.58415" y="54.0818" width="121.635" height="78.4088" filterUnits="userSpaceOnUse" color-interpolation-filters="sRGB">
<feFlood flood-opacity="0" result="BackgroundImageFix"/>
<feColorMatrix in="SourceAlpha" type="matrix" values="0 0 0 0 0 0 0 0 0 0 0 0 0 0 0 0 0 0 127 0"/>
<feOffset/>
<feGaussianBlur stdDeviation="3.87736"/>
<feColorMatrix type="matrix" values="0 0 0 0 0.891732 0 0 0 0 0.826222 0 0 0 0 0.635649 0 0 0 1 0"/>
<feBlend mode="normal" in2="BackgroundImageFix" result="effect1_dropShadow"/>
<feBlend mode="normal" in="SourceGraphic" in2="effect1_dropShadow" result="shape"/>
</filter>
<filter id="filter2_d" x="87.2419" y="82.3743" width="61.1515" height="61.1515" filterUnits="userSpaceOnUse" color-interpolation-filters="sRGB">
<feFlood flood-opacity="0" result="BackgroundImageFix"/>
<feColorMatrix in="SourceAlpha" type="matrix" values="0 0 0 0 0 0 0 0 0 0 0 0 0 0 0 0 0 0 127 0"/>
<feOffset dy="1.13243"/>
<feGaussianBlur stdDeviation="5.37907"/>
<feColorMatrix type="matrix" values="0 0 0 0 0.87451 0 0 0 0 0.301961 0 0 0 0 0.301961 0 0 0 0.33 0"/>
<feBlend mode="normal" in2="BackgroundImageFix" result="effect1_dropShadow"/>
<feBlend mode="normal" in="SourceGraphic" in2="effect1_dropShadow" result="shape"/>
</filter>
<clipPath id="clip0">
<rect width="29.8796" height="21.8542" fill="white" transform="translate(72.5498 28.1652)"/>
</clipPath>
</defs>
</svg>
