<svg width="26" height="24" viewBox="0 0 26 24" fill="none" xmlns="http://www.w3.org/2000/svg">
<path fill-rule="evenodd" clip-rule="evenodd" d="M3.20343 3.82959C2.35827 4.87027 1.89637 6.56798 2.3865 9.18357C2.93268 12.0983 5.18812 15.469 13.1317 21.4493C21.0506 15.4822 23.0653 12.109 23.6135 9.18357C24.1036 6.56798 23.6417 4.87027 22.7966 3.82959C21.9416 2.77682 20.5899 2.26655 19.0585 2.26655C17.6996 2.26655 16.5221 2.98523 15.5633 3.98374C14.6039 4.98278 13.9121 6.21432 13.5425 7.10424L13 8.41064L12.4575 7.10424C12.0879 6.21432 11.3961 4.98278 10.4367 3.98374C9.47786 2.98523 8.30035 2.26655 6.94149 2.26655C5.41007 2.26655 4.05842 2.77682 3.20343 3.82959Z" stroke="url(#paint0_linear)"/>
<path fill-rule="evenodd" clip-rule="evenodd" d="M1.22267 9.43192C1.87101 12.8918 4.51995 16.5303 12.5488 22.5604L13.137 23L13.7252 22.5525C21.7581 16.5138 24.1313 12.8795 24.7773 9.43192C25.3144 6.56574 24.8517 4.42622 23.6935 3.0001C22.5451 1.58608 20.8147 1 19.0585 1C17.2833 1 15.8247 1.9419 14.7344 3.07727C14.013 3.82847 13.4315 4.68518 13 5.46956C12.5685 4.68518 11.987 3.82847 11.2656 3.07727C10.1753 1.9419 8.71672 1 6.94149 1C5.18529 1 3.45488 1.58608 2.30652 3.0001C1.14833 4.42622 0.685589 6.56574 1.22267 9.43192ZM3.20343 3.82959C2.35827 4.87027 1.89637 6.56798 2.3865 9.18357C2.93268 12.0983 5.18812 15.469 13.1317 21.4493C21.0506 15.4822 23.0653 12.109 23.6135 9.18357C24.1036 6.56798 23.6417 4.87027 22.7966 3.82959C21.9416 2.77682 20.5899 2.26655 19.0585 2.26655C17.6996 2.26655 16.5221 2.98523 15.5633 3.98374C14.6039 4.98278 13.9121 6.21432 13.5425 7.10424L13 8.41064L12.4575 7.10424C12.0879 6.21432 11.3961 4.98278 10.4367 3.98374C9.47786 2.98523 8.30035 2.26655 6.94149 2.26655C5.41007 2.26655 4.05842 2.77682 3.20343 3.82959Z" stroke="url(#paint1_linear)"/>
<defs>
<linearGradient id="paint0_linear" x1="2" y1="1.5" x2="17" y2="20" gradientUnits="userSpaceOnUse">
<stop stop-color="#FF3838"/>
<stop offset="0.463542" stop-color="#FF7D8C"/>
<stop offset="1" stop-color="#FFA5D0"/>
</linearGradient>
<linearGradient id="paint1_linear" x1="2" y1="1.5" x2="17" y2="20" gradientUnits="userSpaceOnUse">
<stop stop-color="#FF3838"/>
<stop offset="0.463542" stop-color="#FF7D8C"/>
<stop offset="1" stop-color="#FFA5D0"/>
</linearGradient>
</defs>
</svg>
