<svg width="13" height="12" viewBox="0 0 13 12" fill="none" xmlns="http://www.w3.org/2000/svg">
<path fill-rule="evenodd" clip-rule="evenodd" d="M1.19353 1.54341C0.735731 2.11106 0.485536 3.03708 0.751022 4.46376C1.04687 6.05361 2.26857 7.89216 6.57133 11.1542C10.8607 7.89938 11.952 6.05944 12.249 4.46376C12.5145 3.03708 12.2643 2.11106 11.8065 1.54341C11.3434 0.969174 10.6112 0.690844 9.78169 0.690844C9.04564 0.690844 8.40782 1.08285 7.88844 1.6275C7.36877 2.17243 6.99406 2.84418 6.79388 3.32958L6.5 4.04217L6.20612 3.32958C6.00594 2.84418 5.63123 2.17243 5.11156 1.6275C4.59217 1.08285 3.95436 0.690844 3.21831 0.690844C2.38879 0.690844 1.65664 0.969174 1.19353 1.54341Z" fill="url(#paint0_linear)"/>
<path fill-rule="evenodd" clip-rule="evenodd" d="M0.120615 4.59923C0.471796 6.48642 1.90664 8.47107 6.25559 11.7602L6.5742 12L6.89281 11.7559C11.244 8.46209 12.5294 6.47974 12.8794 4.59923C13.1703 3.03586 12.9197 1.86885 12.2923 1.09096C11.6703 0.319681 10.733 0 9.78169 0C8.82011 0 8.03002 0.513761 7.43944 1.13306C7.0487 1.5428 6.73375 2.0101 6.5 2.43794C6.26625 2.0101 5.9513 1.5428 5.56056 1.13306C4.96998 0.513761 4.17989 0 3.21831 0C2.26703 0 1.32973 0.319681 0.707699 1.09096C0.0803475 1.86885 -0.170306 3.03586 0.120615 4.59923ZM1.19353 1.54341C0.735731 2.11106 0.485536 3.03708 0.751022 4.46376C1.04687 6.05361 2.26857 7.89216 6.57133 11.1542C10.8607 7.89938 11.952 6.05944 12.249 4.46376C12.5145 3.03708 12.2643 2.11106 11.8065 1.54341C11.3434 0.969174 10.6112 0.690844 9.78169 0.690844C9.04564 0.690844 8.40782 1.08285 7.88844 1.6275C7.36877 2.17243 6.99406 2.84418 6.79388 3.32958L6.5 4.04217L6.20612 3.32958C6.00594 2.84418 5.63123 2.17243 5.11156 1.6275C4.59217 1.08285 3.95436 0.690844 3.21831 0.690844C2.38879 0.690844 1.65664 0.969174 1.19353 1.54341Z" fill="url(#paint1_linear)"/>
<defs>
<linearGradient id="paint0_linear" x1="0.541666" y1="0.272728" x2="8.73509" y2="10.3078" gradientUnits="userSpaceOnUse">
<stop stop-color="#FF3838"/>
<stop offset="0.463542" stop-color="#FF7D8C"/>
<stop offset="1" stop-color="#FFA5D0"/>
</linearGradient>
<linearGradient id="paint1_linear" x1="0.541666" y1="0.272728" x2="8.73509" y2="10.3078" gradientUnits="userSpaceOnUse">
<stop stop-color="#FF3838"/>
<stop offset="0.463542" stop-color="#FF7D8C"/>
<stop offset="1" stop-color="#FFA5D0"/>
</linearGradient>
</defs>
</svg>
