<svg width="28" height="28" viewBox="0 0 28 28" fill="none" xmlns="http://www.w3.org/2000/svg">
<path d="M27.4184 13.7505L27.4185 13.7506C27.527 13.8989 27.5272 14.1007 27.4185 14.2496C27.3054 14.4042 25.7807 16.4625 23.3524 18.4774C20.9151 20.4997 17.6342 22.4231 13.9999 22.4231C10.3655 22.4231 7.08452 20.4997 4.64724 18.4774C2.21887 16.4624 0.694176 14.4041 0.581481 14.2497C0.472885 14.1008 0.47284 13.8991 0.581346 13.7501C0.694179 13.5957 2.21889 11.5375 4.64724 9.52257C7.08452 7.50025 10.3655 5.5769 13.9999 5.5769C17.6342 5.5769 20.9151 7.50025 23.3524 9.52261C25.7807 11.5376 27.3054 13.5959 27.4184 13.7505ZM1.71278 13.6817L1.45118 13.9997L1.71312 14.3174C2.44544 15.2057 4.04828 17.0089 6.18823 18.5938C8.32135 20.1737 11.0421 21.5769 13.9999 21.5769C16.9634 21.5769 19.6846 20.1746 21.8168 18.595C23.9556 17.0104 25.5555 15.2074 26.2869 14.3183L26.5485 14.0003L26.2866 13.6826C25.554 12.7938 23.9511 10.9906 21.8112 9.40579C19.6781 7.82599 16.9575 6.42305 13.9999 6.42305C11.0363 6.42305 8.31512 7.82534 6.18297 9.40498C4.04414 10.9896 2.44422 12.7926 1.71278 13.6817Z" fill="#595959" stroke="#595959"/>
<circle cx="14.0001" cy="14" r="4.26087" fill="url(#paint0_linear)"/>
<path d="M8.96143 14C8.96143 11.2223 11.2222 8.96155 13.9999 8.96155C16.7776 8.96155 19.0384 11.2223 19.0384 14C19.0384 16.7778 16.7776 19.0385 13.9999 19.0385C11.2222 19.0385 8.96143 16.7778 8.96143 14ZM9.80762 14C9.80762 16.3121 11.6877 18.1923 13.9999 18.1923C16.3121 18.1923 18.1922 16.3121 18.1922 14C18.1922 11.6879 16.312 9.80775 13.9999 9.80775C11.6878 9.80775 9.80762 11.6879 9.80762 14Z" fill="#9D9D9C" stroke="#335574"/>
<defs>
<linearGradient id="paint0_linear" x1="12" y1="11.4999" x2="14.0001" y2="18.2609" gradientUnits="userSpaceOnUse">
<stop stop-color="#45BAFF"/>
<stop offset="1" stop-color="#66FF5A"/>
</linearGradient>
</defs>
</svg>
